<svg xmlns="http://www.w3.org/2000/svg" width="320" height="240" viewBox="0 0 320 240" role="img" aria-label="ACM SIGCONF template preview" data-template-id="acm-sigconf"><rect width="320" height="240" rx="11.2" fill="#F1F4F8"/><rect x="8" y="8.4" width="304" height="223.2" rx="8" fill="#FFFFFF" stroke="#DCE3EC"/><svg x="87.6" y="17.6" width="144.81" height="204.8" viewBox="0 0 320 452.57" preserveAspectRatio="none" aria-hidden="true"><rect width="320" height="452.57" fill="#FFFFFF"/><rect x="0.5" y="0.5" width="319" height="451.57" fill="none" stroke="#0F172A1f"/><rect x="27.2" y="27.2" width="265.6" height="19.55" fill="#11182724"/><text x="36.5" y="38.79" font-size="6.81" font-family="Arial, sans-serif" font-weight="700" letter-spacing="0.5" fill="#111827">ACM</text><rect x="191.87" y="32.7" width="84.99" height="2.32" rx="1.16" fill="#0F172A66" opacity="1"/><rect x="27.2" y="52.54" width="244.35" height="6.73" rx="3.37" fill="#0F172A" opacity="0.92"/><rect x="27.2" y="61.45" width="166.16" height="4.56" rx="2.28" fill="#0F172A" opacity="0.75"/><rect x="27.2" y="49.5" width="244.35" height="19.01" fill="#1118270e"/><rect x="27.2" y="72.64" width="95.62" height="2.04" rx="1.02" fill="#111827c7" opacity="1"/><rect x="122.82" y="76.71" width="80.32" height="2.04" rx="1.02" fill="#1118277a" opacity="1"/><rect x="27.2" y="80.78" width="95.62" height="2.04" rx="1.02" fill="#1118277a" opacity="1"/><rect x="27.2" y="92.1" width="265.6" height="47.52" fill="none" stroke="#1118277a" stroke-width="0.7"/><rect x="36.5" y="98.28" width="53.12" height="5.23" rx="2.61" fill="#111827" opacity="0.9"/><rect x="36.5" y="108.26" width="247.01" height="2.14" rx="1.07" fill="#0F172A47" opacity="1"/><rect x="36.5" y="115.38" width="228.42" height="2.14" rx="1.07" fill="#0F172A47" opacity="1"/><rect x="36.5" y="122.51" width="247.01" height="2.14" rx="1.07" fill="#0F172A47" opacity="1"/><rect x="36.5" y="129.64" width="228.42" height="2.14" rx="1.07" fill="#0F172A47" opacity="1"/><rect x="27.2" y="150.93" width="76.98" height="2.55" rx="1.28" fill="#111827" opacity="0.88"/><rect x="27.2" y="159.62" width="121.68" height="2.04" rx="1.02" fill="#0F172A40" opacity="1"/><rect x="27.2" y="167.68" width="109.27" height="2.04" rx="1.02" fill="#0F172A40" opacity="1"/><rect x="27.2" y="175.73" width="121.68" height="2.04" rx="1.02" fill="#0F172A40" opacity="1"/><rect x="27.2" y="183.78" width="85.68" height="2.04" rx="1.02" fill="#0F172A40" opacity="1"/><rect x="27.2" y="191.83" width="121.68" height="2.04" rx="1.02" fill="#0F172A40" opacity="1"/><rect x="27.2" y="199.89" width="109.27" height="2.04" rx="1.02" fill="#0F172A40" opacity="1"/><rect x="27.2" y="225.17" width="62.08" height="2.55" rx="1.28" fill="#111827" opacity="0.88"/><rect x="27.2" y="233.86" width="121.68" height="2.04" rx="1.02" fill="#0F172A40" opacity="1"/><rect x="27.2" y="241.91" width="109.27" height="2.04" rx="1.02" fill="#0F172A40" opacity="1"/><rect x="27.2" y="249.96" width="121.68" height="2.04" rx="1.02" fill="#0F172A40" opacity="1"/><rect x="27.2" y="258.01" width="85.68" height="2.04" rx="1.02" fill="#0F172A40" opacity="1"/><rect x="27.2" y="266.07" width="121.68" height="2.04" rx="1.02" fill="#0F172A40" opacity="1"/><rect x="27.2" y="274.12" width="109.27" height="2.04" rx="1.02" fill="#0F172A40" opacity="1"/><rect x="168.63" y="150.93" width="76.98" height="2.55" rx="1.28" fill="#111827" opacity="0.88"/><rect x="168.63" y="159.62" width="121.68" height="2.04" rx="1.02" fill="#0F172A40" opacity="1"/><rect x="168.63" y="167.68" width="109.27" height="2.04" rx="1.02" fill="#0F172A40" opacity="1"/><rect x="168.63" y="175.73" width="121.68" height="2.04" rx="1.02" fill="#0F172A40" opacity="1"/><rect x="168.63" y="183.78" width="85.68" height="2.04" rx="1.02" fill="#0F172A40" opacity="1"/><rect x="168.63" y="191.83" width="121.68" height="2.04" rx="1.02" fill="#0F172A40" opacity="1"/><rect x="168.63" y="199.89" width="109.27" height="2.04" rx="1.02" fill="#0F172A40" opacity="1"/><rect x="168.63" y="225.17" width="62.08" height="2.55" rx="1.28" fill="#111827" opacity="0.88"/><rect x="168.63" y="233.86" width="121.68" height="2.04" rx="1.02" fill="#0F172A40" opacity="1"/><rect x="168.63" y="241.91" width="109.27" height="2.04" rx="1.02" fill="#0F172A40" opacity="1"/><rect x="168.63" y="249.96" width="121.68" height="2.04" rx="1.02" fill="#0F172A40" opacity="1"/><rect x="168.63" y="258.01" width="85.68" height="2.04" rx="1.02" fill="#0F172A40" opacity="1"/><rect x="168.63" y="266.07" width="121.68" height="2.04" rx="1.02" fill="#0F172A40" opacity="1"/><rect x="168.63" y="274.12" width="109.27" height="2.04" rx="1.02" fill="#0F172A40" opacity="1"/><rect x="43.14" y="316.01" width="233.73" height="50.98" fill="#1118271f" stroke="#11182733"/><path d="M59.07 354.75 L106.88 344.56 L154.69 348.13 L205.15 330.28 L255.62 335.38" fill="none" stroke="#111827" stroke-width="1.92"/><rect x="112.19" y="371.07" width="95.62" height="1.81" rx="0.91" fill="#0F172A47" opacity="1"/><rect x="27.2" y="435.16" width="265.6" height="0.72" fill="#0F172A38"/><rect x="27.2" y="438.78" width="84.99" height="1.72" rx="0.86" fill="#0F172A47" opacity="1"/><rect x="244.99" y="438.78" width="47.81" height="1.72" rx="0.86" fill="#111827c7" opacity="1"/><rect x="27.2" y="441.15" width="164.67" height="1.54" rx="0.77" fill="#0F172A52" opacity="1"/><text x="292.8" y="443.18" text-anchor="end" font-size="4.07" font-family="Arial, sans-serif" fill="#0F172A99">©</text></svg></svg>