<svg xmlns="http://www.w3.org/2000/svg" width="800" height="600" viewBox="0 0 800 600" role="img" aria-label="Editorial (16:9) template preview" data-template-id="beamer-editorial"><defs><linearGradient id="tp-beamer-editorial-wall-1" x1="0" y1="0" x2="0.35" y2="1"><stop offset="0" stop-color="#f8ebe4"/><stop offset="0.62" stop-color="#f6e5dc"/><stop offset="1" stop-color="#bfb6ab"/></linearGradient><linearGradient id="tp-beamer-editorial-window-2" x1="0" y1="0" x2="0" y2="1"><stop offset="0" stop-color="#FFFCF2"/><stop offset="1" stop-color="#FFEFD2"/></linearGradient><linearGradient id="tp-beamer-editorial-desk-3" x1="0" y1="0" x2="0.15" y2="1"><stop offset="0" stop-color="#e5c29b"/><stop offset="0.55" stop-color="#d8a267"/><stop offset="1" stop-color="#b58857"/></linearGradient><clipPath id="tp-beamer-editorial-grain-4"><path d="M147.26 373.46 L744.09 425.14 L632.83 511.21 L36 459.52 Z"/></clipPath><radialGradient id="tp-beamer-editorial-shadow-5" cx="0.5" cy="0.5" r="0.5"><stop offset="0" stop-color="#22160A" stop-opacity="0.26"/><stop offset="0.6" stop-color="#22160A" stop-opacity="0.13"/><stop offset="1" stop-color="#22160A" stop-opacity="0"/></radialGradient><clipPath id="tp-beamer-editorial-board-6"><path d="M208.07 101.17 L349.95 107.31 L349.95 303.76 L208.07 297.61 Z"/></clipPath><radialGradient id="tp-beamer-editorial-shadow-7" cx="0.5" cy="0.5" r="0.5"><stop offset="0" stop-color="#22160A" stop-opacity="0.24"/><stop offset="0.6" stop-color="#22160A" stop-opacity="0.12"/><stop offset="1" stop-color="#22160A" stop-opacity="0"/></radialGradient><radialGradient id="tp-beamer-editorial-shadow-8" cx="0.5" cy="0.5" r="0.5"><stop offset="0" stop-color="#22160A" stop-opacity="0.22"/><stop offset="0.6" stop-color="#22160A" stop-opacity="0.11"/><stop offset="1" stop-color="#22160A" stop-opacity="0"/></radialGradient><radialGradient id="tp-beamer-editorial-shadow-9" cx="0.5" cy="0.5" r="0.5"><stop offset="0" stop-color="#22160A" stop-opacity="0.2"/><stop offset="0.6" stop-color="#22160A" stop-opacity="0.1"/><stop offset="1" stop-color="#22160A" stop-opacity="0"/></radialGradient><clipPath id="tp-beamer-editorial-keys-10"><path d="M387.51 421.68 L549.02 445.33 L512.89 461.85 L351.38 438.2 Z"/></clipPath><clipPath id="tp-beamer-editorial-screen-11"><path d="M407.1 295.19 L587.39 321.59 L577.43 436.99 L397.14 410.59 Z"/></clipPath><linearGradient id="tp-beamer-editorial-page-12" x1="0" y1="1" x2="1" y2="0"><stop offset="0" stop-color="#FFFFFF"/><stop offset="1" stop-color="#ececee"/></linearGradient><clipPath id="tp-beamer-editorial-sheet-13"><path d="M160.39 432.57 L252.1 444.92 L184.58 478.49 L92.87 466.14 Z"/></clipPath><linearGradient id="tp-beamer-editorial-page-14" x1="0" y1="1" x2="1" y2="0"><stop offset="0" stop-color="#FFFFFF"/><stop offset="1" stop-color="#ececee"/></linearGradient><clipPath id="tp-beamer-editorial-sheet-15"><path d="M428.28 468.06 L507.84 471.88 L490.77 495.71 L411.21 491.9 Z"/></clipPath><radialGradient id="tp-beamer-editorial-shadow-16" cx="0.5" cy="0.5" r="0.5"><stop offset="0" stop-color="#22160A" stop-opacity="0.2"/><stop offset="0.6" stop-color="#22160A" stop-opacity="0.1"/><stop offset="1" stop-color="#22160A" stop-opacity="0"/></radialGradient><clipPath id="tp-beamer-editorial-keys-17"><path d="M288 436.19 L422.74 449.23 L403.85 462.31 L269.11 449.27 Z"/></clipPath><radialGradient id="tp-beamer-editorial-shadow-18" cx="0.5" cy="0.5" r="0.5"><stop offset="0" stop-color="#22160A" stop-opacity="0.22"/><stop offset="0.6" stop-color="#22160A" stop-opacity="0.11"/><stop offset="1" stop-color="#22160A" stop-opacity="0"/></radialGradient><linearGradient id="tp-beamer-editorial-warm-19" x1="0" y1="0" x2="0.7" y2="1"><stop offset="0" stop-color="#FFF4DC" stop-opacity="0.42"/><stop offset="0.45" stop-color="#FFF4DC" stop-opacity="0.1"/><stop offset="1" stop-color="#3B2410" stop-opacity="0.14"/></linearGradient><radialGradient id="tp-beamer-editorial-vignette-20" cx="0.45" cy="0.42" r="0.8"><stop offset="0.55" stop-color="#000000" stop-opacity="0"/><stop offset="1" stop-color="#000000" stop-opacity="0.28"/></radialGradient></defs><path d="M133.06 369.77 L764 424.41 L764 42.3 L133.06 -12.34 Z" fill="url(#tp-beamer-editorial-wall-1)"/><path d="M166.59 258.53 L337.12 273.3 L337.12 74.6 L166.59 59.83 Z" fill="url(#tp-beamer-editorial-window-2)"/><rect x="250.16" y="59.83" width="3.4" height="198.7" fill="#FFFFFF" opacity="0.72"/><rect x="166.59" y="159.18" width="170.52" height="2.6" fill="#FFFFFF" opacity="0.55"/><path d="M508.21 230.31 L755.47 251.72 L745.49 259.45 L498.23 238.03 Z" fill="#c7a684"/><path d="M498.23 248.45 L745.49 269.87 L745.49 259.45 L498.23 238.03 Z" fill="#8d6a48"/><path d="M513.87 236.93 L526.23 238 L526.23 179.38 L513.87 178.31 Z" fill="#0f6864"/><path d="M526.23 238 L523.38 240.21 L523.38 181.59 L526.23 179.38 Z" fill="#0b4b48"/><path d="M531.35 238.45 L545.84 239.7 L545.84 168.06 L531.35 166.8 Z" fill="#505641"/><path d="M545.84 239.7 L542.99 241.91 L542.99 170.26 L545.84 168.06 Z" fill="#3a3e2f"/><path d="M550.96 240.15 L561.19 241.03 L561.19 182.41 L550.96 181.53 Z" fill="#1c4aca"/><path d="M561.19 241.03 L558.34 243.24 L558.34 184.62 L561.19 182.41 Z" fill="#143591"/><path d="M566.31 241.47 L578.67 242.55 L578.67 170.9 L566.31 169.83 Z" fill="#a2391a"/><path d="M578.67 242.55 L575.82 244.75 L575.82 173.11 L578.67 170.9 Z" fill="#752913"/><path d="M583.79 242.99 L598.28 244.24 L598.28 185.62 L583.79 184.37 Z" fill="#136c7a"/><path d="M598.28 244.24 L595.43 246.45 L595.43 187.83 L598.28 185.62 Z" fill="#0e4e58"/><path d="M603.4 244.69 L613.63 245.57 L613.63 173.93 L603.4 173.04 Z" fill="#451c88"/><path d="M613.63 245.57 L610.77 247.78 L610.77 176.13 L613.63 173.93 Z" fill="#321462"/><path d="M618.74 246.02 L631.11 247.09 L631.11 188.47 L618.74 187.4 Z" fill="#484b47"/><path d="M631.11 247.09 L628.25 249.29 L628.25 190.67 L631.11 188.47 Z" fill="#343633"/><path d="M636.22 247.53 L650.72 248.78 L650.72 177.14 L636.22 175.88 Z" fill="#c4401f"/><path d="M650.72 248.78 L647.86 250.99 L647.86 179.34 L650.72 177.14 Z" fill="#8d2e16"/><path d="M655.83 249.23 L666.06 250.11 L666.06 191.49 L655.83 190.61 Z" fill="#0f6864"/><path d="M666.06 250.11 L663.21 252.32 L663.21 193.7 L666.06 191.49 Z" fill="#0b4b48"/><path d="M671.18 250.56 L683.54 251.63 L683.54 179.98 L671.18 178.91 Z" fill="#505641"/><path d="M683.54 251.63 L680.69 253.83 L680.69 182.19 L683.54 179.98 Z" fill="#3a3e2f"/><path d="M688.66 252.07 L703.15 253.33 L703.15 194.71 L688.66 193.45 Z" fill="#1c4aca"/><path d="M703.15 253.33 L700.3 255.53 L700.3 196.91 L703.15 194.71 Z" fill="#143591"/><path d="M708.27 253.77 L718.5 254.65 L718.5 183.01 L708.27 182.12 Z" fill="#a2391a"/><path d="M718.5 254.65 L715.65 256.86 L715.65 185.21 L718.5 183.01 Z" fill="#752913"/><path d="M508.21 157.71 L755.47 179.12 L745.49 186.84 L498.23 165.43 Z" fill="#c7a684"/><path d="M498.23 175.85 L745.49 197.26 L745.49 186.84 L498.23 165.43 Z" fill="#8d6a48"/><path d="M523.84 160.29 L596.31 166.56 L589.18 172.08 L516.71 165.8 Z" fill="#0f6864"/><path d="M609.1 167.67 L664.52 172.47 L657.39 177.99 L601.97 173.19 Z" fill="#b35d43"/><path d="M147.26 373.46 L744.09 425.14 L632.83 511.21 L36 459.52 Z" fill="url(#tp-beamer-editorial-desk-3)"/><path d="M36 489.92 L632.83 541.6 L632.83 511.21 L36 459.52 Z" fill="#866440"/><path d="M632.83 541.6 L744.09 455.54 L744.09 425.14 L632.83 511.21 Z" fill="#9c754a"/><g clip-path="url(#tp-beamer-editorial-grain-4)"><g transform="matrix(4.26 0.37 -1.43 1.1 147.26 373.46)"><rect x="24" y="9.75" width="92" height="0.6" fill="#8A5A2B" opacity="0.13"/><rect x="6" y="19.5" width="118" height="0.6" fill="#8A5A2B" opacity="0.13"/><rect x="24" y="29.25" width="92" height="0.6" fill="#8A5A2B" opacity="0.13"/><rect x="6" y="39" width="118" height="0.6" fill="#8A5A2B" opacity="0.13"/><rect x="24" y="48.75" width="92" height="0.6" fill="#8A5A2B" opacity="0.13"/><rect x="6" y="58.5" width="118" height="0.6" fill="#8A5A2B" opacity="0.13"/><rect x="24" y="68.25" width="92" height="0.6" fill="#8A5A2B" opacity="0.13"/></g></g><path d="M213.08 394.62 L211.76 101.66 L223.7 101.22 L225.03 394.18 Z" fill="#a77647"/><path d="M321.74 404.03 L323.06 111.29 L335.01 110.86 L333.68 403.59 Z" fill="#744e2e"/><path d="M272.27 392.63 L272.27 67.21 L292.74 68.99 L292.74 394.4 Z" fill="#865e39"/><path d="M191.32 388.67 L432.78 409.58 L398.54 436.06 L157.08 415.15 Z" fill="url(#tp-beamer-editorial-shadow-5)"/><path d="M358.74 100.04 L360.66 97.05 L360.66 308.26 L358.74 311.25 Z" fill="#0F172A24"/><path d="M200.89 93.18 L357.85 99.98 L357.85 311.19 L200.89 304.39 Z" fill="#fef7f9" stroke="#0F172A24"/><g clip-path="url(#tp-beamer-editorial-board-6)"><g transform="matrix(0.44 0.02 0 0.43 208.07 101.17)"><rect width="320" height="452.41" fill="#0F172A08"/><rect x="0.5" y="0.5" width="319" height="451.41" fill="none" stroke="#0F172A24"/><rect x="11.2" y="11.2" width="297.6" height="58.81" rx="0" fill="#0F172A"/><text x="160" y="30.02" font-family="Helvetica, Arial, sans-serif" font-size="7.65" fill="#FFFFFF" font-weight="700" opacity="0.97" text-anchor="middle">Topological Photonic Crystals: Non-Abelian Braiding in</text><text x="160" y="44.14" font-family="Helvetica, Arial, sans-serif" font-size="7.65" fill="#FFFFFF" font-weight="700" opacity="0.97" text-anchor="middle">Synthetic Dimensions</text><text x="160" y="64.13" font-family="Helvetica, Arial, sans-serif" font-size="4.29" fill="#FFFFFF" opacity="0.75" text-anchor="middle">Kenji Tanaka, Elena Varga, Amir Hassan, Sophia Liu</text><rect x="11.2" y="72.01" width="297.6" height="1.81" fill="#14B8A6"/><rect x="11.2" y="78.01" width="94.84" height="116.22" fill="#FFFFFF" stroke="#0F172A14"/><rect x="11.2" y="78.01" width="5.22" height="116.22" fill="#14B8A6"/><rect x="11.2" y="78.01" width="94.84" height="23.24" fill="#14B8A614"/><text x="21.63" y="93.7" font-family="Helvetica, Arial, sans-serif" font-size="8.14" fill="#14B8A6" font-weight="700" opacity="0.95">Topological…</text><text x="16.89" y="116.37" font-family="Helvetica, Arial, sans-serif" font-size="6.74" fill="#0F172A9e">Topological protection…</text><text x="16.89" y="131.48" font-family="Helvetica, Arial, sans-serif" font-size="6.74" fill="#0F172A9e">Scalability Bottleneck…</text><text x="16.89" y="146.59" font-family="Helvetica, Arial, sans-serif" font-size="6.74" fill="#0F172A9e">Synthetic Dimensions:…</text><text x="16.89" y="161.7" font-family="Helvetica, Arial, sans-serif" font-size="6.74" fill="#0F172A9e">Non-Abelian Gap:…</text><rect x="11.2" y="201.5" width="94.84" height="116.22" fill="#FFFFFF" stroke="#0F172A14"/><rect x="11.2" y="201.5" width="5.22" height="116.22" fill="#14B8A6"/><rect x="11.2" y="201.5" width="94.84" height="23.24" fill="#14B8A614"/><text x="21.63" y="217.19" font-family="Helvetica, Arial, sans-serif" font-size="8.14" fill="#14B8A6" font-weight="700" opacity="0.95">Synthetic Frequenc…</text><text x="16.89" y="239.86" font-family="Helvetica, Arial, sans-serif" font-size="6.74" fill="#0F172A9e">H = Σn ω_n a_n a_n +…</text><text x="16.89" y="254.96" font-family="Helvetica, Arial, sans-serif" font-size="6.74" fill="#0F172A9e">The Floquet modulation…</text><text x="16.89" y="270.07" font-family="Helvetica, Arial, sans-serif" font-size="6.74" fill="#0F172A9e">Edge states exhibit…</text><rect x="11.2" y="324.99" width="94.84" height="116.22" fill="#FFFFFF" stroke="#0F172A14"/><rect x="11.2" y="324.99" width="5.22" height="116.22" fill="#14B8A6"/><rect x="11.2" y="324.99" width="94.84" height="23.24" fill="#14B8A614"/><text x="21.63" y="340.68" font-family="Helvetica, Arial, sans-serif" font-size="8.14" fill="#14B8A6" font-weight="700" opacity="0.95">Outlook</text><text x="16.89" y="363.34" font-family="Helvetica, Arial, sans-serif" font-size="6.74" fill="#0F172A9e">21-site Synthetic…</text><text x="16.89" y="378.45" font-family="Helvetica, Arial, sans-serif" font-size="6.74" fill="#0F172A9e">PT-Symmetric |…</text><rect x="112.58" y="78.01" width="94.84" height="177.97" fill="#FFFFFF" stroke="#0F172A14"/><rect x="112.58" y="78.01" width="5.22" height="177.97" fill="#14B8A6"/><rect x="112.58" y="78.01" width="94.84" height="35.59" fill="#14B8A614"/><text x="123.01" y="102.04" font-family="Helvetica, Arial, sans-serif" font-size="12.46" fill="#14B8A6" font-weight="700" opacity="0.95">Aurora Devi…</text><rect x="116.38" y="122.51" width="26.55" height="35.59" rx="3" fill="#14B8A61f"/><text x="129.65" y="146.53" font-family="Helvetica, Arial, sans-serif" font-size="9.79" fill="#14B8A6" font-weight="700" opacity="0.95" text-anchor="middle">Silicon nitride…</text><rect x="144.83" y="122.51" width="26.55" height="35.59" rx="3" fill="#14B8A61f"/><text x="158.1" y="146.53" font-family="Helvetica, Arial, sans-serif" font-size="9.79" fill="#14B8A6" font-weight="700" opacity="0.95" text-anchor="middle">1 × 10^6) with…</text><rect x="173.28" y="122.51" width="26.55" height="35.59" rx="3" fill="#14B8A61f"/><text x="186.55" y="146.53" font-family="Helvetica, Arial, sans-serif" font-size="9.79" fill="#14B8A6" font-weight="700" opacity="0.95" text-anchor="middle">Ring Geometry:…</text><text x="118.27" y="181.24" font-family="Helvetica, Arial, sans-serif" font-size="10.32" fill="#0F172A9e">Silicon nitride…</text><text x="118.27" y="204.37" font-family="Helvetica, Arial, sans-serif" font-size="10.32" fill="#0F172A9e">1 × 10^6) with…</text><text x="118.27" y="227.51" font-family="Helvetica, Arial, sans-serif" font-size="10.32" fill="#0F172A9e">Ring Geometry:…</text><rect x="112.58" y="263.25" width="94.84" height="177.97" fill="#FFFFFF" stroke="#0F172A14"/><rect x="112.58" y="263.25" width="5.22" height="177.97" fill="#14B8A6"/><rect x="112.58" y="263.25" width="94.84" height="35.59" fill="#14B8A614"/><text x="123.01" y="287.27" font-family="Helvetica, Arial, sans-serif" font-size="12.46" fill="#14B8A6" font-weight="700" opacity="0.95">Topological…</text><text x="118.27" y="321.98" font-family="Helvetica, Arial, sans-serif" font-size="10.32" fill="#0F172A9e">42 dB Isolatio…</text><text x="118.27" y="345.11" font-family="Helvetica, Arial, sans-serif" font-size="10.32" fill="#0F172A9e">0.98 Fidelity…</text><text x="118.27" y="368.25" font-family="Helvetica, Arial, sans-serif" font-size="10.32" fill="#0F172A9e">21 Sites |…</text><rect x="213.96" y="78.01" width="94.84" height="116.22" fill="#FFFFFF" stroke="#0F172A14"/><rect x="213.96" y="78.01" width="5.22" height="116.22" fill="#14B8A6"/><rect x="213.96" y="78.01" width="94.84" height="23.24" fill="#14B8A614"/><text x="224.4" y="93.7" font-family="Helvetica, Arial, sans-serif" font-size="8.14" fill="#14B8A6" font-weight="700" opacity="0.95">Benchmark vs.…</text><text x="219.65" y="116.37" font-family="Helvetica, Arial, sans-serif" font-size="6.74" fill="#0F172A9e">Aurora exceeds…</text><rect x="213.96" y="201.5" width="94.84" height="116.22" fill="#FFFFFF" stroke="#0F172A14"/><rect x="213.96" y="201.5" width="5.22" height="116.22" fill="#14B8A6"/><rect x="213.96" y="201.5" width="94.84" height="23.24" fill="#14B8A614"/><text x="224.4" y="217.19" font-family="Helvetica, Arial, sans-serif" font-size="8.14" fill="#14B8A6" font-weight="700" opacity="0.95">Non-Abelian…</text><text x="219.65" y="239.86" font-family="Helvetica, Arial, sans-serif" font-size="6.74" fill="#0F172A9e">Adiabatic encircling…</text><text x="219.65" y="254.96" font-family="Helvetica, Arial, sans-serif" font-size="6.74" fill="#0F172A9e">98 ± 0. 01 across…</text><rect x="219.65" y="294.48" width="83.45" height="32.54" rx="2" fill="#E11D482e"/></g></g><circle cx="215.41" cy="91.97" r="2.6" fill="#E11D48eb"/><circle cx="342.18" cy="102.94" r="2.6" fill="#E11D48eb"/><path d="M192.24 305.15 L355.09 319.26 L360.79 314.84 L197.94 300.74 Z" fill="#b9916c"/><path d="M192.24 315.14 L355.09 329.24 L355.09 319.26 L192.24 305.15 Z" fill="#744e2e"/><path d="M645.59 421.11 L745.35 429.75 L714.54 453.59 L614.78 444.95 Z" fill="url(#tp-beamer-editorial-shadow-7)"/><path d="M656.64 432.29 L695 435.61 L695 400.88 L656.64 397.55 Z" fill="#cb7358"/><path d="M662.41 393.08 L700.78 396.41 L689.23 405.34 L650.86 402.02 Z" fill="#a25c46"/><path d="M675.82 399.21 Q649.17 380.82 636.51 370.42 Q663.17 380.82 675.82 399.21" fill="#47503b" opacity="0.96"/><path d="M675.82 399.21 Q651.34 372.72 640.87 354.22 Q665.34 372.72 675.82 399.21" fill="#5f6a4e" opacity="0.96"/><path d="M675.82 399.21 Q657.38 365.38 652.93 339.54 Q671.38 365.38 675.82 399.21" fill="#47503b" opacity="0.96"/><path d="M675.82 399.21 Q667.08 360.25 672.35 329.28 Q681.08 360.25 675.82 399.21" fill="#5f6a4e" opacity="0.96"/><path d="M675.82 399.21 Q674.57 374.79 687.32 358.37 Q688.57 374.79 675.82 399.21" fill="#47503b" opacity="0.96"/><path d="M675.82 399.21 Q683.76 374.92 705.71 358.62 Q697.76 374.92 675.82 399.21" fill="#5f6a4e" opacity="0.96"/><path d="M675.82 399.21 Q693.79 378.66 725.75 366.11 Q707.79 378.66 675.82 399.21" fill="#47503b" opacity="0.96"/><path d="M153.46 417.33 L204.19 421.72 L187.22 434.85 L136.49 430.46 Z" fill="url(#tp-beamer-editorial-shadow-8)"/><path d="M152.02 422.94 L181.86 425.53 L181.86 398.61 L152.02 396.02 Z" fill="#86cac4"/><path d="M157.01 392.16 L186.85 394.75 L176.87 402.47 L147.03 399.88 Z" fill="#b6dfdc"/><path d="M158.49 393.96 L180.88 395.9 L175.38 400.15 L153 398.21 Z" fill="#4A2C16"/><path d="M169.91 411.46 q10 -3 10 4.5 q0 6.5 -10 3" fill="none" stroke="#86cac4" stroke-width="2.4"/><path d="M356.79 411.67 L622.81 434.71 L548.31 492.33 L282.3 469.29 Z" fill="url(#tp-beamer-editorial-shadow-9)"/><path d="M393.38 410.04 L581.19 437.54 L508.93 470.59 L321.13 443.09 Z" fill="#949aa5"/><path d="M321.13 443.09 L508.93 470.59 L508.93 476.67 L321.13 449.17 Z" fill="#565960"/><path d="M387.51 421.68 L549.02 445.33 L512.89 461.85 L351.38 438.2 Z" fill="#737881"/><g clip-path="url(#tp-beamer-editorial-keys-10)"><g transform="matrix(3.91 0.57 -2.21 1.01 387.51 421.68)"><rect x="2.88" y="0.98" width="42.24" height="1.96" rx="0.39" fill="#FFFFFF" opacity="0.22"/><rect x="2.88" y="4.24" width="42.24" height="1.96" rx="0.39" fill="#FFFFFF" opacity="0.22"/><rect x="2.88" y="7.51" width="42.24" height="1.96" rx="0.39" fill="#FFFFFF" opacity="0.22"/><rect x="2.88" y="10.77" width="42.24" height="1.96" rx="0.39" fill="#FFFFFF" opacity="0.22"/><rect x="2.88" y="14.04" width="42.24" height="1.96" rx="0.39" fill="#FFFFFF" opacity="0.22"/></g></g><path d="M425.91 442.87 L482.25 451.12 L464.91 459.05 L408.57 450.8 Z" fill="#a7acb5"/><path d="M407.53 294.86 L587.82 321.26 L577.86 436.66 L397.57 410.26 Z" fill="#0b101d"/><g clip-path="url(#tp-beamer-editorial-screen-11)"><g transform="matrix(0.56 0.08 -0.06 0.64 407.1 295.19)"><rect x="0" y="0" width="320" height="180" fill="#0F172A"/><rect x="0" y="163.8" width="320" height="16.2" fill="#E11D48"/><text x="160" y="54" font-family="Helvetica, Arial, sans-serif" font-size="20.7" fill="#FFFFFF" font-weight="700" opacity="0.97" text-anchor="middle">Aurora Topological</text><text x="160" y="79.67" font-family="Helvetica, Arial, sans-serif" font-size="20.7" fill="#FFFFFF" font-weight="700" opacity="0.97" text-anchor="middle">Photonics: Slides</text><rect x="134.4" y="111.6" width="51.2" height="3.6" fill="#E11D48"/><text x="160" y="136.8" font-family="Helvetica, Arial, sans-serif" font-size="11.16" fill="#FFFFFF" opacity="0.6" text-anchor="middle">Kenji Tanaka, Elena Varga, Amir Hassan,…</text><text x="160" y="158.4" font-family="Helvetica, Arial, sans-serif" font-size="4.91" fill="#FFFFFF" opacity="0.42" text-anchor="middle">Nature Photonics 2027 • Topological Photonics</text></g></g><path d="M162.94 436.87 L254.65 449.22 L187.13 482.79 L95.42 470.44 Z" fill="#2417082e"/><path d="M160.39 432.57 L252.1 444.92 L184.58 478.49 L92.87 466.14 Z" fill="url(#tp-beamer-editorial-page-12)" stroke="#0F172A1f"/><g clip-path="url(#tp-beamer-editorial-sheet-13)"><g transform="matrix(0.29 0.04 -0.15 0.07 160.39 432.57)"><rect width="320" height="452.57" fill="#FFFFFF"/><rect x="0.5" y="0.5" width="319" height="451.57" fill="none" stroke="#0F172A1f"/><text x="160" y="46.75" font-family="Helvetica, Arial, sans-serif" font-size="8.24" fill="#0F172A" font-weight="700" opacity="0.95" text-anchor="middle">Aurora: Paper</text><text x="160" y="61.17" font-family="Helvetica, Arial, sans-serif" font-size="2.81" fill="#111827e6" text-anchor="middle">Kenji Tanaka, Elena Varga, Amir Hassan, Sophia Liu</text><text x="160" y="65.37" font-family="Helvetica, Arial, sans-serif" font-size="2.53" fill="#0F172A80" text-anchor="middle">Nature Photonics 2027 • Topological Photonics</text><rect x="27.2" y="71.55" width="265.6" height="47.52" fill="#11182713"/><text x="36.5" y="79.63" font-family="Helvetica, Arial, sans-serif" font-size="5.46" fill="#111827" font-weight="700" opacity="0.9">Abstract</text><text x="36.5" y="88.65" font-family="Helvetica, Arial, sans-serif" font-size="4.04" fill="#0F172Aa8">We demonstrate non-Abelian braiding of photonic modes in a synthetic frequency dimension realized by a modulated</text><text x="36.5" y="96.26" font-family="Helvetica, Arial, sans-serif" font-size="4.04" fill="#0F172Aa8">silicon nitride microring. By mapping N=21 frequency modes to lattice sites with tunable coupling /2 = 180 MHz and</text><text x="36.5" y="103.86" font-family="Helvetica, Arial, sans-serif" font-size="4.04" fill="#0F172Aa8">implementing PT-symmetric gain/loss γ = 0. 25, we realize a (2+1)D Chern insulator with C=1. Adiabatic encircling of</text><text x="36.5" y="111.46" font-family="Helvetica, Arial, sans-serif" font-size="4.04" fill="#0F172Aa8">exceptional points braids degenerate edge states with fidelity 0. 98 ± 0. 01.</text><text x="27.2" y="130.38" font-family="Helvetica, Arial, sans-serif" font-size="4.75" fill="#0F172A" font-weight="700" opacity="0.9">Introduction</text><rect x="27.2" y="132.04" width="124.17" height="0.8" fill="#0F172A4d"/><text x="27.2" y="136.8" font-family="Helvetica, Arial, sans-serif" font-size="4.74" fill="#0F172Aad">Topological photonics leverages band topology to</text><text x="27.2" y="143.9" font-family="Helvetica, Arial, sans-serif" font-size="4.74" fill="#0F172Aad">achieve disorder-robust light transport . However,</text><text x="27.2" y="151.01" font-family="Helvetica, Arial, sans-serif" font-size="4.74" fill="#0F172Aad">2D implementations require large footprints and</text><text x="27.2" y="158.12" font-family="Helvetica, Arial, sans-serif" font-size="4.74" fill="#0F172Aad">precise disorder control. Synthetic dimensions</text><text x="27.2" y="165.23" font-family="Helvetica, Arial, sans-serif" font-size="4.74" fill="#0F172Aad">offer an alternative by using internal degrees of</text><text x="27.2" y="172.33" font-family="Helvetica, Arial, sans-serif" font-size="4.74" fill="#0F172Aad">freedom as lattice coordinates . Frequency</text><text x="27.2" y="179.44" font-family="Helvetica, Arial, sans-serif" font-size="4.74" fill="#0F172Aad">synthetic dimensions are particularly attractive:…</text><rect x="27.2" y="188.44" width="124.17" height="23.53" rx="2" fill="#1E40AF29"/><text x="27.2" y="218.15" font-family="Helvetica, Arial, sans-serif" font-size="4.75" fill="#0F172A" font-weight="700" opacity="0.9">Results: Braiding &amp; Isolation</text><rect x="27.2" y="219.81" width="124.17" height="0.8" fill="#0F172A4d"/><text x="27.2" y="224.57" font-family="Helvetica, Arial, sans-serif" font-size="4.74" fill="#0F172Aad">We characterize edge transport and braiding</text><text x="27.2" y="231.67" font-family="Helvetica, Arial, sans-serif" font-size="4.74" fill="#0F172Aad">fidelity:</text><text x="27.2" y="305.92" font-family="Helvetica, Arial, sans-serif" font-size="4.75" fill="#0F172A" font-weight="700" opacity="0.9">Conclusion</text><rect x="27.2" y="307.58" width="124.17" height="0.8" fill="#0F172A4d"/><text x="27.2" y="312.34" font-family="Helvetica, Arial, sans-serif" font-size="4.74" fill="#0F172Aad">We realized non-Abelian braiding in a synthetic</text><text x="27.2" y="319.44" font-family="Helvetica, Arial, sans-serif" font-size="4.74" fill="#0F172Aad">frequency dimension with 21 sites, 42 dB</text><text x="27.2" y="326.55" font-family="Helvetica, Arial, sans-serif" font-size="4.74" fill="#0F172Aad">topological isolation, and 0. 98 fidelity. The</text><text x="27.2" y="333.66" font-family="Helvetica, Arial, sans-serif" font-size="4.74" fill="#0F172Aad">single-resonator Aurora platform demonstrates that</text><text x="27.2" y="340.77" font-family="Helvetica, Arial, sans-serif" font-size="4.74" fill="#0F172Aad">synthetic dimensions can compress large-scale</text><text x="27.2" y="347.87" font-family="Helvetica, Arial, sans-serif" font-size="4.74" fill="#0F172Aad">topology into foundry-compatible footprints while</text><text x="27.2" y="354.98" font-family="Helvetica, Arial, sans-serif" font-size="4.74" fill="#0F172Aad">preserving non-Hermitian braiding capabilities.</text><text x="27.2" y="362.09" font-family="Helvetica, Arial, sans-serif" font-size="4.74" fill="#0F172Aad">This establishes synthetic frequency lattices as a</text><text x="27.2" y="369.2" font-family="Helvetica, Arial, sans-serif" font-size="4.74" fill="#0F172Aad">platform for topologically protected photonic</text><text x="27.2" y="376.3" font-family="Helvetica, Arial, sans-serif" font-size="4.74" fill="#0F172Aad">information processing.</text><text x="168.63" y="130.38" font-family="Helvetica, Arial, sans-serif" font-size="4.75" fill="#0F172A" font-weight="700" opacity="0.9">Hamiltonian Engineering</text><rect x="168.63" y="132.04" width="124.17" height="0.8" fill="#0F172A4d"/><text x="168.63" y="136.8" font-family="Helvetica, Arial, sans-serif" font-size="4.74" fill="#0F172Aad">The synthetic lattice Hamiltonian is H = Σ_n ω_n</text><text x="168.63" y="143.9" font-family="Helvetica, Arial, sans-serif" font-size="4.74" fill="#0F172Aad">a_n a_n + Σ_n (eiφ(t)an+1a_n + h. c. ) + iγ Σ_n</text><text x="168.63" y="151.01" font-family="Helvetica, Arial, sans-serif" font-size="4.74" fill="#0F172Aad">(-1)^n a_n a_n with Floquet phase φ(t)=φ_0+δφ (</text><text x="168.63" y="158.12" font-family="Helvetica, Arial, sans-serif" font-size="4.74" fill="#0F172Aad">t). The effective gauge field Aeff = δφ / opens a</text><text x="168.63" y="165.23" font-family="Helvetica, Arial, sans-serif" font-size="4.74" fill="#0F172Aad">topological gap Δtop = 2 √1-(γ/)^2 ≈ 1. 9 for γ=0.</text><text x="168.63" y="172.33" font-family="Helvetica, Arial, sans-serif" font-size="4.74" fill="#0F172Aad">25. Two-tone modulation adds _2=0. 35</text><text x="168.63" y="179.44" font-family="Helvetica, Arial, sans-serif" font-size="4.74" fill="#0F172Aad">next-nearest-neighbor coupling to flatten the edge</text><text x="168.63" y="186.55" font-family="Helvetica, Arial, sans-serif" font-size="4.74" fill="#0F172Aad">dispersion to v_g variation &lt;5\%.</text><text x="168.63" y="262.04" font-family="Helvetica, Arial, sans-serif" font-size="4.75" fill="#0F172A" font-weight="700" opacity="0.9">Discussion</text><rect x="168.63" y="263.7" width="124.17" height="0.8" fill="#0F172A4d"/><text x="168.63" y="268.45" font-family="Helvetica, Arial, sans-serif" font-size="4.74" fill="#0F172Aad">Aurora&apos;s 42 dB isolation exceeds prior synthetic</text><text x="168.63" y="275.56" font-family="Helvetica, Arial, sans-serif" font-size="4.74" fill="#0F172Aad">dimension records by 8 dB, attributable to the</text><text x="168.63" y="282.67" font-family="Helvetica, Arial, sans-serif" font-size="4.74" fill="#0F172Aad">high Q=2. 1×10^6 and low propagation loss 0. 12</text><text x="168.63" y="289.77" font-family="Helvetica, Arial, sans-serif" font-size="4.74" fill="#0F172Aad">dB/cm. The 0. 98 braiding fidelity is limited by</text><text x="168.63" y="296.88" font-family="Helvetica, Arial, sans-serif" font-size="4.74" fill="#0F172Aad">residual non-adiabatic transitions (≈ 1. 2\%) and</text><text x="168.63" y="303.99" font-family="Helvetica, Arial, sans-serif" font-size="4.74" fill="#0F172Aad">detection shot noise (0. 8\%). Scaling to N=51</text><text x="168.63" y="311.1" font-family="Helvetica, Arial, sans-serif" font-size="4.74" fill="#0F172Aad">requires 1. 2 THz bandwidth, achievable with</text><text x="168.63" y="318.2" font-family="Helvetica, Arial, sans-serif" font-size="4.74" fill="#0F172Aad">thin-film lithium niobate modulators (V_=1. 2 V).</text><rect x="168.63" y="327.21" width="124.17" height="23.53" rx="2" fill="#1E40AF29"/><text x="27.2" y="436.25" font-family="Helvetica, Arial, sans-serif" font-size="2.26" fill="#0F172A73">Aurora: Paper</text><text x="292.8" y="436.25" font-family="Helvetica, Arial, sans-serif" font-size="2.26" fill="#0F172A73">1</text></g></g><path d="M430.83 472.36 L510.39 476.18 L493.32 500.01 L413.76 496.19 Z" fill="#2417082e"/><path d="M428.28 468.06 L507.84 471.88 L490.77 495.71 L411.21 491.9 Z" fill="url(#tp-beamer-editorial-page-14)" stroke="#0F172A1f"/><g clip-path="url(#tp-beamer-editorial-sheet-15)"><g transform="matrix(0.25 0.01 -0.05 0.06 428.28 468.06)"><rect width="320" height="370.4" fill="#FFFFFF"/><rect x="16" y="16" width="288" height="162" fill="#0F172A"/><rect x="16" y="163.42" width="288" height="14.58" fill="#E11D48"/><text x="160" y="64.6" font-family="Helvetica, Arial, sans-serif" font-size="18.63" fill="#FFFFFF" font-weight="700" opacity="0.97" text-anchor="middle">Aurora Topological</text><text x="160" y="87.7" font-family="Helvetica, Arial, sans-serif" font-size="18.63" fill="#FFFFFF" font-weight="700" opacity="0.97" text-anchor="middle">Photonics: Slides</text><rect x="136.96" y="116.44" width="46.08" height="3.24" fill="#E11D48"/><text x="160" y="139.12" font-family="Helvetica, Arial, sans-serif" font-size="10.04" fill="#FFFFFF" opacity="0.6" text-anchor="middle">Kenji Tanaka, Elena Varga, Amir Hassan,…</text><text x="160" y="158.56" font-family="Helvetica, Arial, sans-serif" font-size="4.42" fill="#FFFFFF" opacity="0.42" text-anchor="middle">Nature Photonics 2027 • Topological Photonics</text><rect x="16" y="192.4" width="288" height="162" fill="#FFFFFF" stroke="#0F172A24"/><rect x="16" y="192.4" width="288" height="8.91" fill="#E11D48"/><text x="27.52" y="223.18" font-family="Helvetica, Arial, sans-serif" font-size="16.2" fill="#0F172A" font-weight="700" opacity="0.9">Why Synthetic…</text><rect x="27.52" y="234.52" width="28.8" height="3.56" fill="#E11D48"/><circle cx="26.2" cy="253.93" r="2" fill="#E11D48"/><text x="31.2" y="256.88" font-family="Helvetica, Arial, sans-serif" font-size="9.22" fill="#0F172Aad">Topological Protection:…</text><circle cx="165.88" cy="253.93" r="2" fill="#E11D48"/><text x="170.88" y="256.88" font-family="Helvetica, Arial, sans-serif" font-size="9.22" fill="#0F172Aad">Synthetic Advantage:…</text><circle cx="26.2" cy="269.6" r="2" fill="#E11D48"/><text x="31.2" y="272.55" font-family="Helvetica, Arial, sans-serif" font-size="9.22" fill="#0F172Aad">Application: Non-Abelian…</text><rect x="23.2" y="343.06" width="273.6" height="1.94" fill="#0F172A2e"/><text x="278.08" y="340.63" font-family="Helvetica, Arial, sans-serif" font-size="8.1" fill="#0F172A80">1</text></g></g><path d="M278.6 439.88 L449.13 454.65 L423.45 474.51 L252.93 459.74 Z" fill="url(#tp-beamer-editorial-shadow-16)"/><path d="M288 436.19 L422.74 449.23 L403.85 462.31 L269.11 449.27 Z" fill="#dbdad8" stroke="#0F172A2e"/><g clip-path="url(#tp-beamer-editorial-keys-17)"><g transform="matrix(4.21 0.41 -1.57 1.09 288 436.19)"><rect x="1.8" y="1.4" width="2.1" height="1.9" rx="0.4" fill="#FFFFFF" opacity="0.6"/><rect x="4.25" y="1.4" width="2.1" height="1.9" rx="0.4" fill="#FFFFFF" opacity="0.6"/><rect x="6.7" y="1.4" width="2.1" height="1.9" rx="0.4" fill="#FFFFFF" opacity="0.6"/><rect x="9.15" y="1.4" width="2.1" height="1.9" rx="0.4" fill="#FFFFFF" opacity="0.6"/><rect x="11.6" y="1.4" width="2.1" height="1.9" rx="0.4" fill="#FFFFFF" opacity="0.6"/><rect x="14.05" y="1.4" width="2.1" height="1.9" rx="0.4" fill="#FFFFFF" opacity="0.6"/><rect x="16.5" y="1.4" width="2.1" height="1.9" rx="0.4" fill="#FFFFFF" opacity="0.6"/><rect x="18.95" y="1.4" width="2.1" height="1.9" rx="0.4" fill="#FFFFFF" opacity="0.6"/><rect x="21.4" y="1.4" width="2.1" height="1.9" rx="0.4" fill="#FFFFFF" opacity="0.6"/><rect x="23.85" y="1.4" width="2.1" height="1.9" rx="0.4" fill="#FFFFFF" opacity="0.6"/><rect x="26.3" y="1.4" width="2.1" height="1.9" rx="0.4" fill="#FFFFFF" opacity="0.6"/><rect x="28.75" y="1.4" width="2.1" height="1.9" rx="0.4" fill="#FFFFFF" opacity="0.6"/><rect x="1.8" y="3.7" width="2.1" height="1.9" rx="0.4" fill="#FFFFFF" opacity="0.6"/><rect x="4.25" y="3.7" width="2.1" height="1.9" rx="0.4" fill="#FFFFFF" opacity="0.6"/><rect x="6.7" y="3.7" width="2.1" height="1.9" rx="0.4" fill="#FFFFFF" opacity="0.6"/><rect x="9.15" y="3.7" width="2.1" height="1.9" rx="0.4" fill="#FFFFFF" opacity="0.6"/><rect x="11.6" y="3.7" width="2.1" height="1.9" rx="0.4" fill="#FFFFFF" opacity="0.6"/><rect x="14.05" y="3.7" width="2.1" height="1.9" rx="0.4" fill="#FFFFFF" opacity="0.6"/><rect x="16.5" y="3.7" width="2.1" height="1.9" rx="0.4" fill="#FFFFFF" opacity="0.6"/><rect x="18.95" y="3.7" width="2.1" height="1.9" rx="0.4" fill="#FFFFFF" opacity="0.6"/><rect x="21.4" y="3.7" width="2.1" height="1.9" rx="0.4" fill="#FFFFFF" opacity="0.6"/><rect x="23.85" y="3.7" width="2.1" height="1.9" rx="0.4" fill="#FFFFFF" opacity="0.6"/><rect x="26.3" y="3.7" width="2.1" height="1.9" rx="0.4" fill="#FFFFFF" opacity="0.6"/><rect x="28.75" y="3.7" width="2.1" height="1.9" rx="0.4" fill="#FFFFFF" opacity="0.6"/><rect x="1.8" y="6" width="2.1" height="1.9" rx="0.4" fill="#FFFFFF" opacity="0.6"/><rect x="4.25" y="6" width="2.1" height="1.9" rx="0.4" fill="#FFFFFF" opacity="0.6"/><rect x="6.7" y="6" width="2.1" height="1.9" rx="0.4" fill="#FFFFFF" opacity="0.6"/><rect x="9.15" y="6" width="2.1" height="1.9" rx="0.4" fill="#FFFFFF" opacity="0.6"/><rect x="11.6" y="6" width="2.1" height="1.9" rx="0.4" fill="#FFFFFF" opacity="0.6"/><rect x="14.05" y="6" width="2.1" height="1.9" rx="0.4" fill="#FFFFFF" opacity="0.6"/><rect x="16.5" y="6" width="2.1" height="1.9" rx="0.4" fill="#FFFFFF" opacity="0.6"/><rect x="18.95" y="6" width="2.1" height="1.9" rx="0.4" fill="#FFFFFF" opacity="0.6"/><rect x="21.4" y="6" width="2.1" height="1.9" rx="0.4" fill="#FFFFFF" opacity="0.6"/><rect x="23.85" y="6" width="2.1" height="1.9" rx="0.4" fill="#FFFFFF" opacity="0.6"/><rect x="26.3" y="6" width="2.1" height="1.9" rx="0.4" fill="#FFFFFF" opacity="0.6"/><rect x="28.75" y="6" width="2.1" height="1.9" rx="0.4" fill="#FFFFFF" opacity="0.6"/><rect x="1.8" y="8.3" width="2.1" height="1.9" rx="0.4" fill="#FFFFFF" opacity="0.6"/><rect x="4.25" y="8.3" width="2.1" height="1.9" rx="0.4" fill="#FFFFFF" opacity="0.6"/><rect x="6.7" y="8.3" width="2.1" height="1.9" rx="0.4" fill="#FFFFFF" opacity="0.6"/><rect x="9.15" y="8.3" width="2.1" height="1.9" rx="0.4" fill="#FFFFFF" opacity="0.6"/><rect x="11.6" y="8.3" width="2.1" height="1.9" rx="0.4" fill="#FFFFFF" opacity="0.6"/><rect x="14.05" y="8.3" width="2.1" height="1.9" rx="0.4" fill="#FFFFFF" opacity="0.6"/><rect x="16.5" y="8.3" width="2.1" height="1.9" rx="0.4" fill="#FFFFFF" opacity="0.6"/><rect x="18.95" y="8.3" width="2.1" height="1.9" rx="0.4" fill="#FFFFFF" opacity="0.6"/><rect x="21.4" y="8.3" width="2.1" height="1.9" rx="0.4" fill="#FFFFFF" opacity="0.6"/><rect x="23.85" y="8.3" width="2.1" height="1.9" rx="0.4" fill="#FFFFFF" opacity="0.6"/><rect x="26.3" y="8.3" width="2.1" height="1.9" rx="0.4" fill="#FFFFFF" opacity="0.6"/><rect x="28.75" y="8.3" width="2.1" height="1.9" rx="0.4" fill="#FFFFFF" opacity="0.6"/></g></g><path d="M52.59 435.16 L180.49 446.24 L149.11 470.51 L21.21 459.44 Z" fill="url(#tp-beamer-editorial-shadow-18)"/><path d="M46.48 434.22 L153.67 437.38 L145.02 457.04 L37.82 453.87 Z" fill="#5a413c" stroke="#0F172A33"/><path d="M46.48 432.05 L153.67 435.21 L145.02 454.86 L37.82 451.7 Z" fill="#ece8e0"/><path d="M76.38 450.37 L134.32 448.4 L134.96 449.66 L77.02 451.64 Z" fill="#a31938"/><rect width="800" height="600" fill="url(#tp-beamer-editorial-warm-19)"/><rect width="800" height="600" fill="url(#tp-beamer-editorial-vignette-20)"/></svg>