<svg xmlns="http://www.w3.org/2000/svg" width="800" height="600" viewBox="0 0 800 600" role="img" aria-label="Focus template preview" data-template-id="beamer-focus"><defs><linearGradient id="tp-beamer-focus-wall-1" x1="0" y1="0" x2="0.35" y2="1"><stop offset="0" stop-color="#f0ebe2"/><stop offset="0.62" stop-color="#ece5da"/><stop offset="1" stop-color="#bfb6ab"/></linearGradient><linearGradient id="tp-beamer-focus-window-2" x1="0" y1="0" x2="0" y2="1"><stop offset="0" stop-color="#FFFCF2"/><stop offset="1" stop-color="#FFEFD2"/></linearGradient><linearGradient id="tp-beamer-focus-desk-3" x1="0" y1="0" x2="0.15" y2="1"><stop offset="0" stop-color="#e0c299"/><stop offset="0.55" stop-color="#d0a265"/><stop offset="1" stop-color="#af8855"/></linearGradient><clipPath id="tp-beamer-focus-grain-4"><path d="M160.76 368.6 L744.13 426.56 L619.37 510.68 L36 452.72 Z"/></clipPath><radialGradient id="tp-beamer-focus-shadow-5" cx="0.5" cy="0.5" r="0.5"><stop offset="0" stop-color="#22160A" stop-opacity="0.26"/><stop offset="0.6" stop-color="#22160A" stop-opacity="0.13"/><stop offset="1" stop-color="#22160A" stop-opacity="0"/></radialGradient><clipPath id="tp-beamer-focus-board-6"><path d="M217.79 196.38 L357.5 204.06 L357.5 301.65 L217.79 293.96 Z"/></clipPath><radialGradient id="tp-beamer-focus-shadow-7" cx="0.5" cy="0.5" r="0.5"><stop offset="0" stop-color="#22160A" stop-opacity="0.24"/><stop offset="0.6" stop-color="#22160A" stop-opacity="0.12"/><stop offset="1" stop-color="#22160A" stop-opacity="0"/></radialGradient><radialGradient id="tp-beamer-focus-shadow-8" cx="0.5" cy="0.5" r="0.5"><stop offset="0" stop-color="#22160A" stop-opacity="0.22"/><stop offset="0.6" stop-color="#22160A" stop-opacity="0.11"/><stop offset="1" stop-color="#22160A" stop-opacity="0"/></radialGradient><radialGradient id="tp-beamer-focus-shadow-9" cx="0.5" cy="0.5" r="0.5"><stop offset="0" stop-color="#22160A" stop-opacity="0.2"/><stop offset="0.6" stop-color="#22160A" stop-opacity="0.1"/><stop offset="1" stop-color="#22160A" stop-opacity="0"/></radialGradient><clipPath id="tp-beamer-focus-keys-10"><path d="M389.91 419.12 L546.16 444.39 L507.56 460.38 L351.31 435.11 Z"/></clipPath><clipPath id="tp-beamer-focus-screen-11"><path d="M412.04 293.77 L586.46 321.98 L575.81 436.44 L401.39 408.23 Z"/></clipPath><linearGradient id="tp-beamer-focus-page-12" x1="0" y1="1" x2="1" y2="0"><stop offset="0" stop-color="#FFFFFF"/><stop offset="1" stop-color="#ececee"/></linearGradient><clipPath id="tp-beamer-focus-sheet-13"><path d="M163.71 427.38 L252.62 440.66 L180.02 473.21 L91.12 459.92 Z"/></clipPath><linearGradient id="tp-beamer-focus-page-14" x1="0" y1="1" x2="1" y2="0"><stop offset="0" stop-color="#FFFFFF"/><stop offset="1" stop-color="#ececee"/></linearGradient><clipPath id="tp-beamer-focus-sheet-15"><path d="M423.34 465.59 L501.62 470.27 L480.7 493.72 L402.42 489.04 Z"/></clipPath><radialGradient id="tp-beamer-focus-shadow-16" cx="0.5" cy="0.5" r="0.5"><stop offset="0" stop-color="#22160A" stop-opacity="0.2"/><stop offset="0.6" stop-color="#22160A" stop-opacity="0.1"/><stop offset="1" stop-color="#22160A" stop-opacity="0"/></radialGradient><clipPath id="tp-beamer-focus-keys-17"><path d="M289 432.4 L420.47 446.84 L399.54 459.6 L268.07 445.16 Z"/></clipPath><radialGradient id="tp-beamer-focus-shadow-18" cx="0.5" cy="0.5" r="0.5"><stop offset="0" stop-color="#22160A" stop-opacity="0.22"/><stop offset="0.6" stop-color="#22160A" stop-opacity="0.11"/><stop offset="1" stop-color="#22160A" stop-opacity="0"/></radialGradient><linearGradient id="tp-beamer-focus-warm-19" x1="0" y1="0" x2="0.7" y2="1"><stop offset="0" stop-color="#FFF4DC" stop-opacity="0.42"/><stop offset="0.45" stop-color="#FFF4DC" stop-opacity="0.1"/><stop offset="1" stop-color="#3B2410" stop-opacity="0.14"/></linearGradient><radialGradient id="tp-beamer-focus-vignette-20" cx="0.45" cy="0.42" r="0.8"><stop offset="0.55" stop-color="#000000" stop-opacity="0"/><stop offset="1" stop-color="#000000" stop-opacity="0.28"/></radialGradient></defs><path d="M147.29 364.79 L764 426.06 L764 46.66 L147.29 -14.61 Z" fill="url(#tp-beamer-focus-wall-1)"/><path d="M192.49 255.95 L359.17 272.51 L359.17 75.23 L192.49 58.67 Z" fill="url(#tp-beamer-focus-window-2)"/><rect x="274.13" y="58.67" width="3.4" height="197.28" fill="#FFFFFF" opacity="0.72"/><rect x="192.49" y="157.31" width="166.68" height="2.6" fill="#FFFFFF" opacity="0.55"/><path d="M513.98 230.49 L755.67 254.5 L744.47 262.05 L502.79 238.04 Z" fill="#c7a684"/><path d="M502.79 248.39 L744.47 272.4 L744.47 262.05 L502.79 238.04 Z" fill="#8d6a48"/><path d="M518.49 237.13 L532.66 238.53 L532.66 167.4 L518.49 165.99 Z" fill="#1c4aca"/><path d="M532.66 238.53 L529.46 240.69 L529.46 169.55 L532.66 167.4 Z" fill="#143591"/><path d="M537.66 239.03 L547.66 240.02 L547.66 181.82 L537.66 180.83 Z" fill="#7a3911"/><path d="M547.66 240.02 L544.46 242.18 L544.46 183.98 L547.66 181.82 Z" fill="#58290c"/><path d="M552.66 240.52 L564.74 241.72 L564.74 170.58 L552.66 169.38 Z" fill="#106586"/><path d="M564.74 241.72 L561.54 243.88 L561.54 172.74 L564.74 170.58 Z" fill="#0c4960"/><path d="M569.74 242.22 L583.91 243.62 L583.91 185.42 L569.74 184.01 Z" fill="#451c88"/><path d="M583.91 243.62 L580.71 245.78 L580.71 187.58 L583.91 185.42 Z" fill="#321462"/><path d="M588.91 244.12 L598.91 245.12 L598.91 173.98 L588.91 172.99 Z" fill="#0d4b39"/><path d="M598.91 245.12 L595.71 247.27 L595.71 176.14 L598.91 173.98 Z" fill="#093629"/><path d="M603.91 245.61 L615.99 246.81 L615.99 188.61 L603.91 187.41 Z" fill="#7f4010"/><path d="M615.99 246.81 L612.79 248.97 L612.79 190.77 L615.99 188.61 Z" fill="#5b2e0c"/><path d="M620.99 247.31 L635.16 248.72 L635.16 177.58 L620.99 176.17 Z" fill="#0f6864"/><path d="M635.16 248.72 L631.96 250.87 L631.96 179.74 L635.16 177.58 Z" fill="#0b4b48"/><path d="M640.16 249.21 L650.16 250.21 L650.16 192 L640.16 191.01 Z" fill="#4a4c54"/><path d="M650.16 250.21 L646.96 252.36 L646.96 194.16 L650.16 192 Z" fill="#35373c"/><path d="M655.16 250.7 L667.25 251.9 L667.25 180.77 L655.16 179.57 Z" fill="#1c4aca"/><path d="M667.25 251.9 L664.05 254.06 L664.05 182.93 L667.25 180.77 Z" fill="#143591"/><path d="M672.25 252.4 L686.41 253.81 L686.41 195.61 L672.25 194.2 Z" fill="#7a3911"/><path d="M686.41 253.81 L683.22 255.97 L683.22 197.76 L686.41 195.61 Z" fill="#58290c"/><path d="M691.41 254.31 L701.42 255.3 L701.42 184.16 L691.41 183.17 Z" fill="#106586"/><path d="M701.42 255.3 L698.22 257.46 L698.22 186.32 L701.42 184.16 Z" fill="#0c4960"/><path d="M706.42 255.8 L718.5 257 L718.5 198.79 L706.42 197.59 Z" fill="#451c88"/><path d="M718.5 257 L715.3 259.15 L715.3 200.95 L718.5 198.79 Z" fill="#321462"/><path d="M513.98 158.41 L755.67 182.42 L744.47 189.97 L502.79 165.96 Z" fill="#c7a684"/><path d="M502.79 176.3 L744.47 200.31 L744.47 189.97 L502.79 165.96 Z" fill="#8d6a48"/><path d="M529.05 161.14 L599.89 168.18 L591.89 173.57 L521.05 166.53 Z" fill="#1c4aca"/><path d="M612.39 169.42 L666.56 174.8 L658.56 180.19 L604.39 174.81 Z" fill="#66459d"/><path d="M160.76 368.6 L744.13 426.56 L619.37 510.68 L36 452.72 Z" fill="url(#tp-beamer-focus-desk-3)"/><path d="M36 482.9 L619.37 540.86 L619.37 510.68 L36 452.72 Z" fill="#81643f"/><path d="M619.37 540.86 L744.13 456.74 L744.13 426.56 L619.37 510.68 Z" fill="#967549"/><g clip-path="url(#tp-beamer-focus-grain-4)"><g transform="matrix(4.17 0.41 -1.6 1.08 160.76 368.6)"><rect x="24" y="9.75" width="92" height="0.6" fill="#8A5A2B" opacity="0.13"/><rect x="6" y="19.5" width="118" height="0.6" fill="#8A5A2B" opacity="0.13"/><rect x="24" y="29.25" width="92" height="0.6" fill="#8A5A2B" opacity="0.13"/><rect x="6" y="39" width="118" height="0.6" fill="#8A5A2B" opacity="0.13"/><rect x="24" y="48.75" width="92" height="0.6" fill="#8A5A2B" opacity="0.13"/><rect x="6" y="58.5" width="118" height="0.6" fill="#8A5A2B" opacity="0.13"/><rect x="24" y="68.25" width="92" height="0.6" fill="#8A5A2B" opacity="0.13"/></g></g><path d="M222.51 390.33 L221.65 196.95 L233.57 196.65 L234.43 390.03 Z" fill="#a77647"/><path d="M328.72 400.88 L329.59 207.67 L341.51 207.37 L340.64 400.58 Z" fill="#744e2e"/><path d="M281.56 389.02 L281.56 163.39 L301.56 165.37 L301.56 391 Z" fill="#865e39"/><path d="M201.77 384.19 L437.79 407.63 L399.4 433.52 L163.38 410.07 Z" fill="url(#tp-beamer-focus-shadow-5)"/><path d="M366.19 196.94 L368.6 194 L368.6 306.24 L366.19 309.18 Z" fill="#0F172A24"/><path d="M210.77 188.37 L365.32 196.87 L365.32 309.11 L210.77 300.61 Z" fill="#f7f7f7" stroke="#0F172A24"/><g clip-path="url(#tp-beamer-focus-board-6)"><g transform="matrix(0.44 0.02 0 0.43 217.79 196.38)"><rect width="320" height="226.34" fill="#0F172A08"/><rect x="0.5" y="0.5" width="319" height="225.34" fill="none" stroke="#0F172A24"/><rect x="11.2" y="11.2" width="297.6" height="31.69" rx="6" fill="#0F172A"/><text x="160" y="24.51" font-family="Helvetica, Arial, sans-serif" font-size="4.91" fill="#FFFFFF" font-weight="700" opacity="0.97" text-anchor="middle">Quantum Supremacy Using a Programmable Superconducting Processor</text><text x="160" y="39.72" font-family="Helvetica, Arial, sans-serif" font-size="2.31" fill="#FFFFFF" opacity="0.75" text-anchor="middle">F. Arute, K. Arya, R. Babbush, J. M. Martinis, et al. (Google Quantum AI)</text><rect x="11.2" y="48.89" width="79.66" height="53.2" rx="4" fill="#1F29370d"/><rect x="11.2" y="48.89" width="79.66" height="10.64" rx="4" fill="#1F2937"/><text x="15.98" y="56.34" font-family="Helvetica, Arial, sans-serif" font-size="3.72" fill="#FFFFFF" font-weight="700" opacity="0.96">The Computational Frontier</text><text x="15.98" y="66.44" font-family="Helvetica, Arial, sans-serif" font-size="3.09" fill="#0F172A9e">Quantum computing promises exponential…</text><text x="15.98" y="73.36" font-family="Helvetica, Arial, sans-serif" font-size="3.09" fill="#0F172A9e">Exponential State Space: n=53 qubits span…</text><text x="15.98" y="80.28" font-family="Helvetica, Arial, sans-serif" font-size="3.09" fill="#0F172A9e">Computational Hardness: Random Circuit…</text><rect x="11.2" y="105.41" width="79.66" height="53.2" rx="4" fill="#1F29370d"/><rect x="11.2" y="105.41" width="79.66" height="10.64" rx="4" fill="#1F2937"/><text x="15.98" y="112.86" font-family="Helvetica, Arial, sans-serif" font-size="3.72" fill="#FFFFFF" font-weight="700" opacity="0.96">Sycamore Architecture &amp; Gates</text><text x="15.98" y="122.97" font-family="Helvetica, Arial, sans-serif" font-size="3.09" fill="#0F172A9e">2D Transmon Lattice: 54 qubits in a…</text><text x="15.98" y="129.89" font-family="Helvetica, Arial, sans-serif" font-size="3.09" fill="#0F172A9e">Gate Fidelities: 12 ns single-qubit…</text><rect x="15.98" y="147.97" width="70.1" height="14.9" rx="2" fill="#D977062e"/><rect x="97.41" y="48.89" width="125.18" height="103.08" rx="4" fill="#1F293714"/><text x="160" y="88.79" font-family="Helvetica, Arial, sans-serif" font-size="8.65" fill="#0F172A" font-weight="700" opacity="0.9" text-anchor="middle">Physical</text><text x="160" y="103.75" font-family="Helvetica, Arial, sans-serif" font-size="8.65" fill="#0F172A" font-weight="700" opacity="0.9" text-anchor="middle">Demonstration:</text><text x="160" y="118.71" font-family="Helvetica, Arial, sans-serif" font-size="8.65" fill="#0F172A" font-weight="700" opacity="0.9" text-anchor="middle">Conclusively proves…</text><text x="107.42" y="122.04" font-family="Helvetica, Arial, sans-serif" font-size="4.99" fill="#0F172A9e">Physical Demonstration: Conclusively…</text><text x="107.42" y="129.52" font-family="Helvetica, Arial, sans-serif" font-size="4.99" fill="#0F172A9e">Superpolynomial Scaling: Computes in…</text><rect x="97.41" y="161.94" width="125.18" height="49.88" fill="#D977061a"/><rect x="229.14" y="48.89" width="79.66" height="53.2" rx="4" fill="#1F29370d"/><rect x="229.14" y="48.89" width="79.66" height="10.64" rx="4" fill="#1F2937"/><text x="233.92" y="56.34" font-family="Helvetica, Arial, sans-serif" font-size="3.72" fill="#FFFFFF" font-weight="700" opacity="0.96">Sycamore System Metrics</text><text x="233.92" y="66.44" font-family="Helvetica, Arial, sans-serif" font-size="3.09" fill="#0F172A9e">53 Qubits Active Transmons | 2D lattice…</text><text x="233.92" y="73.36" font-family="Helvetica, Arial, sans-serif" font-size="3.09" fill="#0F172A9e">200 Seconds Quantum Sampling | 1,000,000…</text><text x="233.92" y="80.28" font-family="Helvetica, Arial, sans-serif" font-size="3.09" fill="#0F172A9e">10,000 Years Classical Baseline | Summit…</text><text x="233.92" y="87.19" font-family="Helvetica, Arial, sans-serif" font-size="3.09" fill="#0F172A9e">2^53 States State Space | 9.0 × 1015…</text><rect x="229.14" y="105.41" width="79.66" height="53.2" rx="4" fill="#1F29370d"/><rect x="229.14" y="105.41" width="79.66" height="10.64" rx="4" fill="#1F2937"/><text x="233.92" y="112.86" font-family="Helvetica, Arial, sans-serif" font-size="3.72" fill="#FFFFFF" font-weight="700" opacity="0.96">Classical Verification Strategy</text><text x="233.92" y="122.97" font-family="Helvetica, Arial, sans-serif" font-size="3.09" fill="#0F172A9e">Patch Circuits: Removing couplers divides…</text><text x="233.92" y="129.89" font-family="Helvetica, Arial, sans-serif" font-size="3.09" fill="#0F172A9e">Elided Circuits: Removing entangling…</text><text x="233.92" y="136.8" font-family="Helvetica, Arial, sans-serif" font-size="3.09" fill="#0F172A9e">Independence: Proves gate errors remain…</text><rect x="229.14" y="161.94" width="79.66" height="53.2" rx="4" fill="#1F29370d"/><rect x="229.14" y="161.94" width="79.66" height="10.64" rx="4" fill="#1F2937"/><text x="233.92" y="169.39" font-family="Helvetica, Arial, sans-serif" font-size="3.72" fill="#FFFFFF" font-weight="700" opacity="0.96">The NISQ Era &amp; Surface Codes</text><text x="233.92" y="179.5" font-family="Helvetica, Arial, sans-serif" font-size="3.09" fill="#0F172A9e">NISQ Applications: Near-term benchmarking…</text><text x="233.92" y="186.41" font-family="Helvetica, Arial, sans-serif" font-size="3.09" fill="#0F172A9e">Fault-Tolerant Path: Validates precision…</text></g></g><circle cx="225.45" cy="187.33" r="2.6" fill="#1C1C1Ceb"/><circle cx="349.36" cy="199.64" r="2.6" fill="#1C1C1Ceb"/><path d="M202.06 301.27 L361.23 317.08 L367.63 312.77 L208.45 296.96 Z" fill="#b9916c"/><path d="M202.06 311.19 L361.23 327 L361.23 317.08 L202.06 301.27 Z" fill="#744e2e"/><path d="M646.99 421.46 L744.5 431.15 L709.95 454.44 L612.44 444.75 Z" fill="url(#tp-beamer-focus-shadow-7)"/><path d="M656.18 432.67 L693.69 436.4 L693.69 401.9 L656.18 398.18 Z" fill="#b37353"/><path d="M662.66 393.81 L700.16 397.54 L687.21 406.27 L649.71 402.55 Z" fill="#8f5c42"/><path d="M674.94 400.04 Q648.64 381.53 636.35 371.01 Q662.64 381.53 674.94 400.04" fill="#2a5034" opacity="0.96"/><path d="M674.94 400.04 Q650.74 373.51 640.54 354.98 Q664.74 373.51 674.94 400.04" fill="#386a45" opacity="0.96"/><path d="M674.94 400.04 Q656.61 366.29 652.29 340.54 Q670.61 366.29 674.94 400.04" fill="#2a5034" opacity="0.96"/><path d="M674.94 400.04 Q666.1 361.3 671.26 330.57 Q680.1 361.3 674.94 400.04" fill="#386a45" opacity="0.96"/><path d="M674.94 400.04 Q673.42 375.83 685.9 359.62 Q687.42 375.83 674.94 400.04" fill="#2a5034" opacity="0.96"/><path d="M674.94 400.04 Q682.42 376.05 703.91 360.07 Q696.42 376.05 674.94 400.04" fill="#386a45" opacity="0.96"/><path d="M674.94 400.04 Q692.25 379.88 723.57 367.73 Q706.25 379.88 674.94 400.04" fill="#2a5034" opacity="0.96"/><path d="M159.47 412.18 L209.05 417.11 L190.02 429.95 L140.43 425.02 Z" fill="url(#tp-beamer-focus-shadow-8)"/><path d="M157.2 417.74 L186.37 420.64 L186.37 393.91 L157.2 391.01 Z" fill="#80bddc"/><path d="M162.8 387.24 L191.97 390.14 L180.77 397.68 L151.6 394.79 Z" fill="#b3d7ea"/><path d="M163.93 389.04 L185.8 391.21 L179.65 395.36 L157.77 393.19 Z" fill="#4A2C16"/><path d="M174.26 406.53 q10 -3 10 4.5 q0 6.5 -10 3" fill="none" stroke="#80bddc" stroke-width="2.4"/><path d="M362.1 408.85 L622.11 434.69 L538.58 491.01 L278.56 465.18 Z" fill="url(#tp-beamer-focus-shadow-9)"/><path d="M397.76 407.64 L579.45 437.03 L502.25 469 L320.56 439.62 Z" fill="#949aa5"/><path d="M320.56 439.62 L502.25 469 L502.25 475.04 L320.56 445.65 Z" fill="#565960"/><path d="M389.91 419.12 L546.16 444.39 L507.56 460.38 L351.31 435.11 Z" fill="#737881"/><g clip-path="url(#tp-beamer-focus-keys-10)"><g transform="matrix(3.79 0.61 -2.37 0.98 389.91 419.12)"><rect x="2.88" y="0.98" width="42.24" height="1.96" rx="0.39" fill="#FFFFFF" opacity="0.22"/><rect x="2.88" y="4.24" width="42.24" height="1.96" rx="0.39" fill="#FFFFFF" opacity="0.22"/><rect x="2.88" y="7.51" width="42.24" height="1.96" rx="0.39" fill="#FFFFFF" opacity="0.22"/><rect x="2.88" y="10.77" width="42.24" height="1.96" rx="0.39" fill="#FFFFFF" opacity="0.22"/><rect x="2.88" y="14.04" width="42.24" height="1.96" rx="0.39" fill="#FFFFFF" opacity="0.22"/></g></g><path d="M424.42 440.57 L478.93 449.39 L460.4 457.06 L405.9 448.24 Z" fill="#a7acb5"/><path d="M412.52 293.44 L586.94 321.65 L576.29 436.11 L401.87 407.91 Z" fill="#0b101d"/><g clip-path="url(#tp-beamer-focus-screen-11)"><g transform="matrix(0.55 0.09 -0.06 0.64 412.04 293.77)"><rect x="0" y="0" width="320" height="180" fill="#0F172A"/><rect x="0" y="163.8" width="320" height="16.2" fill="#1C1C1C"/><text x="160" y="54" font-family="Helvetica, Arial, sans-serif" font-size="20.7" fill="#FFFFFF" font-weight="700" opacity="0.97" text-anchor="middle">Quantum Supremacy on</text><text x="160" y="79.67" font-family="Helvetica, Arial, sans-serif" font-size="20.7" fill="#FFFFFF" font-weight="700" opacity="0.97" text-anchor="middle">Sycamore</text><rect x="134.4" y="111.6" width="51.2" height="3.6" fill="#1C1C1C"/><text x="160" y="136.8" font-family="Helvetica, Arial, sans-serif" font-size="11.16" fill="#FFFFFF" opacity="0.6" text-anchor="middle">F. Arute, K. Arya, R. Babbush, J. M.…</text><text x="160" y="158.4" font-family="Helvetica, Arial, sans-serif" font-size="4.91" fill="#FFFFFF" opacity="0.42" text-anchor="middle">Nature 574, 505–510 (2019)</text></g></g><path d="M165.96 431.67 L254.86 444.96 L182.27 477.5 L93.37 464.22 Z" fill="#2417082e"/><path d="M163.71 427.38 L252.62 440.66 L180.02 473.21 L91.12 459.92 Z" fill="url(#tp-beamer-focus-page-12)" stroke="#0F172A1f"/><g clip-path="url(#tp-beamer-focus-sheet-13)"><g transform="matrix(0.28 0.04 -0.16 0.07 163.71 427.38)"><rect width="320" height="452.57" fill="#FFFFFF"/><rect x="0.5" y="0.5" width="319" height="451.57" fill="none" stroke="#0F172A1f"/><rect x="27.2" y="27.2" width="138.11" height="16.22" rx="1.74" fill="#111827"/><text x="38.25" y="37.63" font-size="6.37" font-family="Helvetica, Arial, sans-serif" font-weight="700" fill="#FFFFFF">PHYSICAL REVIEW</text><text x="174.61" y="38.5" font-family="Helvetica, Arial, sans-serif" font-size="5.21" fill="#0F172A80">Nature 574, 505–510 (2019)</text><text x="160" y="48.2" font-family="Helvetica, Arial, sans-serif" font-size="8.24" fill="#0F172A" font-weight="700" opacity="0.95" text-anchor="middle">Quantum Supremacy Using a Programmable</text><text x="160" y="57.75" font-family="Helvetica, Arial, sans-serif" font-size="8.24" fill="#0F172A" font-weight="700" opacity="0.95" text-anchor="middle">Superconducting Processor</text><text x="160" y="70.85" font-family="Helvetica, Arial, sans-serif" font-size="2.81" fill="#111827e6" text-anchor="middle">F. Arute, K. Arya, R. Babbush, J. M. Martinis, et al. (Google Quantum AI)</text><text x="160" y="75.06" font-family="Helvetica, Arial, sans-serif" font-size="2.53" fill="#0F172A80" text-anchor="middle">Nature 574, 505–510 (2019)</text><rect x="27.2" y="81.23" width="265.6" height="47.52" fill="none" stroke="#1118277a" stroke-width="0.7"/><text x="36.5" y="89.31" font-family="Helvetica, Arial, sans-serif" font-size="5.46" fill="#111827" font-weight="700" opacity="0.9">Abstract</text><text x="36.5" y="98.34" font-family="Helvetica, Arial, sans-serif" font-size="4.04" fill="#0F172Aa8">The promise of quantum computers is that certain computational tasks might be executed exponentially faster on a</text><text x="36.5" y="105.94" font-family="Helvetica, Arial, sans-serif" font-size="4.04" fill="#0F172Aa8">quantum processor than on a classical supercomputer. We demonstrate quantum supremacy using a programmable</text><text x="36.5" y="113.55" font-family="Helvetica, Arial, sans-serif" font-size="4.04" fill="#0F172Aa8">superconducting processor with 53 active qubits. Our processor, named Sycamore, takes approximately 200 seconds to</text><text x="36.5" y="121.15" font-family="Helvetica, Arial, sans-serif" font-size="4.04" fill="#0F172Aa8">sample one instance of a quantum circuit one million times. In comparison, a state-of-the-art classical supercomputer…</text><text x="27.2" y="140.07" font-family="Helvetica, Arial, sans-serif" font-size="4.75" fill="#111827" font-weight="700" opacity="0.9">1  Introduction &amp; Computational Complexity</text><text x="27.2" y="146.48" font-family="Helvetica, Arial, sans-serif" font-size="4.14" fill="#0F172Aad">A computational task that is verifiable in polynomial</text><text x="27.2" y="152.69" font-family="Helvetica, Arial, sans-serif" font-size="4.14" fill="#0F172Aad">time but intractable for classical computers provides the</text><text x="27.2" y="158.9" font-family="Helvetica, Arial, sans-serif" font-size="4.14" fill="#0F172Aad">operational benchmark for quantum computational</text><text x="27.2" y="165.1" font-family="Helvetica, Arial, sans-serif" font-size="4.14" fill="#0F172Aad">supremacy. Random Circuit Sampling (RCS) generates</text><text x="27.2" y="171.31" font-family="Helvetica, Arial, sans-serif" font-size="4.14" fill="#0F172Aad">pseudo-random quantum states in an exponentially large</text><text x="27.2" y="177.52" font-family="Helvetica, Arial, sans-serif" font-size="4.14" fill="#0F172Aad">Hilbert space (253 ~ 9. 0 x 1015 dimensions). In this</text><text x="27.2" y="183.73" font-family="Helvetica, Arial, sans-serif" font-size="4.14" fill="#0F172Aad">regime, classical state-vector simulation suffers from…</text><rect x="27.2" y="191.59" width="124.17" height="23.53" rx="2" fill="#00629B29"/><text x="27.2" y="224.61" font-family="Helvetica, Arial, sans-serif" font-size="4.75" fill="#111827" font-weight="700" opacity="0.9">2  Gate Calibration &amp; Fast Flux Control</text><text x="27.2" y="231.02" font-family="Helvetica, Arial, sans-serif" font-size="4.14" fill="#0F172Aad">Single-qubit microwave driving gates (25 ns) are executed</text><text x="27.2" y="237.23" font-family="Helvetica, Arial, sans-serif" font-size="4.14" fill="#0F172Aad">simultaneously with an average Pauli error of 0. 15%.</text><text x="27.2" y="243.44" font-family="Helvetica, Arial, sans-serif" font-size="4.14" fill="#0F172Aad">Two-qubit entangling gates are realized via an adjustable</text><text x="27.2" y="249.65" font-family="Helvetica, Arial, sans-serif" font-size="4.14" fill="#0F172Aad">iSWAP-like fermionic simulation gate (fSim) executed in</text><text x="27.2" y="255.85" font-family="Helvetica, Arial, sans-serif" font-size="4.14" fill="#0F172Aad">32 ns with a mean error of 0. 36%. Readout is performed</text><text x="27.2" y="262.06" font-family="Helvetica, Arial, sans-serif" font-size="4.14" fill="#0F172Aad">via frequency-multiplexed superconducting resonators with</text><text x="27.2" y="268.27" font-family="Helvetica, Arial, sans-serif" font-size="4.14" fill="#0F172Aad">single-shot discrimination fidelity of 96.</text><text x="27.2" y="309.15" font-family="Helvetica, Arial, sans-serif" font-size="4.75" fill="#111827" font-weight="700" opacity="0.9">3  Cross-Entropy Benchmarking (XEB)</text><text x="27.2" y="315.57" font-family="Helvetica, Arial, sans-serif" font-size="4.14" fill="#0F172Aad">To verify circuit execution, we compute the linear</text><text x="27.2" y="321.77" font-family="Helvetica, Arial, sans-serif" font-size="4.14" fill="#0F172Aad">cross-entropy benchmarking (XEB) fidelity: FXEB = 2^n ⟨</text><text x="27.2" y="327.98" font-family="Helvetica, Arial, sans-serif" font-size="4.14" fill="#0F172Aad">P(x) ⟩ - 1 where P(x) is the probability of bitstring x</text><text x="27.2" y="334.19" font-family="Helvetica, Arial, sans-serif" font-size="4.14" fill="#0F172Aad">computed from classical simulation. For the full</text><text x="27.2" y="340.39" font-family="Helvetica, Arial, sans-serif" font-size="4.14" fill="#0F172Aad">53-qubit, 20-cycle circuit, we measure F_XEB = (0. 224 +-</text><text x="27.2" y="346.6" font-family="Helvetica, Arial, sans-serif" font-size="4.14" fill="#0F172Aad">0. 021)%, demonstrating that the quantum processor</text><text x="27.2" y="352.81" font-family="Helvetica, Arial, sans-serif" font-size="4.14" fill="#0F172Aad">maintains phase coherence throughout the multi-qubit…</text><rect x="27.2" y="360.67" width="124.17" height="23.53" rx="2" fill="#00629B29"/><text x="168.63" y="140.07" font-family="Helvetica, Arial, sans-serif" font-size="4.75" fill="#111827" font-weight="700" opacity="0.9">1  Processor Architecture &amp; Qubit Control</text><text x="168.63" y="146.48" font-family="Helvetica, Arial, sans-serif" font-size="4.14" fill="#0F172Aad">The Sycamore processor comprises a 2D array of 54</text><text x="168.63" y="152.69" font-family="Helvetica, Arial, sans-serif" font-size="4.14" fill="#0F172Aad">transmon qubits interconnected in a square lattice with</text><text x="168.63" y="158.9" font-family="Helvetica, Arial, sans-serif" font-size="4.14" fill="#0F172Aad">86 adjustable couplers (one qubit was inoperative,</text><text x="168.63" y="165.1" font-family="Helvetica, Arial, sans-serif" font-size="4.14" fill="#0F172Aad">leaving 53 active). Each transmon qubit has two inductive</text><text x="168.63" y="171.31" font-family="Helvetica, Arial, sans-serif" font-size="4.14" fill="#0F172Aad">Josephson junctions forming a SQUID loop, enabling fast</text><text x="168.63" y="177.52" font-family="Helvetica, Arial, sans-serif" font-size="4.14" fill="#0F172Aad">flux tuning of the qubit transition frequency between 5</text><text x="168.63" y="183.73" font-family="Helvetica, Arial, sans-serif" font-size="4.14" fill="#0F172Aad">and 7 GHz. The adjustable couplers allow dynamic tuning</text><text x="168.63" y="189.93" font-family="Helvetica, Arial, sans-serif" font-size="4.14" fill="#0F172Aad">of the effective inter-qubit exchange coupling from 0 to</text><text x="168.63" y="196.14" font-family="Helvetica, Arial, sans-serif" font-size="4.14" fill="#0F172Aad">40 MHz, eliminating parasitic crosstalk during</text><text x="168.63" y="202.35" font-family="Helvetica, Arial, sans-serif" font-size="4.14" fill="#0F172Aad">single-qubit gates.</text><text x="168.63" y="224.61" font-family="Helvetica, Arial, sans-serif" font-size="4.75" fill="#111827" font-weight="700" opacity="0.9">2  Random Circuit Sampling Protocol</text><text x="168.63" y="231.02" font-family="Helvetica, Arial, sans-serif" font-size="4.14" fill="#0F172Aad">Each cycle of the RCS benchmark consists of applying</text><text x="168.63" y="237.23" font-family="Helvetica, Arial, sans-serif" font-size="4.14" fill="#0F172Aad">single-qubit gates randomly chosen from sqrt(X), sqrt(Y),</text><text x="168.63" y="243.44" font-family="Helvetica, Arial, sans-serif" font-size="4.14" fill="#0F172Aad">sqrt(W) followed by two-qubit entangling couplers applied</text><text x="168.63" y="249.65" font-family="Helvetica, Arial, sans-serif" font-size="4.14" fill="#0F172Aad">in a four-pattern alternating cycle (A, B, C, D). As</text><text x="168.63" y="255.85" font-family="Helvetica, Arial, sans-serif" font-size="4.14" fill="#0F172Aad">circuit depth m increases from 12 to 20 cycles, quantum</text><text x="168.63" y="262.06" font-family="Helvetica, Arial, sans-serif" font-size="4.14" fill="#0F172Aad">entanglement spreads across all 53 qubits, producing</text><text x="168.63" y="268.27" font-family="Helvetica, Arial, sans-serif" font-size="4.14" fill="#0F172Aad">Porter-Thomas output state distributions.</text><text x="168.63" y="309.15" font-family="Helvetica, Arial, sans-serif" font-size="4.75" fill="#111827" font-weight="700" opacity="0.9">3  Classical Supercomputer Benchmarks</text><text x="168.63" y="315.57" font-family="Helvetica, Arial, sans-serif" font-size="4.14" fill="#0F172Aad">Classical simulation complexity was validated on the</text><text x="168.63" y="321.77" font-family="Helvetica, Arial, sans-serif" font-size="4.14" fill="#0F172Aad">Summit supercomputer at Oak Ridge National Laboratory</text><text x="168.63" y="327.98" font-family="Helvetica, Arial, sans-serif" font-size="4.14" fill="#0F172Aad">using tensor contraction and Schrodinger-Feynman</text><text x="168.63" y="334.19" font-family="Helvetica, Arial, sans-serif" font-size="4.14" fill="#0F172Aad">algorithms:</text><text x="27.2" y="436.25" font-family="Helvetica, Arial, sans-serif" font-size="2.26" fill="#0F172A73">Quantum Supremacy Using a Programmable Superconducting…</text><text x="292.8" y="436.25" font-family="Helvetica, Arial, sans-serif" font-size="2.26" fill="#0F172A73">1</text></g></g><path d="M425.59 469.88 L503.87 474.56 L482.95 498.01 L404.67 493.34 Z" fill="#2417082e"/><path d="M423.34 465.59 L501.62 470.27 L480.7 493.72 L402.42 489.04 Z" fill="url(#tp-beamer-focus-page-14)" stroke="#0F172A1f"/><g clip-path="url(#tp-beamer-focus-sheet-15)"><g transform="matrix(0.24 0.01 -0.06 0.06 423.34 465.59)"><rect width="320" height="370.4" fill="#FFFFFF"/><rect x="16" y="16" width="288" height="162" fill="#0F172A"/><rect x="16" y="163.42" width="288" height="14.58" fill="#1C1C1C"/><text x="160" y="64.6" font-family="Helvetica, Arial, sans-serif" font-size="18.63" fill="#FFFFFF" font-weight="700" opacity="0.97" text-anchor="middle">Quantum Supremacy on</text><text x="160" y="87.7" font-family="Helvetica, Arial, sans-serif" font-size="18.63" fill="#FFFFFF" font-weight="700" opacity="0.97" text-anchor="middle">Sycamore</text><rect x="136.96" y="116.44" width="46.08" height="3.24" fill="#1C1C1C"/><text x="160" y="139.12" font-family="Helvetica, Arial, sans-serif" font-size="10.04" fill="#FFFFFF" opacity="0.6" text-anchor="middle">F. Arute, K. Arya, R. Babbush, J. M.…</text><text x="160" y="158.56" font-family="Helvetica, Arial, sans-serif" font-size="4.42" fill="#FFFFFF" opacity="0.42" text-anchor="middle">Nature 574, 505–510 (2019)</text><rect x="16" y="192.4" width="288" height="162" fill="#FFFFFF" stroke="#0F172A24"/><rect x="16" y="192.4" width="288" height="8.91" fill="#1C1C1C"/><text x="27.52" y="223.18" font-family="Helvetica, Arial, sans-serif" font-size="16.2" fill="#0F172A" font-weight="700" opacity="0.9">The Supremacy Horizon</text><rect x="27.52" y="234.52" width="28.8" height="3.56" fill="#1C1C1C"/><text x="23.2" y="261.09" font-family="Helvetica, Arial, sans-serif" font-size="9.22" fill="#0F172Aad">Milestone: First…</text><text x="23.2" y="280.53" font-family="Helvetica, Arial, sans-serif" font-size="9.22" fill="#0F172Aad">Sycamore Run Time:…</text><rect x="136.96" y="247.48" width="144" height="82.62" rx="3" fill="#1C1C1C29"/></g></g><path d="M279.82 435.96 L446.5 452.52 L417.71 471.93 L251.03 455.37 Z" fill="url(#tp-beamer-focus-shadow-16)"/><path d="M289 432.4 L420.47 446.84 L399.54 459.6 L268.07 445.16 Z" fill="#dbdad8" stroke="#0F172A2e"/><g clip-path="url(#tp-beamer-focus-keys-17)"><g transform="matrix(4.11 0.45 -1.74 1.06 289 432.4)"><rect x="1.8" y="1.4" width="2.1" height="1.9" rx="0.4" fill="#FFFFFF" opacity="0.6"/><rect x="4.25" y="1.4" width="2.1" height="1.9" rx="0.4" fill="#FFFFFF" opacity="0.6"/><rect x="6.7" y="1.4" width="2.1" height="1.9" rx="0.4" fill="#FFFFFF" opacity="0.6"/><rect x="9.15" y="1.4" width="2.1" height="1.9" rx="0.4" fill="#FFFFFF" opacity="0.6"/><rect x="11.6" y="1.4" width="2.1" height="1.9" rx="0.4" fill="#FFFFFF" opacity="0.6"/><rect x="14.05" y="1.4" width="2.1" height="1.9" rx="0.4" fill="#FFFFFF" opacity="0.6"/><rect x="16.5" y="1.4" width="2.1" height="1.9" rx="0.4" fill="#FFFFFF" opacity="0.6"/><rect x="18.95" y="1.4" width="2.1" height="1.9" rx="0.4" fill="#FFFFFF" opacity="0.6"/><rect x="21.4" y="1.4" width="2.1" height="1.9" rx="0.4" fill="#FFFFFF" opacity="0.6"/><rect x="23.85" y="1.4" width="2.1" height="1.9" rx="0.4" fill="#FFFFFF" opacity="0.6"/><rect x="26.3" y="1.4" width="2.1" height="1.9" rx="0.4" fill="#FFFFFF" opacity="0.6"/><rect x="28.75" y="1.4" width="2.1" height="1.9" rx="0.4" fill="#FFFFFF" opacity="0.6"/><rect x="1.8" y="3.7" width="2.1" height="1.9" rx="0.4" fill="#FFFFFF" opacity="0.6"/><rect x="4.25" y="3.7" width="2.1" height="1.9" rx="0.4" fill="#FFFFFF" opacity="0.6"/><rect x="6.7" y="3.7" width="2.1" height="1.9" rx="0.4" fill="#FFFFFF" opacity="0.6"/><rect x="9.15" y="3.7" width="2.1" height="1.9" rx="0.4" fill="#FFFFFF" opacity="0.6"/><rect x="11.6" y="3.7" width="2.1" height="1.9" rx="0.4" fill="#FFFFFF" opacity="0.6"/><rect x="14.05" y="3.7" width="2.1" height="1.9" rx="0.4" fill="#FFFFFF" opacity="0.6"/><rect x="16.5" y="3.7" width="2.1" height="1.9" rx="0.4" fill="#FFFFFF" opacity="0.6"/><rect x="18.95" y="3.7" width="2.1" height="1.9" rx="0.4" fill="#FFFFFF" opacity="0.6"/><rect x="21.4" y="3.7" width="2.1" height="1.9" rx="0.4" fill="#FFFFFF" opacity="0.6"/><rect x="23.85" y="3.7" width="2.1" height="1.9" rx="0.4" fill="#FFFFFF" opacity="0.6"/><rect x="26.3" y="3.7" width="2.1" height="1.9" rx="0.4" fill="#FFFFFF" opacity="0.6"/><rect x="28.75" y="3.7" width="2.1" height="1.9" rx="0.4" fill="#FFFFFF" opacity="0.6"/><rect x="1.8" y="6" width="2.1" height="1.9" rx="0.4" fill="#FFFFFF" opacity="0.6"/><rect x="4.25" y="6" width="2.1" height="1.9" rx="0.4" fill="#FFFFFF" opacity="0.6"/><rect x="6.7" y="6" width="2.1" height="1.9" rx="0.4" fill="#FFFFFF" opacity="0.6"/><rect x="9.15" y="6" width="2.1" height="1.9" rx="0.4" fill="#FFFFFF" opacity="0.6"/><rect x="11.6" y="6" width="2.1" height="1.9" rx="0.4" fill="#FFFFFF" opacity="0.6"/><rect x="14.05" y="6" width="2.1" height="1.9" rx="0.4" fill="#FFFFFF" opacity="0.6"/><rect x="16.5" y="6" width="2.1" height="1.9" rx="0.4" fill="#FFFFFF" opacity="0.6"/><rect x="18.95" y="6" width="2.1" height="1.9" rx="0.4" fill="#FFFFFF" opacity="0.6"/><rect x="21.4" y="6" width="2.1" height="1.9" rx="0.4" fill="#FFFFFF" opacity="0.6"/><rect x="23.85" y="6" width="2.1" height="1.9" rx="0.4" fill="#FFFFFF" opacity="0.6"/><rect x="26.3" y="6" width="2.1" height="1.9" rx="0.4" fill="#FFFFFF" opacity="0.6"/><rect x="28.75" y="6" width="2.1" height="1.9" rx="0.4" fill="#FFFFFF" opacity="0.6"/><rect x="1.8" y="8.3" width="2.1" height="1.9" rx="0.4" fill="#FFFFFF" opacity="0.6"/><rect x="4.25" y="8.3" width="2.1" height="1.9" rx="0.4" fill="#FFFFFF" opacity="0.6"/><rect x="6.7" y="8.3" width="2.1" height="1.9" rx="0.4" fill="#FFFFFF" opacity="0.6"/><rect x="9.15" y="8.3" width="2.1" height="1.9" rx="0.4" fill="#FFFFFF" opacity="0.6"/><rect x="11.6" y="8.3" width="2.1" height="1.9" rx="0.4" fill="#FFFFFF" opacity="0.6"/><rect x="14.05" y="8.3" width="2.1" height="1.9" rx="0.4" fill="#FFFFFF" opacity="0.6"/><rect x="16.5" y="8.3" width="2.1" height="1.9" rx="0.4" fill="#FFFFFF" opacity="0.6"/><rect x="18.95" y="8.3" width="2.1" height="1.9" rx="0.4" fill="#FFFFFF" opacity="0.6"/><rect x="21.4" y="8.3" width="2.1" height="1.9" rx="0.4" fill="#FFFFFF" opacity="0.6"/><rect x="23.85" y="8.3" width="2.1" height="1.9" rx="0.4" fill="#FFFFFF" opacity="0.6"/><rect x="26.3" y="8.3" width="2.1" height="1.9" rx="0.4" fill="#FFFFFF" opacity="0.6"/><rect x="28.75" y="8.3" width="2.1" height="1.9" rx="0.4" fill="#FFFFFF" opacity="0.6"/></g></g><path d="M56.45 428.75 L181.46 441.16 L146.27 464.89 L21.26 452.47 Z" fill="url(#tp-beamer-focus-shadow-18)"/><path d="M49.9 427.74 L155.7 432.08 L143.83 451.48 L38.03 447.14 Z" fill="#5a413c" stroke="#0F172A33"/><path d="M49.9 425.59 L155.7 429.92 L143.83 449.32 L38.03 444.98 Z" fill="#ece8e0"/><path d="M76.42 444.09 L134.22 442.78 L134.65 444.05 L76.85 445.36 Z" fill="#191919"/><rect width="800" height="600" fill="url(#tp-beamer-focus-warm-19)"/><rect width="800" height="600" fill="url(#tp-beamer-focus-vignette-20)"/></svg>