<svg xmlns="http://www.w3.org/2000/svg" width="800" height="600" viewBox="0 0 800 600" role="img" aria-label="Conference Modern template preview" data-template-id="conference"><defs><linearGradient id="tp-conference-wall-1" x1="0" y1="0" x2="0.35" y2="1"><stop offset="0" stop-color="#f3edea"/><stop offset="0.62" stop-color="#efe8e4"/><stop offset="1" stop-color="#bfb6ab"/></linearGradient><linearGradient id="tp-conference-window-2" x1="0" y1="0" x2="0" y2="1"><stop offset="0" stop-color="#FFFCF2"/><stop offset="1" stop-color="#FFEFD2"/></linearGradient><linearGradient id="tp-conference-desk-3" x1="0" y1="0" x2="0.15" y2="1"><stop offset="0" stop-color="#e2c39f"/><stop offset="0.55" stop-color="#d3a46d"/><stop offset="1" stop-color="#b18a5c"/></linearGradient><clipPath id="tp-conference-grain-4"><path d="M147.26 373.46 L744.09 425.14 L632.83 511.21 L36 459.52 Z"/></clipPath><radialGradient id="tp-conference-shadow-5" cx="0.5" cy="0.5" r="0.5"><stop offset="0" stop-color="#22160A" stop-opacity="0.26"/><stop offset="0.6" stop-color="#22160A" stop-opacity="0.13"/><stop offset="1" stop-color="#22160A" stop-opacity="0"/></radialGradient><clipPath id="tp-conference-board-6"><path d="M272.36 112.69 L439.14 122.26 L439.14 355.54 L272.36 345.97 Z"/></clipPath><radialGradient id="tp-conference-shadow-7" cx="0.5" cy="0.5" r="0.5"><stop offset="0" stop-color="#22160A" stop-opacity="0.24"/><stop offset="0.6" stop-color="#22160A" stop-opacity="0.12"/><stop offset="1" stop-color="#22160A" stop-opacity="0"/></radialGradient><radialGradient id="tp-conference-shadow-8" cx="0.5" cy="0.5" r="0.5"><stop offset="0" stop-color="#22160A" stop-opacity="0.22"/><stop offset="0.6" stop-color="#22160A" stop-opacity="0.11"/><stop offset="1" stop-color="#22160A" stop-opacity="0"/></radialGradient><radialGradient id="tp-conference-shadow-9" cx="0.5" cy="0.5" r="0.5"><stop offset="0" stop-color="#22160A" stop-opacity="0.2"/><stop offset="0.6" stop-color="#22160A" stop-opacity="0.1"/><stop offset="1" stop-color="#22160A" stop-opacity="0"/></radialGradient><clipPath id="tp-conference-keys-10"><path d="M569.47 425.11 L668.92 444.16 L639.83 454.33 L540.38 435.29 Z"/></clipPath><clipPath id="tp-conference-screen-11"><path d="M586.3 341.38 L697.32 362.64 L689.29 439.35 L578.28 418.08 Z"/></clipPath><linearGradient id="tp-conference-page-12" x1="0" y1="1" x2="1" y2="0"><stop offset="0" stop-color="#FFFFFF"/><stop offset="1" stop-color="#ececee"/></linearGradient><clipPath id="tp-conference-sheet-13"><path d="M111.28 427.03 L192.62 439.43 L124.86 469.21 L43.52 456.81 Z"/></clipPath><linearGradient id="tp-conference-page-14" x1="0" y1="1" x2="1" y2="0"><stop offset="0" stop-color="#FFFFFF"/><stop offset="1" stop-color="#ececee"/></linearGradient><clipPath id="tp-conference-sheet-15"><path d="M465 462.87 L558.49 466.27 L539.91 500.49 L446.42 497.09 Z"/></clipPath><radialGradient id="tp-conference-shadow-16" cx="0.5" cy="0.5" r="0.5"><stop offset="0" stop-color="#22160A" stop-opacity="0.2"/><stop offset="0.6" stop-color="#22160A" stop-opacity="0.1"/><stop offset="1" stop-color="#22160A" stop-opacity="0"/></radialGradient><clipPath id="tp-conference-keys-17"><path d="M288 436.19 L422.74 449.23 L403.85 462.31 L269.11 449.27 Z"/></clipPath><radialGradient id="tp-conference-shadow-18" cx="0.5" cy="0.5" r="0.5"><stop offset="0" stop-color="#22160A" stop-opacity="0.22"/><stop offset="0.6" stop-color="#22160A" stop-opacity="0.11"/><stop offset="1" stop-color="#22160A" stop-opacity="0"/></radialGradient><linearGradient id="tp-conference-warm-19" x1="0" y1="0" x2="0.7" y2="1"><stop offset="0" stop-color="#FFF4DC" stop-opacity="0.42"/><stop offset="0.45" stop-color="#FFF4DC" stop-opacity="0.1"/><stop offset="1" stop-color="#3B2410" stop-opacity="0.14"/></linearGradient><radialGradient id="tp-conference-vignette-20" cx="0.45" cy="0.42" r="0.8"><stop offset="0.55" stop-color="#000000" stop-opacity="0"/><stop offset="1" stop-color="#000000" stop-opacity="0.28"/></radialGradient></defs><path d="M133.06 369.77 L764 424.41 L764 42.3 L133.06 -12.34 Z" fill="url(#tp-conference-wall-1)"/><path d="M166.59 258.53 L337.12 273.3 L337.12 74.6 L166.59 59.83 Z" fill="url(#tp-conference-window-2)"/><rect x="250.16" y="59.83" width="3.4" height="198.7" fill="#FFFFFF" opacity="0.72"/><rect x="166.59" y="159.18" width="170.52" height="2.6" fill="#FFFFFF" opacity="0.55"/><path d="M508.21 230.31 L755.47 251.72 L745.49 259.45 L498.23 238.03 Z" fill="#c7a684"/><path d="M498.23 248.45 L745.49 269.87 L745.49 259.45 L498.23 238.03 Z" fill="#8d6a48"/><path d="M513.87 236.93 L526.23 238 L526.23 166.36 L513.87 165.29 Z" fill="#1c4aca"/><path d="M526.23 238 L523.38 240.21 L523.38 168.56 L526.23 166.36 Z" fill="#143591"/><path d="M531.35 238.45 L545.84 239.7 L545.84 181.08 L531.35 179.83 Z" fill="#854139"/><path d="M545.84 239.7 L542.99 241.91 L542.99 183.29 L545.84 181.08 Z" fill="#602f29"/><path d="M550.96 240.15 L561.19 241.03 L561.19 169.38 L550.96 168.5 Z" fill="#10688a"/><path d="M561.19 241.03 L558.34 243.24 L558.34 171.59 L561.19 169.38 Z" fill="#0c4b63"/><path d="M566.31 241.47 L578.67 242.55 L578.67 183.92 L566.31 182.85 Z" fill="#451c88"/><path d="M578.67 242.55 L575.82 244.75 L575.82 186.13 L578.67 183.92 Z" fill="#321462"/><path d="M583.79 242.99 L598.28 244.24 L598.28 172.6 L583.79 171.34 Z" fill="#1c5876"/><path d="M598.28 244.24 L595.43 246.45 L595.43 174.8 L598.28 172.6 Z" fill="#143f55"/><path d="M603.4 244.69 L613.63 245.57 L613.63 186.95 L603.4 186.07 Z" fill="#914e56"/><path d="M613.63 245.57 L610.77 247.78 L610.77 189.16 L613.63 186.95 Z" fill="#68383e"/><path d="M618.74 246.02 L631.11 247.09 L631.11 175.44 L618.74 174.37 Z" fill="#0f6864"/><path d="M631.11 247.09 L628.25 249.29 L628.25 177.65 L631.11 175.44 Z" fill="#0b4b48"/><path d="M636.22 247.53 L650.72 248.78 L650.72 190.16 L636.22 188.91 Z" fill="#4b505a"/><path d="M650.72 248.78 L647.86 250.99 L647.86 192.37 L650.72 190.16 Z" fill="#363a41"/><path d="M655.83 249.23 L666.06 250.11 L666.06 178.47 L655.83 177.58 Z" fill="#1c4aca"/><path d="M666.06 250.11 L663.21 252.32 L663.21 180.67 L666.06 178.47 Z" fill="#143591"/><path d="M671.18 250.56 L683.54 251.63 L683.54 193.01 L671.18 191.94 Z" fill="#854139"/><path d="M683.54 251.63 L680.69 253.83 L680.69 195.21 L683.54 193.01 Z" fill="#602f29"/><path d="M688.66 252.07 L703.15 253.33 L703.15 181.68 L688.66 180.42 Z" fill="#10688a"/><path d="M703.15 253.33 L700.3 255.53 L700.3 183.89 L703.15 181.68 Z" fill="#0c4b63"/><path d="M708.27 253.77 L718.5 254.65 L718.5 196.03 L708.27 195.15 Z" fill="#451c88"/><path d="M718.5 254.65 L715.65 256.86 L715.65 198.24 L718.5 196.03 Z" fill="#321462"/><path d="M508.21 157.71 L755.47 179.12 L745.49 186.84 L498.23 165.43 Z" fill="#c7a684"/><path d="M498.23 175.85 L745.49 197.26 L745.49 186.84 L498.23 165.43 Z" fill="#8d6a48"/><path d="M523.84 160.29 L596.31 166.56 L589.18 172.08 L516.71 165.8 Z" fill="#1c4aca"/><path d="M609.1 167.67 L664.52 172.47 L657.39 177.99 L601.97 173.19 Z" fill="#66459d"/><path d="M147.26 373.46 L744.09 425.14 L632.83 511.21 L36 459.52 Z" fill="url(#tp-conference-desk-3)"/><path d="M36 489.92 L632.83 541.6 L632.83 511.21 L36 459.52 Z" fill="#836644"/><path d="M632.83 541.6 L744.09 455.54 L744.09 425.14 L632.83 511.21 Z" fill="#98764e"/><g clip-path="url(#tp-conference-grain-4)"><g transform="matrix(4.26 0.37 -1.43 1.1 147.26 373.46)"><rect x="24" y="9.75" width="92" height="0.6" fill="#8A5A2B" opacity="0.13"/><rect x="6" y="19.5" width="118" height="0.6" fill="#8A5A2B" opacity="0.13"/><rect x="24" y="29.25" width="92" height="0.6" fill="#8A5A2B" opacity="0.13"/><rect x="6" y="39" width="118" height="0.6" fill="#8A5A2B" opacity="0.13"/><rect x="24" y="48.75" width="92" height="0.6" fill="#8A5A2B" opacity="0.13"/><rect x="6" y="58.5" width="118" height="0.6" fill="#8A5A2B" opacity="0.13"/><rect x="24" y="68.25" width="92" height="0.6" fill="#8A5A2B" opacity="0.13"/></g></g><path d="M280.61 400.46 L279.32 114.09 L291.26 113.66 L292.55 400.03 Z" fill="#a77647"/><path d="M407.69 411.47 L408.98 125.32 L420.92 124.88 L419.63 411.03 Z" fill="#744e2e"/><path d="M349.01 399.27 L349.01 80.45 L369.47 82.22 L369.47 401.04 Z" fill="#865e39"/><path d="M247.59 393.55 L529.98 418 L495.74 444.48 L213.35 420.03 Z" fill="url(#tp-conference-shadow-5)"/><path d="M447.54 115.07 L450.07 112.12 L450.07 360.16 L447.54 363.11 Z" fill="#0F172A24"/><path d="M265.25 104.6 L446.95 115.03 L446.95 363.07 L265.25 352.65 Z" fill="#f9f9fe" stroke="#0F172A24"/><g clip-path="url(#tp-conference-board-6)"><g transform="matrix(0.52 0.03 0 0.52 272.36 112.69)"><rect width="320" height="452.41" fill="#FFFFFF"/><rect x="0.5" y="0.5" width="319" height="451.41" fill="none" stroke="#0F172A24"/><rect x="11.2" y="11.2" width="297.6" height="54.29" rx="12" fill="#4F46E5"/><rect x="70.72" y="26.4" width="178.56" height="8.69" rx="4.34" fill="#FFFFFF" opacity="0.95"/><rect x="102.86" y="42.69" width="114.28" height="5.43" rx="2.71" fill="#FFFFFF" opacity="0.6"/><rect x="11.2" y="71.49" width="94.84" height="118.31" rx="6" fill="#4F46E50a" stroke="#4F46E547"/><rect x="16.89" y="79.77" width="58.8" height="8.28" rx="4.14" fill="#4F46E5" opacity="0.95"/><rect x="15.94" y="93.38" width="85.35" height="2.6" fill="#4F46E5"/><rect x="16.89" y="103.43" width="81.56" height="5.32" rx="2.66" fill="#0F172A4d" opacity="1"/><rect x="16.89" y="118.81" width="58.8" height="5.32" rx="2.66" fill="#0F172A4d" opacity="1"/><rect x="16.89" y="134.19" width="81.56" height="5.32" rx="2.66" fill="#0F172A4d" opacity="1"/><rect x="16.89" y="149.58" width="58.8" height="5.32" rx="2.66" fill="#0F172A4d" opacity="1"/><rect x="11.2" y="197.2" width="94.84" height="118.31" rx="6" fill="#4F46E50a" stroke="#4F46E547"/><rect x="16.89" y="205.48" width="58.8" height="8.28" rx="4.14" fill="#4F46E5" opacity="0.95"/><rect x="15.94" y="219.08" width="85.35" height="2.6" fill="#4F46E5"/><rect x="16.89" y="229.14" width="81.56" height="5.32" rx="2.66" fill="#0F172A4d" opacity="1"/><rect x="16.89" y="244.52" width="58.8" height="5.32" rx="2.66" fill="#0F172A4d" opacity="1"/><rect x="16.89" y="259.9" width="81.56" height="5.32" rx="2.66" fill="#0F172A4d" opacity="1"/><rect x="16.89" y="275.28" width="58.8" height="5.32" rx="2.66" fill="#0F172A4d" opacity="1"/><rect x="11.2" y="322.9" width="94.84" height="118.31" rx="6" fill="#4F46E50a" stroke="#4F46E547"/><rect x="16.89" y="331.18" width="58.8" height="8.28" rx="4.14" fill="#4F46E5" opacity="0.95"/><rect x="15.94" y="344.79" width="85.35" height="2.6" fill="#4F46E5"/><rect x="16.89" y="354.85" width="81.56" height="5.32" rx="2.66" fill="#0F172A4d" opacity="1"/><rect x="16.89" y="370.23" width="58.8" height="5.32" rx="2.66" fill="#0F172A4d" opacity="1"/><rect x="16.89" y="385.61" width="81.56" height="5.32" rx="2.66" fill="#0F172A4d" opacity="1"/><rect x="16.89" y="400.99" width="58.8" height="5.32" rx="2.66" fill="#0F172A4d" opacity="1"/><rect x="16.89" y="415.19" width="83.45" height="35.49" rx="2" fill="#0284C72e"/><rect x="112.58" y="71.49" width="94.84" height="181.16" rx="6" fill="#4F46E50a" stroke="#4F46E547"/><rect x="118.27" y="84.17" width="58.8" height="12.68" rx="6.34" fill="#4F46E5" opacity="0.95"/><rect x="117.32" y="105.01" width="85.35" height="3.99" fill="#4F46E5"/><rect x="116.38" y="116.78" width="26.55" height="36.23" rx="3" fill="#4F46E51f"/><rect x="121.69" y="125.84" width="15.93" height="10.87" rx="5.43" fill="#4F46E5" opacity="0.95"/><rect x="144.83" y="116.78" width="26.55" height="36.23" rx="3" fill="#4F46E51f"/><rect x="150.14" y="125.84" width="15.93" height="10.87" rx="5.43" fill="#4F46E5" opacity="0.95"/><rect x="173.28" y="116.78" width="26.55" height="36.23" rx="3" fill="#4F46E51f"/><rect x="178.59" y="125.84" width="15.93" height="10.87" rx="5.43" fill="#4F46E5" opacity="0.95"/><rect x="118.27" y="165.7" width="80.61" height="8.15" rx="4.08" fill="#0F172A4d" opacity="1"/><rect x="118.27" y="185.62" width="56.9" height="8.15" rx="4.08" fill="#0F172A4d" opacity="1"/><rect x="118.27" y="205.55" width="80.61" height="8.15" rx="4.08" fill="#0F172A4d" opacity="1"/><rect x="112.58" y="260.05" width="94.84" height="181.16" rx="6" fill="#4F46E50a" stroke="#4F46E547"/><rect x="118.27" y="272.73" width="58.8" height="12.68" rx="6.34" fill="#4F46E5" opacity="0.95"/><rect x="117.32" y="293.56" width="85.35" height="3.99" fill="#4F46E5"/><rect x="118.27" y="308.96" width="81.56" height="8.15" rx="4.08" fill="#0F172A4d" opacity="1"/><rect x="118.27" y="332.51" width="58.8" height="8.15" rx="4.08" fill="#0F172A4d" opacity="1"/><rect x="118.27" y="356.07" width="81.56" height="8.15" rx="4.08" fill="#0F172A4d" opacity="1"/><rect x="118.27" y="379.62" width="58.8" height="8.15" rx="4.08" fill="#0F172A4d" opacity="1"/><rect x="118.27" y="401.36" width="83.45" height="54.35" rx="2" fill="#0284C72e"/><rect x="213.96" y="71.49" width="94.84" height="118.31" rx="6" fill="#4F46E50a" stroke="#4F46E547"/><rect x="219.65" y="79.77" width="58.8" height="8.28" rx="4.14" fill="#4F46E5" opacity="0.95"/><rect x="218.71" y="93.38" width="85.35" height="2.6" fill="#4F46E5"/><rect x="219.65" y="103.43" width="81.56" height="5.32" rx="2.66" fill="#0F172A4d" opacity="1"/><rect x="219.65" y="118.81" width="58.8" height="5.32" rx="2.66" fill="#0F172A4d" opacity="1"/><rect x="219.65" y="134.19" width="81.56" height="5.32" rx="2.66" fill="#0F172A4d" opacity="1"/><rect x="219.65" y="149.58" width="58.8" height="5.32" rx="2.66" fill="#0F172A4d" opacity="1"/><rect x="213.96" y="197.2" width="94.84" height="118.31" rx="6" fill="#4F46E50a" stroke="#4F46E547"/><rect x="219.65" y="205.48" width="58.8" height="8.28" rx="4.14" fill="#4F46E5" opacity="0.95"/><rect x="218.71" y="219.08" width="85.35" height="2.6" fill="#4F46E5"/><rect x="219.65" y="229.14" width="81.56" height="5.32" rx="2.66" fill="#0F172A4d" opacity="1"/><rect x="219.65" y="244.52" width="58.8" height="5.32" rx="2.66" fill="#0F172A4d" opacity="1"/><rect x="219.65" y="259.9" width="81.56" height="5.32" rx="2.66" fill="#0F172A4d" opacity="1"/><rect x="219.65" y="275.28" width="58.8" height="5.32" rx="2.66" fill="#0F172A4d" opacity="1"/><rect x="213.96" y="322.9" width="94.84" height="118.31" rx="6" fill="#4F46E50a" stroke="#4F46E547"/><rect x="219.65" y="331.18" width="58.8" height="8.28" rx="4.14" fill="#4F46E5" opacity="0.95"/><rect x="218.71" y="344.79" width="85.35" height="2.6" fill="#4F46E5"/><rect x="219.65" y="354.85" width="81.56" height="5.32" rx="2.66" fill="#0F172A4d" opacity="1"/><rect x="219.65" y="370.23" width="58.8" height="5.32" rx="2.66" fill="#0F172A4d" opacity="1"/><rect x="219.65" y="385.61" width="81.56" height="5.32" rx="2.66" fill="#0F172A4d" opacity="1"/><rect x="219.65" y="400.99" width="58.8" height="5.32" rx="2.66" fill="#0F172A4d" opacity="1"/><rect x="219.65" y="415.19" width="83.45" height="35.49" rx="2" fill="#0284C72e"/></g></g><circle cx="281.41" cy="104.27" r="2.6" fill="#4F46E5eb"/><circle cx="429.66" cy="117.11" r="2.6" fill="#4F46E5eb"/><path d="M256.18 354.11 L444.61 370.43 L450.32 366.02 L261.89 349.7 Z" fill="#b9916c"/><path d="M256.18 364.1 L444.61 380.42 L444.61 370.43 L256.18 354.11 Z" fill="#744e2e"/><path d="M645.59 421.11 L745.35 429.75 L714.54 453.59 L614.78 444.95 Z" fill="url(#tp-conference-shadow-7)"/><path d="M656.64 432.29 L695 435.61 L695 400.88 L656.64 397.55 Z" fill="#b9786b"/><path d="M662.41 393.08 L700.78 396.41 L689.23 405.34 L650.86 402.02 Z" fill="#946056"/><path d="M675.82 399.21 Q649.17 380.82 636.51 370.42 Q663.17 380.82 675.82 399.21" fill="#325652" opacity="0.96"/><path d="M675.82 399.21 Q651.34 372.72 640.87 354.22 Q665.34 372.72 675.82 399.21" fill="#42726d" opacity="0.96"/><path d="M675.82 399.21 Q657.38 365.38 652.93 339.54 Q671.38 365.38 675.82 399.21" fill="#325652" opacity="0.96"/><path d="M675.82 399.21 Q667.08 360.25 672.35 329.28 Q681.08 360.25 675.82 399.21" fill="#42726d" opacity="0.96"/><path d="M675.82 399.21 Q674.57 374.79 687.32 358.37 Q688.57 374.79 675.82 399.21" fill="#325652" opacity="0.96"/><path d="M675.82 399.21 Q683.76 374.92 705.71 358.62 Q697.76 374.92 675.82 399.21" fill="#42726d" opacity="0.96"/><path d="M675.82 399.21 Q693.79 378.66 725.75 366.11 Q707.79 378.66 675.82 399.21" fill="#325652" opacity="0.96"/><path d="M153.46 417.33 L204.19 421.72 L187.22 434.85 L136.49 430.46 Z" fill="url(#tp-conference-shadow-8)"/><path d="M152.02 422.94 L181.86 425.53 L181.86 398.61 L152.02 396.02 Z" fill="#81c2e3"/><path d="M157.01 392.16 L186.85 394.75 L176.87 402.47 L147.03 399.88 Z" fill="#b3daee"/><path d="M158.49 393.96 L180.88 395.9 L175.38 400.15 L153 398.21 Z" fill="#4A2C16"/><path d="M169.91 411.46 q10 -3 10 4.5 q0 6.5 -10 3" fill="none" stroke="#81c2e3" stroke-width="2.4"/><path d="M542.25 423.69 L719.59 439.05 L669.93 477.46 L492.58 462.1 Z" fill="url(#tp-conference-shadow-9)"/><path d="M575.97 417.64 L691.6 439.79 L633.42 460.14 L517.78 437.99 Z" fill="#949aa5"/><path d="M517.78 437.99 L633.42 460.14 L633.42 466.22 L517.78 444.07 Z" fill="#565960"/><path d="M569.47 425.11 L668.92 444.16 L639.83 454.33 L540.38 435.29 Z" fill="#737881"/><g clip-path="url(#tp-conference-keys-10)"><g transform="matrix(3.61 0.69 -2.67 0.94 569.47 425.11)"><rect x="1.92" y="0.65" width="28.16" height="1.31" rx="0.26" fill="#FFFFFF" opacity="0.22"/><rect x="1.92" y="2.83" width="28.16" height="1.31" rx="0.26" fill="#FFFFFF" opacity="0.22"/><rect x="1.92" y="5" width="28.16" height="1.31" rx="0.26" fill="#FFFFFF" opacity="0.22"/><rect x="1.92" y="7.18" width="28.16" height="1.31" rx="0.26" fill="#FFFFFF" opacity="0.22"/><rect x="1.92" y="9.36" width="28.16" height="1.31" rx="0.26" fill="#FFFFFF" opacity="0.22"/></g></g><path d="M594.07 440.07 L628.77 446.71 L614.8 451.6 L580.11 444.95 Z" fill="#a7acb5"/><path d="M586.73 341.05 L697.74 362.31 L689.72 439.01 L578.71 417.75 Z" fill="#0b101d"/><g clip-path="url(#tp-conference-screen-11)"><g transform="matrix(0.35 0.07 -0.04 0.43 586.3 341.38)"><defs><linearGradient id="neutral-screen-320" x1="0" y1="0" x2="0.6" y2="1"><stop offset="0" stop-color="#090e19"/><stop offset="1" stop-color="#1d2537"/></linearGradient></defs><rect width="320" height="180" fill="url(#neutral-screen-320)"/><rect x="19.2" y="21.6" width="96" height="10.8" rx="3.6" fill="#4F46E580"/><rect x="19.2" y="43.2" width="134.4" height="6.3" rx="2.7" fill="#FFFFFF" opacity="0.45"/><rect x="19.2" y="61.2" width="108.8" height="6.3" rx="2.7" fill="#FFFFFF" opacity="0.26"/><rect x="19.2" y="79.2" width="83.2" height="6.3" rx="2.7" fill="#FFFFFF" opacity="0.18"/></g></g><path d="M113.83 431.33 L195.17 443.73 L127.41 473.51 L46.07 461.1 Z" fill="#2417082e"/><path d="M111.28 427.03 L192.62 439.43 L124.86 469.21 L43.52 456.81 Z" fill="url(#tp-conference-page-12)" stroke="#0F172A1f"/><g clip-path="url(#tp-conference-sheet-13)"><g transform="matrix(0.37 0.06 -0.22 0.1 111.28 427.03)"><rect width="220" height="311.14" fill="#FFFFFF"/><rect x="22" y="28" width="59.84" height="3.73" fill="#0F172A" opacity="0.3"/><rect x="22" y="40.45" width="151.36" height="8.71" rx="1.24" fill="#0F172A" opacity="0.78"/><rect x="22" y="54.45" width="105.6" height="5.6" rx="0.93" fill="#0F172A" opacity="0.38"/><rect x="22" y="66.9" width="35.2" height="1.87" fill="#4F46E5d9"/><rect x="22" y="80.9" width="55.18" height="3.86" rx="1.93" fill="#0F172A" opacity="0.48"/><rect x="22" y="87.65" width="75.24" height="2.31" rx="1.16" fill="#0F172A" opacity="0.15"/><rect x="22" y="105.01" width="68.55" height="3.86" rx="1.93" fill="#0F172A" opacity="0.24"/><rect x="22" y="111.76" width="75.24" height="2.31" rx="1.16" fill="#0F172A" opacity="0.15"/><rect x="22" y="129.12" width="68.55" height="3.86" rx="1.93" fill="#0F172A" opacity="0.24"/><rect x="22" y="135.88" width="75.24" height="2.31" rx="1.16" fill="#0F172A" opacity="0.15"/><rect x="22" y="153.24" width="78.58" height="3.86" rx="1.93" fill="#0F172A" opacity="0.24"/><rect x="22" y="159.99" width="75.24" height="2.31" rx="1.16" fill="#0F172A" opacity="0.15"/><rect x="22" y="177.35" width="55.18" height="3.86" rx="1.93" fill="#0F172A" opacity="0.48"/><rect x="22" y="184.1" width="75.24" height="2.31" rx="1.16" fill="#0F172A" opacity="0.15"/><rect x="22" y="201.47" width="68.55" height="3.86" rx="1.93" fill="#0F172A" opacity="0.24"/><rect x="22" y="208.22" width="75.24" height="2.31" rx="1.16" fill="#0F172A" opacity="0.15"/><rect x="22" y="225.58" width="78.58" height="3.86" rx="1.93" fill="#0F172A" opacity="0.24"/><rect x="22" y="232.33" width="75.24" height="2.31" rx="1.16" fill="#0F172A" opacity="0.15"/><rect x="22" y="249.69" width="68.55" height="3.86" rx="1.93" fill="#0F172A" opacity="0.24"/><rect x="22" y="256.44" width="75.24" height="2.31" rx="1.16" fill="#0F172A" opacity="0.15"/><rect x="114.4" y="80.9" width="55.18" height="3.86" rx="1.93" fill="#0F172A" opacity="0.48"/><rect x="114.4" y="87.65" width="75.24" height="2.31" rx="1.16" fill="#0F172A" opacity="0.15"/><rect x="114.4" y="105.01" width="68.55" height="3.86" rx="1.93" fill="#0F172A" opacity="0.24"/><rect x="114.4" y="111.76" width="75.24" height="2.31" rx="1.16" fill="#0F172A" opacity="0.15"/><rect x="114.4" y="129.12" width="68.55" height="3.86" rx="1.93" fill="#0F172A" opacity="0.24"/><rect x="114.4" y="135.88" width="75.24" height="2.31" rx="1.16" fill="#0F172A" opacity="0.15"/><rect x="114.4" y="153.24" width="78.58" height="3.86" rx="1.93" fill="#0F172A" opacity="0.24"/><rect x="114.4" y="159.99" width="75.24" height="2.31" rx="1.16" fill="#0F172A" opacity="0.15"/><rect x="114.4" y="177.35" width="55.18" height="3.86" rx="1.93" fill="#0F172A" opacity="0.48"/><rect x="114.4" y="184.1" width="75.24" height="2.31" rx="1.16" fill="#0F172A" opacity="0.15"/><rect x="114.4" y="201.47" width="68.55" height="3.86" rx="1.93" fill="#0F172A" opacity="0.24"/><rect x="114.4" y="208.22" width="75.24" height="2.31" rx="1.16" fill="#0F172A" opacity="0.15"/><rect x="114.4" y="225.58" width="78.58" height="3.86" rx="1.93" fill="#0F172A" opacity="0.24"/><rect x="114.4" y="232.33" width="75.24" height="2.31" rx="1.16" fill="#0F172A" opacity="0.15"/><rect x="114.4" y="249.69" width="68.55" height="3.86" rx="1.93" fill="#0F172A" opacity="0.24"/><rect x="114.4" y="256.44" width="75.24" height="2.31" rx="1.16" fill="#0F172A" opacity="0.15"/></g></g><path d="M467.55 467.17 L561.04 470.57 L542.46 504.79 L448.97 501.39 Z" fill="#2417082e"/><path d="M465 462.87 L558.49 466.27 L539.91 500.49 L446.42 497.09 Z" fill="url(#tp-conference-page-14)" stroke="#0F172A1f"/><g clip-path="url(#tp-conference-sheet-15)"><g transform="matrix(0.42 0.02 -0.06 0.11 465 462.87)"><rect width="220" height="311.14" fill="#FFFFFF"/><rect x="22" y="28" width="59.84" height="3.73" fill="#0F172A" opacity="0.3"/><rect x="22" y="40.45" width="151.36" height="8.71" rx="1.24" fill="#0F172A" opacity="0.78"/><rect x="22" y="54.45" width="105.6" height="5.6" rx="0.93" fill="#0F172A" opacity="0.38"/><rect x="22" y="66.9" width="35.2" height="1.87" fill="#4F46E5d9"/><rect x="22" y="80.9" width="55.18" height="3.86" rx="1.93" fill="#0F172A" opacity="0.48"/><rect x="22" y="87.65" width="75.24" height="2.31" rx="1.16" fill="#0F172A" opacity="0.15"/><rect x="22" y="105.01" width="68.55" height="3.86" rx="1.93" fill="#0F172A" opacity="0.24"/><rect x="22" y="111.76" width="75.24" height="2.31" rx="1.16" fill="#0F172A" opacity="0.15"/><rect x="22" y="129.12" width="68.55" height="3.86" rx="1.93" fill="#0F172A" opacity="0.24"/><rect x="22" y="135.88" width="75.24" height="2.31" rx="1.16" fill="#0F172A" opacity="0.15"/><rect x="22" y="153.24" width="78.58" height="3.86" rx="1.93" fill="#0F172A" opacity="0.24"/><rect x="22" y="159.99" width="75.24" height="2.31" rx="1.16" fill="#0F172A" opacity="0.15"/><rect x="22" y="177.35" width="55.18" height="3.86" rx="1.93" fill="#0F172A" opacity="0.48"/><rect x="22" y="184.1" width="75.24" height="2.31" rx="1.16" fill="#0F172A" opacity="0.15"/><rect x="22" y="201.47" width="68.55" height="3.86" rx="1.93" fill="#0F172A" opacity="0.24"/><rect x="22" y="208.22" width="75.24" height="2.31" rx="1.16" fill="#0F172A" opacity="0.15"/><rect x="22" y="225.58" width="78.58" height="3.86" rx="1.93" fill="#0F172A" opacity="0.24"/><rect x="22" y="232.33" width="75.24" height="2.31" rx="1.16" fill="#0F172A" opacity="0.15"/><rect x="22" y="249.69" width="68.55" height="3.86" rx="1.93" fill="#0F172A" opacity="0.24"/><rect x="22" y="256.44" width="75.24" height="2.31" rx="1.16" fill="#0F172A" opacity="0.15"/><rect x="114.4" y="80.9" width="55.18" height="3.86" rx="1.93" fill="#0F172A" opacity="0.48"/><rect x="114.4" y="87.65" width="75.24" height="2.31" rx="1.16" fill="#0F172A" opacity="0.15"/><rect x="114.4" y="105.01" width="68.55" height="3.86" rx="1.93" fill="#0F172A" opacity="0.24"/><rect x="114.4" y="111.76" width="75.24" height="2.31" rx="1.16" fill="#0F172A" opacity="0.15"/><rect x="114.4" y="129.12" width="68.55" height="3.86" rx="1.93" fill="#0F172A" opacity="0.24"/><rect x="114.4" y="135.88" width="75.24" height="2.31" rx="1.16" fill="#0F172A" opacity="0.15"/><rect x="114.4" y="153.24" width="78.58" height="3.86" rx="1.93" fill="#0F172A" opacity="0.24"/><rect x="114.4" y="159.99" width="75.24" height="2.31" rx="1.16" fill="#0F172A" opacity="0.15"/><rect x="114.4" y="177.35" width="55.18" height="3.86" rx="1.93" fill="#0F172A" opacity="0.48"/><rect x="114.4" y="184.1" width="75.24" height="2.31" rx="1.16" fill="#0F172A" opacity="0.15"/><rect x="114.4" y="201.47" width="68.55" height="3.86" rx="1.93" fill="#0F172A" opacity="0.24"/><rect x="114.4" y="208.22" width="75.24" height="2.31" rx="1.16" fill="#0F172A" opacity="0.15"/><rect x="114.4" y="225.58" width="78.58" height="3.86" rx="1.93" fill="#0F172A" opacity="0.24"/><rect x="114.4" y="232.33" width="75.24" height="2.31" rx="1.16" fill="#0F172A" opacity="0.15"/><rect x="114.4" y="249.69" width="68.55" height="3.86" rx="1.93" fill="#0F172A" opacity="0.24"/><rect x="114.4" y="256.44" width="75.24" height="2.31" rx="1.16" fill="#0F172A" opacity="0.15"/></g></g><path d="M278.6 439.88 L449.13 454.65 L423.45 474.51 L252.93 459.74 Z" fill="url(#tp-conference-shadow-16)"/><path d="M288 436.19 L422.74 449.23 L403.85 462.31 L269.11 449.27 Z" fill="#dbdad8" stroke="#0F172A2e"/><g clip-path="url(#tp-conference-keys-17)"><g transform="matrix(4.21 0.41 -1.57 1.09 288 436.19)"><rect x="1.8" y="1.4" width="2.1" height="1.9" rx="0.4" fill="#FFFFFF" opacity="0.6"/><rect x="4.25" y="1.4" width="2.1" height="1.9" rx="0.4" fill="#FFFFFF" opacity="0.6"/><rect x="6.7" y="1.4" width="2.1" height="1.9" rx="0.4" fill="#FFFFFF" opacity="0.6"/><rect x="9.15" y="1.4" width="2.1" height="1.9" rx="0.4" fill="#FFFFFF" opacity="0.6"/><rect x="11.6" y="1.4" width="2.1" height="1.9" rx="0.4" fill="#FFFFFF" opacity="0.6"/><rect x="14.05" y="1.4" width="2.1" height="1.9" rx="0.4" fill="#FFFFFF" opacity="0.6"/><rect x="16.5" y="1.4" width="2.1" height="1.9" rx="0.4" fill="#FFFFFF" opacity="0.6"/><rect x="18.95" y="1.4" width="2.1" height="1.9" rx="0.4" fill="#FFFFFF" opacity="0.6"/><rect x="21.4" y="1.4" width="2.1" height="1.9" rx="0.4" fill="#FFFFFF" opacity="0.6"/><rect x="23.85" y="1.4" width="2.1" height="1.9" rx="0.4" fill="#FFFFFF" opacity="0.6"/><rect x="26.3" y="1.4" width="2.1" height="1.9" rx="0.4" fill="#FFFFFF" opacity="0.6"/><rect x="28.75" y="1.4" width="2.1" height="1.9" rx="0.4" fill="#FFFFFF" opacity="0.6"/><rect x="1.8" y="3.7" width="2.1" height="1.9" rx="0.4" fill="#FFFFFF" opacity="0.6"/><rect x="4.25" y="3.7" width="2.1" height="1.9" rx="0.4" fill="#FFFFFF" opacity="0.6"/><rect x="6.7" y="3.7" width="2.1" height="1.9" rx="0.4" fill="#FFFFFF" opacity="0.6"/><rect x="9.15" y="3.7" width="2.1" height="1.9" rx="0.4" fill="#FFFFFF" opacity="0.6"/><rect x="11.6" y="3.7" width="2.1" height="1.9" rx="0.4" fill="#FFFFFF" opacity="0.6"/><rect x="14.05" y="3.7" width="2.1" height="1.9" rx="0.4" fill="#FFFFFF" opacity="0.6"/><rect x="16.5" y="3.7" width="2.1" height="1.9" rx="0.4" fill="#FFFFFF" opacity="0.6"/><rect x="18.95" y="3.7" width="2.1" height="1.9" rx="0.4" fill="#FFFFFF" opacity="0.6"/><rect x="21.4" y="3.7" width="2.1" height="1.9" rx="0.4" fill="#FFFFFF" opacity="0.6"/><rect x="23.85" y="3.7" width="2.1" height="1.9" rx="0.4" fill="#FFFFFF" opacity="0.6"/><rect x="26.3" y="3.7" width="2.1" height="1.9" rx="0.4" fill="#FFFFFF" opacity="0.6"/><rect x="28.75" y="3.7" width="2.1" height="1.9" rx="0.4" fill="#FFFFFF" opacity="0.6"/><rect x="1.8" y="6" width="2.1" height="1.9" rx="0.4" fill="#FFFFFF" opacity="0.6"/><rect x="4.25" y="6" width="2.1" height="1.9" rx="0.4" fill="#FFFFFF" opacity="0.6"/><rect x="6.7" y="6" width="2.1" height="1.9" rx="0.4" fill="#FFFFFF" opacity="0.6"/><rect x="9.15" y="6" width="2.1" height="1.9" rx="0.4" fill="#FFFFFF" opacity="0.6"/><rect x="11.6" y="6" width="2.1" height="1.9" rx="0.4" fill="#FFFFFF" opacity="0.6"/><rect x="14.05" y="6" width="2.1" height="1.9" rx="0.4" fill="#FFFFFF" opacity="0.6"/><rect x="16.5" y="6" width="2.1" height="1.9" rx="0.4" fill="#FFFFFF" opacity="0.6"/><rect x="18.95" y="6" width="2.1" height="1.9" rx="0.4" fill="#FFFFFF" opacity="0.6"/><rect x="21.4" y="6" width="2.1" height="1.9" rx="0.4" fill="#FFFFFF" opacity="0.6"/><rect x="23.85" y="6" width="2.1" height="1.9" rx="0.4" fill="#FFFFFF" opacity="0.6"/><rect x="26.3" y="6" width="2.1" height="1.9" rx="0.4" fill="#FFFFFF" opacity="0.6"/><rect x="28.75" y="6" width="2.1" height="1.9" rx="0.4" fill="#FFFFFF" opacity="0.6"/><rect x="1.8" y="8.3" width="2.1" height="1.9" rx="0.4" fill="#FFFFFF" opacity="0.6"/><rect x="4.25" y="8.3" width="2.1" height="1.9" rx="0.4" fill="#FFFFFF" opacity="0.6"/><rect x="6.7" y="8.3" width="2.1" height="1.9" rx="0.4" fill="#FFFFFF" opacity="0.6"/><rect x="9.15" y="8.3" width="2.1" height="1.9" rx="0.4" fill="#FFFFFF" opacity="0.6"/><rect x="11.6" y="8.3" width="2.1" height="1.9" rx="0.4" fill="#FFFFFF" opacity="0.6"/><rect x="14.05" y="8.3" width="2.1" height="1.9" rx="0.4" fill="#FFFFFF" opacity="0.6"/><rect x="16.5" y="8.3" width="2.1" height="1.9" rx="0.4" fill="#FFFFFF" opacity="0.6"/><rect x="18.95" y="8.3" width="2.1" height="1.9" rx="0.4" fill="#FFFFFF" opacity="0.6"/><rect x="21.4" y="8.3" width="2.1" height="1.9" rx="0.4" fill="#FFFFFF" opacity="0.6"/><rect x="23.85" y="8.3" width="2.1" height="1.9" rx="0.4" fill="#FFFFFF" opacity="0.6"/><rect x="26.3" y="8.3" width="2.1" height="1.9" rx="0.4" fill="#FFFFFF" opacity="0.6"/><rect x="28.75" y="8.3" width="2.1" height="1.9" rx="0.4" fill="#FFFFFF" opacity="0.6"/></g></g><path d="M52.59 435.16 L180.49 446.24 L149.11 470.51 L21.21 459.44 Z" fill="url(#tp-conference-shadow-18)"/><path d="M46.48 434.22 L153.67 437.38 L145.02 457.04 L37.82 453.87 Z" fill="#5a413c" stroke="#0F172A33"/><path d="M46.48 432.05 L153.67 435.21 L145.02 454.86 L37.82 451.7 Z" fill="#ece8e0"/><path d="M76.38 450.37 L134.32 448.4 L134.96 449.66 L77.02 451.64 Z" fill="#3c36a5"/><rect width="800" height="600" fill="url(#tp-conference-warm-19)"/><rect width="800" height="600" fill="url(#tp-conference-vignette-20)"/></svg>