<svg xmlns="http://www.w3.org/2000/svg" width="800" height="600" viewBox="0 0 800 600" role="img" aria-label="CVPR / ICCV template preview" data-template-id="cvpr"><defs><linearGradient id="tp-cvpr-wall-1" x1="0" y1="0" x2="0.35" y2="1"><stop offset="0" stop-color="#f0ebe3"/><stop offset="0.62" stop-color="#ece5db"/><stop offset="1" stop-color="#bfb6ab"/></linearGradient><linearGradient id="tp-cvpr-window-2" x1="0" y1="0" x2="0" y2="1"><stop offset="0" stop-color="#FFFCF2"/><stop offset="1" stop-color="#FFEFD2"/></linearGradient><linearGradient id="tp-cvpr-desk-3" x1="0" y1="0" x2="0.15" y2="1"><stop offset="0" stop-color="#e0c299"/><stop offset="0.55" stop-color="#d0a265"/><stop offset="1" stop-color="#af8855"/></linearGradient><clipPath id="tp-cvpr-grain-4"><path d="M147.26 373.46 L744.09 425.14 L632.83 511.21 L36 459.52 Z"/></clipPath><radialGradient id="tp-cvpr-shadow-5" cx="0.5" cy="0.5" r="0.5"><stop offset="0" stop-color="#22160A" stop-opacity="0.26"/><stop offset="0.6" stop-color="#22160A" stop-opacity="0.13"/><stop offset="1" stop-color="#22160A" stop-opacity="0"/></radialGradient><clipPath id="tp-cvpr-board-6"><path d="M239.86 74.63 L420.47 84.14 L420.47 335.93 L239.86 326.41 Z"/></clipPath><radialGradient id="tp-cvpr-shadow-7" cx="0.5" cy="0.5" r="0.5"><stop offset="0" stop-color="#22160A" stop-opacity="0.24"/><stop offset="0.6" stop-color="#22160A" stop-opacity="0.12"/><stop offset="1" stop-color="#22160A" stop-opacity="0"/></radialGradient><radialGradient id="tp-cvpr-shadow-8" cx="0.5" cy="0.5" r="0.5"><stop offset="0" stop-color="#22160A" stop-opacity="0.22"/><stop offset="0.6" stop-color="#22160A" stop-opacity="0.11"/><stop offset="1" stop-color="#22160A" stop-opacity="0"/></radialGradient><radialGradient id="tp-cvpr-shadow-9" cx="0.5" cy="0.5" r="0.5"><stop offset="0" stop-color="#22160A" stop-opacity="0.2"/><stop offset="0.6" stop-color="#22160A" stop-opacity="0.1"/><stop offset="1" stop-color="#22160A" stop-opacity="0"/></radialGradient><clipPath id="tp-cvpr-keys-10"><path d="M587.93 421.98 L678.7 440.67 L650.16 449.95 L559.39 431.27 Z"/></clipPath><clipPath id="tp-cvpr-screen-11"><path d="M604.68 343.66 L706 364.52 L698.13 436.36 L596.81 415.5 Z"/></clipPath><linearGradient id="tp-cvpr-page-12" x1="0" y1="1" x2="1" y2="0"><stop offset="0" stop-color="#FFFFFF"/><stop offset="1" stop-color="#ececee"/></linearGradient><clipPath id="tp-cvpr-sheet-13"><path d="M142.78 437.63 L243.36 450.61 L207.89 469.02 L107.31 456.04 Z"/></clipPath><linearGradient id="tp-cvpr-page-14" x1="0" y1="1" x2="1" y2="0"><stop offset="0" stop-color="#FFFFFF"/><stop offset="1" stop-color="#ececee"/></linearGradient><clipPath id="tp-cvpr-sheet-15"><path d="M437.06 462.27 L525.73 466.11 L504.75 498.57 L416.07 494.73 Z"/></clipPath><radialGradient id="tp-cvpr-shadow-16" cx="0.5" cy="0.5" r="0.5"><stop offset="0" stop-color="#22160A" stop-opacity="0.2"/><stop offset="0.6" stop-color="#22160A" stop-opacity="0.1"/><stop offset="1" stop-color="#22160A" stop-opacity="0"/></radialGradient><clipPath id="tp-cvpr-keys-17"><path d="M288 436.19 L422.74 449.23 L403.85 462.31 L269.11 449.27 Z"/></clipPath><radialGradient id="tp-cvpr-shadow-18" cx="0.5" cy="0.5" r="0.5"><stop offset="0" stop-color="#22160A" stop-opacity="0.22"/><stop offset="0.6" stop-color="#22160A" stop-opacity="0.11"/><stop offset="1" stop-color="#22160A" stop-opacity="0"/></radialGradient><linearGradient id="tp-cvpr-warm-19" x1="0" y1="0" x2="0.7" y2="1"><stop offset="0" stop-color="#FFF4DC" stop-opacity="0.42"/><stop offset="0.45" stop-color="#FFF4DC" stop-opacity="0.1"/><stop offset="1" stop-color="#3B2410" stop-opacity="0.14"/></linearGradient><radialGradient id="tp-cvpr-vignette-20" cx="0.45" cy="0.42" r="0.8"><stop offset="0.55" stop-color="#000000" stop-opacity="0"/><stop offset="1" stop-color="#000000" stop-opacity="0.28"/></radialGradient></defs><path d="M133.06 369.77 L764 424.41 L764 42.3 L133.06 -12.34 Z" fill="url(#tp-cvpr-wall-1)"/><path d="M166.59 258.53 L337.12 273.3 L337.12 74.6 L166.59 59.83 Z" fill="url(#tp-cvpr-window-2)"/><rect x="250.16" y="59.83" width="3.4" height="198.7" fill="#FFFFFF" opacity="0.72"/><rect x="166.59" y="159.18" width="170.52" height="2.6" fill="#FFFFFF" opacity="0.55"/><path d="M508.21 230.31 L755.47 251.72 L745.49 259.45 L498.23 238.03 Z" fill="#c7a684"/><path d="M498.23 248.45 L745.49 269.87 L745.49 259.45 L498.23 238.03 Z" fill="#8d6a48"/><path d="M513.87 236.93 L526.23 238 L526.23 172.87 L513.87 171.8 Z" fill="#451c88"/><path d="M526.23 238 L523.38 240.21 L523.38 175.08 L526.23 172.87 Z" fill="#321462"/><path d="M531.35 238.45 L545.84 239.7 L545.84 187.6 L531.35 186.34 Z" fill="#094a3d"/><path d="M545.84 239.7 L542.99 241.91 L542.99 189.8 L545.84 187.6 Z" fill="#06352c"/><path d="M550.96 240.15 L561.19 241.03 L561.19 175.9 L550.96 175.01 Z" fill="#7b3e14"/><path d="M561.19 241.03 L558.34 243.24 L558.34 178.1 L561.19 175.9 Z" fill="#592d0e"/><path d="M566.31 241.47 L578.67 242.55 L578.67 190.44 L566.31 189.37 Z" fill="#0f6864"/><path d="M578.67 242.55 L575.82 244.75 L575.82 192.65 L578.67 190.44 Z" fill="#0b4b48"/><path d="M583.79 242.99 L598.28 244.24 L598.28 179.11 L583.79 177.85 Z" fill="#4a4f44"/><path d="M598.28 244.24 L595.43 246.45 L595.43 181.32 L598.28 179.11 Z" fill="#353931"/><path d="M603.4 244.69 L613.63 245.57 L613.63 193.47 L603.4 192.58 Z" fill="#1c4aca"/><path d="M613.63 245.57 L610.77 247.78 L610.77 195.67 L613.63 193.47 Z" fill="#143591"/><path d="M618.74 246.02 L631.11 247.09 L631.11 181.95 L618.74 180.88 Z" fill="#783813"/><path d="M631.11 247.09 L628.25 249.29 L628.25 184.16 L631.11 181.95 Z" fill="#56280e"/><path d="M636.22 247.53 L650.72 248.78 L650.72 196.68 L636.22 195.42 Z" fill="#10677c"/><path d="M650.72 248.78 L647.86 250.99 L647.86 198.88 L650.72 196.68 Z" fill="#0c4a59"/><path d="M655.83 249.23 L666.06 250.11 L666.06 184.98 L655.83 184.09 Z" fill="#451c88"/><path d="M666.06 250.11 L663.21 252.32 L663.21 187.19 L666.06 184.98 Z" fill="#321462"/><path d="M671.18 250.56 L683.54 251.63 L683.54 199.52 L671.18 198.45 Z" fill="#094a3d"/><path d="M683.54 251.63 L680.69 253.83 L680.69 201.73 L683.54 199.52 Z" fill="#06352c"/><path d="M688.66 252.07 L703.15 253.33 L703.15 188.19 L688.66 186.94 Z" fill="#7b3e14"/><path d="M703.15 253.33 L700.3 255.53 L700.3 190.4 L703.15 188.19 Z" fill="#592d0e"/><path d="M708.27 253.77 L718.5 254.65 L718.5 202.55 L708.27 201.66 Z" fill="#0f6864"/><path d="M718.5 254.65 L715.65 256.86 L715.65 204.75 L718.5 202.55 Z" fill="#0b4b48"/><path d="M508.21 157.71 L755.47 179.12 L745.49 186.84 L498.23 165.43 Z" fill="#c7a684"/><path d="M498.23 175.85 L745.49 197.26 L745.49 186.84 L498.23 165.43 Z" fill="#8d6a48"/><path d="M523.84 160.29 L596.31 166.56 L589.18 172.08 L516.71 165.8 Z" fill="#451c88"/><path d="M609.1 167.67 L664.52 172.47 L657.39 177.99 L601.97 173.19 Z" fill="#3a8380"/><path d="M147.26 373.46 L744.09 425.14 L632.83 511.21 L36 459.52 Z" fill="url(#tp-cvpr-desk-3)"/><path d="M36 489.92 L632.83 541.6 L632.83 511.21 L36 459.52 Z" fill="#81643f"/><path d="M632.83 541.6 L744.09 455.54 L744.09 425.14 L632.83 511.21 Z" fill="#967549"/><g clip-path="url(#tp-cvpr-grain-4)"><g transform="matrix(4.26 0.37 -1.43 1.1 147.26 373.46)"><rect x="24" y="9.75" width="92" height="0.6" fill="#8A5A2B" opacity="0.13"/><rect x="6" y="19.5" width="118" height="0.6" fill="#8A5A2B" opacity="0.13"/><rect x="24" y="29.25" width="92" height="0.6" fill="#8A5A2B" opacity="0.13"/><rect x="6" y="39" width="118" height="0.6" fill="#8A5A2B" opacity="0.13"/><rect x="24" y="48.75" width="92" height="0.6" fill="#8A5A2B" opacity="0.13"/><rect x="6" y="58.5" width="118" height="0.6" fill="#8A5A2B" opacity="0.13"/><rect x="24" y="68.25" width="92" height="0.6" fill="#8A5A2B" opacity="0.13"/></g></g><path d="M250.43 397.85 L248.98 75.59 L260.92 75.15 L262.37 397.41 Z" fill="#a77647"/><path d="M386.71 409.65 L388.16 87.65 L400.11 87.21 L398.65 409.21 Z" fill="#744e2e"/><path d="M323.43 397.06 L323.43 42.36 L343.89 44.13 L343.89 398.83 Z" fill="#865e39"/><path d="M211.78 390.44 L514.63 416.67 L480.4 443.15 L177.54 416.93 Z" fill="url(#tp-cvpr-shadow-5)"/><path d="M429.01 76.92 L431.34 73.96 L431.34 340.51 L429.01 343.47 Z" fill="#0F172A24"/><path d="M232.73 66.58 L428.32 76.87 L428.32 343.43 L232.73 333.13 Z" fill="#f7f7f7" stroke="#0F172A24"/><g clip-path="url(#tp-cvpr-board-6)"><g transform="matrix(0.56 0.03 0 0.56 239.86 74.63)"><rect width="320" height="452.57" fill="#FFFFFF"/><rect x="0.5" y="0.5" width="319" height="451.57" fill="none" stroke="#0F172A1f"/><rect x="27.2" y="27.2" width="69.06" height="16.22" rx="1.74" fill="#111827"/><text x="32.72" y="37.63" font-size="6.37" font-family="Helvetica, Arial, sans-serif" font-weight="700" fill="#FFFFFF">CVPR</text><text x="105.55" y="38.5" font-family="Helvetica, Arial, sans-serif" font-size="5.21" fill="#0F172A80">CVPR 2027 • Embodied AI for Medicine</text><text x="160" y="48.2" font-family="Helvetica, Arial, sans-serif" font-size="8.24" fill="#0F172A" font-weight="700" opacity="0.95" text-anchor="middle">SurgiVLA: Autonomous Microsurgery</text><text x="160" y="62.61" font-family="Helvetica, Arial, sans-serif" font-size="2.81" fill="#111827e6" text-anchor="middle">Maya Chen, Elias Novak, Priya Raman, Luca Moretti</text><text x="160" y="66.82" font-family="Helvetica, Arial, sans-serif" font-size="2.53" fill="#0F172A80" text-anchor="middle">CVPR 2027 • Embodied AI for Medicine</text><rect x="27.2" y="73" width="265.6" height="47.52" fill="#11182713"/><text x="36.5" y="81.07" font-family="Helvetica, Arial, sans-serif" font-size="5.46" fill="#111827" font-weight="700" opacity="0.9">Abstract</text><text x="36.5" y="90.1" font-family="Helvetica, Arial, sans-serif" font-size="4.04" fill="#0F172Aa8">Sub-millimetre robotic microsurgery requires both adaptive motor skills and rigorous safety guarantees. Unconstrained</text><text x="36.5" y="97.71" font-family="Helvetica, Arial, sans-serif" font-size="4.04" fill="#0F172Aa8">deep reinforcement learning and imitation policies achieve high task completion but suffer from uncertified tail</text><text x="36.5" y="105.31" font-family="Helvetica, Arial, sans-serif" font-size="4.04" fill="#0F172Aa8">actions that risk catastrophic tissue puncture. Here we introduce SurgiVLA, a safety-constrained</text><text x="36.5" y="112.91" font-family="Helvetica, Arial, sans-serif" font-size="4.04" fill="#0F172Aa8">vision-language-action foundation model for sub-millimetre robotic manipulation. SurgiVLA couples a 7B-parameter…</text><text x="27.2" y="131.83" font-family="Helvetica, Arial, sans-serif" font-size="4.75" fill="#111827" font-weight="700" opacity="0.9">1  Clinical Need &amp; Safety Envelope Deficits</text><text x="27.2" y="138.25" font-family="Helvetica, Arial, sans-serif" font-size="4.98" fill="#0F172Aad">Ophthalmic and micro-vascular interventions</text><text x="27.2" y="145.71" font-family="Helvetica, Arial, sans-serif" font-size="4.98" fill="#0F172Aad">involve maneuvering instruments within</text><text x="27.2" y="153.18" font-family="Helvetica, Arial, sans-serif" font-size="4.98" fill="#0F172Aad">micrometers of delicate membranes where</text><text x="27.2" y="160.65" font-family="Helvetica, Arial, sans-serif" font-size="4.98" fill="#0F172Aad">involuntary tremors or policy hallucinations</text><text x="27.2" y="168.11" font-family="Helvetica, Arial, sans-serif" font-size="4.98" fill="#0F172Aad">cause irreversible trauma. Existing foundation</text><text x="27.2" y="175.58" font-family="Helvetica, Arial, sans-serif" font-size="4.98" fill="#0F172Aad">models (RT-2, OpenVLA) lack verifiable safety…</text><rect x="27.2" y="185.04" width="124.17" height="23.53" rx="2" fill="#00838F29"/><text x="27.2" y="219.12" font-family="Helvetica, Arial, sans-serif" font-size="4.75" fill="#111827" font-weight="700" opacity="0.9">2  Formal Problem Formulation &amp; Barrier Shield</text><text x="27.2" y="225.53" font-family="Helvetica, Arial, sans-serif" font-size="4.98" fill="#0F172Aad">We formulate surgical manipulation as a</text><text x="27.2" y="233" font-family="Helvetica, Arial, sans-serif" font-size="4.98" fill="#0F172Aad">constrained optimization problem: u \u - θ(o≤</text><text x="27.2" y="240.47" font-family="Helvetica, Arial, sans-serif" font-size="4.98" fill="#0F172Aad">t, l)\^2_2 s.t. h(x, u) + α h(x) ≥ 0 where _θ</text><text x="27.2" y="247.93" font-family="Helvetica, Arial, sans-serif" font-size="4.98" fill="#0F172Aad">is the VLA policy generating candidate joint</text><text x="27.2" y="255.4" font-family="Helvetica, Arial, sans-serif" font-size="4.98" fill="#0F172Aad">velocities, and h(x) &gt;= 0 defines the safe set</text><text x="27.2" y="262.87" font-family="Helvetica, Arial, sans-serif" font-size="4.98" fill="#0F172Aad">enforcing tool-tip distance bounds from</text><text x="27.2" y="270.34" font-family="Helvetica, Arial, sans-serif" font-size="4.98" fill="#0F172Aad">critical tissue boundaries. The quadratic</text><text x="27.2" y="277.8" font-family="Helvetica, Arial, sans-serif" font-size="4.98" fill="#0F172Aad">program is solved in 3. 2 ms, ensuring</text><text x="27.2" y="285.27" font-family="Helvetica, Arial, sans-serif" font-size="4.98" fill="#0F172Aad">deterministic compliance within the 24 ms…</text><text x="27.2" y="306.4" font-family="Helvetica, Arial, sans-serif" font-size="4.75" fill="#111827" font-weight="700" opacity="0.9">3  Controlled Ex-Vivo Surgical Benchmarks</text><text x="27.2" y="312.82" font-family="Helvetica, Arial, sans-serif" font-size="4.98" fill="#0F172Aad">Empirical evaluation across 1,240 ex-vivo</text><text x="27.2" y="320.29" font-family="Helvetica, Arial, sans-serif" font-size="4.98" fill="#0F172Aad">trials (porcine retinal vessels and 1.</text><text x="168.63" y="131.83" font-family="Helvetica, Arial, sans-serif" font-size="4.75" fill="#111827" font-weight="700" opacity="0.9">1  Related Work: VLA Models &amp; Barrier…</text><text x="168.63" y="138.25" font-family="Helvetica, Arial, sans-serif" font-size="4.98" fill="#0F172Aad">Vision-Language-Action architectures have</text><text x="168.63" y="145.71" font-family="Helvetica, Arial, sans-serif" font-size="4.98" fill="#0F172Aad">demonstrated remarkable cross-embodiment</text><text x="168.63" y="153.18" font-family="Helvetica, Arial, sans-serif" font-size="4.98" fill="#0F172Aad">generalization in general manipulation.</text><text x="168.63" y="160.65" font-family="Helvetica, Arial, sans-serif" font-size="4.98" fill="#0F172Aad">However, applying them to surgery requires</text><text x="168.63" y="168.11" font-family="Helvetica, Arial, sans-serif" font-size="4.98" fill="#0F172Aad">formal safety envelopes. Control Barrier</text><text x="168.63" y="175.58" font-family="Helvetica, Arial, sans-serif" font-size="4.98" fill="#0F172Aad">Functions (CBFs) provide forward invariance</text><text x="168.63" y="183.05" font-family="Helvetica, Arial, sans-serif" font-size="4.98" fill="#0F172Aad">guarantees for safety-critical dynamical</text><text x="168.63" y="190.52" font-family="Helvetica, Arial, sans-serif" font-size="4.98" fill="#0F172Aad">systems, converting non-convex policy outputs</text><text x="168.63" y="197.98" font-family="Helvetica, Arial, sans-serif" font-size="4.98" fill="#0F172Aad">into certified actions via convex quadratic…</text><text x="168.63" y="219.12" font-family="Helvetica, Arial, sans-serif" font-size="4.75" fill="#111827" font-weight="700" opacity="0.9">2  Sensor Fusion &amp; 42 Hz Real-Time Loop</text><text x="168.63" y="225.53" font-family="Helvetica, Arial, sans-serif" font-size="4.98" fill="#0F172Aad">SurgiVLA consumes 1080p stereo endoscopic video</text><text x="168.63" y="233" font-family="Helvetica, Arial, sans-serif" font-size="4.98" fill="#0F172Aad">and 6-axis force telemetry sampled at 1 kHz. A</text><text x="168.63" y="240.47" font-family="Helvetica, Arial, sans-serif" font-size="4.98" fill="#0F172Aad">Kalman filter estimates dynamic tissue</text><text x="168.63" y="247.93" font-family="Helvetica, Arial, sans-serif" font-size="4.98" fill="#0F172Aad">deformation states, which continuously update</text><text x="168.63" y="255.4" font-family="Helvetica, Arial, sans-serif" font-size="4.98" fill="#0F172Aad">the barrier function gradient h(x). A diffusion</text><text x="168.63" y="262.87" font-family="Helvetica, Arial, sans-serif" font-size="4.98" fill="#0F172Aad">action decoder predicts 16-step chunked</text><text x="168.63" y="270.34" font-family="Helvetica, Arial, sans-serif" font-size="4.98" fill="#0F172Aad">trajectory proposals conditioned on language</text><text x="168.63" y="277.8" font-family="Helvetica, Arial, sans-serif" font-size="4.98" fill="#0F172Aad">intent.</text><text x="168.63" y="306.4" font-family="Helvetica, Arial, sans-serif" font-size="4.75" fill="#111827" font-weight="700" opacity="0.9">3  Ablation Studies &amp; Safety Analysis</text><text x="168.63" y="312.82" font-family="Helvetica, Arial, sans-serif" font-size="4.98" fill="#0F172Aad">Ablation studies reveal that removing the QP</text><text x="168.63" y="320.29" font-family="Helvetica, Arial, sans-serif" font-size="4.98" fill="#0F172Aad">safety shield results in 8 boundary violations</text><text x="168.63" y="327.75" font-family="Helvetica, Arial, sans-serif" font-size="4.98" fill="#0F172Aad">in high-strain tissue regions, while removing</text><text x="168.63" y="335.22" font-family="Helvetica, Arial, sans-serif" font-size="4.98" fill="#0F172Aad">force telemetry increases error from 0. 31 mm</text><text x="168.63" y="342.69" font-family="Helvetica, Arial, sans-serif" font-size="4.98" fill="#0F172Aad">to 0. 58 mm.</text><rect x="168.63" y="352.15" width="124.17" height="23.53" rx="2" fill="#00838F29"/><text x="160" y="436.25" font-family="Helvetica, Arial, sans-serif" font-size="2.26" fill="#0F172A80" text-anchor="middle">CVPR 2027 • Embodied AI for Medicine</text></g></g><circle cx="250.46" cy="65.72" r="2.6" fill="#111827eb"/><circle cx="409.45" cy="79.48" r="2.6" fill="#111827eb"/><path d="M224.21 333.98 L425.43 351.4 L431.13 346.99 L229.92 329.56 Z" fill="#b9916c"/><path d="M224.21 343.96 L425.43 361.39 L425.43 351.4 L224.21 333.98 Z" fill="#744e2e"/><path d="M659.73 420.94 L751.51 428.89 L723.16 450.82 L631.39 442.87 Z" fill="url(#tp-cvpr-shadow-7)"/><path d="M669.55 430.96 L704.85 434.01 L704.85 402.05 L669.55 399 Z" fill="#b27354"/><path d="M674.87 394.89 L710.16 397.94 L699.53 406.17 L664.24 403.11 Z" fill="#8e5c43"/><path d="M687.2 400.53 Q662.07 383.31 650.95 374.1 Q676.07 383.31 687.2 400.53" fill="#294f35" opacity="0.96"/><path d="M687.2 400.53 Q664.06 375.88 654.91 359.23 Q678.06 375.88 687.2 400.53" fill="#366947" opacity="0.96"/><path d="M687.2 400.53 Q669.6 369.13 665.99 345.74 Q683.6 369.13 687.2 400.53" fill="#294f35" opacity="0.96"/><path d="M687.2 400.53 Q678.52 364.42 683.85 336.31 Q692.52 364.42 687.2 400.53" fill="#366947" opacity="0.96"/><path d="M687.2 400.53 Q685.41 377.8 697.62 363.07 Q699.41 377.8 687.2 400.53" fill="#294f35" opacity="0.96"/><path d="M687.2 400.53 Q693.88 377.9 714.56 363.28 Q707.88 377.9 687.2 400.53" fill="#366947" opacity="0.96"/><path d="M687.2 400.53 Q703.12 381.34 733.04 370.15 Q717.12 381.34 687.2 400.53" fill="#294f35" opacity="0.96"/><path d="M153.46 417.33 L204.19 421.72 L187.22 434.85 L136.49 430.46 Z" fill="url(#tp-cvpr-shadow-8)"/><path d="M152.02 422.94 L181.86 425.53 L181.86 398.61 L152.02 396.02 Z" fill="#80c1c7"/><path d="M157.01 392.16 L186.85 394.75 L176.87 402.47 L147.03 399.88 Z" fill="#b3dadd"/><path d="M158.49 393.96 L180.88 395.9 L175.38 400.15 L153 398.21 Z" fill="#4A2C16"/><path d="M169.91 411.46 q10 -3 10 4.5 q0 6.5 -10 3" fill="none" stroke="#80c1c7" stroke-width="2.4"/><path d="M560.47 421.69 L726.73 436.09 L680.17 472.1 L513.91 457.71 Z" fill="url(#tp-cvpr-shadow-9)"/><path d="M594.7 415.06 L700.24 436.79 L643.15 455.37 L537.61 433.64 Z" fill="#949aa5"/><path d="M537.61 433.64 L643.15 455.37 L643.15 461.45 L537.61 439.72 Z" fill="#565960"/><path d="M587.93 421.98 L678.7 440.67 L650.16 449.95 L559.39 431.27 Z" fill="#737881"/><g clip-path="url(#tp-cvpr-keys-10)"><g transform="matrix(3.52 0.72 -2.8 0.91 587.93 421.98)"><rect x="1.8" y="0.61" width="26.4" height="1.22" rx="0.24" fill="#FFFFFF" opacity="0.22"/><rect x="1.8" y="2.65" width="26.4" height="1.22" rx="0.24" fill="#FFFFFF" opacity="0.22"/><rect x="1.8" y="4.69" width="26.4" height="1.22" rx="0.24" fill="#FFFFFF" opacity="0.22"/><rect x="1.8" y="6.73" width="26.4" height="1.22" rx="0.24" fill="#FFFFFF" opacity="0.22"/><rect x="1.8" y="8.77" width="26.4" height="1.22" rx="0.24" fill="#FFFFFF" opacity="0.22"/></g></g><path d="M610.66 436.19 L642.33 442.71 L628.63 447.17 L596.96 440.65 Z" fill="#a7acb5"/><path d="M605.11 343.33 L706.43 364.19 L698.56 436.03 L597.24 415.17 Z" fill="#0b101d"/><g clip-path="url(#tp-cvpr-screen-11)"><g transform="matrix(0.32 0.07 -0.04 0.4 604.68 343.66)"><rect x="0" y="0" width="320" height="180" fill="#0F172A"/><rect x="0" y="163.8" width="320" height="16.2" fill="#2D3748"/><text x="160" y="54" font-family="Helvetica, Arial, sans-serif" font-size="20.7" fill="#FFFFFF" font-weight="700" opacity="0.97" text-anchor="middle">SurgiVLA: Evidence,</text><text x="160" y="79.67" font-family="Helvetica, Arial, sans-serif" font-size="20.7" fill="#FFFFFF" font-weight="700" opacity="0.97" text-anchor="middle">Method, Impact</text><rect x="134.4" y="111.6" width="51.2" height="3.6" fill="#2D3748"/><text x="160" y="136.8" font-family="Helvetica, Arial, sans-serif" font-size="11.16" fill="#FFFFFF" opacity="0.6" text-anchor="middle">Maya Chen, Elias Novak, Priya Raman, Luca…</text><text x="160" y="158.4" font-family="Helvetica, Arial, sans-serif" font-size="4.91" fill="#FFFFFF" opacity="0.42" text-anchor="middle">CVPR 2027 • Embodied AI for Medicine</text></g></g><path d="M145.33 441.93 L245.91 454.91 L210.44 473.32 L109.86 460.34 Z" fill="#2417082e"/><path d="M142.78 437.63 L243.36 450.61 L207.89 469.02 L107.31 456.04 Z" fill="url(#tp-cvpr-page-12)" stroke="#0F172A1f"/><g clip-path="url(#tp-cvpr-sheet-13)"><g transform="matrix(0.31 0.04 -0.16 0.08 142.78 437.63)"><rect width="320" height="226.34" fill="#0F172A08"/><rect x="0.5" y="0.5" width="319" height="225.34" fill="none" stroke="#0F172A24"/><rect x="11.2" y="11.2" width="297.6" height="31.69" rx="6" fill="#0F172A"/><text x="160" y="24.51" font-family="Helvetica, Arial, sans-serif" font-size="4.91" fill="#FFFFFF" font-weight="700" opacity="0.97" text-anchor="middle">SurgiVLA: Safety-Constrained Vision-Language-Action Microsurgery</text><text x="160" y="39.72" font-family="Helvetica, Arial, sans-serif" font-size="2.31" fill="#FFFFFF" opacity="0.75" text-anchor="middle">Maya Chen, Elias Novak, Priya Raman, Luca Moretti</text><rect x="11.2" y="48.89" width="79.66" height="53.2" rx="4" fill="#1F29370d"/><rect x="11.2" y="48.89" width="79.66" height="10.64" rx="4" fill="#1F2937"/><text x="15.98" y="56.34" font-family="Helvetica, Arial, sans-serif" font-size="3.72" fill="#FFFFFF" font-weight="700" opacity="0.96">Clinical Need &amp; Safety Gaps</text><text x="15.98" y="66.44" font-family="Helvetica, Arial, sans-serif" font-size="3.09" fill="#0F172A9e">Sub-millimetre microsurgery demands…</text><text x="15.98" y="73.36" font-family="Helvetica, Arial, sans-serif" font-size="3.09" fill="#0F172A9e">Current Limitations: Unconstrained…</text><text x="15.98" y="80.28" font-family="Helvetica, Arial, sans-serif" font-size="3.09" fill="#0F172A9e">Barrier Functions: Real-time…</text><text x="15.98" y="87.19" font-family="Helvetica, Arial, sans-serif" font-size="3.09" fill="#0F172A9e">Dataset: 1,240 ex-vivo anastomosis and…</text><rect x="11.2" y="105.41" width="79.66" height="53.2" rx="4" fill="#1F29370d"/><rect x="11.2" y="105.41" width="79.66" height="10.64" rx="4" fill="#1F2937"/><text x="15.98" y="112.86" font-family="Helvetica, Arial, sans-serif" font-size="3.72" fill="#FFFFFF" font-weight="700" opacity="0.96">Formal Objective</text><text x="15.98" y="122.97" font-family="Helvetica, Arial, sans-serif" font-size="3.09" fill="#0F172A9e">E[Ltask] s.t. h(x, u) + α h(x) ≥ 0</text><text x="15.98" y="129.89" font-family="Helvetica, Arial, sans-serif" font-size="3.09" fill="#0F172A9e">Safe set C ensures tool tip cannot…</text><rect x="97.41" y="48.89" width="125.18" height="103.08" rx="4" fill="#1F293714"/><text x="160" y="88.79" font-family="Helvetica, Arial, sans-serif" font-size="8.65" fill="#0F172A" font-weight="700" opacity="0.9" text-anchor="middle">+42% Throughput |</text><text x="160" y="103.75" font-family="Helvetica, Arial, sans-serif" font-size="8.65" fill="#0F172A" font-weight="700" opacity="0.9" text-anchor="middle">over human baselines</text><text x="107.42" y="122.04" font-family="Helvetica, Arial, sans-serif" font-size="4.99" fill="#0F172A9e">Stereo endoscopy and force telemetry…</text><text x="107.42" y="129.52" font-family="Helvetica, Arial, sans-serif" font-size="4.99" fill="#0F172A9e">Backbone: 7B-parameter OpenVLA…</text><text x="107.42" y="137" font-family="Helvetica, Arial, sans-serif" font-size="4.99" fill="#0F172A9e">Force Fusion: 6-axis force/torque at 5…</text><text x="107.42" y="144.48" font-family="Helvetica, Arial, sans-serif" font-size="4.99" fill="#0F172A9e">Safety Shield: QP-based Control…</text><rect x="97.41" y="161.94" width="125.18" height="49.88" fill="#D977061a"/><rect x="229.14" y="48.89" width="79.66" height="53.2" rx="4" fill="#1F29370d"/><rect x="229.14" y="48.89" width="79.66" height="10.64" rx="4" fill="#1F2937"/><text x="233.92" y="56.34" font-family="Helvetica, Arial, sans-serif" font-size="3.72" fill="#FFFFFF" font-weight="700" opacity="0.96">Controlled Benchmark</text><text x="233.92" y="66.44" font-family="Helvetica, Arial, sans-serif" font-size="3.09" fill="#0F172A9e">SurgiVLA consistently outperforms current…</text><rect x="229.14" y="105.41" width="79.66" height="53.2" rx="4" fill="#1F29370d"/><rect x="229.14" y="105.41" width="79.66" height="10.64" rx="4" fill="#1F2937"/><text x="233.92" y="112.86" font-family="Helvetica, Arial, sans-serif" font-size="3.72" fill="#FFFFFF" font-weight="700" opacity="0.96">Benchmark &amp; Failure Analysis</text><text x="233.92" y="122.97" font-family="Helvetica, Arial, sans-serif" font-size="3.09" fill="#0F172A9e">Benchmark results across 5 seeds; zero…</text><rect x="233.92" y="147.97" width="70.1" height="14.9" rx="2" fill="#D977062e"/><rect x="229.14" y="161.94" width="79.66" height="53.2" rx="4" fill="#1F29370d"/><rect x="229.14" y="161.94" width="79.66" height="10.64" rx="4" fill="#1F2937"/><text x="233.92" y="169.39" font-family="Helvetica, Arial, sans-serif" font-size="3.72" fill="#FFFFFF" font-weight="700" opacity="0.96">Take-home Message</text><text x="233.92" y="179.5" font-family="Helvetica, Arial, sans-serif" font-size="3.09" fill="#0F172A9e">+42% Throughput | over human baselines</text><text x="233.92" y="186.41" font-family="Helvetica, Arial, sans-serif" font-size="3.09" fill="#0F172A9e">0 Safety Violations | across 1,240 trials</text></g></g><path d="M439.61 466.57 L528.28 470.41 L507.3 502.87 L418.62 499.03 Z" fill="#2417082e"/><path d="M437.06 462.27 L525.73 466.11 L504.75 498.57 L416.07 494.73 Z" fill="url(#tp-cvpr-page-14)" stroke="#0F172A1f"/><g clip-path="url(#tp-cvpr-sheet-15)"><g transform="matrix(0.28 0.01 -0.05 0.07 437.06 462.27)"><rect width="320" height="452.57" fill="#FFFFFF"/><rect x="0.5" y="0.5" width="319" height="451.57" fill="none" stroke="#0F172A1f"/><rect x="27.2" y="27.2" width="69.06" height="16.22" rx="1.74" fill="#111827"/><text x="32.72" y="37.63" font-size="6.37" font-family="Helvetica, Arial, sans-serif" font-weight="700" fill="#FFFFFF">CVPR</text><text x="105.55" y="38.5" font-family="Helvetica, Arial, sans-serif" font-size="5.21" fill="#0F172A80">CVPR 2027 • Embodied AI for Medicine</text><text x="160" y="48.2" font-family="Helvetica, Arial, sans-serif" font-size="8.24" fill="#0F172A" font-weight="700" opacity="0.95" text-anchor="middle">SurgiVLA: Autonomous Microsurgery</text><text x="160" y="62.61" font-family="Helvetica, Arial, sans-serif" font-size="2.81" fill="#111827e6" text-anchor="middle">Maya Chen, Elias Novak, Priya Raman, Luca Moretti</text><text x="160" y="66.82" font-family="Helvetica, Arial, sans-serif" font-size="2.53" fill="#0F172A80" text-anchor="middle">CVPR 2027 • Embodied AI for Medicine</text><rect x="27.2" y="73" width="265.6" height="47.52" fill="#11182713"/><text x="36.5" y="81.07" font-family="Helvetica, Arial, sans-serif" font-size="5.46" fill="#111827" font-weight="700" opacity="0.9">Abstract</text><text x="36.5" y="90.1" font-family="Helvetica, Arial, sans-serif" font-size="4.04" fill="#0F172Aa8">Sub-millimetre robotic microsurgery requires both adaptive motor skills and rigorous safety guarantees. Unconstrained</text><text x="36.5" y="97.71" font-family="Helvetica, Arial, sans-serif" font-size="4.04" fill="#0F172Aa8">deep reinforcement learning and imitation policies achieve high task completion but suffer from uncertified tail</text><text x="36.5" y="105.31" font-family="Helvetica, Arial, sans-serif" font-size="4.04" fill="#0F172Aa8">actions that risk catastrophic tissue puncture. Here we introduce SurgiVLA, a safety-constrained</text><text x="36.5" y="112.91" font-family="Helvetica, Arial, sans-serif" font-size="4.04" fill="#0F172Aa8">vision-language-action foundation model for sub-millimetre robotic manipulation. SurgiVLA couples a 7B-parameter…</text><text x="27.2" y="131.83" font-family="Helvetica, Arial, sans-serif" font-size="4.75" fill="#111827" font-weight="700" opacity="0.9">1  Clinical Need &amp; Safety Envelope Deficits</text><text x="27.2" y="138.25" font-family="Helvetica, Arial, sans-serif" font-size="4.98" fill="#0F172Aad">Ophthalmic and micro-vascular interventions</text><text x="27.2" y="145.71" font-family="Helvetica, Arial, sans-serif" font-size="4.98" fill="#0F172Aad">involve maneuvering instruments within</text><text x="27.2" y="153.18" font-family="Helvetica, Arial, sans-serif" font-size="4.98" fill="#0F172Aad">micrometers of delicate membranes where</text><text x="27.2" y="160.65" font-family="Helvetica, Arial, sans-serif" font-size="4.98" fill="#0F172Aad">involuntary tremors or policy hallucinations</text><text x="27.2" y="168.11" font-family="Helvetica, Arial, sans-serif" font-size="4.98" fill="#0F172Aad">cause irreversible trauma. Existing foundation</text><text x="27.2" y="175.58" font-family="Helvetica, Arial, sans-serif" font-size="4.98" fill="#0F172Aad">models (RT-2, OpenVLA) lack verifiable safety…</text><rect x="27.2" y="185.04" width="124.17" height="23.53" rx="2" fill="#00838F29"/><text x="27.2" y="219.12" font-family="Helvetica, Arial, sans-serif" font-size="4.75" fill="#111827" font-weight="700" opacity="0.9">2  Formal Problem Formulation &amp; Barrier Shield</text><text x="27.2" y="225.53" font-family="Helvetica, Arial, sans-serif" font-size="4.98" fill="#0F172Aad">We formulate surgical manipulation as a</text><text x="27.2" y="233" font-family="Helvetica, Arial, sans-serif" font-size="4.98" fill="#0F172Aad">constrained optimization problem: u \u - θ(o≤</text><text x="27.2" y="240.47" font-family="Helvetica, Arial, sans-serif" font-size="4.98" fill="#0F172Aad">t, l)\^2_2 s.t. h(x, u) + α h(x) ≥ 0 where _θ</text><text x="27.2" y="247.93" font-family="Helvetica, Arial, sans-serif" font-size="4.98" fill="#0F172Aad">is the VLA policy generating candidate joint</text><text x="27.2" y="255.4" font-family="Helvetica, Arial, sans-serif" font-size="4.98" fill="#0F172Aad">velocities, and h(x) &gt;= 0 defines the safe set</text><text x="27.2" y="262.87" font-family="Helvetica, Arial, sans-serif" font-size="4.98" fill="#0F172Aad">enforcing tool-tip distance bounds from</text><text x="27.2" y="270.34" font-family="Helvetica, Arial, sans-serif" font-size="4.98" fill="#0F172Aad">critical tissue boundaries. The quadratic</text><text x="27.2" y="277.8" font-family="Helvetica, Arial, sans-serif" font-size="4.98" fill="#0F172Aad">program is solved in 3. 2 ms, ensuring</text><text x="27.2" y="285.27" font-family="Helvetica, Arial, sans-serif" font-size="4.98" fill="#0F172Aad">deterministic compliance within the 24 ms…</text><text x="27.2" y="306.4" font-family="Helvetica, Arial, sans-serif" font-size="4.75" fill="#111827" font-weight="700" opacity="0.9">3  Controlled Ex-Vivo Surgical Benchmarks</text><text x="27.2" y="312.82" font-family="Helvetica, Arial, sans-serif" font-size="4.98" fill="#0F172Aad">Empirical evaluation across 1,240 ex-vivo</text><text x="27.2" y="320.29" font-family="Helvetica, Arial, sans-serif" font-size="4.98" fill="#0F172Aad">trials (porcine retinal vessels and 1.</text><text x="168.63" y="131.83" font-family="Helvetica, Arial, sans-serif" font-size="4.75" fill="#111827" font-weight="700" opacity="0.9">1  Related Work: VLA Models &amp; Barrier…</text><text x="168.63" y="138.25" font-family="Helvetica, Arial, sans-serif" font-size="4.98" fill="#0F172Aad">Vision-Language-Action architectures have</text><text x="168.63" y="145.71" font-family="Helvetica, Arial, sans-serif" font-size="4.98" fill="#0F172Aad">demonstrated remarkable cross-embodiment</text><text x="168.63" y="153.18" font-family="Helvetica, Arial, sans-serif" font-size="4.98" fill="#0F172Aad">generalization in general manipulation.</text><text x="168.63" y="160.65" font-family="Helvetica, Arial, sans-serif" font-size="4.98" fill="#0F172Aad">However, applying them to surgery requires</text><text x="168.63" y="168.11" font-family="Helvetica, Arial, sans-serif" font-size="4.98" fill="#0F172Aad">formal safety envelopes. Control Barrier</text><text x="168.63" y="175.58" font-family="Helvetica, Arial, sans-serif" font-size="4.98" fill="#0F172Aad">Functions (CBFs) provide forward invariance</text><text x="168.63" y="183.05" font-family="Helvetica, Arial, sans-serif" font-size="4.98" fill="#0F172Aad">guarantees for safety-critical dynamical</text><text x="168.63" y="190.52" font-family="Helvetica, Arial, sans-serif" font-size="4.98" fill="#0F172Aad">systems, converting non-convex policy outputs</text><text x="168.63" y="197.98" font-family="Helvetica, Arial, sans-serif" font-size="4.98" fill="#0F172Aad">into certified actions via convex quadratic…</text><text x="168.63" y="219.12" font-family="Helvetica, Arial, sans-serif" font-size="4.75" fill="#111827" font-weight="700" opacity="0.9">2  Sensor Fusion &amp; 42 Hz Real-Time Loop</text><text x="168.63" y="225.53" font-family="Helvetica, Arial, sans-serif" font-size="4.98" fill="#0F172Aad">SurgiVLA consumes 1080p stereo endoscopic video</text><text x="168.63" y="233" font-family="Helvetica, Arial, sans-serif" font-size="4.98" fill="#0F172Aad">and 6-axis force telemetry sampled at 1 kHz. A</text><text x="168.63" y="240.47" font-family="Helvetica, Arial, sans-serif" font-size="4.98" fill="#0F172Aad">Kalman filter estimates dynamic tissue</text><text x="168.63" y="247.93" font-family="Helvetica, Arial, sans-serif" font-size="4.98" fill="#0F172Aad">deformation states, which continuously update</text><text x="168.63" y="255.4" font-family="Helvetica, Arial, sans-serif" font-size="4.98" fill="#0F172Aad">the barrier function gradient h(x). A diffusion</text><text x="168.63" y="262.87" font-family="Helvetica, Arial, sans-serif" font-size="4.98" fill="#0F172Aad">action decoder predicts 16-step chunked</text><text x="168.63" y="270.34" font-family="Helvetica, Arial, sans-serif" font-size="4.98" fill="#0F172Aad">trajectory proposals conditioned on language</text><text x="168.63" y="277.8" font-family="Helvetica, Arial, sans-serif" font-size="4.98" fill="#0F172Aad">intent.</text><text x="168.63" y="306.4" font-family="Helvetica, Arial, sans-serif" font-size="4.75" fill="#111827" font-weight="700" opacity="0.9">3  Ablation Studies &amp; Safety Analysis</text><text x="168.63" y="312.82" font-family="Helvetica, Arial, sans-serif" font-size="4.98" fill="#0F172Aad">Ablation studies reveal that removing the QP</text><text x="168.63" y="320.29" font-family="Helvetica, Arial, sans-serif" font-size="4.98" fill="#0F172Aad">safety shield results in 8 boundary violations</text><text x="168.63" y="327.75" font-family="Helvetica, Arial, sans-serif" font-size="4.98" fill="#0F172Aad">in high-strain tissue regions, while removing</text><text x="168.63" y="335.22" font-family="Helvetica, Arial, sans-serif" font-size="4.98" fill="#0F172Aad">force telemetry increases error from 0. 31 mm</text><text x="168.63" y="342.69" font-family="Helvetica, Arial, sans-serif" font-size="4.98" fill="#0F172Aad">to 0. 58 mm.</text><rect x="168.63" y="352.15" width="124.17" height="23.53" rx="2" fill="#00838F29"/><text x="160" y="436.25" font-family="Helvetica, Arial, sans-serif" font-size="2.26" fill="#0F172A80" text-anchor="middle">CVPR 2027 • Embodied AI for Medicine</text></g></g><path d="M278.6 439.88 L449.13 454.65 L423.45 474.51 L252.93 459.74 Z" fill="url(#tp-cvpr-shadow-16)"/><path d="M288 436.19 L422.74 449.23 L403.85 462.31 L269.11 449.27 Z" fill="#dbdad8" stroke="#0F172A2e"/><g clip-path="url(#tp-cvpr-keys-17)"><g transform="matrix(4.21 0.41 -1.57 1.09 288 436.19)"><rect x="1.8" y="1.4" width="2.1" height="1.9" rx="0.4" fill="#FFFFFF" opacity="0.6"/><rect x="4.25" y="1.4" width="2.1" height="1.9" rx="0.4" fill="#FFFFFF" opacity="0.6"/><rect x="6.7" y="1.4" width="2.1" height="1.9" rx="0.4" fill="#FFFFFF" opacity="0.6"/><rect x="9.15" y="1.4" width="2.1" height="1.9" rx="0.4" fill="#FFFFFF" opacity="0.6"/><rect x="11.6" y="1.4" width="2.1" height="1.9" rx="0.4" fill="#FFFFFF" opacity="0.6"/><rect x="14.05" y="1.4" width="2.1" height="1.9" rx="0.4" fill="#FFFFFF" opacity="0.6"/><rect x="16.5" y="1.4" width="2.1" height="1.9" rx="0.4" fill="#FFFFFF" opacity="0.6"/><rect x="18.95" y="1.4" width="2.1" height="1.9" rx="0.4" fill="#FFFFFF" opacity="0.6"/><rect x="21.4" y="1.4" width="2.1" height="1.9" rx="0.4" fill="#FFFFFF" opacity="0.6"/><rect x="23.85" y="1.4" width="2.1" height="1.9" rx="0.4" fill="#FFFFFF" opacity="0.6"/><rect x="26.3" y="1.4" width="2.1" height="1.9" rx="0.4" fill="#FFFFFF" opacity="0.6"/><rect x="28.75" y="1.4" width="2.1" height="1.9" rx="0.4" fill="#FFFFFF" opacity="0.6"/><rect x="1.8" y="3.7" width="2.1" height="1.9" rx="0.4" fill="#FFFFFF" opacity="0.6"/><rect x="4.25" y="3.7" width="2.1" height="1.9" rx="0.4" fill="#FFFFFF" opacity="0.6"/><rect x="6.7" y="3.7" width="2.1" height="1.9" rx="0.4" fill="#FFFFFF" opacity="0.6"/><rect x="9.15" y="3.7" width="2.1" height="1.9" rx="0.4" fill="#FFFFFF" opacity="0.6"/><rect x="11.6" y="3.7" width="2.1" height="1.9" rx="0.4" fill="#FFFFFF" opacity="0.6"/><rect x="14.05" y="3.7" width="2.1" height="1.9" rx="0.4" fill="#FFFFFF" opacity="0.6"/><rect x="16.5" y="3.7" width="2.1" height="1.9" rx="0.4" fill="#FFFFFF" opacity="0.6"/><rect x="18.95" y="3.7" width="2.1" height="1.9" rx="0.4" fill="#FFFFFF" opacity="0.6"/><rect x="21.4" y="3.7" width="2.1" height="1.9" rx="0.4" fill="#FFFFFF" opacity="0.6"/><rect x="23.85" y="3.7" width="2.1" height="1.9" rx="0.4" fill="#FFFFFF" opacity="0.6"/><rect x="26.3" y="3.7" width="2.1" height="1.9" rx="0.4" fill="#FFFFFF" opacity="0.6"/><rect x="28.75" y="3.7" width="2.1" height="1.9" rx="0.4" fill="#FFFFFF" opacity="0.6"/><rect x="1.8" y="6" width="2.1" height="1.9" rx="0.4" fill="#FFFFFF" opacity="0.6"/><rect x="4.25" y="6" width="2.1" height="1.9" rx="0.4" fill="#FFFFFF" opacity="0.6"/><rect x="6.7" y="6" width="2.1" height="1.9" rx="0.4" fill="#FFFFFF" opacity="0.6"/><rect x="9.15" y="6" width="2.1" height="1.9" rx="0.4" fill="#FFFFFF" opacity="0.6"/><rect x="11.6" y="6" width="2.1" height="1.9" rx="0.4" fill="#FFFFFF" opacity="0.6"/><rect x="14.05" y="6" width="2.1" height="1.9" rx="0.4" fill="#FFFFFF" opacity="0.6"/><rect x="16.5" y="6" width="2.1" height="1.9" rx="0.4" fill="#FFFFFF" opacity="0.6"/><rect x="18.95" y="6" width="2.1" height="1.9" rx="0.4" fill="#FFFFFF" opacity="0.6"/><rect x="21.4" y="6" width="2.1" height="1.9" rx="0.4" fill="#FFFFFF" opacity="0.6"/><rect x="23.85" y="6" width="2.1" height="1.9" rx="0.4" fill="#FFFFFF" opacity="0.6"/><rect x="26.3" y="6" width="2.1" height="1.9" rx="0.4" fill="#FFFFFF" opacity="0.6"/><rect x="28.75" y="6" width="2.1" height="1.9" rx="0.4" fill="#FFFFFF" opacity="0.6"/><rect x="1.8" y="8.3" width="2.1" height="1.9" rx="0.4" fill="#FFFFFF" opacity="0.6"/><rect x="4.25" y="8.3" width="2.1" height="1.9" rx="0.4" fill="#FFFFFF" opacity="0.6"/><rect x="6.7" y="8.3" width="2.1" height="1.9" rx="0.4" fill="#FFFFFF" opacity="0.6"/><rect x="9.15" y="8.3" width="2.1" height="1.9" rx="0.4" fill="#FFFFFF" opacity="0.6"/><rect x="11.6" y="8.3" width="2.1" height="1.9" rx="0.4" fill="#FFFFFF" opacity="0.6"/><rect x="14.05" y="8.3" width="2.1" height="1.9" rx="0.4" fill="#FFFFFF" opacity="0.6"/><rect x="16.5" y="8.3" width="2.1" height="1.9" rx="0.4" fill="#FFFFFF" opacity="0.6"/><rect x="18.95" y="8.3" width="2.1" height="1.9" rx="0.4" fill="#FFFFFF" opacity="0.6"/><rect x="21.4" y="8.3" width="2.1" height="1.9" rx="0.4" fill="#FFFFFF" opacity="0.6"/><rect x="23.85" y="8.3" width="2.1" height="1.9" rx="0.4" fill="#FFFFFF" opacity="0.6"/><rect x="26.3" y="8.3" width="2.1" height="1.9" rx="0.4" fill="#FFFFFF" opacity="0.6"/><rect x="28.75" y="8.3" width="2.1" height="1.9" rx="0.4" fill="#FFFFFF" opacity="0.6"/></g></g><path d="M52.59 435.16 L180.49 446.24 L149.11 470.51 L21.21 459.44 Z" fill="url(#tp-cvpr-shadow-18)"/><path d="M46.48 434.22 L153.67 437.38 L145.02 457.04 L37.82 453.87 Z" fill="#5a413c" stroke="#0F172A33"/><path d="M46.48 432.05 L153.67 435.21 L145.02 454.86 L37.82 451.7 Z" fill="#ece8e0"/><path d="M76.38 450.37 L134.32 448.4 L134.96 449.66 L77.02 451.64 Z" fill="#111620"/><rect width="800" height="600" fill="url(#tp-cvpr-warm-19)"/><rect width="800" height="600" fill="url(#tp-cvpr-vignette-20)"/></svg>