<svg xmlns="http://www.w3.org/2000/svg" width="320" height="240" viewBox="0 0 320 240" role="img" aria-label="JINST Proceedings template preview" data-template-id="jinst-proceedings"><rect width="320" height="240" rx="11.2" fill="#F1F4F8"/><rect x="8" y="8.4" width="304" height="223.2" rx="8" fill="#FFFFFF" stroke="#DCE3EC"/><svg x="87.6" y="17.6" width="144.81" height="204.8" viewBox="0 0 320 452.57" preserveAspectRatio="none" aria-hidden="true"><rect width="320" height="452.57" fill="#FFFFFF"/><rect x="0.5" y="0.5" width="319" height="451.57" fill="none" stroke="#0F172A1f"/><rect x="27.2" y="27.2" width="265.6" height="2.72" fill="#111827"/><text x="27.2" y="48.2" font-size="6.37" font-family="Arial, sans-serif" font-weight="700" letter-spacing="0.4" fill="#111827">JINST</text><rect x="27.2" y="53.99" width="244.35" height="6.73" rx="3.37" fill="#0F172A" opacity="0.92"/><rect x="27.2" y="62.9" width="166.16" height="4.56" rx="2.28" fill="#0F172A" opacity="0.75"/><rect x="27.2" y="74.09" width="95.62" height="2.04" rx="1.02" fill="#111827c7" opacity="1"/><rect x="122.82" y="78.16" width="80.32" height="2.04" rx="1.02" fill="#1118277a" opacity="1"/><rect x="27.2" y="82.23" width="95.62" height="2.04" rx="1.02" fill="#1118277a" opacity="1"/><rect x="27.2" y="93.55" width="265.6" height="47.52" fill="none" stroke="#1118277a" stroke-width="0.7"/><rect x="36.5" y="99.72" width="53.12" height="5.23" rx="2.61" fill="#111827" opacity="0.9"/><rect x="36.5" y="109.7" width="247.01" height="2.14" rx="1.07" fill="#0F172A47" opacity="1"/><rect x="36.5" y="116.83" width="228.42" height="2.14" rx="1.07" fill="#0F172A47" opacity="1"/><rect x="36.5" y="123.96" width="247.01" height="2.14" rx="1.07" fill="#0F172A47" opacity="1"/><rect x="36.5" y="131.09" width="228.42" height="2.14" rx="1.07" fill="#0F172A47" opacity="1"/><rect x="27.2" y="152.38" width="164.67" height="3.12" rx="1.56" fill="#0F172A" opacity="0.88"/><rect x="27.2" y="156.9" width="265.6" height="0.7" fill="#111827bf"/><rect x="27.2" y="163.01" width="260.29" height="2.04" rx="1.02" fill="#0F172A40" opacity="1"/><rect x="27.2" y="171.01" width="233.73" height="2.04" rx="1.02" fill="#0F172A40" opacity="1"/><rect x="27.2" y="179.01" width="260.29" height="2.04" rx="1.02" fill="#0F172A40" opacity="1"/><rect x="27.2" y="187.02" width="183.26" height="2.04" rx="1.02" fill="#0F172A40" opacity="1"/><rect x="27.2" y="195.02" width="260.29" height="2.04" rx="1.02" fill="#0F172A40" opacity="1"/><rect x="27.2" y="203.03" width="233.73" height="2.04" rx="1.02" fill="#0F172A40" opacity="1"/><rect x="27.2" y="228.16" width="132.8" height="3.12" rx="1.56" fill="#0F172A" opacity="0.88"/><rect x="27.2" y="232.67" width="265.6" height="0.7" fill="#111827bf"/><rect x="27.2" y="238.78" width="260.29" height="2.04" rx="1.02" fill="#0F172A40" opacity="1"/><rect x="27.2" y="246.79" width="233.73" height="2.04" rx="1.02" fill="#0F172A40" opacity="1"/><rect x="27.2" y="254.79" width="260.29" height="2.04" rx="1.02" fill="#0F172A40" opacity="1"/><rect x="27.2" y="262.8" width="183.26" height="2.04" rx="1.02" fill="#0F172A40" opacity="1"/><rect x="27.2" y="270.8" width="260.29" height="2.04" rx="1.02" fill="#0F172A40" opacity="1"/><rect x="27.2" y="278.81" width="233.73" height="2.04" rx="1.02" fill="#0F172A40" opacity="1"/><rect x="43.14" y="316.47" width="233.73" height="50.68" fill="#1118271f" stroke="#11182733"/><path d="M59.07 354.99 L106.88 344.85 L154.69 348.4 L205.15 330.66 L255.62 335.73" fill="none" stroke="#111827" stroke-width="1.92"/><rect x="112.19" y="371.2" width="95.62" height="1.81" rx="0.91" fill="#0F172A47" opacity="1"/><rect x="27.2" y="435.16" width="265.6" height="0.72" fill="#0F172A38"/><rect x="27.2" y="441.15" width="119.52" height="1.54" rx="0.77" fill="#0F172A52" opacity="1"/></svg></svg>