<svg xmlns="http://www.w3.org/2000/svg" width="800" height="600" viewBox="0 0 800 600" role="img" aria-label="JINST Proceedings template preview" data-template-id="jinst-proceedings"><defs><linearGradient id="tp-jinst-proceedings-wall-1" x1="0" y1="0" x2="0.35" y2="1"><stop offset="0" stop-color="#f0ebe3"/><stop offset="0.62" stop-color="#ece5db"/><stop offset="1" stop-color="#bfb6ab"/></linearGradient><linearGradient id="tp-jinst-proceedings-window-2" x1="0" y1="0" x2="0" y2="1"><stop offset="0" stop-color="#FFFCF2"/><stop offset="1" stop-color="#FFEFD2"/></linearGradient><linearGradient id="tp-jinst-proceedings-desk-3" x1="0" y1="0" x2="0.15" y2="1"><stop offset="0" stop-color="#e0c299"/><stop offset="0.55" stop-color="#d0a265"/><stop offset="1" stop-color="#af8855"/></linearGradient><clipPath id="tp-jinst-proceedings-grain-4"><path d="M133.54 378.69 L744.06 424 L646.52 512.04 L36 466.73 Z"/></clipPath><radialGradient id="tp-jinst-proceedings-shadow-5" cx="0.5" cy="0.5" r="0.5"><stop offset="0" stop-color="#22160A" stop-opacity="0.26"/><stop offset="0.6" stop-color="#22160A" stop-opacity="0.13"/><stop offset="1" stop-color="#22160A" stop-opacity="0"/></radialGradient><clipPath id="tp-jinst-proceedings-board-6"><path d="M230.71 76.05 L414.42 83.58 L414.42 337.67 L230.71 330.14 Z"/></clipPath><radialGradient id="tp-jinst-proceedings-shadow-7" cx="0.5" cy="0.5" r="0.5"><stop offset="0" stop-color="#22160A" stop-opacity="0.24"/><stop offset="0.6" stop-color="#22160A" stop-opacity="0.12"/><stop offset="1" stop-color="#22160A" stop-opacity="0"/></radialGradient><radialGradient id="tp-jinst-proceedings-shadow-8" cx="0.5" cy="0.5" r="0.5"><stop offset="0" stop-color="#22160A" stop-opacity="0.22"/><stop offset="0.6" stop-color="#22160A" stop-opacity="0.11"/><stop offset="1" stop-color="#22160A" stop-opacity="0"/></radialGradient><radialGradient id="tp-jinst-proceedings-shadow-9" cx="0.5" cy="0.5" r="0.5"><stop offset="0" stop-color="#22160A" stop-opacity="0.2"/><stop offset="0.6" stop-color="#22160A" stop-opacity="0.1"/><stop offset="1" stop-color="#22160A" stop-opacity="0"/></radialGradient><clipPath id="tp-jinst-proceedings-keys-10"><path d="M587.18 422.58 L681.87 440.39 L654.68 450.08 L559.98 432.27 Z"/></clipPath><clipPath id="tp-jinst-proceedings-screen-11"><path d="M602.46 343.37 L708.16 363.24 L700.66 435.82 L594.95 415.95 Z"/></clipPath><linearGradient id="tp-jinst-proceedings-page-12" x1="0" y1="1" x2="1" y2="0"><stop offset="0" stop-color="#FFFFFF"/><stop offset="1" stop-color="#ececee"/></linearGradient><clipPath id="tp-jinst-proceedings-sheet-13"><path d="M106.56 433.11 L190.68 444.69 L127.42 475.48 L43.3 463.9 Z"/></clipPath><linearGradient id="tp-jinst-proceedings-page-14" x1="0" y1="1" x2="1" y2="0"><stop offset="0" stop-color="#FFFFFF"/><stop offset="1" stop-color="#ececee"/></linearGradient><clipPath id="tp-jinst-proceedings-sheet-15"><path d="M473.2 460.89 L568.17 462.82 L557.6 497.59 L462.62 495.65 Z"/></clipPath><radialGradient id="tp-jinst-proceedings-shadow-16" cx="0.5" cy="0.5" r="0.5"><stop offset="0" stop-color="#22160A" stop-opacity="0.2"/><stop offset="0.6" stop-color="#22160A" stop-opacity="0.1"/><stop offset="1" stop-color="#22160A" stop-opacity="0"/></radialGradient><clipPath id="tp-jinst-proceedings-keys-17"><path d="M286.99 440.33 L425.05 451.94 L408.23 465.34 L270.16 453.73 Z"/></clipPath><radialGradient id="tp-jinst-proceedings-shadow-18" cx="0.5" cy="0.5" r="0.5"><stop offset="0" stop-color="#22160A" stop-opacity="0.22"/><stop offset="0.6" stop-color="#22160A" stop-opacity="0.11"/><stop offset="1" stop-color="#22160A" stop-opacity="0"/></radialGradient><linearGradient id="tp-jinst-proceedings-warm-19" x1="0" y1="0" x2="0.7" y2="1"><stop offset="0" stop-color="#FFF4DC" stop-opacity="0.42"/><stop offset="0.45" stop-color="#FFF4DC" stop-opacity="0.1"/><stop offset="1" stop-color="#3B2410" stop-opacity="0.14"/></linearGradient><radialGradient id="tp-jinst-proceedings-vignette-20" cx="0.45" cy="0.42" r="0.8"><stop offset="0.55" stop-color="#000000" stop-opacity="0"/><stop offset="1" stop-color="#000000" stop-opacity="0.28"/></radialGradient></defs><path d="M118.59 375.14 L764 423.04 L764 37.42 L118.59 -10.48 Z" fill="url(#tp-jinst-proceedings-wall-1)"/><path d="M139.9 261.52 L314.33 274.47 L314.33 73.95 L139.9 61 Z" fill="url(#tp-jinst-proceedings-window-2)"/><rect x="225.41" y="61" width="3.4" height="200.52" fill="#FFFFFF" opacity="0.72"/><rect x="139.9" y="161.26" width="174.43" height="2.6" fill="#FFFFFF" opacity="0.55"/><path d="M502.35 230.09 L755.28 248.86 L746.53 256.76 L493.6 237.99 Z" fill="#c7a684"/><path d="M493.6 248.51 L746.53 267.28 L746.53 256.76 L493.6 237.99 Z" fill="#8d6a48"/><path d="M509.18 236.7 L519.64 237.48 L519.64 184.9 L509.18 184.12 Z" fill="#783813"/><path d="M519.64 237.48 L517.14 239.74 L517.14 187.15 L519.64 184.9 Z" fill="#56280e"/><path d="M524.88 237.87 L537.52 238.81 L537.52 173.08 L524.88 172.14 Z" fill="#144d62"/><path d="M537.52 238.81 L535.02 241.07 L535.02 175.34 L537.52 173.08 Z" fill="#0e3747"/><path d="M542.76 239.2 L557.58 240.3 L557.58 187.71 L542.76 186.61 Z" fill="#451c88"/><path d="M557.58 240.3 L555.08 242.55 L555.08 189.97 L557.58 187.71 Z" fill="#321462"/><path d="M562.82 240.69 L573.28 241.46 L573.28 175.73 L562.82 174.96 Z" fill="#094a3d"/><path d="M573.28 241.46 L570.78 243.72 L570.78 177.99 L573.28 175.73 Z" fill="#06352c"/><path d="M578.52 241.85 L591.16 242.79 L591.16 190.2 L578.52 189.27 Z" fill="#7b3e14"/><path d="M591.16 242.79 L588.66 245.05 L588.66 192.46 L591.16 190.2 Z" fill="#592d0e"/><path d="M596.4 243.18 L611.22 244.28 L611.22 178.55 L596.4 177.45 Z" fill="#0f6864"/><path d="M611.22 244.28 L608.72 246.54 L608.72 180.8 L611.22 178.55 Z" fill="#0b4b48"/><path d="M616.46 244.67 L626.92 245.44 L626.92 192.86 L616.46 192.08 Z" fill="#51251a"/><path d="M626.92 245.44 L624.42 247.7 L624.42 195.12 L626.92 192.86 Z" fill="#3a1b13"/><path d="M632.16 245.83 L644.8 246.77 L644.8 181.04 L632.16 180.1 Z" fill="#1c4aca"/><path d="M644.8 246.77 L642.3 249.03 L642.3 183.3 L644.8 181.04 Z" fill="#143591"/><path d="M650.03 247.16 L664.86 248.26 L664.86 195.67 L650.03 194.57 Z" fill="#783813"/><path d="M664.86 248.26 L662.36 250.52 L662.36 197.93 L664.86 195.67 Z" fill="#56280e"/><path d="M670.09 248.65 L680.56 249.42 L680.56 183.69 L670.09 182.92 Z" fill="#144d62"/><path d="M680.56 249.42 L678.06 251.68 L678.06 185.95 L680.56 183.69 Z" fill="#0e3747"/><path d="M685.79 249.81 L698.44 250.75 L698.44 198.17 L685.79 197.23 Z" fill="#451c88"/><path d="M698.44 250.75 L695.94 253.01 L695.94 200.42 L698.44 198.17 Z" fill="#321462"/><path d="M703.67 251.14 L718.5 252.24 L718.5 186.51 L703.67 185.41 Z" fill="#094a3d"/><path d="M718.5 252.24 L716 254.5 L716 188.77 L718.5 186.51 Z" fill="#06352c"/><path d="M502.35 156.82 L755.28 175.59 L746.53 183.49 L493.6 164.72 Z" fill="#c7a684"/><path d="M493.6 175.24 L746.53 194.01 L746.53 183.49 L493.6 164.72 Z" fill="#8d6a48"/><path d="M518.54 159.25 L592.68 164.75 L586.42 170.39 L512.29 164.89 Z" fill="#783813"/><path d="M605.76 165.72 L662.45 169.93 L656.2 175.57 L599.51 171.36 Z" fill="#356b60"/><path d="M133.54 378.69 L744.06 424 L646.52 512.04 L36 466.73 Z" fill="url(#tp-jinst-proceedings-desk-3)"/><path d="M36 497.4 L646.52 542.71 L646.52 512.04 L36 466.73 Z" fill="#81643f"/><path d="M646.52 542.71 L744.06 454.67 L744.06 424 L646.52 512.04 Z" fill="#967549"/><g clip-path="url(#tp-jinst-proceedings-grain-4)"><g transform="matrix(4.36 0.32 -1.25 1.13 133.54 378.69)"><rect x="24" y="9.75" width="92" height="0.6" fill="#8A5A2B" opacity="0.13"/><rect x="6" y="19.5" width="118" height="0.6" fill="#8A5A2B" opacity="0.13"/><rect x="24" y="29.25" width="92" height="0.6" fill="#8A5A2B" opacity="0.13"/><rect x="6" y="39" width="118" height="0.6" fill="#8A5A2B" opacity="0.13"/><rect x="24" y="48.75" width="92" height="0.6" fill="#8A5A2B" opacity="0.13"/><rect x="6" y="58.5" width="118" height="0.6" fill="#8A5A2B" opacity="0.13"/><rect x="24" y="68.25" width="92" height="0.6" fill="#8A5A2B" opacity="0.13"/></g></g><path d="M241.7 402.11 L240.21 76.91 L252.18 76.34 L253.66 401.53 Z" fill="#a77647"/><path d="M381.11 412.45 L382.59 87.48 L394.56 86.9 L393.07 411.88 Z" fill="#744e2e"/><path d="M315.17 400.48 L315.17 42.53 L336.1 44.08 L336.1 402.03 Z" fill="#865e39"/><path d="M201.62 395.08 L511.41 418.07 L481.4 445.16 L171.61 422.17 Z" fill="url(#tp-jinst-proceedings-shadow-5)"/><path d="M423.06 76.2 L424.9 73.18 L424.9 342.18 L423.06 345.19 Z" fill="#0F172A24"/><path d="M223.41 68 L422.35 76.16 L422.35 345.15 L223.41 336.99 Z" fill="#f7f7f7" stroke="#0F172A24"/><g clip-path="url(#tp-jinst-proceedings-board-6)"><g transform="matrix(0.57 0.02 0 0.56 230.71 76.05)"><rect width="320" height="452.57" fill="#FFFFFF"/><rect x="0.5" y="0.5" width="319" height="451.57" fill="none" stroke="#0F172A1f"/><rect x="27.2" y="27.2" width="265.6" height="2.72" fill="#111827"/><text x="27.2" y="48.2" font-size="6.37" font-family="Helvetica, Arial, sans-serif" font-weight="700" letter-spacing="0.4" fill="#111827">JINST</text><text x="27.2" y="53.99" font-family="Helvetica, Arial, sans-serif" font-size="8.24" fill="#0F172A" font-weight="700" opacity="0.95">Search for a 630 GeV Resonance in the Di-Photon</text><text x="27.2" y="63.55" font-family="Helvetica, Arial, sans-serif" font-size="8.24" fill="#0F172A" font-weight="700" opacity="0.95">Channel with an Upgraded Tracker</text><text x="27.2" y="76.64" font-family="Helvetica, Arial, sans-serif" font-size="2.81" fill="#111827e6">M. Horák, J. Lindqvist, A. Ramirez, P. Novotný, and the HEP-UPG Collaboration</text><text x="27.2" y="80.85" font-family="Helvetica, Arial, sans-serif" font-size="2.53" fill="#0F172A80">Journal of Instrumentation — Proceedings of the 21st Pisa Meeting on Advanced Detectors</text><rect x="27.2" y="87.03" width="265.6" height="47.52" fill="none" stroke="#1118277a" stroke-width="0.7"/><text x="36.5" y="95.1" font-family="Helvetica, Arial, sans-serif" font-size="5.46" fill="#111827" font-weight="700" opacity="0.9">Abstract</text><text x="36.5" y="104.13" font-family="Helvetica, Arial, sans-serif" font-size="4.04" fill="#0F172Aa8">A search for a narrow scalar resonance decaying into two photons is presented, using 139 fb-1 of proton–proton</text><text x="36.5" y="111.74" font-family="Helvetica, Arial, sans-serif" font-size="4.04" fill="#0F172Aa8">collisions at √s = 13 TeV recorded with the upgraded inner tracker. The di-photon invariant mass spectrum is fitted</text><text x="36.5" y="119.34" font-family="Helvetica, Arial, sans-serif" font-size="4.04" fill="#0F172Aa8">with a parametric background model whose uncertainty is constrained in three control regions. An excess is observed at</text><text x="36.5" y="126.94" font-family="Helvetica, Arial, sans-serif" font-size="4.04" fill="#0F172Aa8">mγγ = 630. 4 ± 1. 1 GeV with a local significance of 5. 8 standard deviations, corresponding to 1. 4 standard…</text><text x="27.2" y="145.86" font-family="Helvetica, Arial, sans-serif" font-size="7.97" fill="#0F172A" font-weight="700" opacity="0.9">Introduction</text><rect x="27.2" y="148.65" width="265.6" height="0.8" fill="#0F172A4d"/><text x="27.2" y="156.62" font-family="Helvetica, Arial, sans-serif" font-size="4.38" fill="#0F172Aad">Extensions of the Standard Model with an additional scalar singlet predict narrow resonances that couple to photons</text><text x="27.2" y="163.19" font-family="Helvetica, Arial, sans-serif" font-size="4.38" fill="#0F172Aad">through a loop of charged particles. Searches in the di-photon final state are therefore among the most sensitive</text><text x="27.2" y="169.76" font-family="Helvetica, Arial, sans-serif" font-size="4.38" fill="#0F172Aad">probes of such scenarios at the LHC . The published analysis of the 2022 dataset was limited by the forward</text><text x="27.2" y="176.34" font-family="Helvetica, Arial, sans-serif" font-size="4.38" fill="#0F172Aad">acceptance of the previous tracking detector, where the occupancy at η &gt; 2 degraded the reconstruction efficiency…</text><text x="27.2" y="195.43" font-family="Helvetica, Arial, sans-serif" font-size="7.97" fill="#0F172A" font-weight="700" opacity="0.9">Detector and Dataset</text><rect x="27.2" y="198.21" width="265.6" height="0.8" fill="#0F172A4d"/><text x="27.2" y="206.18" font-family="Helvetica, Arial, sans-serif" font-size="4.38" fill="#0F172Aad">The inner tracker consists of four pixel layers at radii between 32 mm and 96 mm, each providing a single-point</text><text x="27.2" y="212.76" font-family="Helvetica, Arial, sans-serif" font-size="4.38" fill="#0F172Aad">resolution of 12 µm and designed to withstand a fluence of 3 × 1015 neq/cm^2. Photon candidates are reconstructed</text><text x="27.2" y="219.33" font-family="Helvetica, Arial, sans-serif" font-size="4.38" fill="#0F172Aad">from topological clusters in the electromagnetic calorimeter and required to have E_T &gt; 25 GeV and η &lt; 2. 37,…</text><rect x="27.2" y="227.66" width="265.6" height="17.84" rx="2" fill="#11182729"/><text x="27.2" y="244.99" font-family="Helvetica, Arial, sans-serif" font-size="7.97" fill="#0F172A" font-weight="700" opacity="0.9">Event Selection</text><rect x="27.2" y="247.78" width="265.6" height="0.8" fill="#0F172A4d"/><text x="27.2" y="255.75" font-family="Helvetica, Arial, sans-serif" font-size="4.38" fill="#0F172Aad">Photons are required to be isolated, with the scalar sum of transverse energy in a cone of Δ R = 0. 4 below 6 GeV</text><text x="27.2" y="262.32" font-family="Helvetica, Arial, sans-serif" font-size="4.38" fill="#0F172Aad">after subtracting the expected pile-up contribution. The two leading photons must be separated by Δ R &gt; 0. 4 and</text><text x="27.2" y="268.9" font-family="Helvetica, Arial, sans-serif" font-size="4.38" fill="#0F172Aad">satisfy Σ p_T &lt; 20 GeV to reject events with significant jet activity. Table 1 lists the cumulative cut flow.</text><text x="27.2" y="294.56" font-family="Helvetica, Arial, sans-serif" font-size="7.97" fill="#0F172A" font-weight="700" opacity="0.9">Background Model</text><rect x="27.2" y="297.35" width="265.6" height="0.8" fill="#0F172A4d"/><text x="27.2" y="305.32" font-family="Helvetica, Arial, sans-serif" font-size="4.38" fill="#0F172Aad">The dominant background is irreducible prompt di-photon production, whose invariant mass spectrum is smooth and well</text><text x="27.2" y="311.89" font-family="Helvetica, Arial, sans-serif" font-size="4.38" fill="#0F172Aad">described by a fourth-order Bernstein polynomial. The fit is performed over the range 550–750 GeV while the signal</text><text x="27.2" y="318.46" font-family="Helvetica, Arial, sans-serif" font-size="4.38" fill="#0F172Aad">window is blinded; the number of parameters is chosen by an F-test on the sidebands, and the residual bias of the</text><text x="27.2" y="325.04" font-family="Helvetica, Arial, sans-serif" font-size="4.38" fill="#0F172Aad">fit is estimated with pseudo-experiments. Systematic uncertainty from the background model is taken as the envelope…</text><text x="27.2" y="344.13" font-family="Helvetica, Arial, sans-serif" font-size="7.97" fill="#0F172A" font-weight="700" opacity="0.9">Results</text><rect x="27.2" y="346.91" width="265.6" height="0.8" fill="#0F172A4d"/><text x="27.2" y="354.88" font-family="Helvetica, Arial, sans-serif" font-size="4.38" fill="#0F172Aad">The fitted signal-plus-background model is shown in Figure 2. The excess corresponds to a signal yield of 41 ± 8</text><text x="27.2" y="361.46" font-family="Helvetica, Arial, sans-serif" font-size="4.38" fill="#0F172Aad">events, with a fitted mass of 630. 4 ± 1. 1 GeV and a width consistent with the detector resolution of 1. 6 GeV. The</text><text x="27.2" y="368.03" font-family="Helvetica, Arial, sans-serif" font-size="4.38" fill="#0F172Aad">local p-value of the background-only hypothesis is 3 × 10-9, i. e. 5. 8 standard deviations; accounting for the…</text><rect x="27.2" y="376.36" width="265.6" height="17.84" rx="2" fill="#11182729"/><text x="27.2" y="436.25" font-family="Helvetica, Arial, sans-serif" font-size="2.26" fill="#0F172A80">JINST</text><text x="292.8" y="436.25" font-family="Helvetica, Arial, sans-serif" font-size="2.26" fill="#0F172A80">1</text></g></g><circle cx="241.06" cy="66.93" r="2.6" fill="#111827eb"/><circle cx="403.7" cy="79" r="2.6" fill="#111827eb"/><path d="M214.96 337.95 L420.8 353.23 L425.8 348.71 L219.96 333.43 Z" fill="#b9916c"/><path d="M214.96 348.03 L420.8 363.3 L420.8 353.23 L214.96 337.95 Z" fill="#744e2e"/><path d="M658.4 420.73 L752.28 427.69 L727.43 450.12 L633.55 443.16 Z" fill="url(#tp-jinst-proceedings-shadow-7)"/><path d="M669.89 430.71 L706 433.39 L706 401.14 L669.89 398.46 Z" fill="#b27354"/><path d="M674.55 394.25 L710.66 396.93 L701.34 405.34 L665.23 402.66 Z" fill="#8e5c43"/><path d="M687.94 399.8 Q662.48 382.67 651.03 373.55 Q676.48 382.67 687.94 399.8" fill="#294f35" opacity="0.96"/><path d="M687.94 399.8 Q664.55 375.15 655.15 358.49 Q678.55 375.15 687.94 399.8" fill="#366947" opacity="0.96"/><path d="M687.94 399.8 Q670.23 368.28 666.53 344.75 Q684.23 368.28 687.94 399.8" fill="#294f35" opacity="0.96"/><path d="M687.94 399.8 Q679.37 363.41 684.8 335.03 Q693.37 363.41 687.94 399.8" fill="#366947" opacity="0.96"/><path d="M687.94 399.8 Q686.41 376.84 698.88 361.88 Q700.41 376.84 687.94 399.8" fill="#294f35" opacity="0.96"/><path d="M687.94 399.8 Q695.06 376.85 716.17 361.9 Q709.06 376.85 687.94 399.8" fill="#366947" opacity="0.96"/><path d="M687.94 399.8 Q704.48 380.21 735.01 368.61 Q718.48 380.21 687.94 399.8" fill="#294f35" opacity="0.96"/><path d="M147.36 422.85 L199.25 426.7 L184.37 440.13 L132.48 436.28 Z" fill="url(#tp-jinst-proceedings-shadow-8)"/><path d="M146.75 428.53 L177.28 430.79 L177.28 403.63 L146.75 401.36 Z" fill="#888c93"/><path d="M151.13 397.41 L181.65 399.68 L172.9 407.58 L142.37 405.31 Z" fill="#b8babe"/><path d="M152.97 399.21 L175.87 400.91 L171.05 405.25 L148.16 403.55 Z" fill="#4A2C16"/><path d="M165.49 416.73 q10 -3 10 4.5 q0 6.5 -10 3" fill="none" stroke="#888c93" stroke-width="2.4"/><path d="M558.45 422.61 L728.52 435.23 L687.71 472.07 L517.63 459.45 Z" fill="url(#tp-jinst-proceedings-shadow-9)"/><path d="M592.75 415.53 L702.86 436.24 L648.46 455.62 L538.36 434.91 Z" fill="#949aa5"/><path d="M538.36 434.91 L648.46 455.62 L648.46 461.75 L538.36 441.05 Z" fill="#565960"/><path d="M587.18 422.58 L681.87 440.39 L654.68 450.08 L559.98 432.27 Z" fill="#737881"/><g clip-path="url(#tp-jinst-proceedings-keys-10)"><g transform="matrix(3.67 0.69 -2.67 0.95 587.18 422.58)"><rect x="1.8" y="0.61" width="26.4" height="1.22" rx="0.24" fill="#FFFFFF" opacity="0.22"/><rect x="1.8" y="2.65" width="26.4" height="1.22" rx="0.24" fill="#FFFFFF" opacity="0.22"/><rect x="1.8" y="4.69" width="26.4" height="1.22" rx="0.24" fill="#FFFFFF" opacity="0.22"/><rect x="1.8" y="6.73" width="26.4" height="1.22" rx="0.24" fill="#FFFFFF" opacity="0.22"/><rect x="1.8" y="8.77" width="26.4" height="1.22" rx="0.24" fill="#FFFFFF" opacity="0.22"/></g></g><path d="M612.56 436.66 L645.59 442.87 L632.53 447.52 L599.5 441.31 Z" fill="#a7acb5"/><path d="M602.83 343.03 L708.53 362.9 L701.03 435.49 L595.33 415.61 Z" fill="#0b101d"/><g clip-path="url(#tp-jinst-proceedings-screen-11)"><g transform="matrix(0.33 0.06 -0.04 0.4 602.46 343.37)"><defs><linearGradient id="neutral-screen-320" x1="0" y1="0" x2="0.6" y2="1"><stop offset="0" stop-color="#090e19"/><stop offset="1" stop-color="#1d2537"/></linearGradient></defs><rect width="320" height="180" fill="url(#neutral-screen-320)"/><rect x="19.2" y="21.6" width="96" height="10.8" rx="3.6" fill="#11182780"/><rect x="19.2" y="43.2" width="134.4" height="6.3" rx="2.7" fill="#FFFFFF" opacity="0.45"/><rect x="19.2" y="61.2" width="108.8" height="6.3" rx="2.7" fill="#FFFFFF" opacity="0.26"/><rect x="19.2" y="79.2" width="83.2" height="6.3" rx="2.7" fill="#FFFFFF" opacity="0.18"/></g></g><path d="M109.42 437.42 L193.54 449 L130.28 479.79 L46.16 468.21 Z" fill="#2417082e"/><path d="M106.56 433.11 L190.68 444.69 L127.42 475.48 L43.3 463.9 Z" fill="url(#tp-jinst-proceedings-page-12)" stroke="#0F172A1f"/><g clip-path="url(#tp-jinst-proceedings-sheet-13)"><g transform="matrix(0.38 0.05 -0.2 0.1 106.56 433.11)"><rect width="220" height="311.14" fill="#FFFFFF"/><rect x="22" y="28" width="59.84" height="3.73" fill="#0F172A" opacity="0.3"/><rect x="22" y="40.45" width="151.36" height="8.71" rx="1.24" fill="#0F172A" opacity="0.78"/><rect x="22" y="54.45" width="105.6" height="5.6" rx="0.93" fill="#0F172A" opacity="0.38"/><rect x="22" y="66.9" width="35.2" height="1.87" fill="#111827d9"/><rect x="22" y="80.9" width="55.18" height="3.86" rx="1.93" fill="#0F172A" opacity="0.48"/><rect x="22" y="87.65" width="75.24" height="2.31" rx="1.16" fill="#0F172A" opacity="0.15"/><rect x="22" y="105.01" width="68.55" height="3.86" rx="1.93" fill="#0F172A" opacity="0.24"/><rect x="22" y="111.76" width="75.24" height="2.31" rx="1.16" fill="#0F172A" opacity="0.15"/><rect x="22" y="129.12" width="68.55" height="3.86" rx="1.93" fill="#0F172A" opacity="0.24"/><rect x="22" y="135.88" width="75.24" height="2.31" rx="1.16" fill="#0F172A" opacity="0.15"/><rect x="22" y="153.24" width="78.58" height="3.86" rx="1.93" fill="#0F172A" opacity="0.24"/><rect x="22" y="159.99" width="75.24" height="2.31" rx="1.16" fill="#0F172A" opacity="0.15"/><rect x="22" y="177.35" width="55.18" height="3.86" rx="1.93" fill="#0F172A" opacity="0.48"/><rect x="22" y="184.1" width="75.24" height="2.31" rx="1.16" fill="#0F172A" opacity="0.15"/><rect x="22" y="201.47" width="68.55" height="3.86" rx="1.93" fill="#0F172A" opacity="0.24"/><rect x="22" y="208.22" width="75.24" height="2.31" rx="1.16" fill="#0F172A" opacity="0.15"/><rect x="22" y="225.58" width="78.58" height="3.86" rx="1.93" fill="#0F172A" opacity="0.24"/><rect x="22" y="232.33" width="75.24" height="2.31" rx="1.16" fill="#0F172A" opacity="0.15"/><rect x="22" y="249.69" width="68.55" height="3.86" rx="1.93" fill="#0F172A" opacity="0.24"/><rect x="22" y="256.44" width="75.24" height="2.31" rx="1.16" fill="#0F172A" opacity="0.15"/><rect x="114.4" y="80.9" width="55.18" height="3.86" rx="1.93" fill="#0F172A" opacity="0.48"/><rect x="114.4" y="87.65" width="75.24" height="2.31" rx="1.16" fill="#0F172A" opacity="0.15"/><rect x="114.4" y="105.01" width="68.55" height="3.86" rx="1.93" fill="#0F172A" opacity="0.24"/><rect x="114.4" y="111.76" width="75.24" height="2.31" rx="1.16" fill="#0F172A" opacity="0.15"/><rect x="114.4" y="129.12" width="68.55" height="3.86" rx="1.93" fill="#0F172A" opacity="0.24"/><rect x="114.4" y="135.88" width="75.24" height="2.31" rx="1.16" fill="#0F172A" opacity="0.15"/><rect x="114.4" y="153.24" width="78.58" height="3.86" rx="1.93" fill="#0F172A" opacity="0.24"/><rect x="114.4" y="159.99" width="75.24" height="2.31" rx="1.16" fill="#0F172A" opacity="0.15"/><rect x="114.4" y="177.35" width="55.18" height="3.86" rx="1.93" fill="#0F172A" opacity="0.48"/><rect x="114.4" y="184.1" width="75.24" height="2.31" rx="1.16" fill="#0F172A" opacity="0.15"/><rect x="114.4" y="201.47" width="68.55" height="3.86" rx="1.93" fill="#0F172A" opacity="0.24"/><rect x="114.4" y="208.22" width="75.24" height="2.31" rx="1.16" fill="#0F172A" opacity="0.15"/><rect x="114.4" y="225.58" width="78.58" height="3.86" rx="1.93" fill="#0F172A" opacity="0.24"/><rect x="114.4" y="232.33" width="75.24" height="2.31" rx="1.16" fill="#0F172A" opacity="0.15"/><rect x="114.4" y="249.69" width="68.55" height="3.86" rx="1.93" fill="#0F172A" opacity="0.24"/><rect x="114.4" y="256.44" width="75.24" height="2.31" rx="1.16" fill="#0F172A" opacity="0.15"/></g></g><path d="M476.06 465.19 L571.03 467.13 L560.46 501.89 L465.49 499.96 Z" fill="#2417082e"/><path d="M473.2 460.89 L568.17 462.82 L557.6 497.59 L462.62 495.65 Z" fill="url(#tp-jinst-proceedings-page-14)" stroke="#0F172A1f"/><g clip-path="url(#tp-jinst-proceedings-sheet-15)"><g transform="matrix(0.43 0.01 -0.03 0.11 473.2 460.89)"><rect width="220" height="311.14" fill="#FFFFFF"/><rect x="22" y="28" width="59.84" height="3.73" fill="#0F172A" opacity="0.3"/><rect x="22" y="40.45" width="151.36" height="8.71" rx="1.24" fill="#0F172A" opacity="0.78"/><rect x="22" y="54.45" width="105.6" height="5.6" rx="0.93" fill="#0F172A" opacity="0.38"/><rect x="22" y="66.9" width="35.2" height="1.87" fill="#111827d9"/><rect x="22" y="80.9" width="55.18" height="3.86" rx="1.93" fill="#0F172A" opacity="0.48"/><rect x="22" y="87.65" width="75.24" height="2.31" rx="1.16" fill="#0F172A" opacity="0.15"/><rect x="22" y="105.01" width="68.55" height="3.86" rx="1.93" fill="#0F172A" opacity="0.24"/><rect x="22" y="111.76" width="75.24" height="2.31" rx="1.16" fill="#0F172A" opacity="0.15"/><rect x="22" y="129.12" width="68.55" height="3.86" rx="1.93" fill="#0F172A" opacity="0.24"/><rect x="22" y="135.88" width="75.24" height="2.31" rx="1.16" fill="#0F172A" opacity="0.15"/><rect x="22" y="153.24" width="78.58" height="3.86" rx="1.93" fill="#0F172A" opacity="0.24"/><rect x="22" y="159.99" width="75.24" height="2.31" rx="1.16" fill="#0F172A" opacity="0.15"/><rect x="22" y="177.35" width="55.18" height="3.86" rx="1.93" fill="#0F172A" opacity="0.48"/><rect x="22" y="184.1" width="75.24" height="2.31" rx="1.16" fill="#0F172A" opacity="0.15"/><rect x="22" y="201.47" width="68.55" height="3.86" rx="1.93" fill="#0F172A" opacity="0.24"/><rect x="22" y="208.22" width="75.24" height="2.31" rx="1.16" fill="#0F172A" opacity="0.15"/><rect x="22" y="225.58" width="78.58" height="3.86" rx="1.93" fill="#0F172A" opacity="0.24"/><rect x="22" y="232.33" width="75.24" height="2.31" rx="1.16" fill="#0F172A" opacity="0.15"/><rect x="22" y="249.69" width="68.55" height="3.86" rx="1.93" fill="#0F172A" opacity="0.24"/><rect x="22" y="256.44" width="75.24" height="2.31" rx="1.16" fill="#0F172A" opacity="0.15"/><rect x="114.4" y="80.9" width="55.18" height="3.86" rx="1.93" fill="#0F172A" opacity="0.48"/><rect x="114.4" y="87.65" width="75.24" height="2.31" rx="1.16" fill="#0F172A" opacity="0.15"/><rect x="114.4" y="105.01" width="68.55" height="3.86" rx="1.93" fill="#0F172A" opacity="0.24"/><rect x="114.4" y="111.76" width="75.24" height="2.31" rx="1.16" fill="#0F172A" opacity="0.15"/><rect x="114.4" y="129.12" width="68.55" height="3.86" rx="1.93" fill="#0F172A" opacity="0.24"/><rect x="114.4" y="135.88" width="75.24" height="2.31" rx="1.16" fill="#0F172A" opacity="0.15"/><rect x="114.4" y="153.24" width="78.58" height="3.86" rx="1.93" fill="#0F172A" opacity="0.24"/><rect x="114.4" y="159.99" width="75.24" height="2.31" rx="1.16" fill="#0F172A" opacity="0.15"/><rect x="114.4" y="177.35" width="55.18" height="3.86" rx="1.93" fill="#0F172A" opacity="0.48"/><rect x="114.4" y="184.1" width="75.24" height="2.31" rx="1.16" fill="#0F172A" opacity="0.15"/><rect x="114.4" y="201.47" width="68.55" height="3.86" rx="1.93" fill="#0F172A" opacity="0.24"/><rect x="114.4" y="208.22" width="75.24" height="2.31" rx="1.16" fill="#0F172A" opacity="0.15"/><rect x="114.4" y="225.58" width="78.58" height="3.86" rx="1.93" fill="#0F172A" opacity="0.24"/><rect x="114.4" y="232.33" width="75.24" height="2.31" rx="1.16" fill="#0F172A" opacity="0.15"/><rect x="114.4" y="249.69" width="68.55" height="3.86" rx="1.93" fill="#0F172A" opacity="0.24"/><rect x="114.4" y="256.44" width="75.24" height="2.31" rx="1.16" fill="#0F172A" opacity="0.15"/></g></g><path d="M277.36 444.16 L451.8 457.11 L429.29 477.42 L254.86 464.48 Z" fill="url(#tp-jinst-proceedings-shadow-16)"/><path d="M286.99 440.33 L425.05 451.94 L408.23 465.34 L270.16 453.73 Z" fill="#dbdad8" stroke="#0F172A2e"/><g clip-path="url(#tp-jinst-proceedings-keys-17)"><g transform="matrix(4.31 0.36 -1.4 1.12 286.99 440.33)"><rect x="1.8" y="1.4" width="2.1" height="1.9" rx="0.4" fill="#FFFFFF" opacity="0.6"/><rect x="4.25" y="1.4" width="2.1" height="1.9" rx="0.4" fill="#FFFFFF" opacity="0.6"/><rect x="6.7" y="1.4" width="2.1" height="1.9" rx="0.4" fill="#FFFFFF" opacity="0.6"/><rect x="9.15" y="1.4" width="2.1" height="1.9" rx="0.4" fill="#FFFFFF" opacity="0.6"/><rect x="11.6" y="1.4" width="2.1" height="1.9" rx="0.4" fill="#FFFFFF" opacity="0.6"/><rect x="14.05" y="1.4" width="2.1" height="1.9" rx="0.4" fill="#FFFFFF" opacity="0.6"/><rect x="16.5" y="1.4" width="2.1" height="1.9" rx="0.4" fill="#FFFFFF" opacity="0.6"/><rect x="18.95" y="1.4" width="2.1" height="1.9" rx="0.4" fill="#FFFFFF" opacity="0.6"/><rect x="21.4" y="1.4" width="2.1" height="1.9" rx="0.4" fill="#FFFFFF" opacity="0.6"/><rect x="23.85" y="1.4" width="2.1" height="1.9" rx="0.4" fill="#FFFFFF" opacity="0.6"/><rect x="26.3" y="1.4" width="2.1" height="1.9" rx="0.4" fill="#FFFFFF" opacity="0.6"/><rect x="28.75" y="1.4" width="2.1" height="1.9" rx="0.4" fill="#FFFFFF" opacity="0.6"/><rect x="1.8" y="3.7" width="2.1" height="1.9" rx="0.4" fill="#FFFFFF" opacity="0.6"/><rect x="4.25" y="3.7" width="2.1" height="1.9" rx="0.4" fill="#FFFFFF" opacity="0.6"/><rect x="6.7" y="3.7" width="2.1" height="1.9" rx="0.4" fill="#FFFFFF" opacity="0.6"/><rect x="9.15" y="3.7" width="2.1" height="1.9" rx="0.4" fill="#FFFFFF" opacity="0.6"/><rect x="11.6" y="3.7" width="2.1" height="1.9" rx="0.4" fill="#FFFFFF" opacity="0.6"/><rect x="14.05" y="3.7" width="2.1" height="1.9" rx="0.4" fill="#FFFFFF" opacity="0.6"/><rect x="16.5" y="3.7" width="2.1" height="1.9" rx="0.4" fill="#FFFFFF" opacity="0.6"/><rect x="18.95" y="3.7" width="2.1" height="1.9" rx="0.4" fill="#FFFFFF" opacity="0.6"/><rect x="21.4" y="3.7" width="2.1" height="1.9" rx="0.4" fill="#FFFFFF" opacity="0.6"/><rect x="23.85" y="3.7" width="2.1" height="1.9" rx="0.4" fill="#FFFFFF" opacity="0.6"/><rect x="26.3" y="3.7" width="2.1" height="1.9" rx="0.4" fill="#FFFFFF" opacity="0.6"/><rect x="28.75" y="3.7" width="2.1" height="1.9" rx="0.4" fill="#FFFFFF" opacity="0.6"/><rect x="1.8" y="6" width="2.1" height="1.9" rx="0.4" fill="#FFFFFF" opacity="0.6"/><rect x="4.25" y="6" width="2.1" height="1.9" rx="0.4" fill="#FFFFFF" opacity="0.6"/><rect x="6.7" y="6" width="2.1" height="1.9" rx="0.4" fill="#FFFFFF" opacity="0.6"/><rect x="9.15" y="6" width="2.1" height="1.9" rx="0.4" fill="#FFFFFF" opacity="0.6"/><rect x="11.6" y="6" width="2.1" height="1.9" rx="0.4" fill="#FFFFFF" opacity="0.6"/><rect x="14.05" y="6" width="2.1" height="1.9" rx="0.4" fill="#FFFFFF" opacity="0.6"/><rect x="16.5" y="6" width="2.1" height="1.9" rx="0.4" fill="#FFFFFF" opacity="0.6"/><rect x="18.95" y="6" width="2.1" height="1.9" rx="0.4" fill="#FFFFFF" opacity="0.6"/><rect x="21.4" y="6" width="2.1" height="1.9" rx="0.4" fill="#FFFFFF" opacity="0.6"/><rect x="23.85" y="6" width="2.1" height="1.9" rx="0.4" fill="#FFFFFF" opacity="0.6"/><rect x="26.3" y="6" width="2.1" height="1.9" rx="0.4" fill="#FFFFFF" opacity="0.6"/><rect x="28.75" y="6" width="2.1" height="1.9" rx="0.4" fill="#FFFFFF" opacity="0.6"/><rect x="1.8" y="8.3" width="2.1" height="1.9" rx="0.4" fill="#FFFFFF" opacity="0.6"/><rect x="4.25" y="8.3" width="2.1" height="1.9" rx="0.4" fill="#FFFFFF" opacity="0.6"/><rect x="6.7" y="8.3" width="2.1" height="1.9" rx="0.4" fill="#FFFFFF" opacity="0.6"/><rect x="9.15" y="8.3" width="2.1" height="1.9" rx="0.4" fill="#FFFFFF" opacity="0.6"/><rect x="11.6" y="8.3" width="2.1" height="1.9" rx="0.4" fill="#FFFFFF" opacity="0.6"/><rect x="14.05" y="8.3" width="2.1" height="1.9" rx="0.4" fill="#FFFFFF" opacity="0.6"/><rect x="16.5" y="8.3" width="2.1" height="1.9" rx="0.4" fill="#FFFFFF" opacity="0.6"/><rect x="18.95" y="8.3" width="2.1" height="1.9" rx="0.4" fill="#FFFFFF" opacity="0.6"/><rect x="21.4" y="8.3" width="2.1" height="1.9" rx="0.4" fill="#FFFFFF" opacity="0.6"/><rect x="23.85" y="8.3" width="2.1" height="1.9" rx="0.4" fill="#FFFFFF" opacity="0.6"/><rect x="26.3" y="8.3" width="2.1" height="1.9" rx="0.4" fill="#FFFFFF" opacity="0.6"/><rect x="28.75" y="8.3" width="2.1" height="1.9" rx="0.4" fill="#FFFFFF" opacity="0.6"/></g></g><path d="M48.68 441.98 L179.5 451.69 L151.99 476.52 L21.17 466.81 Z" fill="url(#tp-jinst-proceedings-shadow-18)"/><path d="M43 441.1 L151.61 443.06 L146.23 462.98 L37.62 461.01 Z" fill="#5a413c" stroke="#0F172A33"/><path d="M43 438.91 L151.61 440.87 L146.23 460.78 L37.62 458.82 Z" fill="#ece8e0"/><path d="M76.33 457.03 L134.41 454.38 L135.28 455.66 L77.2 458.31 Z" fill="#111620"/><rect width="800" height="600" fill="url(#tp-jinst-proceedings-warm-19)"/><rect width="800" height="600" fill="url(#tp-jinst-proceedings-vignette-20)"/></svg>