<svg xmlns="http://www.w3.org/2000/svg" width="800" height="600" viewBox="0 0 800 600" role="img" aria-label="A0 Landscape template preview" data-template-id="landscape"><defs><linearGradient id="tp-landscape-wall-1" x1="0" y1="0" x2="0.35" y2="1"><stop offset="0" stop-color="#f1eeea"/><stop offset="0.62" stop-color="#ede9e4"/><stop offset="1" stop-color="#bfb6ab"/></linearGradient><linearGradient id="tp-landscape-window-2" x1="0" y1="0" x2="0" y2="1"><stop offset="0" stop-color="#FFFCF2"/><stop offset="1" stop-color="#FFEFD2"/></linearGradient><linearGradient id="tp-landscape-desk-3" x1="0" y1="0" x2="0.15" y2="1"><stop offset="0" stop-color="#e1c49f"/><stop offset="0.55" stop-color="#d1a56d"/><stop offset="1" stop-color="#b08b5c"/></linearGradient><clipPath id="tp-landscape-grain-4"><path d="M147.26 373.46 L744.09 425.14 L632.83 511.21 L36 459.52 Z"/></clipPath><radialGradient id="tp-landscape-shadow-5" cx="0.5" cy="0.5" r="0.5"><stop offset="0" stop-color="#22160A" stop-opacity="0.26"/><stop offset="0.6" stop-color="#22160A" stop-opacity="0.13"/><stop offset="1" stop-color="#22160A" stop-opacity="0"/></radialGradient><clipPath id="tp-landscape-board-6"><path d="M232.86 110.92 L478.64 125.02 L478.64 297.01 L232.86 282.91 Z"/></clipPath><radialGradient id="tp-landscape-shadow-7" cx="0.5" cy="0.5" r="0.5"><stop offset="0" stop-color="#22160A" stop-opacity="0.24"/><stop offset="0.6" stop-color="#22160A" stop-opacity="0.12"/><stop offset="1" stop-color="#22160A" stop-opacity="0"/></radialGradient><radialGradient id="tp-landscape-shadow-8" cx="0.5" cy="0.5" r="0.5"><stop offset="0" stop-color="#22160A" stop-opacity="0.22"/><stop offset="0.6" stop-color="#22160A" stop-opacity="0.11"/><stop offset="1" stop-color="#22160A" stop-opacity="0"/></radialGradient><radialGradient id="tp-landscape-shadow-9" cx="0.5" cy="0.5" r="0.5"><stop offset="0" stop-color="#22160A" stop-opacity="0.2"/><stop offset="0.6" stop-color="#22160A" stop-opacity="0.1"/><stop offset="1" stop-color="#22160A" stop-opacity="0"/></radialGradient><clipPath id="tp-landscape-keys-10"><path d="M569.47 425.11 L668.92 444.16 L639.83 454.33 L540.38 435.29 Z"/></clipPath><clipPath id="tp-landscape-screen-11"><path d="M586.3 341.38 L697.32 362.64 L689.29 439.35 L578.28 418.08 Z"/></clipPath><linearGradient id="tp-landscape-page-12" x1="0" y1="1" x2="1" y2="0"><stop offset="0" stop-color="#FFFFFF"/><stop offset="1" stop-color="#ececee"/></linearGradient><clipPath id="tp-landscape-sheet-13"><path d="M111.28 427.03 L192.62 439.43 L124.86 469.21 L43.52 456.81 Z"/></clipPath><linearGradient id="tp-landscape-page-14" x1="0" y1="1" x2="1" y2="0"><stop offset="0" stop-color="#FFFFFF"/><stop offset="1" stop-color="#ececee"/></linearGradient><clipPath id="tp-landscape-sheet-15"><path d="M465 462.87 L558.49 466.27 L539.91 500.49 L446.42 497.09 Z"/></clipPath><radialGradient id="tp-landscape-shadow-16" cx="0.5" cy="0.5" r="0.5"><stop offset="0" stop-color="#22160A" stop-opacity="0.2"/><stop offset="0.6" stop-color="#22160A" stop-opacity="0.1"/><stop offset="1" stop-color="#22160A" stop-opacity="0"/></radialGradient><clipPath id="tp-landscape-keys-17"><path d="M288 436.19 L422.74 449.23 L403.85 462.31 L269.11 449.27 Z"/></clipPath><radialGradient id="tp-landscape-shadow-18" cx="0.5" cy="0.5" r="0.5"><stop offset="0" stop-color="#22160A" stop-opacity="0.22"/><stop offset="0.6" stop-color="#22160A" stop-opacity="0.11"/><stop offset="1" stop-color="#22160A" stop-opacity="0"/></radialGradient><linearGradient id="tp-landscape-warm-19" x1="0" y1="0" x2="0.7" y2="1"><stop offset="0" stop-color="#FFF4DC" stop-opacity="0.42"/><stop offset="0.45" stop-color="#FFF4DC" stop-opacity="0.1"/><stop offset="1" stop-color="#3B2410" stop-opacity="0.14"/></linearGradient><radialGradient id="tp-landscape-vignette-20" cx="0.45" cy="0.42" r="0.8"><stop offset="0.55" stop-color="#000000" stop-opacity="0"/><stop offset="1" stop-color="#000000" stop-opacity="0.28"/></radialGradient></defs><path d="M133.06 369.77 L764 424.41 L764 42.3 L133.06 -12.34 Z" fill="url(#tp-landscape-wall-1)"/><path d="M166.59 258.53 L337.12 273.3 L337.12 74.6 L166.59 59.83 Z" fill="url(#tp-landscape-window-2)"/><rect x="250.16" y="59.83" width="3.4" height="198.7" fill="#FFFFFF" opacity="0.72"/><rect x="166.59" y="159.18" width="170.52" height="2.6" fill="#FFFFFF" opacity="0.55"/><path d="M508.21 230.31 L755.47 251.72 L745.49 259.45 L498.23 238.03 Z" fill="#c7a684"/><path d="M498.23 248.45 L745.49 269.87 L745.49 259.45 L498.23 238.03 Z" fill="#8d6a48"/><path d="M513.87 236.93 L526.23 238 L526.23 172.87 L513.87 171.8 Z" fill="#505641"/><path d="M526.23 238 L523.38 240.21 L523.38 175.08 L526.23 172.87 Z" fill="#3a3e2f"/><path d="M531.35 238.45 L545.84 239.7 L545.84 187.6 L531.35 186.34 Z" fill="#1c4aca"/><path d="M545.84 239.7 L542.99 241.91 L542.99 189.8 L545.84 187.6 Z" fill="#143591"/><path d="M550.96 240.15 L561.19 241.03 L561.19 175.9 L550.96 175.01 Z" fill="#7c473a"/><path d="M561.19 241.03 L558.34 243.24 L558.34 178.1 L561.19 175.9 Z" fill="#59332a"/><path d="M566.31 241.47 L578.67 242.55 L578.67 190.44 L566.31 189.37 Z" fill="#136c7a"/><path d="M578.67 242.55 L575.82 244.75 L575.82 192.65 L578.67 190.44 Z" fill="#0e4e58"/><path d="M583.79 242.99 L598.28 244.24 L598.28 179.11 L583.79 177.85 Z" fill="#451c88"/><path d="M598.28 244.24 L595.43 246.45 L595.43 181.32 L598.28 179.11 Z" fill="#321462"/><path d="M603.4 244.69 L613.63 245.57 L613.63 193.47 L603.4 192.58 Z" fill="#0f6078"/><path d="M613.63 245.57 L610.77 247.78 L610.77 195.67 L613.63 193.47 Z" fill="#0b4556"/><path d="M618.74 246.02 L631.11 247.09 L631.11 181.95 L618.74 180.88 Z" fill="#825958"/><path d="M631.11 247.09 L628.25 249.29 L628.25 184.16 L631.11 181.95 Z" fill="#5e403f"/><path d="M636.22 247.53 L650.72 248.78 L650.72 196.68 L636.22 195.42 Z" fill="#0f6864"/><path d="M650.72 248.78 L647.86 250.99 L647.86 198.88 L650.72 196.68 Z" fill="#0b4b48"/><path d="M655.83 249.23 L666.06 250.11 L666.06 184.98 L655.83 184.09 Z" fill="#505641"/><path d="M666.06 250.11 L663.21 252.32 L663.21 187.19 L666.06 184.98 Z" fill="#3a3e2f"/><path d="M671.18 250.56 L683.54 251.63 L683.54 199.52 L671.18 198.45 Z" fill="#1c4aca"/><path d="M683.54 251.63 L680.69 253.83 L680.69 201.73 L683.54 199.52 Z" fill="#143591"/><path d="M688.66 252.07 L703.15 253.33 L703.15 188.19 L688.66 186.94 Z" fill="#7c473a"/><path d="M703.15 253.33 L700.3 255.53 L700.3 190.4 L703.15 188.19 Z" fill="#59332a"/><path d="M708.27 253.77 L718.5 254.65 L718.5 202.55 L708.27 201.66 Z" fill="#136c7a"/><path d="M718.5 254.65 L715.65 256.86 L715.65 204.75 L718.5 202.55 Z" fill="#0e4e58"/><path d="M508.21 157.71 L755.47 179.12 L745.49 186.84 L498.23 165.43 Z" fill="#c7a684"/><path d="M498.23 175.85 L745.49 197.26 L745.49 186.84 L498.23 165.43 Z" fill="#8d6a48"/><path d="M523.84 160.29 L596.31 166.56 L589.18 172.08 L516.71 165.8 Z" fill="#505641"/><path d="M609.1 167.67 L664.52 172.47 L657.39 177.99 L601.97 173.19 Z" fill="#3d8692"/><path d="M147.26 373.46 L744.09 425.14 L632.83 511.21 L36 459.52 Z" fill="url(#tp-landscape-desk-3)"/><path d="M36 489.92 L632.83 541.6 L632.83 511.21 L36 459.52 Z" fill="#826644"/><path d="M632.83 541.6 L744.09 455.54 L744.09 425.14 L632.83 511.21 Z" fill="#96774e"/><g clip-path="url(#tp-landscape-grain-4)"><g transform="matrix(4.26 0.37 -1.43 1.1 147.26 373.46)"><rect x="24" y="9.75" width="92" height="0.6" fill="#8A5A2B" opacity="0.13"/><rect x="6" y="19.5" width="118" height="0.6" fill="#8A5A2B" opacity="0.13"/><rect x="24" y="29.25" width="92" height="0.6" fill="#8A5A2B" opacity="0.13"/><rect x="6" y="39" width="118" height="0.6" fill="#8A5A2B" opacity="0.13"/><rect x="24" y="48.75" width="92" height="0.6" fill="#8A5A2B" opacity="0.13"/><rect x="6" y="58.5" width="118" height="0.6" fill="#8A5A2B" opacity="0.13"/><rect x="24" y="68.25" width="92" height="0.6" fill="#8A5A2B" opacity="0.13"/></g></g><path d="M252.99 398.07 L251.69 112.2 L263.64 111.76 L264.93 397.63 Z" fill="#a77647"/><path d="M435.31 413.86 L436.6 128.21 L448.54 127.77 L447.25 413.42 Z" fill="#744e2e"/><path d="M349.01 399.27 L349.01 80.94 L369.47 82.72 L369.47 401.04 Z" fill="#865e39"/><path d="M186.2 388.23 L591.37 423.32 L557.13 449.8 L151.97 414.71 Z" fill="url(#tp-landscape-shadow-5)"/><path d="M487.04 117.83 L489.57 114.88 L489.57 301.64 L487.04 304.59 Z" fill="#0F172A24"/><path d="M225.76 102.83 L486.45 117.79 L486.45 304.55 L225.76 289.59 Z" fill="#f7fafe" stroke="#0F172A24"/><g clip-path="url(#tp-landscape-board-6)"><g transform="matrix(0.77 0.04 0 0.76 232.86 110.92)"><rect width="320" height="226.34" fill="#FFFFFF"/><rect x="0.5" y="0.5" width="319" height="225.34" fill="none" stroke="#0F172A24"/><rect x="11.2" y="11.2" width="297.6" height="36.21" rx="6" fill="#2563EB"/><text x="160" y="26.41" font-family="Helvetica, Arial, sans-serif" font-size="5.61" fill="#FFFFFF" font-weight="700" opacity="0.97" text-anchor="middle">Structure-Aware Cas13 Guide Ensembles Suppress Escape in Respiratory RNA Viruses</text><text x="160" y="43.79" font-family="Helvetica, Arial, sans-serif" font-size="2.64" fill="#FFFFFF" opacity="0.75" text-anchor="middle">E. Nováková, T. Oyelaran, S. Krishnan, M. Delgado, H. Watanabe</text><rect x="11.2" y="53.41" width="94.84" height="51.75" rx="4" fill="#2563EB0d"/><path d="M11.2 63.77 L11.2 57.41 Q11.2 53.41 15.2 53.41 L102.04 53.41 Q106.04 53.41 106.04 57.41 L106.04 63.77 Z" fill="#2563EB"/><text x="16.89" y="60.66" font-family="Helvetica, Arial, sans-serif" font-size="3.62" fill="#FFFFFF" font-weight="700" opacity="0.96">Dose Response</text><text x="16.89" y="70.49" font-family="Helvetica, Arial, sans-serif" font-size="3" fill="#0F172A9e">EC50 of the ensemble is 0.22 nM against wild type,…</text><text x="16.89" y="77.22" font-family="Helvetica, Arial, sans-serif" font-size="3" fill="#0F172A9e">The escape variant P22L shifts EC50 only 1.4-fold…</text><rect x="16.89" y="94.82" width="83.45" height="14.49" rx="2" fill="#0D94882e"/><rect x="11.2" y="108.4" width="94.84" height="51.75" rx="4" fill="#2563EB0d"/><path d="M11.2 118.75 L11.2 112.4 Q11.2 108.4 15.2 108.4 L102.04 108.4 Q106.04 108.4 106.04 112.4 L106.04 118.75 Z" fill="#2563EB"/><text x="16.89" y="115.65" font-family="Helvetica, Arial, sans-serif" font-size="3.62" fill="#FFFFFF" font-weight="700" opacity="0.96">Specificity</text><text x="16.89" y="125.48" font-family="Helvetica, Arial, sans-serif" font-size="3" fill="#0F172A9e">Predicted off-targets: 0 sites with ≤ 2 mismatches…</text><text x="16.89" y="132.21" font-family="Helvetica, Arial, sans-serif" font-size="3" fill="#0F172A9e">RNA sequencing of treated A549 cells: 0 genes with…</text><text x="16.89" y="138.94" font-family="Helvetica, Arial, sans-serif" font-size="3" fill="#0F172A9e">Collateral activity stays below 2% of the on-target…</text><rect x="11.2" y="163.39" width="94.84" height="51.75" rx="4" fill="#2563EB0d"/><path d="M11.2 173.74 L11.2 167.39 Q11.2 163.39 15.2 163.39 L102.04 163.39 Q106.04 163.39 106.04 167.39 L106.04 173.74 Z" fill="#2563EB"/><text x="16.89" y="170.63" font-family="Helvetica, Arial, sans-serif" font-size="3.62" fill="#FFFFFF" font-weight="700" opacity="0.96">Methods</text><text x="16.89" y="180.47" font-family="Helvetica, Arial, sans-serif" font-size="3" fill="#0F172A9e">Viral RNA quantified by RT-qPCR against a standard…</text><text x="16.89" y="187.2" font-family="Helvetica, Arial, sans-serif" font-size="3" fill="#0F172A9e">Escape selected by serial passage at MOI 0.01 for…</text><text x="16.89" y="193.92" font-family="Helvetica, Arial, sans-serif" font-size="3" fill="#0F172A9e">Illumina 2×150 bp sequencing, variant calling at 3%…</text><rect x="112.58" y="53.41" width="94.84" height="79.25" rx="4" fill="#2563EB0d"/><path d="M112.58 69.26 L112.58 57.41 Q112.58 53.41 116.58 53.41 L203.42 53.41 Q207.42 53.41 207.42 57.41 L207.42 69.26 Z" fill="#2563EB"/><text x="118.27" y="64.51" font-family="Helvetica, Arial, sans-serif" font-size="5.55" fill="#FFFFFF" font-weight="700" opacity="0.96">Assay Performance</text><text x="118.27" y="79.57" font-family="Helvetica, Arial, sans-serif" font-size="4.6" fill="#0F172A9e">Every quantification is against…</text><rect x="112.58" y="135.9" width="94.84" height="79.25" rx="4" fill="#2563EB0d"/><path d="M112.58 151.74 L112.58 139.9 Q112.58 135.9 116.58 135.9 L203.42 135.9 Q207.42 135.9 207.42 139.9 L207.42 151.74 Z" fill="#2563EB"/><text x="118.27" y="146.99" font-family="Helvetica, Arial, sans-serif" font-size="5.55" fill="#FFFFFF" font-weight="700" opacity="0.96">Assay Details</text><text x="118.27" y="162.05" font-family="Helvetica, Arial, sans-serif" font-size="4.6" fill="#0F172A9e">Viral RNA quantified by RT-qPCR…</text><text x="118.27" y="172.35" font-family="Helvetica, Arial, sans-serif" font-size="4.6" fill="#0F172A9e">All samples run in three…</text><text x="118.27" y="182.65" font-family="Helvetica, Arial, sans-serif" font-size="4.6" fill="#0F172A9e">Passage performed at MOI 0.01…</text><text x="118.27" y="192.95" font-family="Helvetica, Arial, sans-serif" font-size="4.6" fill="#0F172A9e">Deep sequencing at 10^5×…</text><rect x="213.96" y="53.41" width="94.84" height="51.75" rx="4" fill="#2563EB0d"/><path d="M213.96 63.77 L213.96 57.41 Q213.96 53.41 217.96 53.41 L304.8 53.41 Q308.8 53.41 308.8 57.41 L308.8 63.77 Z" fill="#2563EB"/><text x="219.65" y="60.66" font-family="Helvetica, Arial, sans-serif" font-size="3.62" fill="#FFFFFF" font-weight="700" opacity="0.96">Potency and Durability</text><text x="219.65" y="70.49" font-family="Helvetica, Arial, sans-serif" font-size="3" fill="#0F172A9e">The ensemble keeps its advantage when the dose is…</text><text x="219.65" y="77.22" font-family="Helvetica, Arial, sans-serif" font-size="3" fill="#0F172A9e">Escape-free cultures stay negative by RT-qPCR…</text><rect x="219.65" y="94.82" width="83.45" height="14.49" rx="2" fill="#0D94882e"/><rect x="213.96" y="108.4" width="94.84" height="51.75" rx="4" fill="#2563EB0d"/><path d="M213.96 118.75 L213.96 112.4 Q213.96 108.4 217.96 108.4 L304.8 108.4 Q308.8 108.4 308.8 112.4 L308.8 118.75 Z" fill="#2563EB"/><text x="219.65" y="115.65" font-family="Helvetica, Arial, sans-serif" font-size="3.62" fill="#FFFFFF" font-weight="700" opacity="0.96">Headline Results</text><text x="219.65" y="125.48" font-family="Helvetica, Arial, sans-serif" font-size="3" fill="#0F172A9e">97% | viral RNA knockdown</text><text x="219.65" y="132.21" font-family="Helvetica, Arial, sans-serif" font-size="3" fill="#0F172A9e">0/48 | escape cultures at 25 passages</text><text x="219.65" y="138.94" font-family="Helvetica, Arial, sans-serif" font-size="3" fill="#0F172A9e">6.8 h | design-to-synthesis cycle</text><text x="219.65" y="145.66" font-family="Helvetica, Arial, sans-serif" font-size="3" fill="#0F172A9e">0.22 nM | EC₅₀ (wild type)</text><rect x="213.96" y="163.39" width="94.84" height="51.75" rx="4" fill="#2563EB0d"/><path d="M213.96 173.74 L213.96 167.39 Q213.96 163.39 217.96 163.39 L304.8 163.39 Q308.8 163.39 308.8 167.39 L308.8 173.74 Z" fill="#2563EB"/><text x="219.65" y="170.63" font-family="Helvetica, Arial, sans-serif" font-size="3.62" fill="#FFFFFF" font-weight="700" opacity="0.96">Escape Monitoring</text><text x="219.65" y="180.47" font-family="Helvetica, Arial, sans-serif" font-size="3" fill="#0F172A9e">Deep sequencing at 10^5× coverage found no fixed…</text></g></g><circle cx="249.18" cy="101.98" r="2.6" fill="#2563EBeb"/><circle cx="461.89" cy="120.4" r="2.6" fill="#2563EBeb"/><path d="M217.82 290 L482.98 312.96 L488.69 308.55 L223.52 285.59 Z" fill="#b9916c"/><path d="M217.82 299.99 L482.98 322.95 L482.98 312.96 L217.82 290 Z" fill="#744e2e"/><path d="M645.59 421.11 L745.35 429.75 L714.54 453.59 L614.78 444.95 Z" fill="url(#tp-landscape-shadow-7)"/><path d="M656.64 432.29 L695 435.61 L695 400.88 L656.64 397.55 Z" fill="#b47c6b"/><path d="M662.41 393.08 L700.78 396.41 L689.23 405.34 L650.86 402.02 Z" fill="#906356"/><path d="M675.82 399.21 Q649.17 380.82 636.51 370.42 Q663.17 380.82 675.82 399.21" fill="#2c5a53" opacity="0.96"/><path d="M675.82 399.21 Q651.34 372.72 640.87 354.22 Q665.34 372.72 675.82 399.21" fill="#3a786e" opacity="0.96"/><path d="M675.82 399.21 Q657.38 365.38 652.93 339.54 Q671.38 365.38 675.82 399.21" fill="#2c5a53" opacity="0.96"/><path d="M675.82 399.21 Q667.08 360.25 672.35 329.28 Q681.08 360.25 675.82 399.21" fill="#3a786e" opacity="0.96"/><path d="M675.82 399.21 Q674.57 374.79 687.32 358.37 Q688.57 374.79 675.82 399.21" fill="#2c5a53" opacity="0.96"/><path d="M675.82 399.21 Q683.76 374.92 705.71 358.62 Q697.76 374.92 675.82 399.21" fill="#3a786e" opacity="0.96"/><path d="M675.82 399.21 Q693.79 378.66 725.75 366.11 Q707.79 378.66 675.82 399.21" fill="#2c5a53" opacity="0.96"/><path d="M153.46 417.33 L204.19 421.72 L187.22 434.85 L136.49 430.46 Z" fill="url(#tp-landscape-shadow-8)"/><path d="M152.02 422.94 L181.86 425.53 L181.86 398.61 L152.02 396.02 Z" fill="#86cac4"/><path d="M157.01 392.16 L186.85 394.75 L176.87 402.47 L147.03 399.88 Z" fill="#b6dfdc"/><path d="M158.49 393.96 L180.88 395.9 L175.38 400.15 L153 398.21 Z" fill="#4A2C16"/><path d="M169.91 411.46 q10 -3 10 4.5 q0 6.5 -10 3" fill="none" stroke="#86cac4" stroke-width="2.4"/><path d="M542.25 423.69 L719.59 439.05 L669.93 477.46 L492.58 462.1 Z" fill="url(#tp-landscape-shadow-9)"/><path d="M575.97 417.64 L691.6 439.79 L633.42 460.14 L517.78 437.99 Z" fill="#949aa5"/><path d="M517.78 437.99 L633.42 460.14 L633.42 466.22 L517.78 444.07 Z" fill="#565960"/><path d="M569.47 425.11 L668.92 444.16 L639.83 454.33 L540.38 435.29 Z" fill="#737881"/><g clip-path="url(#tp-landscape-keys-10)"><g transform="matrix(3.61 0.69 -2.67 0.94 569.47 425.11)"><rect x="1.92" y="0.65" width="28.16" height="1.31" rx="0.26" fill="#FFFFFF" opacity="0.22"/><rect x="1.92" y="2.83" width="28.16" height="1.31" rx="0.26" fill="#FFFFFF" opacity="0.22"/><rect x="1.92" y="5" width="28.16" height="1.31" rx="0.26" fill="#FFFFFF" opacity="0.22"/><rect x="1.92" y="7.18" width="28.16" height="1.31" rx="0.26" fill="#FFFFFF" opacity="0.22"/><rect x="1.92" y="9.36" width="28.16" height="1.31" rx="0.26" fill="#FFFFFF" opacity="0.22"/></g></g><path d="M594.07 440.07 L628.77 446.71 L614.8 451.6 L580.11 444.95 Z" fill="#a7acb5"/><path d="M586.73 341.05 L697.74 362.31 L689.72 439.01 L578.71 417.75 Z" fill="#0b101d"/><g clip-path="url(#tp-landscape-screen-11)"><g transform="matrix(0.35 0.07 -0.04 0.43 586.3 341.38)"><defs><linearGradient id="neutral-screen-320" x1="0" y1="0" x2="0.6" y2="1"><stop offset="0" stop-color="#090e19"/><stop offset="1" stop-color="#1d2537"/></linearGradient></defs><rect width="320" height="180" fill="url(#neutral-screen-320)"/><rect x="19.2" y="21.6" width="96" height="10.8" rx="3.6" fill="#2563EB80"/><rect x="19.2" y="43.2" width="134.4" height="6.3" rx="2.7" fill="#FFFFFF" opacity="0.45"/><rect x="19.2" y="61.2" width="108.8" height="6.3" rx="2.7" fill="#FFFFFF" opacity="0.26"/><rect x="19.2" y="79.2" width="83.2" height="6.3" rx="2.7" fill="#FFFFFF" opacity="0.18"/></g></g><path d="M113.83 431.33 L195.17 443.73 L127.41 473.51 L46.07 461.1 Z" fill="#2417082e"/><path d="M111.28 427.03 L192.62 439.43 L124.86 469.21 L43.52 456.81 Z" fill="url(#tp-landscape-page-12)" stroke="#0F172A1f"/><g clip-path="url(#tp-landscape-sheet-13)"><g transform="matrix(0.37 0.06 -0.22 0.1 111.28 427.03)"><rect width="220" height="311.14" fill="#FFFFFF"/><rect x="22" y="28" width="59.84" height="3.73" fill="#0F172A" opacity="0.3"/><rect x="22" y="40.45" width="151.36" height="8.71" rx="1.24" fill="#0F172A" opacity="0.78"/><rect x="22" y="54.45" width="105.6" height="5.6" rx="0.93" fill="#0F172A" opacity="0.38"/><rect x="22" y="66.9" width="35.2" height="1.87" fill="#2563EBd9"/><rect x="22" y="80.9" width="55.18" height="3.86" rx="1.93" fill="#0F172A" opacity="0.48"/><rect x="22" y="87.65" width="75.24" height="2.31" rx="1.16" fill="#0F172A" opacity="0.15"/><rect x="22" y="105.01" width="68.55" height="3.86" rx="1.93" fill="#0F172A" opacity="0.24"/><rect x="22" y="111.76" width="75.24" height="2.31" rx="1.16" fill="#0F172A" opacity="0.15"/><rect x="22" y="129.12" width="68.55" height="3.86" rx="1.93" fill="#0F172A" opacity="0.24"/><rect x="22" y="135.88" width="75.24" height="2.31" rx="1.16" fill="#0F172A" opacity="0.15"/><rect x="22" y="153.24" width="78.58" height="3.86" rx="1.93" fill="#0F172A" opacity="0.24"/><rect x="22" y="159.99" width="75.24" height="2.31" rx="1.16" fill="#0F172A" opacity="0.15"/><rect x="22" y="177.35" width="55.18" height="3.86" rx="1.93" fill="#0F172A" opacity="0.48"/><rect x="22" y="184.1" width="75.24" height="2.31" rx="1.16" fill="#0F172A" opacity="0.15"/><rect x="22" y="201.47" width="68.55" height="3.86" rx="1.93" fill="#0F172A" opacity="0.24"/><rect x="22" y="208.22" width="75.24" height="2.31" rx="1.16" fill="#0F172A" opacity="0.15"/><rect x="22" y="225.58" width="78.58" height="3.86" rx="1.93" fill="#0F172A" opacity="0.24"/><rect x="22" y="232.33" width="75.24" height="2.31" rx="1.16" fill="#0F172A" opacity="0.15"/><rect x="22" y="249.69" width="68.55" height="3.86" rx="1.93" fill="#0F172A" opacity="0.24"/><rect x="22" y="256.44" width="75.24" height="2.31" rx="1.16" fill="#0F172A" opacity="0.15"/><rect x="114.4" y="80.9" width="55.18" height="3.86" rx="1.93" fill="#0F172A" opacity="0.48"/><rect x="114.4" y="87.65" width="75.24" height="2.31" rx="1.16" fill="#0F172A" opacity="0.15"/><rect x="114.4" y="105.01" width="68.55" height="3.86" rx="1.93" fill="#0F172A" opacity="0.24"/><rect x="114.4" y="111.76" width="75.24" height="2.31" rx="1.16" fill="#0F172A" opacity="0.15"/><rect x="114.4" y="129.12" width="68.55" height="3.86" rx="1.93" fill="#0F172A" opacity="0.24"/><rect x="114.4" y="135.88" width="75.24" height="2.31" rx="1.16" fill="#0F172A" opacity="0.15"/><rect x="114.4" y="153.24" width="78.58" height="3.86" rx="1.93" fill="#0F172A" opacity="0.24"/><rect x="114.4" y="159.99" width="75.24" height="2.31" rx="1.16" fill="#0F172A" opacity="0.15"/><rect x="114.4" y="177.35" width="55.18" height="3.86" rx="1.93" fill="#0F172A" opacity="0.48"/><rect x="114.4" y="184.1" width="75.24" height="2.31" rx="1.16" fill="#0F172A" opacity="0.15"/><rect x="114.4" y="201.47" width="68.55" height="3.86" rx="1.93" fill="#0F172A" opacity="0.24"/><rect x="114.4" y="208.22" width="75.24" height="2.31" rx="1.16" fill="#0F172A" opacity="0.15"/><rect x="114.4" y="225.58" width="78.58" height="3.86" rx="1.93" fill="#0F172A" opacity="0.24"/><rect x="114.4" y="232.33" width="75.24" height="2.31" rx="1.16" fill="#0F172A" opacity="0.15"/><rect x="114.4" y="249.69" width="68.55" height="3.86" rx="1.93" fill="#0F172A" opacity="0.24"/><rect x="114.4" y="256.44" width="75.24" height="2.31" rx="1.16" fill="#0F172A" opacity="0.15"/></g></g><path d="M467.55 467.17 L561.04 470.57 L542.46 504.79 L448.97 501.39 Z" fill="#2417082e"/><path d="M465 462.87 L558.49 466.27 L539.91 500.49 L446.42 497.09 Z" fill="url(#tp-landscape-page-14)" stroke="#0F172A1f"/><g clip-path="url(#tp-landscape-sheet-15)"><g transform="matrix(0.42 0.02 -0.06 0.11 465 462.87)"><rect width="220" height="311.14" fill="#FFFFFF"/><rect x="22" y="28" width="59.84" height="3.73" fill="#0F172A" opacity="0.3"/><rect x="22" y="40.45" width="151.36" height="8.71" rx="1.24" fill="#0F172A" opacity="0.78"/><rect x="22" y="54.45" width="105.6" height="5.6" rx="0.93" fill="#0F172A" opacity="0.38"/><rect x="22" y="66.9" width="35.2" height="1.87" fill="#2563EBd9"/><rect x="22" y="80.9" width="55.18" height="3.86" rx="1.93" fill="#0F172A" opacity="0.48"/><rect x="22" y="87.65" width="75.24" height="2.31" rx="1.16" fill="#0F172A" opacity="0.15"/><rect x="22" y="105.01" width="68.55" height="3.86" rx="1.93" fill="#0F172A" opacity="0.24"/><rect x="22" y="111.76" width="75.24" height="2.31" rx="1.16" fill="#0F172A" opacity="0.15"/><rect x="22" y="129.12" width="68.55" height="3.86" rx="1.93" fill="#0F172A" opacity="0.24"/><rect x="22" y="135.88" width="75.24" height="2.31" rx="1.16" fill="#0F172A" opacity="0.15"/><rect x="22" y="153.24" width="78.58" height="3.86" rx="1.93" fill="#0F172A" opacity="0.24"/><rect x="22" y="159.99" width="75.24" height="2.31" rx="1.16" fill="#0F172A" opacity="0.15"/><rect x="22" y="177.35" width="55.18" height="3.86" rx="1.93" fill="#0F172A" opacity="0.48"/><rect x="22" y="184.1" width="75.24" height="2.31" rx="1.16" fill="#0F172A" opacity="0.15"/><rect x="22" y="201.47" width="68.55" height="3.86" rx="1.93" fill="#0F172A" opacity="0.24"/><rect x="22" y="208.22" width="75.24" height="2.31" rx="1.16" fill="#0F172A" opacity="0.15"/><rect x="22" y="225.58" width="78.58" height="3.86" rx="1.93" fill="#0F172A" opacity="0.24"/><rect x="22" y="232.33" width="75.24" height="2.31" rx="1.16" fill="#0F172A" opacity="0.15"/><rect x="22" y="249.69" width="68.55" height="3.86" rx="1.93" fill="#0F172A" opacity="0.24"/><rect x="22" y="256.44" width="75.24" height="2.31" rx="1.16" fill="#0F172A" opacity="0.15"/><rect x="114.4" y="80.9" width="55.18" height="3.86" rx="1.93" fill="#0F172A" opacity="0.48"/><rect x="114.4" y="87.65" width="75.24" height="2.31" rx="1.16" fill="#0F172A" opacity="0.15"/><rect x="114.4" y="105.01" width="68.55" height="3.86" rx="1.93" fill="#0F172A" opacity="0.24"/><rect x="114.4" y="111.76" width="75.24" height="2.31" rx="1.16" fill="#0F172A" opacity="0.15"/><rect x="114.4" y="129.12" width="68.55" height="3.86" rx="1.93" fill="#0F172A" opacity="0.24"/><rect x="114.4" y="135.88" width="75.24" height="2.31" rx="1.16" fill="#0F172A" opacity="0.15"/><rect x="114.4" y="153.24" width="78.58" height="3.86" rx="1.93" fill="#0F172A" opacity="0.24"/><rect x="114.4" y="159.99" width="75.24" height="2.31" rx="1.16" fill="#0F172A" opacity="0.15"/><rect x="114.4" y="177.35" width="55.18" height="3.86" rx="1.93" fill="#0F172A" opacity="0.48"/><rect x="114.4" y="184.1" width="75.24" height="2.31" rx="1.16" fill="#0F172A" opacity="0.15"/><rect x="114.4" y="201.47" width="68.55" height="3.86" rx="1.93" fill="#0F172A" opacity="0.24"/><rect x="114.4" y="208.22" width="75.24" height="2.31" rx="1.16" fill="#0F172A" opacity="0.15"/><rect x="114.4" y="225.58" width="78.58" height="3.86" rx="1.93" fill="#0F172A" opacity="0.24"/><rect x="114.4" y="232.33" width="75.24" height="2.31" rx="1.16" fill="#0F172A" opacity="0.15"/><rect x="114.4" y="249.69" width="68.55" height="3.86" rx="1.93" fill="#0F172A" opacity="0.24"/><rect x="114.4" y="256.44" width="75.24" height="2.31" rx="1.16" fill="#0F172A" opacity="0.15"/></g></g><path d="M278.6 439.88 L449.13 454.65 L423.45 474.51 L252.93 459.74 Z" fill="url(#tp-landscape-shadow-16)"/><path d="M288 436.19 L422.74 449.23 L403.85 462.31 L269.11 449.27 Z" fill="#dbdad8" stroke="#0F172A2e"/><g clip-path="url(#tp-landscape-keys-17)"><g transform="matrix(4.21 0.41 -1.57 1.09 288 436.19)"><rect x="1.8" y="1.4" width="2.1" height="1.9" rx="0.4" fill="#FFFFFF" opacity="0.6"/><rect x="4.25" y="1.4" width="2.1" height="1.9" rx="0.4" fill="#FFFFFF" opacity="0.6"/><rect x="6.7" y="1.4" width="2.1" height="1.9" rx="0.4" fill="#FFFFFF" opacity="0.6"/><rect x="9.15" y="1.4" width="2.1" height="1.9" rx="0.4" fill="#FFFFFF" opacity="0.6"/><rect x="11.6" y="1.4" width="2.1" height="1.9" rx="0.4" fill="#FFFFFF" opacity="0.6"/><rect x="14.05" y="1.4" width="2.1" height="1.9" rx="0.4" fill="#FFFFFF" opacity="0.6"/><rect x="16.5" y="1.4" width="2.1" height="1.9" rx="0.4" fill="#FFFFFF" opacity="0.6"/><rect x="18.95" y="1.4" width="2.1" height="1.9" rx="0.4" fill="#FFFFFF" opacity="0.6"/><rect x="21.4" y="1.4" width="2.1" height="1.9" rx="0.4" fill="#FFFFFF" opacity="0.6"/><rect x="23.85" y="1.4" width="2.1" height="1.9" rx="0.4" fill="#FFFFFF" opacity="0.6"/><rect x="26.3" y="1.4" width="2.1" height="1.9" rx="0.4" fill="#FFFFFF" opacity="0.6"/><rect x="28.75" y="1.4" width="2.1" height="1.9" rx="0.4" fill="#FFFFFF" opacity="0.6"/><rect x="1.8" y="3.7" width="2.1" height="1.9" rx="0.4" fill="#FFFFFF" opacity="0.6"/><rect x="4.25" y="3.7" width="2.1" height="1.9" rx="0.4" fill="#FFFFFF" opacity="0.6"/><rect x="6.7" y="3.7" width="2.1" height="1.9" rx="0.4" fill="#FFFFFF" opacity="0.6"/><rect x="9.15" y="3.7" width="2.1" height="1.9" rx="0.4" fill="#FFFFFF" opacity="0.6"/><rect x="11.6" y="3.7" width="2.1" height="1.9" rx="0.4" fill="#FFFFFF" opacity="0.6"/><rect x="14.05" y="3.7" width="2.1" height="1.9" rx="0.4" fill="#FFFFFF" opacity="0.6"/><rect x="16.5" y="3.7" width="2.1" height="1.9" rx="0.4" fill="#FFFFFF" opacity="0.6"/><rect x="18.95" y="3.7" width="2.1" height="1.9" rx="0.4" fill="#FFFFFF" opacity="0.6"/><rect x="21.4" y="3.7" width="2.1" height="1.9" rx="0.4" fill="#FFFFFF" opacity="0.6"/><rect x="23.85" y="3.7" width="2.1" height="1.9" rx="0.4" fill="#FFFFFF" opacity="0.6"/><rect x="26.3" y="3.7" width="2.1" height="1.9" rx="0.4" fill="#FFFFFF" opacity="0.6"/><rect x="28.75" y="3.7" width="2.1" height="1.9" rx="0.4" fill="#FFFFFF" opacity="0.6"/><rect x="1.8" y="6" width="2.1" height="1.9" rx="0.4" fill="#FFFFFF" opacity="0.6"/><rect x="4.25" y="6" width="2.1" height="1.9" rx="0.4" fill="#FFFFFF" opacity="0.6"/><rect x="6.7" y="6" width="2.1" height="1.9" rx="0.4" fill="#FFFFFF" opacity="0.6"/><rect x="9.15" y="6" width="2.1" height="1.9" rx="0.4" fill="#FFFFFF" opacity="0.6"/><rect x="11.6" y="6" width="2.1" height="1.9" rx="0.4" fill="#FFFFFF" opacity="0.6"/><rect x="14.05" y="6" width="2.1" height="1.9" rx="0.4" fill="#FFFFFF" opacity="0.6"/><rect x="16.5" y="6" width="2.1" height="1.9" rx="0.4" fill="#FFFFFF" opacity="0.6"/><rect x="18.95" y="6" width="2.1" height="1.9" rx="0.4" fill="#FFFFFF" opacity="0.6"/><rect x="21.4" y="6" width="2.1" height="1.9" rx="0.4" fill="#FFFFFF" opacity="0.6"/><rect x="23.85" y="6" width="2.1" height="1.9" rx="0.4" fill="#FFFFFF" opacity="0.6"/><rect x="26.3" y="6" width="2.1" height="1.9" rx="0.4" fill="#FFFFFF" opacity="0.6"/><rect x="28.75" y="6" width="2.1" height="1.9" rx="0.4" fill="#FFFFFF" opacity="0.6"/><rect x="1.8" y="8.3" width="2.1" height="1.9" rx="0.4" fill="#FFFFFF" opacity="0.6"/><rect x="4.25" y="8.3" width="2.1" height="1.9" rx="0.4" fill="#FFFFFF" opacity="0.6"/><rect x="6.7" y="8.3" width="2.1" height="1.9" rx="0.4" fill="#FFFFFF" opacity="0.6"/><rect x="9.15" y="8.3" width="2.1" height="1.9" rx="0.4" fill="#FFFFFF" opacity="0.6"/><rect x="11.6" y="8.3" width="2.1" height="1.9" rx="0.4" fill="#FFFFFF" opacity="0.6"/><rect x="14.05" y="8.3" width="2.1" height="1.9" rx="0.4" fill="#FFFFFF" opacity="0.6"/><rect x="16.5" y="8.3" width="2.1" height="1.9" rx="0.4" fill="#FFFFFF" opacity="0.6"/><rect x="18.95" y="8.3" width="2.1" height="1.9" rx="0.4" fill="#FFFFFF" opacity="0.6"/><rect x="21.4" y="8.3" width="2.1" height="1.9" rx="0.4" fill="#FFFFFF" opacity="0.6"/><rect x="23.85" y="8.3" width="2.1" height="1.9" rx="0.4" fill="#FFFFFF" opacity="0.6"/><rect x="26.3" y="8.3" width="2.1" height="1.9" rx="0.4" fill="#FFFFFF" opacity="0.6"/><rect x="28.75" y="8.3" width="2.1" height="1.9" rx="0.4" fill="#FFFFFF" opacity="0.6"/></g></g><path d="M52.59 435.16 L180.49 446.24 L149.11 470.51 L21.21 459.44 Z" fill="url(#tp-landscape-shadow-18)"/><path d="M46.48 434.22 L153.67 437.38 L145.02 457.04 L37.82 453.87 Z" fill="#5a413c" stroke="#0F172A33"/><path d="M46.48 432.05 L153.67 435.21 L145.02 454.86 L37.82 451.7 Z" fill="#ece8e0"/><path d="M76.38 450.37 L134.32 448.4 L134.96 449.66 L77.02 451.64 Z" fill="#1f4aaa"/><rect width="800" height="600" fill="url(#tp-landscape-warm-19)"/><rect width="800" height="600" fill="url(#tp-landscape-vignette-20)"/></svg>