<svg xmlns="http://www.w3.org/2000/svg" width="800" height="600" viewBox="0 0 800 600" role="img" aria-label="NeurIPS template preview" data-template-id="neurips"><defs><linearGradient id="tp-neurips-wall-1" x1="0" y1="0" x2="0.35" y2="1"><stop offset="0" stop-color="#f0ebe3"/><stop offset="0.62" stop-color="#ece5db"/><stop offset="1" stop-color="#bfb6ab"/></linearGradient><linearGradient id="tp-neurips-window-2" x1="0" y1="0" x2="0" y2="1"><stop offset="0" stop-color="#FFFCF2"/><stop offset="1" stop-color="#FFEFD2"/></linearGradient><linearGradient id="tp-neurips-desk-3" x1="0" y1="0" x2="0.15" y2="1"><stop offset="0" stop-color="#e0c299"/><stop offset="0.55" stop-color="#d0a265"/><stop offset="1" stop-color="#af8855"/></linearGradient><clipPath id="tp-neurips-grain-4"><path d="M160.76 368.6 L744.13 426.56 L619.37 510.68 L36 452.72 Z"/></clipPath><radialGradient id="tp-neurips-shadow-5" cx="0.5" cy="0.5" r="0.5"><stop offset="0" stop-color="#22160A" stop-opacity="0.26"/><stop offset="0.6" stop-color="#22160A" stop-opacity="0.13"/><stop offset="1" stop-color="#22160A" stop-opacity="0"/></radialGradient><clipPath id="tp-neurips-board-6"><path d="M248.87 72.92 L426.43 84.37 L426.43 334.37 L248.87 322.91 Z"/></clipPath><radialGradient id="tp-neurips-shadow-7" cx="0.5" cy="0.5" r="0.5"><stop offset="0" stop-color="#22160A" stop-opacity="0.24"/><stop offset="0.6" stop-color="#22160A" stop-opacity="0.12"/><stop offset="1" stop-color="#22160A" stop-opacity="0"/></radialGradient><radialGradient id="tp-neurips-shadow-8" cx="0.5" cy="0.5" r="0.5"><stop offset="0" stop-color="#22160A" stop-opacity="0.22"/><stop offset="0.6" stop-color="#22160A" stop-opacity="0.11"/><stop offset="1" stop-color="#22160A" stop-opacity="0"/></radialGradient><radialGradient id="tp-neurips-shadow-9" cx="0.5" cy="0.5" r="0.5"><stop offset="0" stop-color="#22160A" stop-opacity="0.2"/><stop offset="0.6" stop-color="#22160A" stop-opacity="0.1"/><stop offset="1" stop-color="#22160A" stop-opacity="0"/></radialGradient><clipPath id="tp-neurips-keys-10"><path d="M588.67 421.67 L675.58 441.22 L645.71 450.11 L558.8 430.56 Z"/></clipPath><clipPath id="tp-neurips-screen-11"><path d="M606.87 344.1 L703.88 365.93 L695.65 437.16 L598.63 415.34 Z"/></clipPath><linearGradient id="tp-neurips-page-12" x1="0" y1="1" x2="1" y2="0"><stop offset="0" stop-color="#FFFFFF"/><stop offset="1" stop-color="#ececee"/></linearGradient><clipPath id="tp-neurips-sheet-13"><path d="M115.93 421.34 L194.54 434.55 L122.34 463.33 L43.73 450.11 Z"/></clipPath><linearGradient id="tp-neurips-page-14" x1="0" y1="1" x2="1" y2="0"><stop offset="0" stop-color="#FFFFFF"/><stop offset="1" stop-color="#ececee"/></linearGradient><clipPath id="tp-neurips-sheet-15"><path d="M465.76 456.69 L558.2 460.7 L536.32 494.54 L443.88 490.53 Z"/></clipPath><radialGradient id="tp-neurips-shadow-16" cx="0.5" cy="0.5" r="0.5"><stop offset="0" stop-color="#22160A" stop-opacity="0.2"/><stop offset="0.6" stop-color="#22160A" stop-opacity="0.1"/><stop offset="1" stop-color="#22160A" stop-opacity="0"/></radialGradient><clipPath id="tp-neurips-keys-17"><path d="M289 432.4 L420.47 446.84 L399.54 459.6 L268.07 445.16 Z"/></clipPath><radialGradient id="tp-neurips-shadow-18" cx="0.5" cy="0.5" r="0.5"><stop offset="0" stop-color="#22160A" stop-opacity="0.22"/><stop offset="0.6" stop-color="#22160A" stop-opacity="0.11"/><stop offset="1" stop-color="#22160A" stop-opacity="0"/></radialGradient><linearGradient id="tp-neurips-warm-19" x1="0" y1="0" x2="0.7" y2="1"><stop offset="0" stop-color="#FFF4DC" stop-opacity="0.42"/><stop offset="0.45" stop-color="#FFF4DC" stop-opacity="0.1"/><stop offset="1" stop-color="#3B2410" stop-opacity="0.14"/></linearGradient><radialGradient id="tp-neurips-vignette-20" cx="0.45" cy="0.42" r="0.8"><stop offset="0.55" stop-color="#000000" stop-opacity="0"/><stop offset="1" stop-color="#000000" stop-opacity="0.28"/></radialGradient></defs><path d="M147.29 364.79 L764 426.06 L764 46.66 L147.29 -14.61 Z" fill="url(#tp-neurips-wall-1)"/><path d="M192.49 255.95 L359.17 272.51 L359.17 75.23 L192.49 58.67 Z" fill="url(#tp-neurips-window-2)"/><rect x="274.13" y="58.67" width="3.4" height="197.28" fill="#FFFFFF" opacity="0.72"/><rect x="192.49" y="157.31" width="166.68" height="2.6" fill="#FFFFFF" opacity="0.55"/><path d="M513.98 230.49 L755.67 254.5 L744.47 262.05 L502.79 238.04 Z" fill="#c7a684"/><path d="M502.79 248.39 L744.47 272.4 L744.47 262.05 L502.79 238.04 Z" fill="#8d6a48"/><path d="M518.49 237.13 L532.66 238.53 L532.66 167.4 L518.49 165.99 Z" fill="#094a3d"/><path d="M532.66 238.53 L529.46 240.69 L529.46 169.55 L532.66 167.4 Z" fill="#06352c"/><path d="M537.66 239.03 L547.66 240.02 L547.66 181.82 L537.66 180.83 Z" fill="#7b3e14"/><path d="M547.66 240.02 L544.46 242.18 L544.46 183.98 L547.66 181.82 Z" fill="#592d0e"/><path d="M552.66 240.52 L564.74 241.72 L564.74 170.58 L552.66 169.38 Z" fill="#0f6864"/><path d="M564.74 241.72 L561.54 243.88 L561.54 172.74 L564.74 170.58 Z" fill="#0b4b48"/><path d="M569.74 242.22 L583.91 243.62 L583.91 185.42 L569.74 184.01 Z" fill="#753b4b"/><path d="M583.91 243.62 L580.71 245.78 L580.71 187.58 L583.91 185.42 Z" fill="#542a36"/><path d="M588.91 244.12 L598.91 245.12 L598.91 173.98 L588.91 172.99 Z" fill="#1c4aca"/><path d="M598.91 245.12 L595.71 247.27 L595.71 176.14 L598.91 173.98 Z" fill="#143591"/><path d="M603.91 245.61 L615.99 246.81 L615.99 188.61 L603.91 187.41 Z" fill="#783813"/><path d="M615.99 246.81 L612.79 248.97 L612.79 190.77 L615.99 188.61 Z" fill="#56280e"/><path d="M620.99 247.31 L635.16 248.72 L635.16 177.58 L620.99 176.17 Z" fill="#2b5a80"/><path d="M635.16 248.72 L631.96 250.87 L631.96 179.74 L635.16 177.58 Z" fill="#1f415c"/><path d="M640.16 249.21 L650.16 250.21 L650.16 192 L640.16 191.01 Z" fill="#451c88"/><path d="M650.16 250.21 L646.96 252.36 L646.96 194.16 L650.16 192 Z" fill="#321462"/><path d="M655.16 250.7 L667.25 251.9 L667.25 180.77 L655.16 179.57 Z" fill="#094a3d"/><path d="M667.25 251.9 L664.05 254.06 L664.05 182.93 L667.25 180.77 Z" fill="#06352c"/><path d="M672.25 252.4 L686.41 253.81 L686.41 195.61 L672.25 194.2 Z" fill="#7b3e14"/><path d="M686.41 253.81 L683.22 255.97 L683.22 197.76 L686.41 195.61 Z" fill="#592d0e"/><path d="M691.41 254.31 L701.42 255.3 L701.42 184.16 L691.41 183.17 Z" fill="#0f6864"/><path d="M701.42 255.3 L698.22 257.46 L698.22 186.32 L701.42 184.16 Z" fill="#0b4b48"/><path d="M706.42 255.8 L718.5 257 L718.5 198.79 L706.42 197.59 Z" fill="#753b4b"/><path d="M718.5 257 L715.3 259.15 L715.3 200.95 L718.5 198.79 Z" fill="#542a36"/><path d="M513.98 158.41 L755.67 182.42 L744.47 189.97 L502.79 165.96 Z" fill="#c7a684"/><path d="M502.79 176.3 L744.47 200.31 L744.47 189.97 L502.79 165.96 Z" fill="#8d6a48"/><path d="M529.05 161.14 L599.89 168.18 L591.89 173.57 L521.05 166.53 Z" fill="#094a3d"/><path d="M612.39 169.42 L666.56 174.8 L658.56 180.19 L604.39 174.81 Z" fill="#8e5e6b"/><path d="M160.76 368.6 L744.13 426.56 L619.37 510.68 L36 452.72 Z" fill="url(#tp-neurips-desk-3)"/><path d="M36 482.9 L619.37 540.86 L619.37 510.68 L36 452.72 Z" fill="#81643f"/><path d="M619.37 540.86 L744.13 456.74 L744.13 426.56 L619.37 510.68 Z" fill="#967549"/><g clip-path="url(#tp-neurips-grain-4)"><g transform="matrix(4.17 0.41 -1.6 1.08 160.76 368.6)"><rect x="24" y="9.75" width="92" height="0.6" fill="#8A5A2B" opacity="0.13"/><rect x="6" y="19.5" width="118" height="0.6" fill="#8A5A2B" opacity="0.13"/><rect x="24" y="29.25" width="92" height="0.6" fill="#8A5A2B" opacity="0.13"/><rect x="6" y="39" width="118" height="0.6" fill="#8A5A2B" opacity="0.13"/><rect x="24" y="48.75" width="92" height="0.6" fill="#8A5A2B" opacity="0.13"/><rect x="6" y="58.5" width="118" height="0.6" fill="#8A5A2B" opacity="0.13"/><rect x="24" y="68.25" width="92" height="0.6" fill="#8A5A2B" opacity="0.13"/></g></g><path d="M259.02 393.95 L257.6 73.98 L269.52 73.67 L270.94 393.65 Z" fill="#a77647"/><path d="M392.23 407.19 L393.64 87.49 L405.56 87.19 L404.15 406.89 Z" fill="#744e2e"/><path d="M331.56 393.98 L331.56 41.81 L351.57 43.8 L351.57 395.97 Z" fill="#865e39"/><path d="M221.77 386.17 L517.79 415.58 L479.4 441.47 L183.38 412.06 Z" fill="url(#tp-neurips-shadow-5)"/><path d="M434.87 77.31 L437.67 74.39 L437.67 339.04 L434.87 341.96 Z" fill="#0F172A24"/><path d="M241.9 64.84 L434.19 77.25 L434.19 341.9 L241.9 329.49 Z" fill="#f7f7f7" stroke="#0F172A24"/><g clip-path="url(#tp-neurips-board-6)"><g transform="matrix(0.55 0.04 0 0.55 248.87 72.92)"><rect width="320" height="452.57" fill="#FFFFFF"/><rect x="0.5" y="0.5" width="319" height="451.57" fill="none" stroke="#0F172A1f"/><rect x="27.2" y="27.2" width="265.6" height="19.55" fill="#11182724"/><text x="36.5" y="38.79" font-size="6.81" font-family="Helvetica, Arial, sans-serif" font-weight="700" letter-spacing="0.5" fill="#111827">NEURIPS</text><text x="191.87" y="38.06" font-family="Helvetica, Arial, sans-serif" font-size="5.21" fill="#0F172A8c">Advances in Neural Information…</text><rect x="51.1" y="48.43" width="217.79" height="25.91" fill="#1118270e"/><text x="160" y="52.54" font-family="Helvetica, Arial, sans-serif" font-size="8.24" fill="#0F172A" font-weight="700" opacity="0.95" text-anchor="middle">Speculative Decoding with Provable Latency</text><text x="160" y="62.1" font-family="Helvetica, Arial, sans-serif" font-size="8.24" fill="#0F172A" font-weight="700" opacity="0.95" text-anchor="middle">Guarantees</text><text x="160" y="75.2" font-family="Helvetica, Arial, sans-serif" font-size="2.81" fill="#111827e6" text-anchor="middle">S. Bhattacharya, Y. Kimura, F. Osei, N. Andersen</text><text x="160" y="79.4" font-family="Helvetica, Arial, sans-serif" font-size="2.53" fill="#0F172A80" text-anchor="middle">Advances in Neural Information Processing Systems 39 (NeurIPS 2026)</text><rect x="27.2" y="85.58" width="265.6" height="47.52" fill="#11182713"/><text x="36.5" y="93.66" font-family="Helvetica, Arial, sans-serif" font-size="5.46" fill="#111827" font-weight="700" opacity="0.9">Abstract</text><text x="36.5" y="102.68" font-family="Helvetica, Arial, sans-serif" font-size="4.04" fill="#0F172Aa8">Speculative decoding accelerates autoregressive generation by proposing several tokens with a cheap draft model and</text><text x="36.5" y="110.29" font-family="Helvetica, Arial, sans-serif" font-size="4.04" fill="#0F172Aa8">verifying them in parallel with the target model. Reported speedups are averages over the request stream, whereas</text><text x="36.5" y="117.89" font-family="Helvetica, Arial, sans-serif" font-size="4.04" fill="#0F172Aa8">serving systems are governed by tail latency. We model acceptance along a draft path as a bounded-difference</text><text x="36.5" y="125.49" font-family="Helvetica, Arial, sans-serif" font-size="4.04" fill="#0F172Aa8">martingale and invert the resulting concentration inequality to obtain the minimum draft depth that guarantees a…</text><rect x="27.2" y="142.82" width="265.6" height="11.16" fill="#1118271f"/><text x="36.5" y="148.4" font-family="Helvetica, Arial, sans-serif" font-size="7.97" fill="#111827" font-weight="700" opacity="0.95">Introduction</text><text x="27.2" y="156.36" font-family="Helvetica, Arial, sans-serif" font-size="4.38" fill="#0F172Aad">Speculative decoding has become the default acceleration technique for autoregressive inference , and its analysis</text><text x="27.2" y="162.94" font-family="Helvetica, Arial, sans-serif" font-size="4.38" fill="#0F172Aad">is usually reported as an average speedup over a benchmark stream. That metric is not what a serving system is</text><text x="27.2" y="169.51" font-family="Helvetica, Arial, sans-serif" font-size="4.38" fill="#0F172Aad">operated against: admission control, batch composition and autoscaling all depend on tail latency, and the tail is</text><text x="27.2" y="176.08" font-family="Helvetica, Arial, sans-serif" font-size="4.38" fill="#0F172Aad">precisely where fixed-depth speculation behaves worst . When acceptance is low, the draft work is wasted and the…</text><rect x="27.2" y="192.67" width="265.6" height="11.16" fill="#1118271f"/><text x="36.5" y="198.25" font-family="Helvetica, Arial, sans-serif" font-size="7.97" fill="#111827" font-weight="700" opacity="0.95">Martingale Bound and Scheduler</text><text x="27.2" y="206.22" font-family="Helvetica, Arial, sans-serif" font-size="4.38" fill="#0F172Aad">Let X_k denote the excess of accepted tokens over rejected ones after k draft positions. Under the standard</text><text x="27.2" y="212.79" font-family="Helvetica, Arial, sans-serif" font-size="4.38" fill="#0F172Aad">speculative sampling rule, X_k is a martingale with increments in [-1, 1], so Hoeffding–Azuma gives [X_n ≤ -t] ≤</text><text x="27.2" y="219.37" font-family="Helvetica, Arial, sans-serif" font-size="4.38" fill="#0F172Aad">exp(-t^2 / 2n). Requiring this to fall below a target tail probability δ and solving for the depth n yields the…</text><rect x="27.2" y="227.69" width="265.6" height="17.95" rx="2" fill="#6B4FA029"/><rect x="27.2" y="242.53" width="265.6" height="11.16" fill="#1118271f"/><text x="36.5" y="248.11" font-family="Helvetica, Arial, sans-serif" font-size="7.97" fill="#111827" font-weight="700" opacity="0.95">Results</text><text x="27.2" y="256.08" font-family="Helvetica, Arial, sans-serif" font-size="4.38" fill="#0F172Aad">We evaluate on four workloads with a 70 B target model and a 7 B draft model on an eight-GPU node. Table 1 reports</text><text x="27.2" y="262.65" font-family="Helvetica, Arial, sans-serif" font-size="4.38" fill="#0F172Aad">the speedup of fixed-depth speculation and of the adaptive scheduler alongside the guaranteed speedup at the 99th</text><text x="27.2" y="269.22" font-family="Helvetica, Arial, sans-serif" font-size="4.38" fill="#0F172Aad">percentile. The adaptive scheduler is never slower than the baseline in the tail, whereas fixed depth falls behind</text><text x="27.2" y="275.8" font-family="Helvetica, Arial, sans-serif" font-size="4.38" fill="#0F172Aad">on the chat workload, where acceptance is lowest.</text><rect x="27.2" y="292.39" width="265.6" height="11.16" fill="#1118271f"/><text x="36.5" y="297.96" font-family="Helvetica, Arial, sans-serif" font-size="7.97" fill="#111827" font-weight="700" opacity="0.95">Tail Analysis</text><text x="27.2" y="305.93" font-family="Helvetica, Arial, sans-serif" font-size="4.38" fill="#0F172Aad">Figure 2 shows the distribution of per-request speedups. The left tail is the quantity the bound controls: with a</text><text x="27.2" y="312.51" font-family="Helvetica, Arial, sans-serif" font-size="4.38" fill="#0F172Aad">fixed depth the slowest percentile of requests is slower than the non-speculative baseline, because rejected drafts</text><text x="27.2" y="319.08" font-family="Helvetica, Arial, sans-serif" font-size="4.38" fill="#0F172Aad">still consume verifier capacity. With adaptive depth the left tail is truncated at the guaranteed speedup, and the…</text><rect x="27.2" y="327.41" width="265.6" height="17.95" rx="2" fill="#6B4FA029"/><rect x="27.2" y="342.24" width="265.6" height="11.16" fill="#1118271f"/><text x="36.5" y="347.82" font-family="Helvetica, Arial, sans-serif" font-size="7.97" fill="#111827" font-weight="700" opacity="0.95">Implementation</text><text x="27.2" y="355.79" font-family="Helvetica, Arial, sans-serif" font-size="4.38" fill="#0F172Aad">The serving prototype is built on a standard continuous-batching engine with two modifications: the draft tree is</text><text x="27.2" y="362.36" font-family="Helvetica, Arial, sans-serif" font-size="4.38" fill="#0F172Aad">truncated per step from the scheduler&apos;s depth decision, and the verifier reads acceptance counters from the previous</text><text x="27.2" y="368.93" font-family="Helvetica, Arial, sans-serif" font-size="4.38" fill="#0F172Aad">step to update the running estimate. The 70 B target model runs tensor-parallel across four A100 GPUs at bfloat16</text><text x="27.2" y="375.51" font-family="Helvetica, Arial, sans-serif" font-size="4.38" fill="#0F172Aad">precision, and the 7 B draft model runs on the remaining four. Depth is re-estimated every step from an…</text><text x="160" y="436.25" font-family="Helvetica, Arial, sans-serif" font-size="2.26" fill="#0F172A80" text-anchor="middle">Advances in Neural Information Processing Systems 39 (NeurIPS…</text></g></g><circle cx="259.7" cy="64.19" r="2.6" fill="#111827eb"/><circle cx="415.11" cy="79.63" r="2.6" fill="#111827eb"/><path d="M233.31 330.24 L429.99 349.78 L436.39 345.47 L239.71 325.93 Z" fill="#b9916c"/><path d="M233.31 340.16 L429.99 359.7 L429.99 349.78 L233.31 330.24 Z" fill="#744e2e"/><path d="M661.04 421.45 L750.75 430.36 L718.96 451.79 L629.26 442.88 Z" fill="url(#tp-neurips-shadow-7)"/><path d="M669.22 431.49 L703.72 434.92 L703.72 403.19 L669.22 399.76 Z" fill="#b27354"/><path d="M675.18 395.74 L709.68 399.17 L697.76 407.2 L663.26 403.78 Z" fill="#8e5c43"/><path d="M686.47 401.47 Q661.67 384.15 650.86 374.83 Q675.67 384.15 686.47 401.47" fill="#294f35" opacity="0.96"/><path d="M686.47 401.47 Q663.58 376.79 654.68 360.11 Q677.58 376.79 686.47 401.47" fill="#366947" opacity="0.96"/><path d="M686.47 401.47 Q668.97 370.16 665.47 346.84 Q682.97 370.16 686.47 401.47" fill="#294f35" opacity="0.96"/><path d="M686.47 401.47 Q677.69 365.57 682.9 337.68 Q691.69 365.57 686.47 401.47" fill="#366947" opacity="0.96"/><path d="M686.47 401.47 Q684.42 378.94 696.38 364.4 Q698.42 378.94 686.47 401.47" fill="#294f35" opacity="0.96"/><path d="M686.47 401.47 Q692.72 379.13 712.98 364.8 Q706.72 379.13 686.47 401.47" fill="#366947" opacity="0.96"/><path d="M686.47 401.47 Q701.78 382.64 731.1 371.82 Q715.78 382.64 686.47 401.47" fill="#294f35" opacity="0.96"/><path d="M159.47 412.18 L209.05 417.11 L190.02 429.95 L140.43 425.02 Z" fill="url(#tp-neurips-shadow-8)"/><path d="M157.2 417.74 L186.37 420.64 L186.37 393.91 L157.2 391.01 Z" fill="#b5a7d0"/><path d="M162.8 387.24 L191.97 390.14 L180.77 397.68 L151.6 394.79 Z" fill="#d3cae3"/><path d="M163.93 389.04 L185.8 391.21 L179.65 395.36 L157.77 393.19 Z" fill="#4A2C16"/><path d="M174.26 406.53 q10 -3 10 4.5 q0 6.5 -10 3" fill="none" stroke="#b5a7d0" stroke-width="2.4"/><path d="M562.46 421.08 L724.97 437.22 L672.76 472.42 L510.25 456.28 Z" fill="url(#tp-neurips-shadow-9)"/><path d="M596.61 414.88 L697.67 437.62 L637.93 455.4 L536.87 432.67 Z" fill="#949aa5"/><path d="M536.87 432.67 L637.93 455.4 L637.93 461.44 L536.87 438.7 Z" fill="#565960"/><path d="M588.67 421.67 L675.58 441.22 L645.71 450.11 L558.8 430.56 Z" fill="#737881"/><g clip-path="url(#tp-neurips-keys-10)"><g transform="matrix(3.37 0.76 -2.93 0.87 588.67 421.67)"><rect x="1.8" y="0.61" width="26.4" height="1.22" rx="0.24" fill="#FFFFFF" opacity="0.22"/><rect x="1.8" y="2.65" width="26.4" height="1.22" rx="0.24" fill="#FFFFFF" opacity="0.22"/><rect x="1.8" y="4.69" width="26.4" height="1.22" rx="0.24" fill="#FFFFFF" opacity="0.22"/><rect x="1.8" y="6.73" width="26.4" height="1.22" rx="0.24" fill="#FFFFFF" opacity="0.22"/><rect x="1.8" y="8.77" width="26.4" height="1.22" rx="0.24" fill="#FFFFFF" opacity="0.22"/></g></g><path d="M608.8 436.02 L639.12 442.84 L624.78 447.11 L594.47 440.29 Z" fill="#a7acb5"/><path d="M607.35 343.78 L704.36 365.6 L696.13 436.84 L599.11 415.01 Z" fill="#0b101d"/><g clip-path="url(#tp-neurips-screen-11)"><g transform="matrix(0.3 0.07 -0.05 0.4 606.87 344.1)"><defs><linearGradient id="neutral-screen-320" x1="0" y1="0" x2="0.6" y2="1"><stop offset="0" stop-color="#090e19"/><stop offset="1" stop-color="#1d2537"/></linearGradient></defs><rect width="320" height="180" fill="url(#neutral-screen-320)"/><rect x="19.2" y="21.6" width="96" height="10.8" rx="3.6" fill="#11182780"/><rect x="19.2" y="43.2" width="134.4" height="6.3" rx="2.7" fill="#FFFFFF" opacity="0.45"/><rect x="19.2" y="61.2" width="108.8" height="6.3" rx="2.7" fill="#FFFFFF" opacity="0.26"/><rect x="19.2" y="79.2" width="83.2" height="6.3" rx="2.7" fill="#FFFFFF" opacity="0.18"/></g></g><path d="M118.18 425.63 L196.79 438.85 L124.59 467.62 L45.98 454.41 Z" fill="#2417082e"/><path d="M115.93 421.34 L194.54 434.55 L122.34 463.33 L43.73 450.11 Z" fill="url(#tp-neurips-page-12)" stroke="#0F172A1f"/><g clip-path="url(#tp-neurips-sheet-13)"><g transform="matrix(0.36 0.06 -0.23 0.09 115.93 421.34)"><rect width="220" height="311.14" fill="#FFFFFF"/><rect x="22" y="28" width="59.84" height="3.73" fill="#0F172A" opacity="0.3"/><rect x="22" y="40.45" width="151.36" height="8.71" rx="1.24" fill="#0F172A" opacity="0.78"/><rect x="22" y="54.45" width="105.6" height="5.6" rx="0.93" fill="#0F172A" opacity="0.38"/><rect x="22" y="66.9" width="35.2" height="1.87" fill="#111827d9"/><rect x="22" y="80.9" width="55.18" height="3.86" rx="1.93" fill="#0F172A" opacity="0.48"/><rect x="22" y="87.65" width="75.24" height="2.31" rx="1.16" fill="#0F172A" opacity="0.15"/><rect x="22" y="105.01" width="68.55" height="3.86" rx="1.93" fill="#0F172A" opacity="0.24"/><rect x="22" y="111.76" width="75.24" height="2.31" rx="1.16" fill="#0F172A" opacity="0.15"/><rect x="22" y="129.12" width="68.55" height="3.86" rx="1.93" fill="#0F172A" opacity="0.24"/><rect x="22" y="135.88" width="75.24" height="2.31" rx="1.16" fill="#0F172A" opacity="0.15"/><rect x="22" y="153.24" width="78.58" height="3.86" rx="1.93" fill="#0F172A" opacity="0.24"/><rect x="22" y="159.99" width="75.24" height="2.31" rx="1.16" fill="#0F172A" opacity="0.15"/><rect x="22" y="177.35" width="55.18" height="3.86" rx="1.93" fill="#0F172A" opacity="0.48"/><rect x="22" y="184.1" width="75.24" height="2.31" rx="1.16" fill="#0F172A" opacity="0.15"/><rect x="22" y="201.47" width="68.55" height="3.86" rx="1.93" fill="#0F172A" opacity="0.24"/><rect x="22" y="208.22" width="75.24" height="2.31" rx="1.16" fill="#0F172A" opacity="0.15"/><rect x="22" y="225.58" width="78.58" height="3.86" rx="1.93" fill="#0F172A" opacity="0.24"/><rect x="22" y="232.33" width="75.24" height="2.31" rx="1.16" fill="#0F172A" opacity="0.15"/><rect x="22" y="249.69" width="68.55" height="3.86" rx="1.93" fill="#0F172A" opacity="0.24"/><rect x="22" y="256.44" width="75.24" height="2.31" rx="1.16" fill="#0F172A" opacity="0.15"/><rect x="114.4" y="80.9" width="55.18" height="3.86" rx="1.93" fill="#0F172A" opacity="0.48"/><rect x="114.4" y="87.65" width="75.24" height="2.31" rx="1.16" fill="#0F172A" opacity="0.15"/><rect x="114.4" y="105.01" width="68.55" height="3.86" rx="1.93" fill="#0F172A" opacity="0.24"/><rect x="114.4" y="111.76" width="75.24" height="2.31" rx="1.16" fill="#0F172A" opacity="0.15"/><rect x="114.4" y="129.12" width="68.55" height="3.86" rx="1.93" fill="#0F172A" opacity="0.24"/><rect x="114.4" y="135.88" width="75.24" height="2.31" rx="1.16" fill="#0F172A" opacity="0.15"/><rect x="114.4" y="153.24" width="78.58" height="3.86" rx="1.93" fill="#0F172A" opacity="0.24"/><rect x="114.4" y="159.99" width="75.24" height="2.31" rx="1.16" fill="#0F172A" opacity="0.15"/><rect x="114.4" y="177.35" width="55.18" height="3.86" rx="1.93" fill="#0F172A" opacity="0.48"/><rect x="114.4" y="184.1" width="75.24" height="2.31" rx="1.16" fill="#0F172A" opacity="0.15"/><rect x="114.4" y="201.47" width="68.55" height="3.86" rx="1.93" fill="#0F172A" opacity="0.24"/><rect x="114.4" y="208.22" width="75.24" height="2.31" rx="1.16" fill="#0F172A" opacity="0.15"/><rect x="114.4" y="225.58" width="78.58" height="3.86" rx="1.93" fill="#0F172A" opacity="0.24"/><rect x="114.4" y="232.33" width="75.24" height="2.31" rx="1.16" fill="#0F172A" opacity="0.15"/><rect x="114.4" y="249.69" width="68.55" height="3.86" rx="1.93" fill="#0F172A" opacity="0.24"/><rect x="114.4" y="256.44" width="75.24" height="2.31" rx="1.16" fill="#0F172A" opacity="0.15"/></g></g><path d="M468 460.99 L560.45 464.99 L538.57 498.83 L446.12 494.83 Z" fill="#2417082e"/><path d="M465.76 456.69 L558.2 460.7 L536.32 494.54 L443.88 490.53 Z" fill="url(#tp-neurips-page-14)" stroke="#0F172A1f"/><g clip-path="url(#tp-neurips-sheet-15)"><g transform="matrix(0.42 0.02 -0.07 0.11 465.76 456.69)"><rect width="220" height="311.14" fill="#FFFFFF"/><rect x="22" y="28" width="59.84" height="3.73" fill="#0F172A" opacity="0.3"/><rect x="22" y="40.45" width="151.36" height="8.71" rx="1.24" fill="#0F172A" opacity="0.78"/><rect x="22" y="54.45" width="105.6" height="5.6" rx="0.93" fill="#0F172A" opacity="0.38"/><rect x="22" y="66.9" width="35.2" height="1.87" fill="#111827d9"/><rect x="22" y="80.9" width="55.18" height="3.86" rx="1.93" fill="#0F172A" opacity="0.48"/><rect x="22" y="87.65" width="75.24" height="2.31" rx="1.16" fill="#0F172A" opacity="0.15"/><rect x="22" y="105.01" width="68.55" height="3.86" rx="1.93" fill="#0F172A" opacity="0.24"/><rect x="22" y="111.76" width="75.24" height="2.31" rx="1.16" fill="#0F172A" opacity="0.15"/><rect x="22" y="129.12" width="68.55" height="3.86" rx="1.93" fill="#0F172A" opacity="0.24"/><rect x="22" y="135.88" width="75.24" height="2.31" rx="1.16" fill="#0F172A" opacity="0.15"/><rect x="22" y="153.24" width="78.58" height="3.86" rx="1.93" fill="#0F172A" opacity="0.24"/><rect x="22" y="159.99" width="75.24" height="2.31" rx="1.16" fill="#0F172A" opacity="0.15"/><rect x="22" y="177.35" width="55.18" height="3.86" rx="1.93" fill="#0F172A" opacity="0.48"/><rect x="22" y="184.1" width="75.24" height="2.31" rx="1.16" fill="#0F172A" opacity="0.15"/><rect x="22" y="201.47" width="68.55" height="3.86" rx="1.93" fill="#0F172A" opacity="0.24"/><rect x="22" y="208.22" width="75.24" height="2.31" rx="1.16" fill="#0F172A" opacity="0.15"/><rect x="22" y="225.58" width="78.58" height="3.86" rx="1.93" fill="#0F172A" opacity="0.24"/><rect x="22" y="232.33" width="75.24" height="2.31" rx="1.16" fill="#0F172A" opacity="0.15"/><rect x="22" y="249.69" width="68.55" height="3.86" rx="1.93" fill="#0F172A" opacity="0.24"/><rect x="22" y="256.44" width="75.24" height="2.31" rx="1.16" fill="#0F172A" opacity="0.15"/><rect x="114.4" y="80.9" width="55.18" height="3.86" rx="1.93" fill="#0F172A" opacity="0.48"/><rect x="114.4" y="87.65" width="75.24" height="2.31" rx="1.16" fill="#0F172A" opacity="0.15"/><rect x="114.4" y="105.01" width="68.55" height="3.86" rx="1.93" fill="#0F172A" opacity="0.24"/><rect x="114.4" y="111.76" width="75.24" height="2.31" rx="1.16" fill="#0F172A" opacity="0.15"/><rect x="114.4" y="129.12" width="68.55" height="3.86" rx="1.93" fill="#0F172A" opacity="0.24"/><rect x="114.4" y="135.88" width="75.24" height="2.31" rx="1.16" fill="#0F172A" opacity="0.15"/><rect x="114.4" y="153.24" width="78.58" height="3.86" rx="1.93" fill="#0F172A" opacity="0.24"/><rect x="114.4" y="159.99" width="75.24" height="2.31" rx="1.16" fill="#0F172A" opacity="0.15"/><rect x="114.4" y="177.35" width="55.18" height="3.86" rx="1.93" fill="#0F172A" opacity="0.48"/><rect x="114.4" y="184.1" width="75.24" height="2.31" rx="1.16" fill="#0F172A" opacity="0.15"/><rect x="114.4" y="201.47" width="68.55" height="3.86" rx="1.93" fill="#0F172A" opacity="0.24"/><rect x="114.4" y="208.22" width="75.24" height="2.31" rx="1.16" fill="#0F172A" opacity="0.15"/><rect x="114.4" y="225.58" width="78.58" height="3.86" rx="1.93" fill="#0F172A" opacity="0.24"/><rect x="114.4" y="232.33" width="75.24" height="2.31" rx="1.16" fill="#0F172A" opacity="0.15"/><rect x="114.4" y="249.69" width="68.55" height="3.86" rx="1.93" fill="#0F172A" opacity="0.24"/><rect x="114.4" y="256.44" width="75.24" height="2.31" rx="1.16" fill="#0F172A" opacity="0.15"/></g></g><path d="M279.82 435.96 L446.5 452.52 L417.71 471.93 L251.03 455.37 Z" fill="url(#tp-neurips-shadow-16)"/><path d="M289 432.4 L420.47 446.84 L399.54 459.6 L268.07 445.16 Z" fill="#dbdad8" stroke="#0F172A2e"/><g clip-path="url(#tp-neurips-keys-17)"><g transform="matrix(4.11 0.45 -1.74 1.06 289 432.4)"><rect x="1.8" y="1.4" width="2.1" height="1.9" rx="0.4" fill="#FFFFFF" opacity="0.6"/><rect x="4.25" y="1.4" width="2.1" height="1.9" rx="0.4" fill="#FFFFFF" opacity="0.6"/><rect x="6.7" y="1.4" width="2.1" height="1.9" rx="0.4" fill="#FFFFFF" opacity="0.6"/><rect x="9.15" y="1.4" width="2.1" height="1.9" rx="0.4" fill="#FFFFFF" opacity="0.6"/><rect x="11.6" y="1.4" width="2.1" height="1.9" rx="0.4" fill="#FFFFFF" opacity="0.6"/><rect x="14.05" y="1.4" width="2.1" height="1.9" rx="0.4" fill="#FFFFFF" opacity="0.6"/><rect x="16.5" y="1.4" width="2.1" height="1.9" rx="0.4" fill="#FFFFFF" opacity="0.6"/><rect x="18.95" y="1.4" width="2.1" height="1.9" rx="0.4" fill="#FFFFFF" opacity="0.6"/><rect x="21.4" y="1.4" width="2.1" height="1.9" rx="0.4" fill="#FFFFFF" opacity="0.6"/><rect x="23.85" y="1.4" width="2.1" height="1.9" rx="0.4" fill="#FFFFFF" opacity="0.6"/><rect x="26.3" y="1.4" width="2.1" height="1.9" rx="0.4" fill="#FFFFFF" opacity="0.6"/><rect x="28.75" y="1.4" width="2.1" height="1.9" rx="0.4" fill="#FFFFFF" opacity="0.6"/><rect x="1.8" y="3.7" width="2.1" height="1.9" rx="0.4" fill="#FFFFFF" opacity="0.6"/><rect x="4.25" y="3.7" width="2.1" height="1.9" rx="0.4" fill="#FFFFFF" opacity="0.6"/><rect x="6.7" y="3.7" width="2.1" height="1.9" rx="0.4" fill="#FFFFFF" opacity="0.6"/><rect x="9.15" y="3.7" width="2.1" height="1.9" rx="0.4" fill="#FFFFFF" opacity="0.6"/><rect x="11.6" y="3.7" width="2.1" height="1.9" rx="0.4" fill="#FFFFFF" opacity="0.6"/><rect x="14.05" y="3.7" width="2.1" height="1.9" rx="0.4" fill="#FFFFFF" opacity="0.6"/><rect x="16.5" y="3.7" width="2.1" height="1.9" rx="0.4" fill="#FFFFFF" opacity="0.6"/><rect x="18.95" y="3.7" width="2.1" height="1.9" rx="0.4" fill="#FFFFFF" opacity="0.6"/><rect x="21.4" y="3.7" width="2.1" height="1.9" rx="0.4" fill="#FFFFFF" opacity="0.6"/><rect x="23.85" y="3.7" width="2.1" height="1.9" rx="0.4" fill="#FFFFFF" opacity="0.6"/><rect x="26.3" y="3.7" width="2.1" height="1.9" rx="0.4" fill="#FFFFFF" opacity="0.6"/><rect x="28.75" y="3.7" width="2.1" height="1.9" rx="0.4" fill="#FFFFFF" opacity="0.6"/><rect x="1.8" y="6" width="2.1" height="1.9" rx="0.4" fill="#FFFFFF" opacity="0.6"/><rect x="4.25" y="6" width="2.1" height="1.9" rx="0.4" fill="#FFFFFF" opacity="0.6"/><rect x="6.7" y="6" width="2.1" height="1.9" rx="0.4" fill="#FFFFFF" opacity="0.6"/><rect x="9.15" y="6" width="2.1" height="1.9" rx="0.4" fill="#FFFFFF" opacity="0.6"/><rect x="11.6" y="6" width="2.1" height="1.9" rx="0.4" fill="#FFFFFF" opacity="0.6"/><rect x="14.05" y="6" width="2.1" height="1.9" rx="0.4" fill="#FFFFFF" opacity="0.6"/><rect x="16.5" y="6" width="2.1" height="1.9" rx="0.4" fill="#FFFFFF" opacity="0.6"/><rect x="18.95" y="6" width="2.1" height="1.9" rx="0.4" fill="#FFFFFF" opacity="0.6"/><rect x="21.4" y="6" width="2.1" height="1.9" rx="0.4" fill="#FFFFFF" opacity="0.6"/><rect x="23.85" y="6" width="2.1" height="1.9" rx="0.4" fill="#FFFFFF" opacity="0.6"/><rect x="26.3" y="6" width="2.1" height="1.9" rx="0.4" fill="#FFFFFF" opacity="0.6"/><rect x="28.75" y="6" width="2.1" height="1.9" rx="0.4" fill="#FFFFFF" opacity="0.6"/><rect x="1.8" y="8.3" width="2.1" height="1.9" rx="0.4" fill="#FFFFFF" opacity="0.6"/><rect x="4.25" y="8.3" width="2.1" height="1.9" rx="0.4" fill="#FFFFFF" opacity="0.6"/><rect x="6.7" y="8.3" width="2.1" height="1.9" rx="0.4" fill="#FFFFFF" opacity="0.6"/><rect x="9.15" y="8.3" width="2.1" height="1.9" rx="0.4" fill="#FFFFFF" opacity="0.6"/><rect x="11.6" y="8.3" width="2.1" height="1.9" rx="0.4" fill="#FFFFFF" opacity="0.6"/><rect x="14.05" y="8.3" width="2.1" height="1.9" rx="0.4" fill="#FFFFFF" opacity="0.6"/><rect x="16.5" y="8.3" width="2.1" height="1.9" rx="0.4" fill="#FFFFFF" opacity="0.6"/><rect x="18.95" y="8.3" width="2.1" height="1.9" rx="0.4" fill="#FFFFFF" opacity="0.6"/><rect x="21.4" y="8.3" width="2.1" height="1.9" rx="0.4" fill="#FFFFFF" opacity="0.6"/><rect x="23.85" y="8.3" width="2.1" height="1.9" rx="0.4" fill="#FFFFFF" opacity="0.6"/><rect x="26.3" y="8.3" width="2.1" height="1.9" rx="0.4" fill="#FFFFFF" opacity="0.6"/><rect x="28.75" y="8.3" width="2.1" height="1.9" rx="0.4" fill="#FFFFFF" opacity="0.6"/></g></g><path d="M56.45 428.75 L181.46 441.16 L146.27 464.89 L21.26 452.47 Z" fill="url(#tp-neurips-shadow-18)"/><path d="M49.9 427.74 L155.7 432.08 L143.83 451.48 L38.03 447.14 Z" fill="#5a413c" stroke="#0F172A33"/><path d="M49.9 425.59 L155.7 429.92 L143.83 449.32 L38.03 444.98 Z" fill="#ece8e0"/><path d="M76.42 444.09 L134.22 442.78 L134.65 444.05 L76.85 445.36 Z" fill="#111620"/><rect width="800" height="600" fill="url(#tp-neurips-warm-19)"/><rect width="800" height="600" fill="url(#tp-neurips-vignette-20)"/></svg>