<svg xmlns="http://www.w3.org/2000/svg" width="800" height="600" viewBox="0 0 800 600" role="img" aria-label="Deutsches Gutachten template preview" data-template-id="posudok-de"><defs><linearGradient id="tp-posudok-de-wall-1" x1="0" y1="0" x2="0.35" y2="1"><stop offset="0" stop-color="#efece5"/><stop offset="0.62" stop-color="#ebe7de"/><stop offset="1" stop-color="#bfb6ab"/></linearGradient><linearGradient id="tp-posudok-de-window-2" x1="0" y1="0" x2="0" y2="1"><stop offset="0" stop-color="#FFFCF2"/><stop offset="1" stop-color="#FFEFD2"/></linearGradient><linearGradient id="tp-posudok-de-desk-3" x1="0" y1="0" x2="0.15" y2="1"><stop offset="0" stop-color="#dfc29b"/><stop offset="0.55" stop-color="#cfa368"/><stop offset="1" stop-color="#ae8957"/></linearGradient><clipPath id="tp-posudok-de-grain-4"><path d="M160.76 368.6 L744.13 426.56 L619.37 510.68 L36 452.72 Z"/></clipPath><radialGradient id="tp-posudok-de-shadow-5" cx="0.5" cy="0.5" r="0.5"><stop offset="0" stop-color="#22160A" stop-opacity="0.26"/><stop offset="0.6" stop-color="#22160A" stop-opacity="0.13"/><stop offset="1" stop-color="#22160A" stop-opacity="0"/></radialGradient><clipPath id="tp-posudok-de-board-6"><path d="M248.87 72.92 L426.43 84.37 L426.43 334.37 L248.87 322.91 Z"/></clipPath><radialGradient id="tp-posudok-de-shadow-7" cx="0.5" cy="0.5" r="0.5"><stop offset="0" stop-color="#22160A" stop-opacity="0.24"/><stop offset="0.6" stop-color="#22160A" stop-opacity="0.12"/><stop offset="1" stop-color="#22160A" stop-opacity="0"/></radialGradient><radialGradient id="tp-posudok-de-shadow-8" cx="0.5" cy="0.5" r="0.5"><stop offset="0" stop-color="#22160A" stop-opacity="0.22"/><stop offset="0.6" stop-color="#22160A" stop-opacity="0.11"/><stop offset="1" stop-color="#22160A" stop-opacity="0"/></radialGradient><radialGradient id="tp-posudok-de-shadow-9" cx="0.5" cy="0.5" r="0.5"><stop offset="0" stop-color="#22160A" stop-opacity="0.2"/><stop offset="0.6" stop-color="#22160A" stop-opacity="0.1"/><stop offset="1" stop-color="#22160A" stop-opacity="0"/></radialGradient><clipPath id="tp-posudok-de-keys-10"><path d="M588.67 421.67 L675.58 441.22 L645.71 450.11 L558.8 430.56 Z"/></clipPath><clipPath id="tp-posudok-de-screen-11"><path d="M606.87 344.1 L703.88 365.93 L695.65 437.16 L598.63 415.34 Z"/></clipPath><linearGradient id="tp-posudok-de-page-12" x1="0" y1="1" x2="1" y2="0"><stop offset="0" stop-color="#FFFFFF"/><stop offset="1" stop-color="#ececee"/></linearGradient><clipPath id="tp-posudok-de-sheet-13"><path d="M166.21 427.25 L248.19 439.01 L183.92 469.02 L101.94 457.26 Z"/></clipPath><linearGradient id="tp-posudok-de-page-14" x1="0" y1="1" x2="1" y2="0"><stop offset="0" stop-color="#FFFFFF"/><stop offset="1" stop-color="#ececee"/></linearGradient><clipPath id="tp-posudok-de-sheet-15"><path d="M431.49 459.02 L523.18 464.07 L495.61 497.63 L403.93 492.58 Z"/></clipPath><radialGradient id="tp-posudok-de-shadow-16" cx="0.5" cy="0.5" r="0.5"><stop offset="0" stop-color="#22160A" stop-opacity="0.2"/><stop offset="0.6" stop-color="#22160A" stop-opacity="0.1"/><stop offset="1" stop-color="#22160A" stop-opacity="0"/></radialGradient><clipPath id="tp-posudok-de-keys-17"><path d="M289 432.4 L420.47 446.84 L399.54 459.6 L268.07 445.16 Z"/></clipPath><radialGradient id="tp-posudok-de-shadow-18" cx="0.5" cy="0.5" r="0.5"><stop offset="0" stop-color="#22160A" stop-opacity="0.22"/><stop offset="0.6" stop-color="#22160A" stop-opacity="0.11"/><stop offset="1" stop-color="#22160A" stop-opacity="0"/></radialGradient><linearGradient id="tp-posudok-de-warm-19" x1="0" y1="0" x2="0.7" y2="1"><stop offset="0" stop-color="#FFF4DC" stop-opacity="0.42"/><stop offset="0.45" stop-color="#FFF4DC" stop-opacity="0.1"/><stop offset="1" stop-color="#3B2410" stop-opacity="0.14"/></linearGradient><radialGradient id="tp-posudok-de-vignette-20" cx="0.45" cy="0.42" r="0.8"><stop offset="0.55" stop-color="#000000" stop-opacity="0"/><stop offset="1" stop-color="#000000" stop-opacity="0.28"/></radialGradient></defs><path d="M147.29 364.79 L764 426.06 L764 46.66 L147.29 -14.61 Z" fill="url(#tp-posudok-de-wall-1)"/><path d="M192.49 255.95 L359.17 272.51 L359.17 75.23 L192.49 58.67 Z" fill="url(#tp-posudok-de-window-2)"/><rect x="274.13" y="58.67" width="3.4" height="197.28" fill="#FFFFFF" opacity="0.72"/><rect x="192.49" y="157.31" width="166.68" height="2.6" fill="#FFFFFF" opacity="0.55"/><path d="M513.98 230.49 L755.67 254.5 L744.47 262.05 L502.79 238.04 Z" fill="#c7a684"/><path d="M502.79 248.39 L744.47 272.4 L744.47 262.05 L502.79 238.04 Z" fill="#8d6a48"/><path d="M518.49 237.13 L532.66 238.53 L532.66 180.33 L518.49 178.92 Z" fill="#0f6864"/><path d="M532.66 238.53 L529.46 240.69 L529.46 182.49 L532.66 180.33 Z" fill="#0b4b48"/><path d="M537.66 239.03 L547.66 240.02 L547.66 168.89 L537.66 167.89 Z" fill="#51251a"/><path d="M547.66 240.02 L544.46 242.18 L544.46 171.04 L547.66 168.89 Z" fill="#3a1b13"/><path d="M552.66 240.52 L564.74 241.72 L564.74 183.52 L552.66 182.32 Z" fill="#1c4aca"/><path d="M564.74 241.72 L561.54 243.88 L561.54 185.67 L564.74 183.52 Z" fill="#143591"/><path d="M569.74 242.22 L583.91 243.62 L583.91 172.49 L569.74 171.08 Z" fill="#753d20"/><path d="M583.91 243.62 L580.71 245.78 L580.71 174.65 L583.91 172.49 Z" fill="#542c17"/><path d="M588.91 244.12 L598.91 245.12 L598.91 186.91 L588.91 185.92 Z" fill="#144d62"/><path d="M598.91 245.12 L595.71 247.27 L595.71 189.07 L598.91 186.91 Z" fill="#0e3747"/><path d="M603.91 245.61 L615.99 246.81 L615.99 175.68 L603.91 174.48 Z" fill="#451c88"/><path d="M615.99 246.81 L612.79 248.97 L612.79 177.83 L615.99 175.68 Z" fill="#321462"/><path d="M620.99 247.31 L635.16 248.72 L635.16 190.51 L620.99 189.11 Z" fill="#045250"/><path d="M635.16 248.72 L631.96 250.87 L631.96 192.67 L635.16 190.51 Z" fill="#033b3a"/><path d="M640.16 249.21 L650.16 250.21 L650.16 179.07 L640.16 178.08 Z" fill="#75482a"/><path d="M650.16 250.21 L646.96 252.36 L646.96 181.23 L650.16 179.07 Z" fill="#54341e"/><path d="M655.16 250.7 L667.25 251.9 L667.25 193.7 L655.16 192.5 Z" fill="#0f6864"/><path d="M667.25 251.9 L664.05 254.06 L664.05 195.86 L667.25 193.7 Z" fill="#0b4b48"/><path d="M672.25 252.4 L686.41 253.81 L686.41 182.67 L672.25 181.26 Z" fill="#51251a"/><path d="M686.41 253.81 L683.22 255.97 L683.22 184.83 L686.41 182.67 Z" fill="#3a1b13"/><path d="M691.41 254.31 L701.42 255.3 L701.42 197.1 L691.41 196.1 Z" fill="#1c4aca"/><path d="M701.42 255.3 L698.22 257.46 L698.22 199.25 L701.42 197.1 Z" fill="#143591"/><path d="M706.42 255.8 L718.5 257 L718.5 185.86 L706.42 184.66 Z" fill="#753d20"/><path d="M718.5 257 L715.3 259.15 L715.3 188.02 L718.5 185.86 Z" fill="#542c17"/><path d="M513.98 158.41 L755.67 182.42 L744.47 189.97 L502.79 165.96 Z" fill="#c7a684"/><path d="M502.79 176.3 L744.47 200.31 L744.47 189.97 L502.79 165.96 Z" fill="#8d6a48"/><path d="M529.05 161.14 L599.89 168.18 L591.89 173.57 L521.05 166.53 Z" fill="#0f6864"/><path d="M612.39 169.42 L666.56 174.8 L658.56 180.19 L604.39 174.81 Z" fill="#8e6048"/><path d="M160.76 368.6 L744.13 426.56 L619.37 510.68 L36 452.72 Z" fill="url(#tp-posudok-de-desk-3)"/><path d="M36 482.9 L619.37 540.86 L619.37 510.68 L36 452.72 Z" fill="#806540"/><path d="M619.37 540.86 L744.13 456.74 L744.13 426.56 L619.37 510.68 Z" fill="#95754b"/><g clip-path="url(#tp-posudok-de-grain-4)"><g transform="matrix(4.17 0.41 -1.6 1.08 160.76 368.6)"><rect x="24" y="9.75" width="92" height="0.6" fill="#8A5A2B" opacity="0.13"/><rect x="6" y="19.5" width="118" height="0.6" fill="#8A5A2B" opacity="0.13"/><rect x="24" y="29.25" width="92" height="0.6" fill="#8A5A2B" opacity="0.13"/><rect x="6" y="39" width="118" height="0.6" fill="#8A5A2B" opacity="0.13"/><rect x="24" y="48.75" width="92" height="0.6" fill="#8A5A2B" opacity="0.13"/><rect x="6" y="58.5" width="118" height="0.6" fill="#8A5A2B" opacity="0.13"/><rect x="24" y="68.25" width="92" height="0.6" fill="#8A5A2B" opacity="0.13"/></g></g><path d="M259.02 393.95 L257.6 73.98 L269.52 73.67 L270.94 393.65 Z" fill="#a77647"/><path d="M392.23 407.19 L393.64 87.49 L405.56 87.19 L404.15 406.89 Z" fill="#744e2e"/><path d="M331.56 393.98 L331.56 41.81 L351.57 43.8 L351.57 395.97 Z" fill="#865e39"/><path d="M221.77 386.17 L517.79 415.58 L479.4 441.47 L183.38 412.06 Z" fill="url(#tp-posudok-de-shadow-5)"/><path d="M434.87 77.31 L437.67 74.39 L437.67 339.04 L434.87 341.96 Z" fill="#0F172A24"/><path d="M241.9 64.84 L434.19 77.25 L434.19 341.9 L241.9 329.49 Z" fill="#f6f8fa" stroke="#0F172A24"/><g clip-path="url(#tp-posudok-de-board-6)"><g transform="matrix(0.55 0.04 0 0.55 248.87 72.92)"><rect width="320" height="452.57" fill="#FFFFFF"/><rect x="0.5" y="0.5" width="319" height="451.57" fill="none" stroke="#0F172A1f"/><rect x="24" y="24" width="272" height="3.17" fill="#003366"/><rect x="24" y="36.45" width="157.76" height="7.47" rx="3.73" fill="#0F172A" opacity="0.88"/><rect x="219.84" y="37.69" width="76.16" height="4.98" rx="2.49" fill="#0F172A" opacity="0.4"/><rect x="24" y="63.83" width="272" height="14.93" fill="#003366"/><rect x="94.72" y="67.9" width="130.56" height="5.7" rx="2.85" fill="#FFFFFF" opacity="0.95"/><rect x="24" y="89.62" width="70.72" height="3.14" rx="1.57" fill="#0F172A8c" opacity="1"/><rect x="102.88" y="89.62" width="114.24" height="3.14" rx="1.57" fill="#0F172A" opacity="0.8"/><rect x="24" y="97.09" width="92.48" height="3.14" rx="1.57" fill="#0F172A8c" opacity="1"/><rect x="124.64" y="97.09" width="163.2" height="3.14" rx="1.57" fill="#0F172A" opacity="0.8"/><rect x="24" y="104.56" width="70.72" height="3.14" rx="1.57" fill="#0F172A8c" opacity="1"/><rect x="102.88" y="104.56" width="114.24" height="3.14" rx="1.57" fill="#0F172A" opacity="0.8"/><rect x="24" y="112.03" width="70.72" height="3.14" rx="1.57" fill="#0F172A8c" opacity="1"/><rect x="102.88" y="112.03" width="114.24" height="3.14" rx="1.57" fill="#0F172A" opacity="0.8"/><rect x="24" y="127.64" width="127.57" height="2.99" rx="1.49" fill="#0F172A99" opacity="1"/><rect x="212.77" y="127.64" width="19.58" height="2.99" rx="1.49" fill="#0F172A99" opacity="1"/><rect x="244.86" y="127.64" width="17.95" height="2.99" rx="1.49" fill="#0F172A99" opacity="1"/><rect x="274.24" y="127.64" width="16.32" height="2.99" rx="1.49" fill="#0F172A99" opacity="1"/><rect x="24" y="133.24" width="272" height="1.2" fill="#0F172A47"/><rect x="24" y="135.85" width="142.15" height="2.84" rx="1.42" fill="#0F172Abf" opacity="1"/><rect x="214.4" y="135.85" width="16.32" height="2.54" rx="1.27" fill="#0F172A66" opacity="1"/><rect x="246.36" y="135.85" width="14.96" height="2.54" rx="1.27" fill="#0F172A66" opacity="1"/><rect x="268.8" y="135.26" width="11.97" height="4.63" fill="#003366"/><text x="274.78" y="138.09" font-size="6" text-anchor="middle" font-family="Times New Roman, serif" fill="#FFFFFF">A</text><rect x="24" y="142.2" width="272" height="1" fill="#0F172A33"/><rect x="24" y="143.69" width="112.99" height="2.84" rx="1.42" fill="#0F172Abf" opacity="1"/><rect x="214.4" y="143.69" width="16.32" height="2.54" rx="1.27" fill="#0F172A66" opacity="1"/><rect x="246.36" y="143.69" width="14.96" height="2.54" rx="1.27" fill="#0F172A66" opacity="1"/><rect x="268.8" y="143.1" width="11.97" height="4.63" fill="#003366"/><text x="274.78" y="145.93" font-size="6" text-anchor="middle" font-family="Times New Roman, serif" fill="#FFFFFF">B</text><rect x="24" y="150.04" width="272" height="1" fill="#0F172A33"/><rect x="24" y="151.53" width="142.15" height="2.84" rx="1.42" fill="#0F172Abf" opacity="1"/><rect x="214.4" y="151.53" width="16.32" height="2.54" rx="1.27" fill="#0F172A66" opacity="1"/><rect x="246.36" y="151.53" width="14.96" height="2.54" rx="1.27" fill="#0F172A66" opacity="1"/><rect x="268.8" y="150.94" width="11.97" height="4.63" fill="#003366"/><text x="274.78" y="153.77" font-size="6" text-anchor="middle" font-family="Times New Roman, serif" fill="#FFFFFF">A</text><rect x="24" y="157.88" width="272" height="1" fill="#0F172A33"/><rect x="24" y="159.38" width="112.99" height="2.84" rx="1.42" fill="#0F172Abf" opacity="1"/><rect x="214.4" y="159.38" width="16.32" height="2.54" rx="1.27" fill="#0F172A66" opacity="1"/><rect x="246.36" y="159.38" width="14.96" height="2.54" rx="1.27" fill="#0F172A66" opacity="1"/><rect x="268.8" y="158.78" width="11.97" height="4.63" fill="#003366"/><text x="274.78" y="161.62" font-size="6" text-anchor="middle" font-family="Times New Roman, serif" fill="#FFFFFF">B</text><rect x="24" y="165.72" width="272" height="1" fill="#0F172A33"/><rect x="24" y="167.22" width="142.15" height="2.84" rx="1.42" fill="#0F172Abf" opacity="1"/><rect x="214.4" y="167.22" width="16.32" height="2.54" rx="1.27" fill="#0F172A66" opacity="1"/><rect x="246.36" y="167.22" width="14.96" height="2.54" rx="1.27" fill="#0F172A66" opacity="1"/><rect x="268.8" y="166.62" width="11.97" height="4.63" fill="#003366"/><text x="274.78" y="169.46" font-size="6" text-anchor="middle" font-family="Times New Roman, serif" fill="#FFFFFF">B</text><rect x="24" y="180.49" width="272" height="1.2" fill="#0F172A47"/><rect x="24" y="185.92" width="119.68" height="2.54" rx="1.27" fill="#0F172A80" opacity="1"/><rect x="149.12" y="185.92" width="48.96" height="2.54" rx="1.27" fill="#003366" opacity="0.85"/><rect x="24" y="198.55" width="119.68" height="5.54" rx="2.77" fill="#0F172A80" opacity="1"/><rect x="24" y="206.37" width="141.44" height="5.54" rx="2.77" fill="#0F172A59" opacity="1"/><rect x="24" y="225.93" width="92.48" height="4.08" rx="2.04" fill="#0F172Acc" opacity="1"/><rect x="24" y="236.24" width="261.12" height="2.67" rx="1.33" fill="#0F172A4d" opacity="1"/><rect x="24" y="241.62" width="239.36" height="2.67" rx="1.33" fill="#0F172A4d" opacity="1"/><rect x="24" y="246.99" width="252.96" height="2.67" rx="1.33" fill="#0F172A4d" opacity="1"/><rect x="24" y="252.37" width="190.4" height="2.67" rx="1.33" fill="#0F172A4d" opacity="1"/><rect x="24" y="260.59" width="92.48" height="4.08" rx="2.04" fill="#0F172Acc" opacity="1"/><rect x="24" y="270.91" width="261.12" height="2.67" rx="1.33" fill="#0F172A4d" opacity="1"/><rect x="24" y="276.29" width="239.36" height="2.67" rx="1.33" fill="#0F172A4d" opacity="1"/><rect x="24" y="281.66" width="252.96" height="2.67" rx="1.33" fill="#0F172A4d" opacity="1"/><rect x="24" y="287.03" width="190.4" height="2.67" rx="1.33" fill="#0F172A4d" opacity="1"/><rect x="24" y="292.41" width="261.12" height="2.67" rx="1.33" fill="#0F172A4d" opacity="1"/><rect x="24" y="300.63" width="92.48" height="4.08" rx="2.04" fill="#0F172Acc" opacity="1"/><rect x="29.44" y="310.95" width="212.16" height="2.67" rx="1.33" fill="#0F172A4d" opacity="1"/><rect x="29.44" y="316.54" width="179.52" height="2.67" rx="1.33" fill="#0F172A4d" opacity="1"/><rect x="29.44" y="322.13" width="212.16" height="2.67" rx="1.33" fill="#0F172A4d" opacity="1"/><rect x="24" y="347.11" width="272" height="52.05" fill="#0F172A0d" stroke="#0F172A29"/><rect x="29.43" y="355.44" width="87.04" height="4.08" rx="2.04" fill="#0F172Acc" opacity="1"/><rect x="29.43" y="368.97" width="125.12" height="2.58" rx="1.29" fill="#0F172A59" opacity="1"/><rect x="29.43" y="379.38" width="103.36" height="2.58" rx="1.29" fill="#0F172A47" opacity="1"/><rect x="236.17" y="359.6" width="54.4" height="3.01" rx="1.5" fill="#003366" opacity="0.9"/><rect x="236.16" y="376.34" width="59.84" height="4.64" rx="2.32" fill="#0F172A80" opacity="1"/><rect x="236.16" y="383.46" width="59.84" height="4.64" rx="2.32" fill="#0F172A59" opacity="1"/><rect x="24" y="408.21" width="119.68" height="1" fill="#0F172A99"/><rect x="219.84" y="408.21" width="76.16" height="1" fill="#0F172A99"/><rect x="24" y="411.83" width="59.84" height="2.24" rx="1.12" fill="#0F172A59" opacity="1"/></g></g><circle cx="259.7" cy="64.19" r="2.6" fill="#003366eb"/><circle cx="415.11" cy="79.63" r="2.6" fill="#003366eb"/><path d="M233.31 330.24 L429.99 349.78 L436.39 345.47 L239.71 325.93 Z" fill="#b9916c"/><path d="M233.31 340.16 L429.99 359.7 L429.99 349.78 L233.31 330.24 Z" fill="#744e2e"/><path d="M661.04 421.45 L750.75 430.36 L718.96 451.79 L629.26 442.88 Z" fill="url(#tp-posudok-de-shadow-7)"/><path d="M669.22 431.49 L703.72 434.92 L703.72 403.19 L669.22 399.76 Z" fill="#b0765b"/><path d="M675.18 395.74 L709.68 399.17 L697.76 407.2 L663.26 403.78 Z" fill="#8d5e49"/><path d="M686.47 401.47 Q661.67 384.15 650.86 374.83 Q675.67 384.15 686.47 401.47" fill="#26533f" opacity="0.96"/><path d="M686.47 401.47 Q663.58 376.79 654.68 360.11 Q677.58 376.79 686.47 401.47" fill="#326e54" opacity="0.96"/><path d="M686.47 401.47 Q668.97 370.16 665.47 346.84 Q682.97 370.16 686.47 401.47" fill="#26533f" opacity="0.96"/><path d="M686.47 401.47 Q677.69 365.57 682.9 337.68 Q691.69 365.57 686.47 401.47" fill="#326e54" opacity="0.96"/><path d="M686.47 401.47 Q684.42 378.94 696.38 364.4 Q698.42 378.94 686.47 401.47" fill="#26533f" opacity="0.96"/><path d="M686.47 401.47 Q692.72 379.13 712.98 364.8 Q706.72 379.13 686.47 401.47" fill="#326e54" opacity="0.96"/><path d="M686.47 401.47 Q701.78 382.64 731.1 371.82 Q715.78 382.64 686.47 401.47" fill="#26533f" opacity="0.96"/><path d="M159.47 412.18 L209.05 417.11 L190.02 429.95 L140.43 425.02 Z" fill="url(#tp-posudok-de-shadow-8)"/><path d="M157.2 417.74 L186.37 420.64 L186.37 393.91 L157.2 391.01 Z" fill="#888c93"/><path d="M162.8 387.24 L191.97 390.14 L180.77 397.68 L151.6 394.79 Z" fill="#b8babe"/><path d="M163.93 389.04 L185.8 391.21 L179.65 395.36 L157.77 393.19 Z" fill="#4A2C16"/><path d="M174.26 406.53 q10 -3 10 4.5 q0 6.5 -10 3" fill="none" stroke="#888c93" stroke-width="2.4"/><path d="M562.46 421.08 L724.97 437.22 L672.76 472.42 L510.25 456.28 Z" fill="url(#tp-posudok-de-shadow-9)"/><path d="M596.61 414.88 L697.67 437.62 L637.93 455.4 L536.87 432.67 Z" fill="#949aa5"/><path d="M536.87 432.67 L637.93 455.4 L637.93 461.44 L536.87 438.7 Z" fill="#565960"/><path d="M588.67 421.67 L675.58 441.22 L645.71 450.11 L558.8 430.56 Z" fill="#737881"/><g clip-path="url(#tp-posudok-de-keys-10)"><g transform="matrix(3.37 0.76 -2.93 0.87 588.67 421.67)"><rect x="1.8" y="0.61" width="26.4" height="1.22" rx="0.24" fill="#FFFFFF" opacity="0.22"/><rect x="1.8" y="2.65" width="26.4" height="1.22" rx="0.24" fill="#FFFFFF" opacity="0.22"/><rect x="1.8" y="4.69" width="26.4" height="1.22" rx="0.24" fill="#FFFFFF" opacity="0.22"/><rect x="1.8" y="6.73" width="26.4" height="1.22" rx="0.24" fill="#FFFFFF" opacity="0.22"/><rect x="1.8" y="8.77" width="26.4" height="1.22" rx="0.24" fill="#FFFFFF" opacity="0.22"/></g></g><path d="M608.8 436.02 L639.12 442.84 L624.78 447.11 L594.47 440.29 Z" fill="#a7acb5"/><path d="M607.35 343.78 L704.36 365.6 L696.13 436.84 L599.11 415.01 Z" fill="#0b101d"/><g clip-path="url(#tp-posudok-de-screen-11)"><g transform="matrix(0.3 0.07 -0.05 0.4 606.87 344.1)"><defs><linearGradient id="neutral-screen-320" x1="0" y1="0" x2="0.6" y2="1"><stop offset="0" stop-color="#090e19"/><stop offset="1" stop-color="#1d2537"/></linearGradient></defs><rect width="320" height="180" fill="url(#neutral-screen-320)"/><rect x="19.2" y="21.6" width="96" height="10.8" rx="3.6" fill="#00336680"/><rect x="19.2" y="43.2" width="134.4" height="6.3" rx="2.7" fill="#FFFFFF" opacity="0.45"/><rect x="19.2" y="61.2" width="108.8" height="6.3" rx="2.7" fill="#FFFFFF" opacity="0.26"/><rect x="19.2" y="79.2" width="83.2" height="6.3" rx="2.7" fill="#FFFFFF" opacity="0.18"/></g></g><path d="M168.46 431.55 L250.44 443.31 L186.17 473.32 L104.19 461.55 Z" fill="#2417082e"/><path d="M166.21 427.25 L248.19 439.01 L183.92 469.02 L101.94 457.26 Z" fill="url(#tp-posudok-de-page-12)" stroke="#0F172A1f"/><g clip-path="url(#tp-posudok-de-sheet-13)"><g transform="matrix(0.37 0.05 -0.21 0.1 166.21 427.25)"><rect width="220" height="311.14" fill="#FFFFFF"/><rect x="22" y="28" width="59.84" height="3.73" fill="#0F172A" opacity="0.3"/><rect x="22" y="40.45" width="151.36" height="8.71" rx="1.24" fill="#0F172A" opacity="0.78"/><rect x="22" y="54.45" width="105.6" height="5.6" rx="0.93" fill="#0F172A" opacity="0.38"/><rect x="22" y="66.9" width="35.2" height="1.87" fill="#003366d9"/><rect x="22" y="80.9" width="55.18" height="3.86" rx="1.93" fill="#0F172A" opacity="0.48"/><rect x="22" y="87.65" width="75.24" height="2.31" rx="1.16" fill="#0F172A" opacity="0.15"/><rect x="22" y="105.01" width="68.55" height="3.86" rx="1.93" fill="#0F172A" opacity="0.24"/><rect x="22" y="111.76" width="75.24" height="2.31" rx="1.16" fill="#0F172A" opacity="0.15"/><rect x="22" y="129.12" width="68.55" height="3.86" rx="1.93" fill="#0F172A" opacity="0.24"/><rect x="22" y="135.88" width="75.24" height="2.31" rx="1.16" fill="#0F172A" opacity="0.15"/><rect x="22" y="153.24" width="78.58" height="3.86" rx="1.93" fill="#0F172A" opacity="0.24"/><rect x="22" y="159.99" width="75.24" height="2.31" rx="1.16" fill="#0F172A" opacity="0.15"/><rect x="22" y="177.35" width="55.18" height="3.86" rx="1.93" fill="#0F172A" opacity="0.48"/><rect x="22" y="184.1" width="75.24" height="2.31" rx="1.16" fill="#0F172A" opacity="0.15"/><rect x="22" y="201.47" width="68.55" height="3.86" rx="1.93" fill="#0F172A" opacity="0.24"/><rect x="22" y="208.22" width="75.24" height="2.31" rx="1.16" fill="#0F172A" opacity="0.15"/><rect x="22" y="225.58" width="78.58" height="3.86" rx="1.93" fill="#0F172A" opacity="0.24"/><rect x="22" y="232.33" width="75.24" height="2.31" rx="1.16" fill="#0F172A" opacity="0.15"/><rect x="22" y="249.69" width="68.55" height="3.86" rx="1.93" fill="#0F172A" opacity="0.24"/><rect x="22" y="256.44" width="75.24" height="2.31" rx="1.16" fill="#0F172A" opacity="0.15"/><rect x="114.4" y="80.9" width="55.18" height="3.86" rx="1.93" fill="#0F172A" opacity="0.48"/><rect x="114.4" y="87.65" width="75.24" height="2.31" rx="1.16" fill="#0F172A" opacity="0.15"/><rect x="114.4" y="105.01" width="68.55" height="3.86" rx="1.93" fill="#0F172A" opacity="0.24"/><rect x="114.4" y="111.76" width="75.24" height="2.31" rx="1.16" fill="#0F172A" opacity="0.15"/><rect x="114.4" y="129.12" width="68.55" height="3.86" rx="1.93" fill="#0F172A" opacity="0.24"/><rect x="114.4" y="135.88" width="75.24" height="2.31" rx="1.16" fill="#0F172A" opacity="0.15"/><rect x="114.4" y="153.24" width="78.58" height="3.86" rx="1.93" fill="#0F172A" opacity="0.24"/><rect x="114.4" y="159.99" width="75.24" height="2.31" rx="1.16" fill="#0F172A" opacity="0.15"/><rect x="114.4" y="177.35" width="55.18" height="3.86" rx="1.93" fill="#0F172A" opacity="0.48"/><rect x="114.4" y="184.1" width="75.24" height="2.31" rx="1.16" fill="#0F172A" opacity="0.15"/><rect x="114.4" y="201.47" width="68.55" height="3.86" rx="1.93" fill="#0F172A" opacity="0.24"/><rect x="114.4" y="208.22" width="75.24" height="2.31" rx="1.16" fill="#0F172A" opacity="0.15"/><rect x="114.4" y="225.58" width="78.58" height="3.86" rx="1.93" fill="#0F172A" opacity="0.24"/><rect x="114.4" y="232.33" width="75.24" height="2.31" rx="1.16" fill="#0F172A" opacity="0.15"/><rect x="114.4" y="249.69" width="68.55" height="3.86" rx="1.93" fill="#0F172A" opacity="0.24"/><rect x="114.4" y="256.44" width="75.24" height="2.31" rx="1.16" fill="#0F172A" opacity="0.15"/></g></g><path d="M433.74 463.32 L525.42 468.36 L497.86 501.92 L406.18 496.88 Z" fill="#2417082e"/><path d="M431.49 459.02 L523.18 464.07 L495.61 497.63 L403.93 492.58 Z" fill="url(#tp-posudok-de-page-14)" stroke="#0F172A1f"/><g clip-path="url(#tp-posudok-de-sheet-15)"><g transform="matrix(0.42 0.02 -0.09 0.11 431.49 459.02)"><rect width="220" height="311.14" fill="#FFFFFF"/><rect x="22" y="28" width="59.84" height="3.73" fill="#0F172A" opacity="0.3"/><rect x="22" y="40.45" width="151.36" height="8.71" rx="1.24" fill="#0F172A" opacity="0.78"/><rect x="22" y="54.45" width="105.6" height="5.6" rx="0.93" fill="#0F172A" opacity="0.38"/><rect x="22" y="66.9" width="35.2" height="1.87" fill="#003366d9"/><rect x="22" y="80.9" width="55.18" height="3.86" rx="1.93" fill="#0F172A" opacity="0.48"/><rect x="22" y="87.65" width="75.24" height="2.31" rx="1.16" fill="#0F172A" opacity="0.15"/><rect x="22" y="105.01" width="68.55" height="3.86" rx="1.93" fill="#0F172A" opacity="0.24"/><rect x="22" y="111.76" width="75.24" height="2.31" rx="1.16" fill="#0F172A" opacity="0.15"/><rect x="22" y="129.12" width="68.55" height="3.86" rx="1.93" fill="#0F172A" opacity="0.24"/><rect x="22" y="135.88" width="75.24" height="2.31" rx="1.16" fill="#0F172A" opacity="0.15"/><rect x="22" y="153.24" width="78.58" height="3.86" rx="1.93" fill="#0F172A" opacity="0.24"/><rect x="22" y="159.99" width="75.24" height="2.31" rx="1.16" fill="#0F172A" opacity="0.15"/><rect x="22" y="177.35" width="55.18" height="3.86" rx="1.93" fill="#0F172A" opacity="0.48"/><rect x="22" y="184.1" width="75.24" height="2.31" rx="1.16" fill="#0F172A" opacity="0.15"/><rect x="22" y="201.47" width="68.55" height="3.86" rx="1.93" fill="#0F172A" opacity="0.24"/><rect x="22" y="208.22" width="75.24" height="2.31" rx="1.16" fill="#0F172A" opacity="0.15"/><rect x="22" y="225.58" width="78.58" height="3.86" rx="1.93" fill="#0F172A" opacity="0.24"/><rect x="22" y="232.33" width="75.24" height="2.31" rx="1.16" fill="#0F172A" opacity="0.15"/><rect x="22" y="249.69" width="68.55" height="3.86" rx="1.93" fill="#0F172A" opacity="0.24"/><rect x="22" y="256.44" width="75.24" height="2.31" rx="1.16" fill="#0F172A" opacity="0.15"/><rect x="114.4" y="80.9" width="55.18" height="3.86" rx="1.93" fill="#0F172A" opacity="0.48"/><rect x="114.4" y="87.65" width="75.24" height="2.31" rx="1.16" fill="#0F172A" opacity="0.15"/><rect x="114.4" y="105.01" width="68.55" height="3.86" rx="1.93" fill="#0F172A" opacity="0.24"/><rect x="114.4" y="111.76" width="75.24" height="2.31" rx="1.16" fill="#0F172A" opacity="0.15"/><rect x="114.4" y="129.12" width="68.55" height="3.86" rx="1.93" fill="#0F172A" opacity="0.24"/><rect x="114.4" y="135.88" width="75.24" height="2.31" rx="1.16" fill="#0F172A" opacity="0.15"/><rect x="114.4" y="153.24" width="78.58" height="3.86" rx="1.93" fill="#0F172A" opacity="0.24"/><rect x="114.4" y="159.99" width="75.24" height="2.31" rx="1.16" fill="#0F172A" opacity="0.15"/><rect x="114.4" y="177.35" width="55.18" height="3.86" rx="1.93" fill="#0F172A" opacity="0.48"/><rect x="114.4" y="184.1" width="75.24" height="2.31" rx="1.16" fill="#0F172A" opacity="0.15"/><rect x="114.4" y="201.47" width="68.55" height="3.86" rx="1.93" fill="#0F172A" opacity="0.24"/><rect x="114.4" y="208.22" width="75.24" height="2.31" rx="1.16" fill="#0F172A" opacity="0.15"/><rect x="114.4" y="225.58" width="78.58" height="3.86" rx="1.93" fill="#0F172A" opacity="0.24"/><rect x="114.4" y="232.33" width="75.24" height="2.31" rx="1.16" fill="#0F172A" opacity="0.15"/><rect x="114.4" y="249.69" width="68.55" height="3.86" rx="1.93" fill="#0F172A" opacity="0.24"/><rect x="114.4" y="256.44" width="75.24" height="2.31" rx="1.16" fill="#0F172A" opacity="0.15"/></g></g><path d="M279.82 435.96 L446.5 452.52 L417.71 471.93 L251.03 455.37 Z" fill="url(#tp-posudok-de-shadow-16)"/><path d="M289 432.4 L420.47 446.84 L399.54 459.6 L268.07 445.16 Z" fill="#dbdad8" stroke="#0F172A2e"/><g clip-path="url(#tp-posudok-de-keys-17)"><g transform="matrix(4.11 0.45 -1.74 1.06 289 432.4)"><rect x="1.8" y="1.4" width="2.1" height="1.9" rx="0.4" fill="#FFFFFF" opacity="0.6"/><rect x="4.25" y="1.4" width="2.1" height="1.9" rx="0.4" fill="#FFFFFF" opacity="0.6"/><rect x="6.7" y="1.4" width="2.1" height="1.9" rx="0.4" fill="#FFFFFF" opacity="0.6"/><rect x="9.15" y="1.4" width="2.1" height="1.9" rx="0.4" fill="#FFFFFF" opacity="0.6"/><rect x="11.6" y="1.4" width="2.1" height="1.9" rx="0.4" fill="#FFFFFF" opacity="0.6"/><rect x="14.05" y="1.4" width="2.1" height="1.9" rx="0.4" fill="#FFFFFF" opacity="0.6"/><rect x="16.5" y="1.4" width="2.1" height="1.9" rx="0.4" fill="#FFFFFF" opacity="0.6"/><rect x="18.95" y="1.4" width="2.1" height="1.9" rx="0.4" fill="#FFFFFF" opacity="0.6"/><rect x="21.4" y="1.4" width="2.1" height="1.9" rx="0.4" fill="#FFFFFF" opacity="0.6"/><rect x="23.85" y="1.4" width="2.1" height="1.9" rx="0.4" fill="#FFFFFF" opacity="0.6"/><rect x="26.3" y="1.4" width="2.1" height="1.9" rx="0.4" fill="#FFFFFF" opacity="0.6"/><rect x="28.75" y="1.4" width="2.1" height="1.9" rx="0.4" fill="#FFFFFF" opacity="0.6"/><rect x="1.8" y="3.7" width="2.1" height="1.9" rx="0.4" fill="#FFFFFF" opacity="0.6"/><rect x="4.25" y="3.7" width="2.1" height="1.9" rx="0.4" fill="#FFFFFF" opacity="0.6"/><rect x="6.7" y="3.7" width="2.1" height="1.9" rx="0.4" fill="#FFFFFF" opacity="0.6"/><rect x="9.15" y="3.7" width="2.1" height="1.9" rx="0.4" fill="#FFFFFF" opacity="0.6"/><rect x="11.6" y="3.7" width="2.1" height="1.9" rx="0.4" fill="#FFFFFF" opacity="0.6"/><rect x="14.05" y="3.7" width="2.1" height="1.9" rx="0.4" fill="#FFFFFF" opacity="0.6"/><rect x="16.5" y="3.7" width="2.1" height="1.9" rx="0.4" fill="#FFFFFF" opacity="0.6"/><rect x="18.95" y="3.7" width="2.1" height="1.9" rx="0.4" fill="#FFFFFF" opacity="0.6"/><rect x="21.4" y="3.7" width="2.1" height="1.9" rx="0.4" fill="#FFFFFF" opacity="0.6"/><rect x="23.85" y="3.7" width="2.1" height="1.9" rx="0.4" fill="#FFFFFF" opacity="0.6"/><rect x="26.3" y="3.7" width="2.1" height="1.9" rx="0.4" fill="#FFFFFF" opacity="0.6"/><rect x="28.75" y="3.7" width="2.1" height="1.9" rx="0.4" fill="#FFFFFF" opacity="0.6"/><rect x="1.8" y="6" width="2.1" height="1.9" rx="0.4" fill="#FFFFFF" opacity="0.6"/><rect x="4.25" y="6" width="2.1" height="1.9" rx="0.4" fill="#FFFFFF" opacity="0.6"/><rect x="6.7" y="6" width="2.1" height="1.9" rx="0.4" fill="#FFFFFF" opacity="0.6"/><rect x="9.15" y="6" width="2.1" height="1.9" rx="0.4" fill="#FFFFFF" opacity="0.6"/><rect x="11.6" y="6" width="2.1" height="1.9" rx="0.4" fill="#FFFFFF" opacity="0.6"/><rect x="14.05" y="6" width="2.1" height="1.9" rx="0.4" fill="#FFFFFF" opacity="0.6"/><rect x="16.5" y="6" width="2.1" height="1.9" rx="0.4" fill="#FFFFFF" opacity="0.6"/><rect x="18.95" y="6" width="2.1" height="1.9" rx="0.4" fill="#FFFFFF" opacity="0.6"/><rect x="21.4" y="6" width="2.1" height="1.9" rx="0.4" fill="#FFFFFF" opacity="0.6"/><rect x="23.85" y="6" width="2.1" height="1.9" rx="0.4" fill="#FFFFFF" opacity="0.6"/><rect x="26.3" y="6" width="2.1" height="1.9" rx="0.4" fill="#FFFFFF" opacity="0.6"/><rect x="28.75" y="6" width="2.1" height="1.9" rx="0.4" fill="#FFFFFF" opacity="0.6"/><rect x="1.8" y="8.3" width="2.1" height="1.9" rx="0.4" fill="#FFFFFF" opacity="0.6"/><rect x="4.25" y="8.3" width="2.1" height="1.9" rx="0.4" fill="#FFFFFF" opacity="0.6"/><rect x="6.7" y="8.3" width="2.1" height="1.9" rx="0.4" fill="#FFFFFF" opacity="0.6"/><rect x="9.15" y="8.3" width="2.1" height="1.9" rx="0.4" fill="#FFFFFF" opacity="0.6"/><rect x="11.6" y="8.3" width="2.1" height="1.9" rx="0.4" fill="#FFFFFF" opacity="0.6"/><rect x="14.05" y="8.3" width="2.1" height="1.9" rx="0.4" fill="#FFFFFF" opacity="0.6"/><rect x="16.5" y="8.3" width="2.1" height="1.9" rx="0.4" fill="#FFFFFF" opacity="0.6"/><rect x="18.95" y="8.3" width="2.1" height="1.9" rx="0.4" fill="#FFFFFF" opacity="0.6"/><rect x="21.4" y="8.3" width="2.1" height="1.9" rx="0.4" fill="#FFFFFF" opacity="0.6"/><rect x="23.85" y="8.3" width="2.1" height="1.9" rx="0.4" fill="#FFFFFF" opacity="0.6"/><rect x="26.3" y="8.3" width="2.1" height="1.9" rx="0.4" fill="#FFFFFF" opacity="0.6"/><rect x="28.75" y="8.3" width="2.1" height="1.9" rx="0.4" fill="#FFFFFF" opacity="0.6"/></g></g><path d="M56.45 428.75 L181.46 441.16 L146.27 464.89 L21.26 452.47 Z" fill="url(#tp-posudok-de-shadow-18)"/><path d="M49.9 427.74 L155.7 432.08 L143.83 451.48 L38.03 447.14 Z" fill="#5a413c" stroke="#0F172A33"/><path d="M49.9 425.59 L155.7 429.92 L143.83 449.32 L38.03 444.98 Z" fill="#ece8e0"/><path d="M76.42 444.09 L134.22 442.78 L134.65 444.05 L76.85 445.36 Z" fill="#05294d"/><rect width="800" height="600" fill="url(#tp-posudok-de-warm-19)"/><rect width="800" height="600" fill="url(#tp-posudok-de-vignette-20)"/></svg>