<svg xmlns="http://www.w3.org/2000/svg" width="320" height="452.57" viewBox="0 0 320 452.57" role="img" aria-label="posudok-pl template preview"><rect width="320" height="452.57" fill="#FFFFFF"/><rect x="0.5" y="0.5" width="319" height="451.57" fill="none" stroke="#0F172A1f"/><rect x="24" y="27.73" width="136" height="7.47" rx="3.73" fill="#0F172A" opacity="0.9"/><rect x="214.4" y="28.98" width="81.6" height="4.98" rx="2.49" fill="#0F172A" opacity="0.4"/><rect x="24" y="46.4" width="272" height="1.6" fill="#003366"/><rect x="24" y="63.83" width="272" height="1.81" fill="#003366"/><rect x="24" y="70.61" width="141.44" height="5.97" rx="2.99" fill="#0F172A" opacity="0.9"/><rect x="24" y="80.12" width="272" height="1.81" fill="#003366"/><rect x="24" y="89.62" width="70.72" height="3.14" rx="1.57" fill="#0F172A8c" opacity="1"/><rect x="102.88" y="89.62" width="114.24" height="3.14" rx="1.57" fill="#0F172A" opacity="0.8"/><rect x="24" y="97.09" width="92.48" height="3.14" rx="1.57" fill="#0F172A8c" opacity="1"/><rect x="124.64" y="97.09" width="163.2" height="3.14" rx="1.57" fill="#0F172A" opacity="0.8"/><rect x="24" y="104.56" width="70.72" height="3.14" rx="1.57" fill="#0F172A8c" opacity="1"/><rect x="102.88" y="104.56" width="114.24" height="3.14" rx="1.57" fill="#0F172A" opacity="0.8"/><rect x="24" y="112.03" width="70.72" height="3.14" rx="1.57" fill="#0F172A8c" opacity="1"/><rect x="102.88" y="112.03" width="114.24" height="3.14" rx="1.57" fill="#0F172A" opacity="0.8"/><rect x="24" y="127.64" width="127.57" height="2.99" rx="1.49" fill="#0F172A99" opacity="1"/><rect x="212.77" y="127.64" width="19.58" height="2.99" rx="1.49" fill="#0F172A99" opacity="1"/><rect x="244.86" y="127.64" width="17.95" height="2.99" rx="1.49" fill="#0F172A99" opacity="1"/><rect x="274.24" y="127.64" width="16.32" height="2.99" rx="1.49" fill="#0F172A99" opacity="1"/><rect x="24" y="133.24" width="272" height="1.2" fill="#0F172A47"/><rect x="24" y="135.85" width="142.15" height="2.84" rx="1.42" fill="#0F172Abf" opacity="1"/><rect x="214.4" y="135.85" width="16.32" height="2.54" rx="1.27" fill="#0F172A66" opacity="1"/><rect x="246.36" y="135.85" width="14.96" height="2.54" rx="1.27" fill="#0F172A66" opacity="1"/><circle cx="274.78" cy="137.57" r="2.31" fill="none" stroke="#0F172Ab3" stroke-width="1"/><text x="274.78" y="138.09" font-size="6" text-anchor="middle" font-family="Times New Roman, serif" fill="#0F172A">A</text><rect x="24" y="143.69" width="112.99" height="2.84" rx="1.42" fill="#0F172Abf" opacity="1"/><rect x="214.4" y="143.69" width="16.32" height="2.54" rx="1.27" fill="#0F172A66" opacity="1"/><rect x="246.36" y="143.69" width="14.96" height="2.54" rx="1.27" fill="#0F172A66" opacity="1"/><circle cx="274.78" cy="145.41" r="2.31" fill="none" stroke="#0F172Ab3" stroke-width="1"/><text x="274.78" y="145.93" font-size="6" text-anchor="middle" font-family="Times New Roman, serif" fill="#0F172A">B</text><rect x="24" y="151.53" width="142.15" height="2.84" rx="1.42" fill="#0F172Abf" opacity="1"/><rect x="214.4" y="151.53" width="16.32" height="2.54" rx="1.27" fill="#0F172A66" opacity="1"/><rect x="246.36" y="151.53" width="14.96" height="2.54" rx="1.27" fill="#0F172A66" opacity="1"/><circle cx="274.78" cy="153.25" r="2.31" fill="none" stroke="#0F172Ab3" stroke-width="1"/><text x="274.78" y="153.77" font-size="6" text-anchor="middle" font-family="Times New Roman, serif" fill="#0F172A">A</text><rect x="24" y="159.38" width="112.99" height="2.84" rx="1.42" fill="#0F172Abf" opacity="1"/><rect x="214.4" y="159.38" width="16.32" height="2.54" rx="1.27" fill="#0F172A66" opacity="1"/><rect x="246.36" y="159.38" width="14.96" height="2.54" rx="1.27" fill="#0F172A66" opacity="1"/><circle cx="274.78" cy="161.09" r="2.31" fill="none" stroke="#0F172Ab3" stroke-width="1"/><text x="274.78" y="161.62" font-size="6" text-anchor="middle" font-family="Times New Roman, serif" fill="#0F172A">A</text><rect x="24" y="167.22" width="142.15" height="2.84" rx="1.42" fill="#0F172Abf" opacity="1"/><rect x="214.4" y="167.22" width="16.32" height="2.54" rx="1.27" fill="#0F172A66" opacity="1"/><rect x="246.36" y="167.22" width="14.96" height="2.54" rx="1.27" fill="#0F172A66" opacity="1"/><circle cx="274.78" cy="168.93" r="2.31" fill="none" stroke="#0F172Ab3" stroke-width="1"/><text x="274.78" y="169.46" font-size="6" text-anchor="middle" font-family="Times New Roman, serif" fill="#0F172A">B</text><rect x="24" y="180.49" width="272" height="1.2" fill="#0F172A47"/><rect x="24" y="185.92" width="119.68" height="2.54" rx="1.27" fill="#0F172A80" opacity="1"/><rect x="149.12" y="185.92" width="48.96" height="2.54" rx="1.27" fill="#003366" opacity="0.85"/><rect x="24" y="199.04" width="81.6" height="6.52" rx="3.26" fill="#0F172Ab3" opacity="1"/><circle cx="127.35" cy="201.81" r="7.33" fill="none" stroke="#003366" stroke-width="1.8"/><text x="127.35" y="205.4" font-size="9.45" text-anchor="middle" font-family="Times New Roman, serif" fill="#0F172A">A</text><rect x="24" y="225.93" width="1.81" height="5.59" fill="#003366"/><rect x="28.53" y="225.93" width="92.48" height="4.08" rx="2.04" fill="#0F172Acc" opacity="1"/><rect x="24" y="236.24" width="261.12" height="2.67" rx="1.33" fill="#0F172A4d" opacity="1"/><rect x="24" y="241.62" width="239.36" height="2.67" rx="1.33" fill="#0F172A4d" opacity="1"/><rect x="24" y="246.99" width="252.96" height="2.67" rx="1.33" fill="#0F172A4d" opacity="1"/><rect x="24" y="252.37" width="190.4" height="2.67" rx="1.33" fill="#0F172A4d" opacity="1"/><rect x="24" y="260.59" width="1.81" height="5.59" fill="#003366"/><rect x="28.53" y="260.59" width="92.48" height="4.08" rx="2.04" fill="#0F172Acc" opacity="1"/><rect x="24" y="270.91" width="261.12" height="2.67" rx="1.33" fill="#0F172A4d" opacity="1"/><rect x="24" y="276.29" width="239.36" height="2.67" rx="1.33" fill="#0F172A4d" opacity="1"/><rect x="24" y="281.66" width="252.96" height="2.67" rx="1.33" fill="#0F172A4d" opacity="1"/><rect x="24" y="287.03" width="190.4" height="2.67" rx="1.33" fill="#0F172A4d" opacity="1"/><rect x="24" y="292.41" width="261.12" height="2.67" rx="1.33" fill="#0F172A4d" opacity="1"/><rect x="24" y="300.63" width="1.81" height="5.59" fill="#003366"/><rect x="28.53" y="300.63" width="92.48" height="4.08" rx="2.04" fill="#0F172Acc" opacity="1"/><rect x="29.44" y="310.95" width="212.16" height="2.67" rx="1.33" fill="#0F172A4d" opacity="1"/><rect x="29.44" y="316.54" width="179.52" height="2.67" rx="1.33" fill="#0F172A4d" opacity="1"/><rect x="29.44" y="322.13" width="212.16" height="2.67" rx="1.33" fill="#0F172A4d" opacity="1"/><rect x="24" y="347.11" width="272" height="52.05" fill="#0F172A0d" stroke="#0F172A29"/><rect x="29.43" y="355.44" width="87.04" height="4.08" rx="2.04" fill="#0F172Acc" opacity="1"/><rect x="29.43" y="368.97" width="125.12" height="2.58" rx="1.29" fill="#0F172A59" opacity="1"/><rect x="29.43" y="379.38" width="103.36" height="2.58" rx="1.29" fill="#0F172A47" opacity="1"/><rect x="236.17" y="359.6" width="54.4" height="3.01" rx="1.5" fill="#003366" opacity="0.9"/><circle cx="243.9" cy="380.67" r="6.97" fill="none" stroke="#003366" stroke-width="1.8"/><text x="243.9" y="384.08" font-size="8.98" text-anchor="middle" font-family="Times New Roman, serif" fill="#0F172A">A</text><rect x="24" y="408.21" width="119.68" height="1" fill="#0F172A99"/><rect x="219.84" y="408.21" width="76.16" height="1" fill="#0F172A99"/><rect x="24" y="411.83" width="59.84" height="2.24" rx="1.12" fill="#0F172A59" opacity="1"/></svg>