<svg xmlns="http://www.w3.org/2000/svg" width="800" height="600" viewBox="0 0 800 600" role="img" aria-label="Springer LLNCS template preview" data-template-id="springer-llncs"><defs><linearGradient id="tp-springer-llncs-wall-1" x1="0" y1="0" x2="0.35" y2="1"><stop offset="0" stop-color="#f0ebe3"/><stop offset="0.62" stop-color="#ece5db"/><stop offset="1" stop-color="#bfb6ab"/></linearGradient><linearGradient id="tp-springer-llncs-window-2" x1="0" y1="0" x2="0" y2="1"><stop offset="0" stop-color="#FFFCF2"/><stop offset="1" stop-color="#FFEFD2"/></linearGradient><linearGradient id="tp-springer-llncs-desk-3" x1="0" y1="0" x2="0.15" y2="1"><stop offset="0" stop-color="#e0c299"/><stop offset="0.55" stop-color="#d0a265"/><stop offset="1" stop-color="#af8855"/></linearGradient><clipPath id="tp-springer-llncs-grain-4"><path d="M133.54 378.69 L744.06 424 L646.52 512.04 L36 466.73 Z"/></clipPath><radialGradient id="tp-springer-llncs-shadow-5" cx="0.5" cy="0.5" r="0.5"><stop offset="0" stop-color="#22160A" stop-opacity="0.26"/><stop offset="0.6" stop-color="#22160A" stop-opacity="0.13"/><stop offset="1" stop-color="#22160A" stop-opacity="0"/></radialGradient><clipPath id="tp-springer-llncs-board-6"><path d="M230.71 76.05 L414.42 83.58 L414.42 337.67 L230.71 330.14 Z"/></clipPath><radialGradient id="tp-springer-llncs-shadow-7" cx="0.5" cy="0.5" r="0.5"><stop offset="0" stop-color="#22160A" stop-opacity="0.24"/><stop offset="0.6" stop-color="#22160A" stop-opacity="0.12"/><stop offset="1" stop-color="#22160A" stop-opacity="0"/></radialGradient><radialGradient id="tp-springer-llncs-shadow-8" cx="0.5" cy="0.5" r="0.5"><stop offset="0" stop-color="#22160A" stop-opacity="0.22"/><stop offset="0.6" stop-color="#22160A" stop-opacity="0.11"/><stop offset="1" stop-color="#22160A" stop-opacity="0"/></radialGradient><radialGradient id="tp-springer-llncs-shadow-9" cx="0.5" cy="0.5" r="0.5"><stop offset="0" stop-color="#22160A" stop-opacity="0.2"/><stop offset="0.6" stop-color="#22160A" stop-opacity="0.1"/><stop offset="1" stop-color="#22160A" stop-opacity="0"/></radialGradient><clipPath id="tp-springer-llncs-keys-10"><path d="M587.18 422.58 L681.87 440.39 L654.68 450.08 L559.98 432.27 Z"/></clipPath><clipPath id="tp-springer-llncs-screen-11"><path d="M602.46 343.37 L708.16 363.24 L700.66 435.82 L594.95 415.95 Z"/></clipPath><linearGradient id="tp-springer-llncs-page-12" x1="0" y1="1" x2="1" y2="0"><stop offset="0" stop-color="#FFFFFF"/><stop offset="1" stop-color="#ececee"/></linearGradient><clipPath id="tp-springer-llncs-sheet-13"><path d="M156.41 433.97 L260.02 445.9 L194.81 483.82 L91.2 471.88 Z"/></clipPath><linearGradient id="tp-springer-llncs-page-14" x1="0" y1="1" x2="1" y2="0"><stop offset="0" stop-color="#FFFFFF"/><stop offset="1" stop-color="#ececee"/></linearGradient><clipPath id="tp-springer-llncs-sheet-15"><path d="M441.16 464.93 L531.22 467.79 L515.58 500.75 L425.52 497.89 Z"/></clipPath><radialGradient id="tp-springer-llncs-shadow-16" cx="0.5" cy="0.5" r="0.5"><stop offset="0" stop-color="#22160A" stop-opacity="0.2"/><stop offset="0.6" stop-color="#22160A" stop-opacity="0.1"/><stop offset="1" stop-color="#22160A" stop-opacity="0"/></radialGradient><clipPath id="tp-springer-llncs-keys-17"><path d="M286.99 440.33 L425.05 451.94 L408.23 465.34 L270.16 453.73 Z"/></clipPath><radialGradient id="tp-springer-llncs-shadow-18" cx="0.5" cy="0.5" r="0.5"><stop offset="0" stop-color="#22160A" stop-opacity="0.22"/><stop offset="0.6" stop-color="#22160A" stop-opacity="0.11"/><stop offset="1" stop-color="#22160A" stop-opacity="0"/></radialGradient><linearGradient id="tp-springer-llncs-warm-19" x1="0" y1="0" x2="0.7" y2="1"><stop offset="0" stop-color="#FFF4DC" stop-opacity="0.42"/><stop offset="0.45" stop-color="#FFF4DC" stop-opacity="0.1"/><stop offset="1" stop-color="#3B2410" stop-opacity="0.14"/></linearGradient><radialGradient id="tp-springer-llncs-vignette-20" cx="0.45" cy="0.42" r="0.8"><stop offset="0.55" stop-color="#000000" stop-opacity="0"/><stop offset="1" stop-color="#000000" stop-opacity="0.28"/></radialGradient></defs><path d="M118.59 375.14 L764 423.04 L764 37.42 L118.59 -10.48 Z" fill="url(#tp-springer-llncs-wall-1)"/><path d="M139.9 261.52 L314.33 274.47 L314.33 73.95 L139.9 61 Z" fill="url(#tp-springer-llncs-window-2)"/><rect x="225.41" y="61" width="3.4" height="200.52" fill="#FFFFFF" opacity="0.72"/><rect x="139.9" y="161.26" width="174.43" height="2.6" fill="#FFFFFF" opacity="0.55"/><path d="M502.35 230.09 L755.28 248.86 L746.53 256.76 L493.6 237.99 Z" fill="#c7a684"/><path d="M493.6 248.51 L746.53 267.28 L746.53 256.76 L493.6 237.99 Z" fill="#8d6a48"/><path d="M509.18 236.7 L519.64 237.48 L519.64 171.75 L509.18 170.97 Z" fill="#451c88"/><path d="M519.64 237.48 L517.14 239.74 L517.14 174.01 L519.64 171.75 Z" fill="#321462"/><path d="M524.88 237.87 L537.52 238.81 L537.52 186.22 L524.88 185.29 Z" fill="#094a3d"/><path d="M537.52 238.81 L535.02 241.07 L535.02 188.48 L537.52 186.22 Z" fill="#06352c"/><path d="M542.76 239.2 L557.58 240.3 L557.58 174.57 L542.76 173.47 Z" fill="#7b3e14"/><path d="M557.58 240.3 L555.08 242.55 L555.08 176.82 L557.58 174.57 Z" fill="#592d0e"/><path d="M562.82 240.69 L573.28 241.46 L573.28 188.88 L562.82 188.1 Z" fill="#0f6864"/><path d="M573.28 241.46 L570.78 243.72 L570.78 191.14 L573.28 188.88 Z" fill="#0b4b48"/><path d="M578.52 241.85 L591.16 242.79 L591.16 177.06 L578.52 176.12 Z" fill="#553d62"/><path d="M591.16 242.79 L588.66 245.05 L588.66 179.32 L591.16 177.06 Z" fill="#3d2c47"/><path d="M596.4 243.18 L611.22 244.28 L611.22 191.69 L596.4 190.59 Z" fill="#1c4aca"/><path d="M611.22 244.28 L608.72 246.54 L608.72 193.95 L611.22 191.69 Z" fill="#143591"/><path d="M616.46 244.67 L626.92 245.44 L626.92 179.71 L616.46 178.94 Z" fill="#783813"/><path d="M626.92 245.44 L624.42 247.7 L624.42 181.97 L626.92 179.71 Z" fill="#56280e"/><path d="M632.16 245.83 L644.8 246.77 L644.8 194.19 L632.16 193.25 Z" fill="#165c8f"/><path d="M644.8 246.77 L642.3 249.03 L642.3 196.44 L644.8 194.19 Z" fill="#104267"/><path d="M650.03 247.16 L664.86 248.26 L664.86 182.53 L650.03 181.43 Z" fill="#451c88"/><path d="M664.86 248.26 L662.36 250.52 L662.36 184.79 L664.86 182.53 Z" fill="#321462"/><path d="M670.09 248.65 L680.56 249.42 L680.56 196.84 L670.09 196.06 Z" fill="#094a3d"/><path d="M680.56 249.42 L678.06 251.68 L678.06 199.1 L680.56 196.84 Z" fill="#06352c"/><path d="M685.79 249.81 L698.44 250.75 L698.44 185.02 L685.79 184.08 Z" fill="#7b3e14"/><path d="M698.44 250.75 L695.94 253.01 L695.94 187.28 L698.44 185.02 Z" fill="#592d0e"/><path d="M703.67 251.14 L718.5 252.24 L718.5 199.66 L703.67 198.55 Z" fill="#0f6864"/><path d="M718.5 252.24 L716 254.5 L716 201.91 L718.5 199.66 Z" fill="#0b4b48"/><path d="M502.35 156.82 L755.28 175.59 L746.53 183.49 L493.6 164.72 Z" fill="#c7a684"/><path d="M493.6 175.24 L746.53 194.01 L746.53 183.49 L493.6 164.72 Z" fill="#8d6a48"/><path d="M518.54 159.25 L592.68 164.75 L586.42 170.39 L512.29 164.89 Z" fill="#451c88"/><path d="M605.76 165.72 L662.45 169.93 L656.2 175.57 L599.51 171.36 Z" fill="#3a8380"/><path d="M133.54 378.69 L744.06 424 L646.52 512.04 L36 466.73 Z" fill="url(#tp-springer-llncs-desk-3)"/><path d="M36 497.4 L646.52 542.71 L646.52 512.04 L36 466.73 Z" fill="#81643f"/><path d="M646.52 542.71 L744.06 454.67 L744.06 424 L646.52 512.04 Z" fill="#967549"/><g clip-path="url(#tp-springer-llncs-grain-4)"><g transform="matrix(4.36 0.32 -1.25 1.13 133.54 378.69)"><rect x="24" y="9.75" width="92" height="0.6" fill="#8A5A2B" opacity="0.13"/><rect x="6" y="19.5" width="118" height="0.6" fill="#8A5A2B" opacity="0.13"/><rect x="24" y="29.25" width="92" height="0.6" fill="#8A5A2B" opacity="0.13"/><rect x="6" y="39" width="118" height="0.6" fill="#8A5A2B" opacity="0.13"/><rect x="24" y="48.75" width="92" height="0.6" fill="#8A5A2B" opacity="0.13"/><rect x="6" y="58.5" width="118" height="0.6" fill="#8A5A2B" opacity="0.13"/><rect x="24" y="68.25" width="92" height="0.6" fill="#8A5A2B" opacity="0.13"/></g></g><path d="M241.7 402.11 L240.21 76.91 L252.18 76.34 L253.66 401.53 Z" fill="#a77647"/><path d="M381.11 412.45 L382.59 87.48 L394.56 86.9 L393.07 411.88 Z" fill="#744e2e"/><path d="M315.17 400.48 L315.17 42.53 L336.1 44.08 L336.1 402.03 Z" fill="#865e39"/><path d="M201.62 395.08 L511.41 418.07 L481.4 445.16 L171.61 422.17 Z" fill="url(#tp-springer-llncs-shadow-5)"/><path d="M423.06 76.2 L424.9 73.18 L424.9 342.18 L423.06 345.19 Z" fill="#0F172A24"/><path d="M223.41 68 L422.35 76.16 L422.35 345.15 L223.41 336.99 Z" fill="#f7f7f7" stroke="#0F172A24"/><g clip-path="url(#tp-springer-llncs-board-6)"><g transform="matrix(0.57 0.02 0 0.56 230.71 76.05)"><rect width="320" height="452.57" fill="#FFFFFF"/><rect x="0.5" y="0.5" width="319" height="451.57" fill="none" stroke="#0F172A1f"/><text x="27.2" y="37.63" font-size="6.81" font-family="Helvetica, Arial, sans-serif" font-weight="700" letter-spacing="0.65" fill="#111827">SPRINGER</text><rect x="27.2" y="41.68" width="265.6" height="1" fill="#111827"/><text x="160" y="49.65" font-family="Helvetica, Arial, sans-serif" font-size="8.24" fill="#0F172A" font-weight="700" opacity="0.95" text-anchor="middle">Highly Accurate Protein Structure Prediction</text><text x="160" y="59.2" font-family="Helvetica, Arial, sans-serif" font-size="8.24" fill="#0F172A" font-weight="700" opacity="0.95" text-anchor="middle">with AlphaFold</text><text x="160" y="72.3" font-family="Helvetica, Arial, sans-serif" font-size="2.81" fill="#111827e6" text-anchor="middle">John Jumper, Richard Evans, Alexander Pritzel, Tim Green, Demis Hassabis, et al. (DeepMind)</text><text x="160" y="76.51" font-family="Helvetica, Arial, sans-serif" font-size="2.53" fill="#0F172A80" text-anchor="middle">Nature 596, 583–589 (2021)</text><text x="36.5" y="90.76" font-family="Helvetica, Arial, sans-serif" font-size="5.46" fill="#111827" font-weight="700" opacity="0.9">Abstract</text><text x="36.5" y="99.79" font-family="Helvetica, Arial, sans-serif" font-size="4.04" fill="#0F172Aa8">Proteins are essential to life, and understanding their structure can provide key insights into their function.</text><text x="36.5" y="107.39" font-family="Helvetica, Arial, sans-serif" font-size="4.04" fill="#0F172Aa8">Despite decades of effort, determining protein structures experimentally has remained laborious and costly. Here we</text><text x="36.5" y="114.99" font-family="Helvetica, Arial, sans-serif" font-size="4.04" fill="#0F172Aa8">demonstrate AlphaFold 2, a computational method that predicts protein 3D structures with atomic accuracy even when no</text><text x="36.5" y="122.6" font-family="Helvetica, Arial, sans-serif" font-size="4.04" fill="#0F172Aa8">homologous structure is known. Validated blindly at the 14th Critical Assessment of Structure Prediction (CASP14), ou…</text><text x="27.2" y="141.52" font-family="Helvetica, Arial, sans-serif" font-size="7.97" fill="#111827" font-weight="700" opacity="0.9">1  Introduction &amp; The 50-Year Grand Challenge</text><text x="27.2" y="152.27" font-family="Helvetica, Arial, sans-serif" font-size="4.38" fill="#0F172Aad">Since Christian Anfinsen&apos;s 1972 Nobel lecture postulating that amino acid sequence uniquely determines 3D native</text><text x="27.2" y="158.85" font-family="Helvetica, Arial, sans-serif" font-size="4.38" fill="#0F172Aad">structure, computational protein folding has represented a central challenge in structural biology. AlphaFold 2</text><text x="27.2" y="165.42" font-family="Helvetica, Arial, sans-serif" font-size="4.38" fill="#0F172Aad">resolves this bottleneck by integrating deep learning directly with physical and evolutionary constraints,…</text><rect x="27.2" y="173.75" width="265.6" height="15.13" rx="2" fill="#1A56DB29"/><text x="27.2" y="183.54" font-family="Helvetica, Arial, sans-serif" font-size="7.97" fill="#111827" font-weight="700" opacity="0.9">2  Evolutionary Covariation &amp; MSA Processing</text><text x="27.2" y="194.3" font-family="Helvetica, Arial, sans-serif" font-size="4.38" fill="#0F172Aad">Co-variation between amino acid positions across evolution reflects spatial contact constraints in the folded</text><text x="27.2" y="200.87" font-family="Helvetica, Arial, sans-serif" font-size="4.38" fill="#0F172Aad">structure. AlphaFold constructs multiple sequence alignments (MSAs) containing up to 16,384 homologous sequences</text><text x="27.2" y="207.45" font-family="Helvetica, Arial, sans-serif" font-size="4.38" fill="#0F172Aad">extracted from UniRef90 and BFD. Rather than summarizing the MSA into a static covariance matrix, the MSA…</text><text x="27.2" y="225.57" font-family="Helvetica, Arial, sans-serif" font-size="7.97" fill="#111827" font-weight="700" opacity="0.9">3  The Evoformer Architecture</text><text x="27.2" y="236.33" font-family="Helvetica, Arial, sans-serif" font-size="4.38" fill="#0F172Aad">The Evoformer block consists of 48 stacked transformer-like layers that exchange information bidirectionally between</text><text x="27.2" y="242.9" font-family="Helvetica, Arial, sans-serif" font-size="4.38" fill="#0F172Aad">the MSA representation (s x r) and pair representation (r x r). It incorporates axial self-attention, outer-product</text><text x="27.2" y="249.48" font-family="Helvetica, Arial, sans-serif" font-size="4.38" fill="#0F172Aad">mean pooling, and triangle updates (multiplicative updates and triangle self-attention) that enforce geometric…</text><text x="27.2" y="267.6" font-family="Helvetica, Arial, sans-serif" font-size="7.97" fill="#111827" font-weight="700" opacity="0.9">4  Invariant Point Attention (IPA) Structure Module</text><text x="27.2" y="278.36" font-family="Helvetica, Arial, sans-serif" font-size="4.38" fill="#0F172Aad">The Structure Module operates directly on 3D Euclidean coordinates using rigid-body frames for each residue backbone</text><text x="27.2" y="284.93" font-family="Helvetica, Arial, sans-serif" font-size="4.38" fill="#0F172Aad">(R_i, x_i) in SE(3). Invariant Point Attention (IPA) computes attention over coordinate frames that are invariant</text><text x="27.2" y="291.51" font-family="Helvetica, Arial, sans-serif" font-size="4.38" fill="#0F172Aad">under global rotations and translations, iteratively updating residue orientations and positions without generating…</text><text x="27.2" y="309.63" font-family="Helvetica, Arial, sans-serif" font-size="7.97" fill="#111827" font-weight="700" opacity="0.9">5  CASP14 Blind Assessment Performance</text><text x="27.2" y="320.39" font-family="Helvetica, Arial, sans-serif" font-size="4.38" fill="#0F172Aad">In the CASP14 blind assessment, AlphaFold 2 placed first among all participating groups by an unprecedented margin,</text><text x="27.2" y="326.96" font-family="Helvetica, Arial, sans-serif" font-size="4.38" fill="#0F172Aad">achieving high-accuracy predictions across both template-based modeling (TBM) and free modeling (FM) categories.</text><rect x="27.2" y="335.29" width="265.6" height="15.13" rx="2" fill="#1A56DB29"/><text x="27.2" y="351.66" font-family="Helvetica, Arial, sans-serif" font-size="7.97" fill="#111827" font-weight="700" opacity="0.9">6  Comparative Benchmark on Difficult Targets</text><text x="27.2" y="362.42" font-family="Helvetica, Arial, sans-serif" font-size="4.38" fill="#0F172Aad">Comparison on CASP14 Free Modeling (FM) targets with no known structural homologs:</text><text x="27.2" y="436.25" font-family="Helvetica, Arial, sans-serif" font-size="2.26" fill="#0F172A73">Highly Accurate Protein Structure Prediction with AlphaFold</text><text x="292.8" y="436.25" font-family="Helvetica, Arial, sans-serif" font-size="2.26" fill="#0F172A73">1</text></g></g><circle cx="241.06" cy="66.93" r="2.6" fill="#111827eb"/><circle cx="403.7" cy="79" r="2.6" fill="#111827eb"/><path d="M214.96 337.95 L420.8 353.23 L425.8 348.71 L219.96 333.43 Z" fill="#b9916c"/><path d="M214.96 348.03 L420.8 363.3 L420.8 353.23 L214.96 337.95 Z" fill="#744e2e"/><path d="M658.4 420.73 L752.28 427.69 L727.43 450.12 L633.55 443.16 Z" fill="url(#tp-springer-llncs-shadow-7)"/><path d="M669.89 430.71 L706 433.39 L706 401.14 L669.89 398.46 Z" fill="#b27354"/><path d="M674.55 394.25 L710.66 396.93 L701.34 405.34 L665.23 402.66 Z" fill="#8e5c43"/><path d="M687.94 399.8 Q662.48 382.67 651.03 373.55 Q676.48 382.67 687.94 399.8" fill="#294f35" opacity="0.96"/><path d="M687.94 399.8 Q664.55 375.15 655.15 358.49 Q678.55 375.15 687.94 399.8" fill="#366947" opacity="0.96"/><path d="M687.94 399.8 Q670.23 368.28 666.53 344.75 Q684.23 368.28 687.94 399.8" fill="#294f35" opacity="0.96"/><path d="M687.94 399.8 Q679.37 363.41 684.8 335.03 Q693.37 363.41 687.94 399.8" fill="#366947" opacity="0.96"/><path d="M687.94 399.8 Q686.41 376.84 698.88 361.88 Q700.41 376.84 687.94 399.8" fill="#294f35" opacity="0.96"/><path d="M687.94 399.8 Q695.06 376.85 716.17 361.9 Q709.06 376.85 687.94 399.8" fill="#366947" opacity="0.96"/><path d="M687.94 399.8 Q704.48 380.21 735.01 368.61 Q718.48 380.21 687.94 399.8" fill="#294f35" opacity="0.96"/><path d="M147.36 422.85 L199.25 426.7 L184.37 440.13 L132.48 436.28 Z" fill="url(#tp-springer-llncs-shadow-8)"/><path d="M146.75 428.53 L177.28 430.79 L177.28 403.63 L146.75 401.36 Z" fill="#8dabed"/><path d="M151.13 397.41 L181.65 399.68 L172.9 407.58 L142.37 405.31 Z" fill="#bbcdf4"/><path d="M152.97 399.21 L175.87 400.91 L171.05 405.25 L148.16 403.55 Z" fill="#4A2C16"/><path d="M165.49 416.73 q10 -3 10 4.5 q0 6.5 -10 3" fill="none" stroke="#8dabed" stroke-width="2.4"/><path d="M558.45 422.61 L728.52 435.23 L687.71 472.07 L517.63 459.45 Z" fill="url(#tp-springer-llncs-shadow-9)"/><path d="M592.75 415.53 L702.86 436.24 L648.46 455.62 L538.36 434.91 Z" fill="#949aa5"/><path d="M538.36 434.91 L648.46 455.62 L648.46 461.75 L538.36 441.05 Z" fill="#565960"/><path d="M587.18 422.58 L681.87 440.39 L654.68 450.08 L559.98 432.27 Z" fill="#737881"/><g clip-path="url(#tp-springer-llncs-keys-10)"><g transform="matrix(3.67 0.69 -2.67 0.95 587.18 422.58)"><rect x="1.8" y="0.61" width="26.4" height="1.22" rx="0.24" fill="#FFFFFF" opacity="0.22"/><rect x="1.8" y="2.65" width="26.4" height="1.22" rx="0.24" fill="#FFFFFF" opacity="0.22"/><rect x="1.8" y="4.69" width="26.4" height="1.22" rx="0.24" fill="#FFFFFF" opacity="0.22"/><rect x="1.8" y="6.73" width="26.4" height="1.22" rx="0.24" fill="#FFFFFF" opacity="0.22"/><rect x="1.8" y="8.77" width="26.4" height="1.22" rx="0.24" fill="#FFFFFF" opacity="0.22"/></g></g><path d="M612.56 436.66 L645.59 442.87 L632.53 447.52 L599.5 441.31 Z" fill="#a7acb5"/><path d="M602.83 343.03 L708.53 362.9 L701.03 435.49 L595.33 415.61 Z" fill="#0b101d"/><g clip-path="url(#tp-springer-llncs-screen-11)"><g transform="matrix(0.33 0.06 -0.04 0.4 602.46 343.37)"><rect x="0" y="0" width="320" height="180" fill="#0F172A"/><rect x="0" y="163.8" width="320" height="16.2" fill="#2D3748"/><text x="160" y="54" font-family="Helvetica, Arial, sans-serif" font-size="20.7" fill="#FFFFFF" font-weight="700" opacity="0.97" text-anchor="middle">Protein Structure</text><text x="160" y="79.67" font-family="Helvetica, Arial, sans-serif" font-size="20.7" fill="#FFFFFF" font-weight="700" opacity="0.97" text-anchor="middle">Prediction with</text><text x="160" y="105.34" font-family="Helvetica, Arial, sans-serif" font-size="20.7" fill="#FFFFFF" font-weight="700" opacity="0.97" text-anchor="middle">AlphaFold</text><rect x="134.4" y="111.6" width="51.2" height="3.6" fill="#2D3748"/><text x="160" y="136.8" font-family="Helvetica, Arial, sans-serif" font-size="11.16" fill="#FFFFFF" opacity="0.6" text-anchor="middle">John Jumper, Richard Evans, Alexander…</text><text x="160" y="158.4" font-family="Helvetica, Arial, sans-serif" font-size="4.91" fill="#FFFFFF" opacity="0.42" text-anchor="middle">Nature 596, 583–589 (2021)</text></g></g><path d="M159.28 438.27 L262.88 450.21 L197.67 488.12 L94.06 476.19 Z" fill="#2417082e"/><path d="M156.41 433.97 L260.02 445.9 L194.81 483.82 L91.2 471.88 Z" fill="url(#tp-springer-llncs-page-12)" stroke="#0F172A1f"/><g clip-path="url(#tp-springer-llncs-sheet-13)"><g transform="matrix(0.32 0.04 -0.14 0.08 156.41 433.97)"><rect width="320" height="452.41" fill="#FFFFFF"/><rect x="0.5" y="0.5" width="319" height="451.41" fill="none" stroke="#0F172A24"/><rect x="11.2" y="11.2" width="297.6" height="54.29" rx="12" fill="#4F46E5"/><text x="160" y="34" font-family="Helvetica, Arial, sans-serif" font-size="8.41" fill="#FFFFFF" font-weight="700" opacity="0.97" text-anchor="middle">Highly Accurate Protein Structure Prediction with AlphaFold</text><text x="160" y="60.06" font-family="Helvetica, Arial, sans-serif" font-size="3.96" fill="#FFFFFF" opacity="0.75" text-anchor="middle">John Jumper, Richard Evans, Alexander Pritzel, Tim Green, Demis Hassabis, et al. (DeepMind)</text><rect x="11.2" y="71.49" width="94.84" height="118.31" rx="6" fill="#4F46E50a" stroke="#4F46E547"/><text x="16.89" y="88.05" font-family="Helvetica, Arial, sans-serif" font-size="8.28" fill="#4F46E5" font-weight="700" opacity="0.95">The 50-Year…</text><rect x="15.94" y="93.38" width="85.35" height="2.6" fill="#4F46E5"/><text x="16.89" y="110.53" font-family="Helvetica, Arial, sans-serif" font-size="6.86" fill="#0F172A9e">Proteins fold into…</text><text x="16.89" y="125.91" font-family="Helvetica, Arial, sans-serif" font-size="6.86" fill="#0F172A9e">Levinthal Paradox:…</text><text x="16.89" y="141.29" font-family="Helvetica, Arial, sans-serif" font-size="6.86" fill="#0F172A9e">CASP Stagnation:…</text><text x="16.89" y="156.67" font-family="Helvetica, Arial, sans-serif" font-size="6.86" fill="#0F172A9e">Atomic Breakthrough:…</text><rect x="11.2" y="197.2" width="94.84" height="118.31" rx="6" fill="#4F46E50a" stroke="#4F46E547"/><text x="16.89" y="213.76" font-family="Helvetica, Arial, sans-serif" font-size="8.28" fill="#4F46E5" font-weight="700" opacity="0.95">Evolutionary…</text><rect x="15.94" y="219.08" width="85.35" height="2.6" fill="#4F46E5"/><text x="16.89" y="236.24" font-family="Helvetica, Arial, sans-serif" font-size="6.86" fill="#0F172A9e">Homology Mining: Deep…</text><text x="16.89" y="251.62" font-family="Helvetica, Arial, sans-serif" font-size="6.86" fill="#0F172A9e">Co-Mutation Patterns:…</text><text x="16.89" y="267" font-family="Helvetica, Arial, sans-serif" font-size="6.86" fill="#0F172A9e">Information Retention:…</text><text x="16.89" y="282.38" font-family="Helvetica, Arial, sans-serif" font-size="6.86" fill="#0F172A9e">Multiple Alignments:…</text><rect x="11.2" y="322.9" width="94.84" height="118.31" rx="6" fill="#4F46E50a" stroke="#4F46E547"/><text x="16.89" y="339.47" font-family="Helvetica, Arial, sans-serif" font-size="8.28" fill="#4F46E5" font-weight="700" opacity="0.95">CASP14 Breakthrou…</text><rect x="15.94" y="344.79" width="85.35" height="2.6" fill="#4F46E5"/><text x="16.89" y="361.94" font-family="Helvetica, Arial, sans-serif" font-size="6.86" fill="#0F172A9e">92.4 GDT Overall…</text><text x="16.89" y="377.33" font-family="Helvetica, Arial, sans-serif" font-size="6.86" fill="#0F172A9e">0.96 Å Backbone Cα…</text><text x="16.89" y="392.71" font-family="Helvetica, Arial, sans-serif" font-size="6.86" fill="#0F172A9e">48 Blocks Evoformer…</text><text x="16.89" y="408.09" font-family="Helvetica, Arial, sans-serif" font-size="6.86" fill="#0F172A9e">200M+ Predicted…</text><rect x="112.58" y="71.49" width="94.84" height="181.16" rx="6" fill="#4F46E50a" stroke="#4F46E547"/><text x="118.27" y="96.85" font-family="Helvetica, Arial, sans-serif" font-size="12.68" fill="#4F46E5" font-weight="700" opacity="0.95">Evoformer…</text><rect x="117.32" y="105.01" width="85.35" height="3.99" fill="#4F46E5"/><rect x="116.38" y="116.78" width="26.55" height="36.23" rx="3" fill="#4F46E51f"/><text x="129.65" y="141.24" font-family="Helvetica, Arial, sans-serif" font-size="9.96" fill="#4F46E5" font-weight="700" opacity="0.95" text-anchor="middle">End-to-End…</text><rect x="144.83" y="116.78" width="26.55" height="36.23" rx="3" fill="#4F46E51f"/><text x="158.1" y="141.24" font-family="Helvetica, Arial, sans-serif" font-size="9.96" fill="#4F46E5" font-weight="700" opacity="0.95" text-anchor="middle">Dual Representa…</text><rect x="173.28" y="116.78" width="26.55" height="36.23" rx="3" fill="#4F46E51f"/><text x="186.55" y="141.24" font-family="Helvetica, Arial, sans-serif" font-size="9.96" fill="#4F46E5" font-weight="700" opacity="0.95" text-anchor="middle">Triangular…</text><text x="118.27" y="176.57" font-family="Helvetica, Arial, sans-serif" font-size="10.51" fill="#0F172A9e">End-to-End…</text><text x="118.27" y="200.12" font-family="Helvetica, Arial, sans-serif" font-size="10.51" fill="#0F172A9e">Dual Representat…</text><text x="118.27" y="223.67" font-family="Helvetica, Arial, sans-serif" font-size="10.51" fill="#0F172A9e">Triangular…</text><rect x="112.58" y="260.05" width="94.84" height="181.16" rx="6" fill="#4F46E50a" stroke="#4F46E547"/><text x="118.27" y="285.41" font-family="Helvetica, Arial, sans-serif" font-size="12.68" fill="#4F46E5" font-weight="700" opacity="0.95">Invariant…</text><rect x="117.32" y="293.56" width="85.35" height="3.99" fill="#4F46E5"/><text x="118.27" y="319.83" font-family="Helvetica, Arial, sans-serif" font-size="10.51" fill="#0F172A9e">3D Rigid Body…</text><text x="118.27" y="343.38" font-family="Helvetica, Arial, sans-serif" font-size="10.51" fill="#0F172A9e">Coordinate…</text><text x="118.27" y="366.94" font-family="Helvetica, Arial, sans-serif" font-size="10.51" fill="#0F172A9e">Torsion Angle…</text><text x="118.27" y="390.49" font-family="Helvetica, Arial, sans-serif" font-size="10.51" fill="#0F172A9e">Iterative…</text><rect x="213.96" y="71.49" width="94.84" height="118.31" rx="6" fill="#4F46E50a" stroke="#4F46E547"/><text x="219.65" y="88.05" font-family="Helvetica, Arial, sans-serif" font-size="8.28" fill="#4F46E5" font-weight="700" opacity="0.95">CASP14 Blind…</text><rect x="218.71" y="93.38" width="85.35" height="2.6" fill="#4F46E5"/><text x="219.65" y="110.53" font-family="Helvetica, Arial, sans-serif" font-size="6.86" fill="#0F172A9e">Dominance Across…</text><text x="219.65" y="125.91" font-family="Helvetica, Arial, sans-serif" font-size="6.86" fill="#0F172A9e">Free-Modeling (FM):…</text><text x="219.65" y="141.29" font-family="Helvetica, Arial, sans-serif" font-size="6.86" fill="#0F172A9e">Side-Chain Fidelity:…</text><text x="219.65" y="156.67" font-family="Helvetica, Arial, sans-serif" font-size="6.86" fill="#0F172A9e">Global Topology…</text><rect x="219.65" y="166.14" width="83.45" height="33.13" rx="2" fill="#0284C72e"/><rect x="213.96" y="197.2" width="94.84" height="118.31" rx="6" fill="#4F46E50a" stroke="#4F46E547"/><text x="219.65" y="213.76" font-family="Helvetica, Arial, sans-serif" font-size="8.28" fill="#4F46E5" font-weight="700" opacity="0.95">CASP14 Competitiv…</text><rect x="218.71" y="219.08" width="85.35" height="2.6" fill="#4F46E5"/><text x="219.65" y="236.24" font-family="Helvetica, Arial, sans-serif" font-size="6.86" fill="#0F172A9e">Comparison with…</text><rect x="213.96" y="322.9" width="94.84" height="118.31" rx="6" fill="#4F46E50a" stroke="#4F46E547"/><text x="219.65" y="339.47" font-family="Helvetica, Arial, sans-serif" font-size="8.28" fill="#4F46E5" font-weight="700" opacity="0.95">Global Life…</text><rect x="218.71" y="344.79" width="85.35" height="2.6" fill="#4F46E5"/><text x="219.65" y="361.94" font-family="Helvetica, Arial, sans-serif" font-size="6.86" fill="#0F172A9e">Human Proteome…</text><text x="219.65" y="377.33" font-family="Helvetica, Arial, sans-serif" font-size="6.86" fill="#0F172A9e">Rational Drug…</text><text x="219.65" y="392.71" font-family="Helvetica, Arial, sans-serif" font-size="6.86" fill="#0F172A9e">Protein Design &amp;…</text><text x="219.65" y="408.09" font-family="Helvetica, Arial, sans-serif" font-size="6.86" fill="#0F172A9e">PDB Expansion:…</text></g></g><path d="M444.02 469.23 L534.08 472.1 L518.44 505.06 L428.38 502.2 Z" fill="#2417082e"/><path d="M441.16 464.93 L531.22 467.79 L515.58 500.75 L425.52 497.89 Z" fill="url(#tp-springer-llncs-page-14)" stroke="#0F172A1f"/><g clip-path="url(#tp-springer-llncs-sheet-15)"><g transform="matrix(0.28 0.01 -0.03 0.07 441.16 464.93)"><rect width="320" height="452.57" fill="#FFFFFF"/><rect x="0.5" y="0.5" width="319" height="451.57" fill="none" stroke="#0F172A1f"/><text x="27.2" y="37.63" font-size="6.81" font-family="Helvetica, Arial, sans-serif" font-weight="700" letter-spacing="0.65" fill="#111827">SPRINGER</text><rect x="27.2" y="41.68" width="265.6" height="1" fill="#111827"/><text x="160" y="49.65" font-family="Helvetica, Arial, sans-serif" font-size="8.24" fill="#0F172A" font-weight="700" opacity="0.95" text-anchor="middle">Highly Accurate Protein Structure Prediction</text><text x="160" y="59.2" font-family="Helvetica, Arial, sans-serif" font-size="8.24" fill="#0F172A" font-weight="700" opacity="0.95" text-anchor="middle">with AlphaFold</text><text x="160" y="72.3" font-family="Helvetica, Arial, sans-serif" font-size="2.81" fill="#111827e6" text-anchor="middle">John Jumper, Richard Evans, Alexander Pritzel, Tim Green, Demis Hassabis, et al. (DeepMind)</text><text x="160" y="76.51" font-family="Helvetica, Arial, sans-serif" font-size="2.53" fill="#0F172A80" text-anchor="middle">Nature 596, 583–589 (2021)</text><text x="36.5" y="90.76" font-family="Helvetica, Arial, sans-serif" font-size="5.46" fill="#111827" font-weight="700" opacity="0.9">Abstract</text><text x="36.5" y="99.79" font-family="Helvetica, Arial, sans-serif" font-size="4.04" fill="#0F172Aa8">Proteins are essential to life, and understanding their structure can provide key insights into their function.</text><text x="36.5" y="107.39" font-family="Helvetica, Arial, sans-serif" font-size="4.04" fill="#0F172Aa8">Despite decades of effort, determining protein structures experimentally has remained laborious and costly. Here we</text><text x="36.5" y="114.99" font-family="Helvetica, Arial, sans-serif" font-size="4.04" fill="#0F172Aa8">demonstrate AlphaFold 2, a computational method that predicts protein 3D structures with atomic accuracy even when no</text><text x="36.5" y="122.6" font-family="Helvetica, Arial, sans-serif" font-size="4.04" fill="#0F172Aa8">homologous structure is known. Validated blindly at the 14th Critical Assessment of Structure Prediction (CASP14), ou…</text><text x="27.2" y="141.52" font-family="Helvetica, Arial, sans-serif" font-size="7.97" fill="#111827" font-weight="700" opacity="0.9">1  Introduction &amp; The 50-Year Grand Challenge</text><text x="27.2" y="152.27" font-family="Helvetica, Arial, sans-serif" font-size="4.38" fill="#0F172Aad">Since Christian Anfinsen&apos;s 1972 Nobel lecture postulating that amino acid sequence uniquely determines 3D native</text><text x="27.2" y="158.85" font-family="Helvetica, Arial, sans-serif" font-size="4.38" fill="#0F172Aad">structure, computational protein folding has represented a central challenge in structural biology. AlphaFold 2</text><text x="27.2" y="165.42" font-family="Helvetica, Arial, sans-serif" font-size="4.38" fill="#0F172Aad">resolves this bottleneck by integrating deep learning directly with physical and evolutionary constraints,…</text><rect x="27.2" y="173.75" width="265.6" height="15.13" rx="2" fill="#1A56DB29"/><text x="27.2" y="183.54" font-family="Helvetica, Arial, sans-serif" font-size="7.97" fill="#111827" font-weight="700" opacity="0.9">2  Evolutionary Covariation &amp; MSA Processing</text><text x="27.2" y="194.3" font-family="Helvetica, Arial, sans-serif" font-size="4.38" fill="#0F172Aad">Co-variation between amino acid positions across evolution reflects spatial contact constraints in the folded</text><text x="27.2" y="200.87" font-family="Helvetica, Arial, sans-serif" font-size="4.38" fill="#0F172Aad">structure. AlphaFold constructs multiple sequence alignments (MSAs) containing up to 16,384 homologous sequences</text><text x="27.2" y="207.45" font-family="Helvetica, Arial, sans-serif" font-size="4.38" fill="#0F172Aad">extracted from UniRef90 and BFD. Rather than summarizing the MSA into a static covariance matrix, the MSA…</text><text x="27.2" y="225.57" font-family="Helvetica, Arial, sans-serif" font-size="7.97" fill="#111827" font-weight="700" opacity="0.9">3  The Evoformer Architecture</text><text x="27.2" y="236.33" font-family="Helvetica, Arial, sans-serif" font-size="4.38" fill="#0F172Aad">The Evoformer block consists of 48 stacked transformer-like layers that exchange information bidirectionally between</text><text x="27.2" y="242.9" font-family="Helvetica, Arial, sans-serif" font-size="4.38" fill="#0F172Aad">the MSA representation (s x r) and pair representation (r x r). It incorporates axial self-attention, outer-product</text><text x="27.2" y="249.48" font-family="Helvetica, Arial, sans-serif" font-size="4.38" fill="#0F172Aad">mean pooling, and triangle updates (multiplicative updates and triangle self-attention) that enforce geometric…</text><text x="27.2" y="267.6" font-family="Helvetica, Arial, sans-serif" font-size="7.97" fill="#111827" font-weight="700" opacity="0.9">4  Invariant Point Attention (IPA) Structure Module</text><text x="27.2" y="278.36" font-family="Helvetica, Arial, sans-serif" font-size="4.38" fill="#0F172Aad">The Structure Module operates directly on 3D Euclidean coordinates using rigid-body frames for each residue backbone</text><text x="27.2" y="284.93" font-family="Helvetica, Arial, sans-serif" font-size="4.38" fill="#0F172Aad">(R_i, x_i) in SE(3). Invariant Point Attention (IPA) computes attention over coordinate frames that are invariant</text><text x="27.2" y="291.51" font-family="Helvetica, Arial, sans-serif" font-size="4.38" fill="#0F172Aad">under global rotations and translations, iteratively updating residue orientations and positions without generating…</text><text x="27.2" y="309.63" font-family="Helvetica, Arial, sans-serif" font-size="7.97" fill="#111827" font-weight="700" opacity="0.9">5  CASP14 Blind Assessment Performance</text><text x="27.2" y="320.39" font-family="Helvetica, Arial, sans-serif" font-size="4.38" fill="#0F172Aad">In the CASP14 blind assessment, AlphaFold 2 placed first among all participating groups by an unprecedented margin,</text><text x="27.2" y="326.96" font-family="Helvetica, Arial, sans-serif" font-size="4.38" fill="#0F172Aad">achieving high-accuracy predictions across both template-based modeling (TBM) and free modeling (FM) categories.</text><rect x="27.2" y="335.29" width="265.6" height="15.13" rx="2" fill="#1A56DB29"/><text x="27.2" y="351.66" font-family="Helvetica, Arial, sans-serif" font-size="7.97" fill="#111827" font-weight="700" opacity="0.9">6  Comparative Benchmark on Difficult Targets</text><text x="27.2" y="362.42" font-family="Helvetica, Arial, sans-serif" font-size="4.38" fill="#0F172Aad">Comparison on CASP14 Free Modeling (FM) targets with no known structural homologs:</text><text x="27.2" y="436.25" font-family="Helvetica, Arial, sans-serif" font-size="2.26" fill="#0F172A73">Highly Accurate Protein Structure Prediction with AlphaFold</text><text x="292.8" y="436.25" font-family="Helvetica, Arial, sans-serif" font-size="2.26" fill="#0F172A73">1</text></g></g><path d="M277.36 444.16 L451.8 457.11 L429.29 477.42 L254.86 464.48 Z" fill="url(#tp-springer-llncs-shadow-16)"/><path d="M286.99 440.33 L425.05 451.94 L408.23 465.34 L270.16 453.73 Z" fill="#dbdad8" stroke="#0F172A2e"/><g clip-path="url(#tp-springer-llncs-keys-17)"><g transform="matrix(4.31 0.36 -1.4 1.12 286.99 440.33)"><rect x="1.8" y="1.4" width="2.1" height="1.9" rx="0.4" fill="#FFFFFF" opacity="0.6"/><rect x="4.25" y="1.4" width="2.1" height="1.9" rx="0.4" fill="#FFFFFF" opacity="0.6"/><rect x="6.7" y="1.4" width="2.1" height="1.9" rx="0.4" fill="#FFFFFF" opacity="0.6"/><rect x="9.15" y="1.4" width="2.1" height="1.9" rx="0.4" fill="#FFFFFF" opacity="0.6"/><rect x="11.6" y="1.4" width="2.1" height="1.9" rx="0.4" fill="#FFFFFF" opacity="0.6"/><rect x="14.05" y="1.4" width="2.1" height="1.9" rx="0.4" fill="#FFFFFF" opacity="0.6"/><rect x="16.5" y="1.4" width="2.1" height="1.9" rx="0.4" fill="#FFFFFF" opacity="0.6"/><rect x="18.95" y="1.4" width="2.1" height="1.9" rx="0.4" fill="#FFFFFF" opacity="0.6"/><rect x="21.4" y="1.4" width="2.1" height="1.9" rx="0.4" fill="#FFFFFF" opacity="0.6"/><rect x="23.85" y="1.4" width="2.1" height="1.9" rx="0.4" fill="#FFFFFF" opacity="0.6"/><rect x="26.3" y="1.4" width="2.1" height="1.9" rx="0.4" fill="#FFFFFF" opacity="0.6"/><rect x="28.75" y="1.4" width="2.1" height="1.9" rx="0.4" fill="#FFFFFF" opacity="0.6"/><rect x="1.8" y="3.7" width="2.1" height="1.9" rx="0.4" fill="#FFFFFF" opacity="0.6"/><rect x="4.25" y="3.7" width="2.1" height="1.9" rx="0.4" fill="#FFFFFF" opacity="0.6"/><rect x="6.7" y="3.7" width="2.1" height="1.9" rx="0.4" fill="#FFFFFF" opacity="0.6"/><rect x="9.15" y="3.7" width="2.1" height="1.9" rx="0.4" fill="#FFFFFF" opacity="0.6"/><rect x="11.6" y="3.7" width="2.1" height="1.9" rx="0.4" fill="#FFFFFF" opacity="0.6"/><rect x="14.05" y="3.7" width="2.1" height="1.9" rx="0.4" fill="#FFFFFF" opacity="0.6"/><rect x="16.5" y="3.7" width="2.1" height="1.9" rx="0.4" fill="#FFFFFF" opacity="0.6"/><rect x="18.95" y="3.7" width="2.1" height="1.9" rx="0.4" fill="#FFFFFF" opacity="0.6"/><rect x="21.4" y="3.7" width="2.1" height="1.9" rx="0.4" fill="#FFFFFF" opacity="0.6"/><rect x="23.85" y="3.7" width="2.1" height="1.9" rx="0.4" fill="#FFFFFF" opacity="0.6"/><rect x="26.3" y="3.7" width="2.1" height="1.9" rx="0.4" fill="#FFFFFF" opacity="0.6"/><rect x="28.75" y="3.7" width="2.1" height="1.9" rx="0.4" fill="#FFFFFF" opacity="0.6"/><rect x="1.8" y="6" width="2.1" height="1.9" rx="0.4" fill="#FFFFFF" opacity="0.6"/><rect x="4.25" y="6" width="2.1" height="1.9" rx="0.4" fill="#FFFFFF" opacity="0.6"/><rect x="6.7" y="6" width="2.1" height="1.9" rx="0.4" fill="#FFFFFF" opacity="0.6"/><rect x="9.15" y="6" width="2.1" height="1.9" rx="0.4" fill="#FFFFFF" opacity="0.6"/><rect x="11.6" y="6" width="2.1" height="1.9" rx="0.4" fill="#FFFFFF" opacity="0.6"/><rect x="14.05" y="6" width="2.1" height="1.9" rx="0.4" fill="#FFFFFF" opacity="0.6"/><rect x="16.5" y="6" width="2.1" height="1.9" rx="0.4" fill="#FFFFFF" opacity="0.6"/><rect x="18.95" y="6" width="2.1" height="1.9" rx="0.4" fill="#FFFFFF" opacity="0.6"/><rect x="21.4" y="6" width="2.1" height="1.9" rx="0.4" fill="#FFFFFF" opacity="0.6"/><rect x="23.85" y="6" width="2.1" height="1.9" rx="0.4" fill="#FFFFFF" opacity="0.6"/><rect x="26.3" y="6" width="2.1" height="1.9" rx="0.4" fill="#FFFFFF" opacity="0.6"/><rect x="28.75" y="6" width="2.1" height="1.9" rx="0.4" fill="#FFFFFF" opacity="0.6"/><rect x="1.8" y="8.3" width="2.1" height="1.9" rx="0.4" fill="#FFFFFF" opacity="0.6"/><rect x="4.25" y="8.3" width="2.1" height="1.9" rx="0.4" fill="#FFFFFF" opacity="0.6"/><rect x="6.7" y="8.3" width="2.1" height="1.9" rx="0.4" fill="#FFFFFF" opacity="0.6"/><rect x="9.15" y="8.3" width="2.1" height="1.9" rx="0.4" fill="#FFFFFF" opacity="0.6"/><rect x="11.6" y="8.3" width="2.1" height="1.9" rx="0.4" fill="#FFFFFF" opacity="0.6"/><rect x="14.05" y="8.3" width="2.1" height="1.9" rx="0.4" fill="#FFFFFF" opacity="0.6"/><rect x="16.5" y="8.3" width="2.1" height="1.9" rx="0.4" fill="#FFFFFF" opacity="0.6"/><rect x="18.95" y="8.3" width="2.1" height="1.9" rx="0.4" fill="#FFFFFF" opacity="0.6"/><rect x="21.4" y="8.3" width="2.1" height="1.9" rx="0.4" fill="#FFFFFF" opacity="0.6"/><rect x="23.85" y="8.3" width="2.1" height="1.9" rx="0.4" fill="#FFFFFF" opacity="0.6"/><rect x="26.3" y="8.3" width="2.1" height="1.9" rx="0.4" fill="#FFFFFF" opacity="0.6"/><rect x="28.75" y="8.3" width="2.1" height="1.9" rx="0.4" fill="#FFFFFF" opacity="0.6"/></g></g><path d="M48.68 441.98 L179.5 451.69 L151.99 476.52 L21.17 466.81 Z" fill="url(#tp-springer-llncs-shadow-18)"/><path d="M43 441.1 L151.61 443.06 L146.23 462.98 L37.62 461.01 Z" fill="#5a413c" stroke="#0F172A33"/><path d="M43 438.91 L151.61 440.87 L146.23 460.78 L37.62 458.82 Z" fill="#ece8e0"/><path d="M76.33 457.03 L134.41 454.38 L135.28 455.66 L77.2 458.31 Z" fill="#111620"/><rect width="800" height="600" fill="url(#tp-springer-llncs-warm-19)"/><rect width="800" height="600" fill="url(#tp-springer-llncs-vignette-20)"/></svg>