<svg xmlns="http://www.w3.org/2000/svg" viewBox="0 0 720 480" width="720" height="480" role="img"><rect width="720" height="480" fill="#ffffff"/><text x="40" y="44" font-size="17" font-weight="bold" fill="#111827" font-family="Times New Roman, serif">Weighted result by criterion</text><g><line x1="40" y1="112" x2="66" y2="112" stroke="#b2182b" stroke-width="2.6"/><text x="73" y="116" font-size="12.5" fill="#111827" font-family="Times New Roman, serif">Weighted average</text></g><g><line x1="40" y1="132" x2="66" y2="132" stroke="#2166ac" stroke-width="2.6"/><text x="73" y="136" font-size="12.5" fill="#111827" font-family="Times New Roman, serif">Overall assessment</text></g><text x="40" y="204" font-size="12" fill="#6b7280" font-family="Times New Roman, serif">ECTS A</text><line x1="252" y1="124" x2="582" y2="124" stroke="#cbd5e1" stroke-width="1"/><line x1="252" y1="334" x2="582" y2="334" stroke="#cbd5e1" stroke-width="1"/><text x="240" y="149" font-size="12.5" fill="#111827" text-anchor="end" font-family="Times New Roman, serif">Objectives</text><rect x="252" y="132" width="330" height="26" fill="#f1f5f9"/><rect x="252" y="132" width="313.5" height="26" fill="#b2182b" fill-opacity="0.28"/><rect x="252" y="132" width="15.7" height="26" fill="#b2182b"/><text x="576" y="149" font-size="11.5" fill="#6b7280" text-anchor="end" font-family="Times New Roman, serif">95 %</text><text x="240" y="193" font-size="12.5" fill="#111827" text-anchor="end" font-family="Times New Roman, serif">Method</text><rect x="252" y="176" width="330" height="26" fill="#f1f5f9"/><rect x="252" y="176" width="313.5" height="26" fill="#b2182b" fill-opacity="0.28"/><rect x="252" y="176" width="47.0" height="26" fill="#b2182b"/><text x="576" y="193" font-size="11.5" fill="#6b7280" text-anchor="end" font-family="Times New Roman, serif">95 %</text><text x="240" y="237" font-size="12.5" fill="#111827" text-anchor="end" font-family="Times New Roman, serif">Execution</text><rect x="252" y="220" width="330" height="26" fill="#f1f5f9"/><rect x="252" y="220" width="313.5" height="26" fill="#b2182b" fill-opacity="0.28"/><rect x="252" y="220" width="31.4" height="26" fill="#b2182b"/><text x="576" y="237" font-size="11.5" fill="#6b7280" text-anchor="end" font-family="Times New Roman, serif">95 %</text><text x="240" y="281" font-size="12.5" fill="#111827" text-anchor="end" font-family="Times New Roman, serif">Ethics</text><rect x="252" y="264" width="330" height="26" fill="#f1f5f9"/><rect x="252" y="264" width="313.5" height="26" fill="#b2182b" fill-opacity="0.28"/><rect x="252" y="264" width="15.7" height="26" fill="#b2182b"/><text x="576" y="281" font-size="11.5" fill="#6b7280" text-anchor="end" font-family="Times New Roman, serif">95 %</text><text x="240" y="325" font-size="12.5" fill="#111827" text-anchor="end" font-family="Times New Roman, serif">Limits</text><rect x="252" y="308" width="330" height="26" fill="#f1f5f9"/><rect x="252" y="308" width="280.5" height="26" fill="#b2182b" fill-opacity="0.28"/><rect x="252" y="308" width="14.0" height="26" fill="#b2182b"/><text x="576" y="325" font-size="11.5" fill="#6b7280" text-anchor="end" font-family="Times New Roman, serif">85 %</text><line x1="549.0" y1="106" x2="549.0" y2="348" stroke="#2166ac" stroke-width="2.2" stroke-dasharray="6 4"/><text x="549.0" y="378" font-size="12" fill="#2166ac" text-anchor="middle" font-family="Times New Roman, serif">Overall assessment: 90.0 %</text><text x="680" y="448" font-size="11.5" fill="#6b7280" text-anchor="end" font-family="Times New Roman, serif">Weighted average 90.0 % · ECTS A</text></svg>
